<?xml version="1.0" encoding="UTF-8" standalone="no"?>
<!-- Created with Inkscape (http://www.inkscape.org/) -->

<svg
   xmlns:dc="http://purl.org/dc/elements/1.1/"
   xmlns:cc="http://creativecommons.org/ns#"
   xmlns:rdf="http://www.w3.org/1999/02/22-rdf-syntax-ns#"
   xmlns:svg="http://www.w3.org/2000/svg"
   xmlns="http://www.w3.org/2000/svg"
   xmlns:sodipodi="http://sodipodi.sourceforge.net/DTD/sodipodi-0.dtd"
   xmlns:inkscape="http://www.inkscape.org/namespaces/inkscape"
   width="212.55952mm"
   height="211.6618mm"
   viewBox="0 0 212.55952 211.6618"
   version="1.1"
   id="svg8"
   inkscape:version="0.92.3 (2405546, 2018-03-11)"
   sodipodi:docname="prototype k40.svg">
  <defs
     id="defs2" />
  <sodipodi:namedview
     id="base"
     pagecolor="#ffffff"
     bordercolor="#666666"
     borderopacity="1.0"
     inkscape:pageopacity="0.0"
     inkscape:pageshadow="2"
     inkscape:zoom="0.98994949"
     inkscape:cx="296.56959"
     inkscape:cy="331.56553"
     inkscape:document-units="mm"
     inkscape:current-layer="layer2"
     showgrid="false"
     inkscape:window-width="1920"
     inkscape:window-height="1137"
     inkscape:window-x="1912"
     inkscape:window-y="-8"
     inkscape:window-maximized="1"
     inkscape:snap-global="false"
     fit-margin-top="5"
     fit-margin-right="5"
     fit-margin-bottom="5"
     fit-margin-left="5" />
  <metadata
     id="metadata5">
    <rdf:RDF>
      <cc:Work
         rdf:about="">
        <dc:format>image/svg+xml</dc:format>
        <dc:type
           rdf:resource="http://purl.org/dc/dcmitype/StillImage" />
        <dc:title></dc:title>
      </cc:Work>
    </rdf:RDF>
  </metadata>
  <g
     inkscape:label="Layer 1"
     inkscape:groupmode="layer"
     id="layer1"
     transform="translate(-54.272857,-48.366266)">
    <g
       id="g982"
       transform="matrix(1.3694099,0,0,1.3694099,-47.892648,-59.181931)"
       style="stroke-width:0.73024154">
      <g
         aria-label="No original mechanics."
         style="font-style:normal;font-variant:normal;font-weight:normal;font-stretch:normal;font-size:3.52777767px;line-height:1.25;font-family:Bitter;-inkscape-font-specification:Bitter;letter-spacing:0px;word-spacing:0px;fill:#000000;fill-opacity:1;stroke:none;stroke-width:0.19320972"
         id="text956">
        <path
           d="m 139.46434,196.34662 -1.16417,-1.94381 v 1.66159 l 0.33514,0.0705 v 0.21167 h -0.9525 v -0.21167 l 0.29986,-0.0705 v -1.905 l -0.29986,-0.0706 v -0.19403 l 0.74084,-0.0176 1.16416,1.97203 v -1.6898 l -0.29986,-0.0706 v -0.19403 l 0.91722,-0.0176 v 0.21167 l -0.29986,0.0706 v 2.18722 z"
           style="stroke-width:0.19320972"
           id="path1051"
           inkscape:connector-curvature="0" />
        <path
           d="m 140.46645,195.43998 q 0,-0.22578 0.0635,-0.40922 0.067,-0.18697 0.18697,-0.3175 0.11995,-0.13053 0.28222,-0.20109 0.16581,-0.0705 0.36337,-0.0705 0.39511,0 0.61383,0.25047 0.21872,0.25047 0.21872,0.69497 0,0.21873 -0.0635,0.40217 -0.0635,0.17992 -0.17992,0.31397 -0.11288,0.13053 -0.27869,0.20461 -0.16228,0.0741 -0.36336,0.0741 -0.40217,0 -0.62442,-0.23989 -0.21872,-0.23989 -0.21872,-0.70203 z m 0.88194,-0.71614 q -0.51152,0 -0.51152,0.68792 0,0.68791 0.49389,0.68791 0.25752,0 0.37394,-0.17638 0.11994,-0.17639 0.11994,-0.52917 0,-0.67028 -0.47625,-0.67028 z"
           style="stroke-width:0.19320972"
           id="path1053"
           inkscape:connector-curvature="0" />
        <path
           d="m 143.29143,195.43998 q 0,-0.22578 0.0635,-0.40922 0.067,-0.18697 0.18697,-0.3175 0.11995,-0.13053 0.28222,-0.20109 0.16581,-0.0705 0.36336,-0.0705 0.39512,0 0.61384,0.25047 0.21872,0.25047 0.21872,0.69497 0,0.21873 -0.0635,0.40217 -0.0635,0.17992 -0.17992,0.31397 -0.11289,0.13053 -0.27869,0.20461 -0.16228,0.0741 -0.36336,0.0741 -0.40217,0 -0.62442,-0.23989 -0.21872,-0.23989 -0.21872,-0.70203 z m 0.88194,-0.71614 q -0.51152,0 -0.51152,0.68792 0,0.68791 0.49388,0.68791 0.25753,0 0.37395,-0.17638 0.11994,-0.17639 0.11994,-0.52917 0,-0.67028 -0.47625,-0.67028 z"
           style="stroke-width:0.19320972"
           id="path1055"
           inkscape:connector-curvature="0" />
        <path
           d="m 145.88545,194.4769 0.0318,0.25752 q 0.26105,-0.2928 0.53269,-0.2928 0.14464,0 0.2787,0.0423 l 0.0388,0.0106 -0.0176,0.51152 h -0.2293 l -0.0529,-0.26458 q -0.30339,0 -0.51153,0.27517 v 1.04775 l 0.35278,0.0882 v 0.19403 h -1.00542 v -0.19403 l 0.29987,-0.0882 v -1.30528 l -0.29987,-0.0706 v -0.19402 z"
           style="stroke-width:0.19320972"
           id="path1057"
           inkscape:connector-curvature="0" />
        <path
           d="m 147.40184,193.64787 q 0.22931,0 0.22931,0.26458 0,0.10936 -0.0776,0.16934 -0.0776,0.06 -0.1658,0.06 -0.0952,0 -0.15522,-0.0635 -0.06,-0.067 -0.06,-0.18345 0,-0.11641 0.0635,-0.17991 0.067,-0.067 0.16581,-0.067 z m 0.19403,0.82903 v 1.5875 l 0.26458,0.0882 v 0.19403 h -0.91722 v -0.19403 l 0.29986,-0.0882 v -1.30528 l -0.29986,-0.0706 v -0.19402 z"
           style="stroke-width:0.19320972"
           id="path1059"
           inkscape:connector-curvature="0" />
        <path
           d="m 148.93973,195.78217 q -0.15522,0 -0.26458,-0.0318 l -0.0176,0.33162 h 0.5468 q 0.34573,0 0.52564,0.13052 0.17992,0.13053 0.17992,0.39511 0,0.28575 -0.23283,0.45156 -0.23284,0.16933 -0.68439,0.16933 -0.84667,0 -0.84667,-0.51152 0,-0.22225 0.23636,-0.37748 0.0565,-0.0353 0.13406,-0.0635 -0.0952,-0.0141 -0.15522,-0.067 -0.0564,-0.0529 -0.0564,-0.11995 0,-0.11642 0.13758,-0.33867 l 0.0459,-0.0741 q -0.0317,-0.0106 -0.0882,-0.0635 -0.0529,-0.0529 -0.0882,-0.10583 -0.0952,-0.14817 -0.0952,-0.37747 0,-0.33514 0.20814,-0.51153 0.21166,-0.17639 0.56797,-0.17639 0.19755,0 0.31397,0.0494 l 0.0388,0.0176 0.61736,-0.0141 v 0.19402 l -0.3422,0.0494 q 0.0952,0.127 0.0952,0.35631 0,0.34572 -0.20814,0.51858 -0.20814,0.16933 -0.56797,0.16933 z m 0.17639,0.56445 h -0.38806 q -0.0176,0.007 -0.0705,0.0423 -0.0494,0.0388 -0.0776,0.0706 -0.0811,0.0917 -0.0811,0.20461 0,0.17286 0.13405,0.23636 0.13759,0.0635 0.41275,0.0635 0.52917,0 0.52917,-0.33514 0,-0.16228 -0.11642,-0.22225 -0.11288,-0.06 -0.34219,-0.06 z m -0.14111,-1.65806 q -0.4057,0 -0.4057,0.42334 0,0.19402 0.0988,0.31044 0.0988,0.11289 0.28575,0.11289 0.2152,0 0.31045,-0.0988 0.0988,-0.1023 0.0988,-0.32455 0,-0.42334 -0.38805,-0.42334 z"
           style="stroke-width:0.19320972"
           id="path1061"
           inkscape:connector-curvature="0" />
        <path
           d="m 150.65401,193.64787 q 0.22931,0 0.22931,0.26458 0,0.10936 -0.0776,0.16934 -0.0776,0.06 -0.16581,0.06 -0.0953,0 -0.15522,-0.0635 -0.06,-0.067 -0.06,-0.18345 0,-0.11641 0.0635,-0.17991 0.067,-0.067 0.1658,-0.067 z m 0.19403,0.82903 v 1.5875 l 0.26458,0.0882 v 0.19403 h -0.91722 v -0.19403 l 0.29986,-0.0882 v -1.30528 l -0.29986,-0.0706 v -0.19402 z"
           style="stroke-width:0.19320972"
           id="path1063"
           inkscape:connector-curvature="0" />
        <path
           d="m 151.9626,194.4769 0.0317,0.25047 q 0.0353,-0.0282 0.0988,-0.0776 0.0635,-0.0494 0.14817,-0.0952 0.0882,-0.0459 0.1905,-0.0776 0.10583,-0.0353 0.21872,-0.0353 0.28575,0 0.42334,0.16933 0.14111,0.16581 0.14111,0.46567 v 0.98778 l 0.26458,0.0882 v 0.19403 h -0.84667 v -0.19403 l 0.22931,-0.0882 v -0.9525 q 0,-0.1905 -0.0741,-0.2787 -0.0741,-0.0917 -0.22578,-0.0917 -0.0741,0 -0.14817,0.0212 -0.0705,0.0176 -0.13405,0.0494 -0.06,0.0318 -0.10936,0.0705 -0.0459,0.0353 -0.0776,0.0706 l -0.06,0.0705 v 1.0407 l 0.22931,0.0882 v 0.19403 h -0.88195 v -0.19403 l 0.29986,-0.0882 v -1.30528 l -0.29986,-0.0706 v -0.19402 z"
           style="stroke-width:0.19320972"
           id="path1065"
           inkscape:connector-curvature="0" />
        <path
           d="m 153.84665,194.58273 q 0.381,-0.14111 0.6985,-0.14111 0.31044,0 0.47625,0.127 0.1658,0.12347 0.1658,0.4198 v 1.07598 l 0.28223,0.0705 v 0.19403 l -0.54681,0.0176 -0.0741,-0.24695 q -0.28222,0.28223 -0.55739,0.28223 -0.27517,0 -0.41275,-0.13759 -0.13758,-0.13758 -0.13758,-0.39158 0,-0.54681 0.81138,-0.54681 h 0.28223 v -0.28222 q 0,-0.3175 -0.33514,-0.3175 -0.1905,0 -0.31397,0.0388 l -0.0423,0.0141 -0.0494,0.26458 h -0.2293 z m 0.98778,0.9525 h -0.24695 q -0.26458,0 -0.37747,0.0706 -0.10936,0.067 -0.10936,0.21166 0,0.13759 0.0635,0.21167 0.067,0.0705 0.1905,0.0705 0.06,0 0.11994,-0.0212 0.0635,-0.0212 0.11995,-0.0529 0.06,-0.0317 0.10583,-0.067 0.0459,-0.0388 0.0741,-0.0705 l 0.06,-0.0706 z"
           style="stroke-width:0.19320972"
           id="path1067"
           inkscape:connector-curvature="0" />
        <path
           d="m 156.32122,193.63023 v 2.43417 l 0.35278,0.0882 v 0.19403 h -1.01247 v -0.19403 l 0.29986,-0.0882 v -2.15195 l -0.29986,-0.0705 v -0.19403 z"
           style="stroke-width:0.19320972"
           id="path1069"
           inkscape:connector-curvature="0" />
        <path
           d="m 158.22578,194.4769 0.0318,0.25047 q 0.0494,-0.0459 0.11994,-0.0953 0.0706,-0.0529 0.15523,-0.0952 0.0847,-0.0423 0.17638,-0.067 0.0952,-0.0282 0.18698,-0.0282 0.3563,0 0.49036,0.30339 0.0635,-0.0635 0.14816,-0.11642 0.0847,-0.0564 0.17287,-0.0988 0.0917,-0.0423 0.17638,-0.0635 0.0882,-0.0247 0.15875,-0.0247 0.54681,0 0.54681,0.635 v 0.98778 l 0.26458,0.0882 v 0.19403 h -0.84666 v -0.19403 l 0.2293,-0.0882 v -0.9525 q 0,-0.19403 -0.067,-0.28223 -0.067,-0.0882 -0.21872,-0.0882 -0.0741,0 -0.14464,0.0212 -0.067,0.0176 -0.127,0.0494 -0.06,0.0318 -0.10583,0.0705 -0.0459,0.0353 -0.0741,0.0706 l -0.0565,0.0705 v 1.0407 l 0.22931,0.0882 v 0.19403 h -0.81139 v -0.19403 l 0.2293,-0.0882 v -0.9525 q 0,-0.19403 -0.067,-0.28223 -0.067,-0.0882 -0.21873,-0.0882 -0.0741,0 -0.14463,0.0212 -0.067,0.0176 -0.127,0.0494 -0.06,0.0318 -0.10584,0.0705 -0.0459,0.0353 -0.0741,0.0706 l -0.0564,0.0705 v 1.0407 l 0.22931,0.0882 v 0.19403 h -0.88194 v -0.19403 l 0.29986,-0.0882 v -1.30528 l -0.29986,-0.0706 v -0.19402 z"
           style="stroke-width:0.19320972"
           id="path1071"
           inkscape:connector-curvature="0" />
        <path
           d="m 162.69007,195.45762 -1.21708,0.007 q 0,0.28928 0.13758,0.46214 0.14111,0.17286 0.37395,0.17286 0.0776,0 0.15522,-0.0141 0.0776,-0.0141 0.14464,-0.0353 0.0705,-0.0212 0.127,-0.0459 0.0564,-0.0282 0.0952,-0.0529 l 0.0705,-0.0459 0.12347,0.18344 q -0.11994,0.0952 -0.22225,0.1517 -0.0988,0.0529 -0.23636,0.0988 -0.13405,0.0423 -0.2928,0.0423 -0.41628,0 -0.63147,-0.25048 -0.2152,-0.254 -0.2152,-0.69144 0,-0.21872 0.0635,-0.40217 0.0635,-0.18344 0.17639,-0.31397 0.11642,-0.13405 0.27517,-0.20814 0.15875,-0.0741 0.34925,-0.0741 0.74083,0 0.74083,0.82903 z m -1.20297,-0.25753 h 0.84667 q 0,-0.21519 -0.0917,-0.34925 -0.0917,-0.13405 -0.29633,-0.13405 -0.20108,0 -0.32103,0.13758 -0.11994,0.13405 -0.13758,0.34572 z"
           style="stroke-width:0.19320972"
           id="path1073"
           inkscape:connector-curvature="0" />
        <path
           d="m 164.46912,195.05898 h -0.22931 l -0.0529,-0.29986 q -0.13759,-0.0353 -0.3175,-0.0353 -0.254,0 -0.39159,0.16228 -0.13758,0.16228 -0.13758,0.50447 0,0.3422 0.14464,0.52564 0.14464,0.18344 0.40217,0.18344 0.0741,0 0.14464,-0.0141 0.0741,-0.0141 0.13758,-0.0353 0.067,-0.0247 0.11994,-0.0529 0.0529,-0.0282 0.0847,-0.0564 l 0.06,-0.0529 0.12347,0.21166 -0.0388,0.0317 q -0.0423,0.0353 -0.11642,0.0811 -0.0741,0.0423 -0.1658,0.0811 -0.0882,0.0353 -0.1905,0.06 -0.0988,0.0282 -0.19403,0.0282 -0.43039,0 -0.65617,-0.254 -0.22578,-0.25753 -0.22578,-0.70203 0,-0.21872 0.0635,-0.39864 0.067,-0.18344 0.18698,-0.31044 0.11994,-0.13053 0.28927,-0.20109 0.16934,-0.0741 0.37748,-0.0741 0.0705,0 0.14464,0.0106 0.0741,0.0106 0.14463,0.0247 0.0706,0.0141 0.13053,0.0353 0.06,0.0176 0.10231,0.0353 l 0.0776,0.0353 z"
           style="stroke-width:0.19320972"
           id="path1075"
           inkscape:connector-curvature="0" />
        <path
           d="m 165.36788,193.63023 v 1.06539 q 0.29986,-0.254 0.59972,-0.254 0.29986,0 0.44097,0.16933 0.14111,0.16581 0.14111,0.46567 v 0.98778 l 0.26458,0.0882 v 0.19403 h -0.84666 v -0.19403 l 0.2293,-0.0847 v -0.95602 q 0,-0.1905 -0.0705,-0.2787 -0.0706,-0.0917 -0.22225,-0.0917 -0.0741,0 -0.14464,0.0212 -0.0706,0.0176 -0.13406,0.0494 -0.0635,0.0318 -0.11289,0.0705 -0.0494,0.0353 -0.0811,0.0706 l -0.0635,0.0705 v 1.0407 l 0.2293,0.0882 v 0.19403 h -0.88194 v -0.19403 l 0.29986,-0.0882 v -2.15195 l -0.29986,-0.0705 v -0.19403 z"
           style="stroke-width:0.19320972"
           id="path1077"
           inkscape:connector-curvature="0" />
        <path
           d="m 167.18606,194.58273 q 0.381,-0.14111 0.6985,-0.14111 0.31044,0 0.47625,0.127 0.16581,0.12347 0.16581,0.4198 v 1.07598 l 0.28222,0.0705 v 0.19403 l -0.54681,0.0176 -0.0741,-0.24695 q -0.28222,0.28223 -0.55739,0.28223 -0.27517,0 -0.41275,-0.13759 -0.13758,-0.13758 -0.13758,-0.39158 0,-0.54681 0.81139,-0.54681 h 0.28222 v -0.28222 q 0,-0.3175 -0.33514,-0.3175 -0.1905,0 -0.31397,0.0388 l -0.0423,0.0141 -0.0494,0.26458 h -0.2293 z m 0.98778,0.9525 h -0.24695 q -0.26458,0 -0.37747,0.0706 -0.10936,0.067 -0.10936,0.21166 0,0.13759 0.0635,0.21167 0.067,0.0705 0.1905,0.0705 0.06,0 0.11994,-0.0212 0.0635,-0.0212 0.11995,-0.0529 0.06,-0.0317 0.10583,-0.067 0.0459,-0.0388 0.0741,-0.0705 l 0.06,-0.0706 z"
           style="stroke-width:0.19320972"
           id="path1079"
           inkscape:connector-curvature="0" />
        <path
           d="m 169.63594,194.4769 0.0317,0.25047 q 0.0353,-0.0282 0.0988,-0.0776 0.0635,-0.0494 0.14817,-0.0952 0.0882,-0.0459 0.1905,-0.0776 0.10583,-0.0353 0.21872,-0.0353 0.28575,0 0.42334,0.16933 0.14111,0.16581 0.14111,0.46567 v 0.98778 l 0.26458,0.0882 v 0.19403 h -0.84667 v -0.19403 l 0.22931,-0.0882 v -0.9525 q 0,-0.1905 -0.0741,-0.2787 -0.0741,-0.0917 -0.22578,-0.0917 -0.0741,0 -0.14817,0.0212 -0.0705,0.0176 -0.13405,0.0494 -0.06,0.0318 -0.10937,0.0705 -0.0459,0.0353 -0.0776,0.0706 l -0.06,0.0705 v 1.0407 l 0.22931,0.0882 v 0.19403 h -0.88195 v -0.19403 l 0.29986,-0.0882 v -1.30528 l -0.29986,-0.0706 v -0.19402 z"
           style="stroke-width:0.19320972"
           id="path1081"
           inkscape:connector-curvature="0" />
        <path
           d="m 171.85513,193.64787 q 0.2293,0 0.2293,0.26458 0,0.10936 -0.0776,0.16934 -0.0776,0.06 -0.1658,0.06 -0.0952,0 -0.15523,-0.0635 -0.06,-0.067 -0.06,-0.18345 0,-0.11641 0.0635,-0.17991 0.067,-0.067 0.16581,-0.067 z m 0.19403,0.82903 v 1.5875 l 0.26458,0.0882 v 0.19403 h -0.91722 v -0.19403 l 0.29986,-0.0882 v -1.30528 l -0.29986,-0.0706 v -0.19402 z"
           style="stroke-width:0.19320972"
           id="path1083"
           inkscape:connector-curvature="0" />
        <path
           d="m 174.08093,195.05898 h -0.2293 l -0.0529,-0.29986 q -0.13758,-0.0353 -0.3175,-0.0353 -0.254,0 -0.39158,0.16228 -0.13758,0.16228 -0.13758,0.50447 0,0.3422 0.14463,0.52564 0.14464,0.18344 0.40217,0.18344 0.0741,0 0.14464,-0.0141 0.0741,-0.0141 0.13758,-0.0353 0.067,-0.0247 0.11995,-0.0529 0.0529,-0.0282 0.0847,-0.0564 l 0.06,-0.0529 0.12347,0.21166 -0.0388,0.0317 q -0.0423,0.0353 -0.11641,0.0811 -0.0741,0.0423 -0.16581,0.0811 -0.0882,0.0353 -0.1905,0.06 -0.0988,0.0282 -0.19403,0.0282 -0.43039,0 -0.65616,-0.254 -0.22578,-0.25753 -0.22578,-0.70203 0,-0.21872 0.0635,-0.39864 0.067,-0.18344 0.18697,-0.31044 0.11995,-0.13053 0.28928,-0.20109 0.16933,-0.0741 0.37747,-0.0741 0.0706,0 0.14464,0.0106 0.0741,0.0106 0.14464,0.0247 0.0705,0.0141 0.13053,0.0353 0.06,0.0176 0.1023,0.0353 l 0.0776,0.0353 z"
           style="stroke-width:0.19320972"
           id="path1085"
           inkscape:connector-curvature="0" />
        <path
           d="m 174.40114,195.78217 h 0.24694 l 0.0388,0.30339 q 0.0353,0.0141 0.10936,0.0247 0.0776,0.007 0.15169,0.007 0.22931,0 0.33161,-0.067 0.10584,-0.0706 0.10584,-0.21167 0,-0.0952 -0.0741,-0.1517 -0.0705,-0.0564 -0.17991,-0.0952 -0.10937,-0.0388 -0.23989,-0.0776 -0.127,-0.0388 -0.23636,-0.0988 -0.10937,-0.0635 -0.18345,-0.16228 -0.0705,-0.0988 -0.0705,-0.26106 0,-0.26458 0.17638,-0.40216 0.17639,-0.14112 0.4692,-0.14817 0.12347,0.004 0.25047,0.0212 0.13053,0.0141 0.26458,0.0564 l 0.0882,0.0282 -0.0106,0.47625 h -0.22931 l -0.0564,-0.27516 q -0.0282,-0.0106 -0.10937,-0.0247 -0.0811,-0.0176 -0.17286,-0.0176 -0.0635,0 -0.11994,0.0106 -0.0565,0.0106 -0.10231,0.0353 -0.0423,0.0247 -0.0706,0.0706 -0.0247,0.0459 -0.0247,0.11289 0,0.1023 0.0706,0.16228 0.0741,0.0564 0.18344,0.0988 0.10936,0.0423 0.23636,0.0811 0.13053,0.0388 0.23989,0.10231 0.10936,0.06 0.17992,0.15522 0.0741,0.0952 0.0741,0.25047 0,0.14817 -0.0635,0.26106 -0.0635,0.11289 -0.17286,0.1905 -0.10583,0.0741 -0.25047,0.10936 -0.14111,0.0388 -0.30339,0.0388 -0.06,0 -0.127,-0.007 -0.0635,-0.004 -0.127,-0.0141 -0.0635,-0.007 -0.11994,-0.0176 -0.0529,-0.0106 -0.0882,-0.0212 l -0.0811,-0.0212 z"
           style="stroke-width:0.19320972"
           id="path1087"
           inkscape:connector-curvature="0" />
        <path
           d="m 176.35448,196.3819 q -0.10231,0 -0.16581,-0.0635 -0.06,-0.067 -0.06,-0.17992 0,-0.11642 0.0635,-0.18344 0.067,-0.067 0.16933,-0.067 0.10231,0 0.16228,0.067 0.0635,0.0635 0.0635,0.17991 0,0.11289 -0.067,0.17992 -0.0635,0.067 -0.1658,0.067 z"
           style="stroke-width:0.19320972"
           id="path1089"
           inkscape:connector-curvature="0" />
      </g>
      <g
         aria-label="No theme."
         style="font-style:normal;font-variant:normal;font-weight:normal;font-stretch:normal;font-size:3.52777767px;line-height:1.25;font-family:Bitter;-inkscape-font-specification:Bitter;letter-spacing:0px;word-spacing:0px;fill:#000000;fill-opacity:1;stroke:none;stroke-width:0.19320972"
         id="text960">
        <path
           d="m 139.46434,193.49136 -1.16417,-1.9438 v 1.66158 l 0.33514,0.0706 v 0.21166 h -0.9525 v -0.21166 l 0.29986,-0.0706 v -1.905 l -0.29986,-0.0705 v -0.19403 l 0.74084,-0.0176 1.16416,1.97203 v -1.68981 l -0.29986,-0.0705 v -0.19403 l 0.91722,-0.0176 v 0.21167 l -0.29986,0.0705 v 2.18722 z"
           style="stroke-width:0.19320972"
           id="path1092"
           inkscape:connector-curvature="0" />
        <path
           d="m 140.46645,192.58472 q 0,-0.22577 0.0635,-0.40922 0.067,-0.18697 0.18697,-0.3175 0.11995,-0.13053 0.28222,-0.20108 0.16581,-0.0706 0.36337,-0.0706 0.39511,0 0.61383,0.25048 0.21872,0.25047 0.21872,0.69497 0,0.21872 -0.0635,0.40216 -0.0635,0.17992 -0.17992,0.31398 -0.11288,0.13052 -0.27869,0.20461 -0.16228,0.0741 -0.36336,0.0741 -0.40217,0 -0.62442,-0.23989 -0.21872,-0.23989 -0.21872,-0.70203 z m 0.88194,-0.71613 q -0.51152,0 -0.51152,0.68791 0,0.68792 0.49389,0.68792 0.25752,0 0.37394,-0.17639 0.11994,-0.17639 0.11994,-0.52917 0,-0.67027 -0.47625,-0.67027 z"
           style="stroke-width:0.19320972"
           id="path1094"
           inkscape:connector-curvature="0" />
        <path
           d="m 143.92643,191.12422 v 0.51506 h 0.51153 v 0.26458 h -0.51153 v 1.13242 q 0,0.21519 0.17639,0.21519 0.11289,0 0.27516,-0.0882 l 0.0952,0.18697 q -0.23988,0.17639 -0.49388,0.17639 -0.17992,0 -0.29281,-0.11642 -0.11289,-0.11994 -0.11289,-0.39511 v -1.11125 h -0.35278 v -0.2293 l 0.35278,-0.0353 v -0.4445 z"
           style="stroke-width:0.19320972"
           id="path1096"
           inkscape:connector-curvature="0" />
        <path
           d="m 145.28297,190.77497 v 1.06539 q 0.29986,-0.254 0.59972,-0.254 0.29986,0 0.44097,0.16934 0.14112,0.1658 0.14112,0.46566 v 0.98778 l 0.26458,0.0882 v 0.19402 h -0.84667 v -0.19402 l 0.22931,-0.0847 v -0.95603 q 0,-0.1905 -0.0706,-0.27869 -0.0705,-0.0917 -0.22225,-0.0917 -0.0741,0 -0.14464,0.0212 -0.0705,0.0176 -0.13405,0.0494 -0.0635,0.0317 -0.11289,0.0706 -0.0494,0.0353 -0.0811,0.0705 l -0.0635,0.0706 v 1.04069 l 0.22931,0.0882 v 0.19402 h -0.88195 v -0.19402 l 0.29986,-0.0882 v -2.15194 l -0.29986,-0.0706 v -0.19403 z"
           style="stroke-width:0.19320972"
           id="path1098"
           inkscape:connector-curvature="0" />
        <path
           d="m 148.56518,192.60236 -1.21708,0.007 q 0,0.28928 0.13758,0.46214 0.14111,0.17286 0.37395,0.17286 0.0776,0 0.15522,-0.0141 0.0776,-0.0141 0.14464,-0.0353 0.0705,-0.0212 0.127,-0.0459 0.0564,-0.0282 0.0953,-0.0529 l 0.0705,-0.0459 0.12347,0.18345 q -0.11994,0.0953 -0.22225,0.15169 -0.0988,0.0529 -0.23636,0.0988 -0.13405,0.0423 -0.2928,0.0423 -0.41628,0 -0.63147,-0.25047 -0.2152,-0.254 -0.2152,-0.69145 0,-0.21872 0.0635,-0.40216 0.0635,-0.18345 0.17639,-0.31397 0.11642,-0.13406 0.27517,-0.20814 0.15875,-0.0741 0.34925,-0.0741 0.74083,0 0.74083,0.82903 z m -1.20297,-0.25752 h 0.84667 q 0,-0.2152 -0.0917,-0.34925 -0.0917,-0.13406 -0.29633,-0.13406 -0.20108,0 -0.32103,0.13758 -0.11994,0.13406 -0.13758,0.34573 z"
           style="stroke-width:0.19320972"
           id="path1100"
           inkscape:connector-curvature="0" />
        <path
           d="m 149.42701,191.62164 0.0318,0.25047 q 0.0494,-0.0459 0.11994,-0.0952 0.0706,-0.0529 0.15522,-0.0952 0.0847,-0.0423 0.17639,-0.067 0.0952,-0.0282 0.18697,-0.0282 0.35631,0 0.49036,0.30339 0.0635,-0.0635 0.14817,-0.11641 0.0847,-0.0564 0.17286,-0.0988 0.0917,-0.0423 0.17639,-0.0635 0.0882,-0.0247 0.15875,-0.0247 0.54681,0 0.54681,0.635 v 0.98778 l 0.26458,0.0882 v 0.19402 h -0.84667 v -0.19402 l 0.22931,-0.0882 v -0.9525 q 0,-0.19403 -0.067,-0.28222 -0.067,-0.0882 -0.21872,-0.0882 -0.0741,0 -0.14464,0.0212 -0.067,0.0176 -0.127,0.0494 -0.06,0.0317 -0.10583,0.0706 -0.0459,0.0353 -0.0741,0.0705 l -0.0564,0.0706 v 1.04069 l 0.2293,0.0882 v 0.19402 h -0.81138 v -0.19402 l 0.2293,-0.0882 v -0.9525 q 0,-0.19403 -0.067,-0.28222 -0.067,-0.0882 -0.21872,-0.0882 -0.0741,0 -0.14464,0.0212 -0.067,0.0176 -0.127,0.0494 -0.06,0.0317 -0.10583,0.0706 -0.0459,0.0353 -0.0741,0.0705 l -0.0565,0.0706 v 1.04069 l 0.22931,0.0882 v 0.19402 h -0.88195 v -0.19402 l 0.29986,-0.0882 v -1.30528 l -0.29986,-0.0705 v -0.19403 z"
           style="stroke-width:0.19320972"
           id="path1102"
           inkscape:connector-curvature="0" />
        <path
           d="m 153.8913,192.60236 -1.21708,0.007 q 0,0.28928 0.13758,0.46214 0.14111,0.17286 0.37394,0.17286 0.0776,0 0.15523,-0.0141 0.0776,-0.0141 0.14463,-0.0353 0.0706,-0.0212 0.127,-0.0459 0.0565,-0.0282 0.0953,-0.0529 l 0.0706,-0.0459 0.12347,0.18345 q -0.11994,0.0953 -0.22225,0.15169 -0.0988,0.0529 -0.23636,0.0988 -0.13405,0.0423 -0.2928,0.0423 -0.41628,0 -0.63148,-0.25047 -0.21519,-0.254 -0.21519,-0.69145 0,-0.21872 0.0635,-0.40216 0.0635,-0.18345 0.17639,-0.31397 0.11641,-0.13406 0.27516,-0.20814 0.15875,-0.0741 0.34925,-0.0741 0.74084,0 0.74084,0.82903 z m -1.20297,-0.25752 h 0.84666 q 0,-0.2152 -0.0917,-0.34925 -0.0917,-0.13406 -0.29633,-0.13406 -0.20109,0 -0.32103,0.13758 -0.11994,0.13406 -0.13758,0.34573 z"
           style="stroke-width:0.19320972"
           id="path1104"
           inkscape:connector-curvature="0" />
        <path
           d="m 154.48501,193.52664 q -0.1023,0 -0.1658,-0.0635 -0.06,-0.067 -0.06,-0.17992 0,-0.11641 0.0635,-0.18344 0.067,-0.067 0.16934,-0.067 0.1023,0 0.16227,0.067 0.0635,0.0635 0.0635,0.17992 0,0.11289 -0.067,0.17991 -0.0635,0.067 -0.16581,0.067 z"
           style="stroke-width:0.19320972"
           id="path1106"
           inkscape:connector-curvature="0" />
      </g>
      <g
         aria-label="JUST VPs"
         style="font-style:normal;font-variant:normal;font-weight:normal;font-stretch:normal;font-size:11.93145847px;line-height:1.25;font-family:Bitter;-inkscape-font-specification:Bitter;letter-spacing:0px;word-spacing:0px;fill:#000000;fill-opacity:1;stroke:none;stroke-width:0.19320972"
         id="text964">
        <path
           d="m 86.882472,189.133 v 5.73903 q 0,1.62268 -0.608504,2.37436 Q 85.677395,198.01 84.1621,198.01 l -0.906791,-0.0835 0.155109,-1.19314 h 0.57271 q 1.049968,0 1.049968,-1.14542 V 189.133 l -0.894859,-0.35795 v -0.99031 l 3.639095,-0.0597 v 1.04996 z"
           style="font-style:normal;font-variant:normal;font-weight:bold;font-stretch:normal;font-size:11.93145847px;font-family:Bitter;-inkscape-font-specification:'Bitter, Bold';font-variant-ligatures:normal;font-variant-caps:normal;font-variant-numeric:normal;font-feature-settings:normal;text-align:start;writing-mode:lr-tb;text-anchor:start;stroke-width:0.19320972"
           id="path1109"
           inkscape:connector-curvature="0" />
        <path
           d="m 91.330669,189.133 v 3.78227 q 0,1.03804 0.346012,1.4795 0.346013,0.42953 1.205078,0.42953 0.906791,0 1.217009,-0.47725 0.310217,-0.48919 0.310217,-1.61075 v -3.6033 l -0.930653,-0.35795 v -0.99031 l 3.674889,-0.0597 v 1.04996 l -0.894859,0.35795 v 3.6033 q 0,1.78972 -0.787477,2.67265 -0.787476,0.87099 -2.648784,0.87099 -1.765855,0 -2.553332,-0.81134 -0.787476,-0.81134 -0.787476,-2.55333 V 189.133 l -0.894859,-0.35795 v -0.99031 l 3.674889,-0.0597 v 1.04996 z"
           style="font-style:normal;font-variant:normal;font-weight:bold;font-stretch:normal;font-size:11.93145847px;font-family:Bitter;-inkscape-font-specification:'Bitter, Bold';font-variant-ligatures:normal;font-variant-caps:normal;font-variant-numeric:normal;font-feature-settings:normal;text-align:start;writing-mode:lr-tb;text-anchor:start;stroke-width:0.19320972"
           id="path1111"
           inkscape:connector-curvature="0" />
        <path
           d="m 99.458975,193.54764 0.178972,1.00224 q 0.477263,0.25056 1.169283,0.25056 0.6085,0 1.02611,-0.25056 0.4176,-0.26249 0.4176,-0.71589 0,-0.32215 -0.29829,-0.56078 -0.29829,-0.23862 -0.75168,-0.36987 -0.44147,-0.13125 -0.96645,-0.34601 -0.524984,-0.2267 -0.978379,-0.47726 -0.441464,-0.26249 -0.739751,-0.76361 -0.298286,-0.51306 -0.298286,-1.20508 0,-1.20508 0.835202,-1.86131 0.847133,-0.66816 2.195384,-0.66816 0.59658,0 1.25281,0.11931 0.65623,0.11932 1.01417,0.23863 l 0.35795,0.11932 -0.0597,2.17152 h -1.0977 l -0.29828,-1.01417 q -0.53692,-0.17897 -1.04997,-0.17897 -0.60851,0 -0.94259,0.23863 -0.32215,0.23863 -0.32215,0.6085 0,0.32215 0.29829,0.56078 0.29829,0.23863 0.73975,0.38181 0.4534,0.13124 0.96645,0.34601 0.52498,0.21476 0.96645,0.46532 0.45339,0.25057 0.75168,0.73976 0.29829,0.48918 0.29829,1.14542 0,1.30052 -0.9068,2.04027 -0.89485,0.72782 -2.3147,0.72782 -0.59657,0 -1.264733,-0.11931 -0.668161,-0.10738 -1.038037,-0.2267 l -0.357943,-0.10738 v -2.29084 z"
           style="font-style:normal;font-variant:normal;font-weight:bold;font-stretch:normal;font-size:11.93145847px;font-family:Bitter;-inkscape-font-specification:'Bitter, Bold';font-variant-ligatures:normal;font-variant-caps:normal;font-variant-numeric:normal;font-feature-settings:normal;text-align:start;writing-mode:lr-tb;text-anchor:start;stroke-width:0.19320972"
           id="path1113"
           inkscape:connector-curvature="0" />
        <path
           d="m 106.3973,196.13676 v -1.03803 l 0.97838,-0.29829 V 189.133 h -1.13348 l -0.29829,1.13349 h -1.0977 v -2.50561 l 6.92025,-0.0358 v 2.5414 h -1.10963 l -0.29828,-1.13349 h -1.13349 v 5.66744 l 0.99031,0.29829 v 1.03803 z"
           style="font-style:normal;font-variant:normal;font-weight:bold;font-stretch:normal;font-size:11.93145847px;font-family:Bitter;-inkscape-font-specification:'Bitter, Bold';font-variant-ligatures:normal;font-variant-caps:normal;font-variant-numeric:normal;font-feature-settings:normal;text-align:start;writing-mode:lr-tb;text-anchor:start;stroke-width:0.19320972"
           id="path1115"
           inkscape:connector-curvature="0" />
        <path
           d="m 117.98257,196.13676 -2.41016,-7.02762 -0.81134,-0.33409 v -0.99031 l 3.69875,-0.0597 v 1.04996 l -0.88292,0.34602 1.09769,3.44819 0.38181,1.46757 0.3818,-1.40791 1.18122,-3.49592 -0.90679,-0.35795 v -0.99031 l 3.5675,-0.0597 v 1.04996 l -0.87099,0.35795 -2.51754,7.00376 z"
           style="font-style:normal;font-variant:normal;font-weight:bold;font-stretch:normal;font-size:11.93145847px;font-family:Bitter;-inkscape-font-specification:'Bitter, Bold';font-variant-ligatures:normal;font-variant-caps:normal;font-variant-numeric:normal;font-feature-settings:normal;text-align:start;writing-mode:lr-tb;text-anchor:start;stroke-width:0.19320972"
           id="path1117"
           inkscape:connector-curvature="0" />
        <path
           d="m 127.51002,195.09873 v 1.03803 h -3.63909 v -1.03803 l 0.89486,-0.29829 V 189.133 l -0.89486,-0.35795 v -0.99031 l 2.74423,-0.0597 h 1.13349 q 1.36019,0 2.1238,0.66816 0.77554,0.66816 0.77554,1.83744 0,1.4795 -0.88292,2.23119 -0.871,0.75168 -2.51754,0.75168 h -0.63237 v 1.58688 z m -0.89486,-5.96573 v 2.68458 h 0.63237 q 0.75168,0 1.14542,-0.34602 0.40567,-0.34601 0.40567,-1.00224 0,-0.59657 -0.32215,-0.96645 -0.31022,-0.36987 -0.90679,-0.36987 z"
           style="font-style:normal;font-variant:normal;font-weight:bold;font-stretch:normal;font-size:11.93145847px;font-family:Bitter;-inkscape-font-specification:'Bitter, Bold';font-variant-ligatures:normal;font-variant-caps:normal;font-variant-numeric:normal;font-feature-settings:normal;text-align:start;writing-mode:lr-tb;text-anchor:start;stroke-width:0.19320972"
           id="path1119"
           inkscape:connector-curvature="0" />
        <path
           d="m 132.48376,194.04876 0.0954,0.8352 q 0.39374,0.11932 0.97838,0.11932 0.94259,0 0.94259,-0.6443 0,-0.27443 -0.32215,-0.46533 -0.32215,-0.20283 -0.78748,-0.34601 -0.46532,-0.14318 -0.93065,-0.33408 -0.46533,-0.20284 -0.78748,-0.60851 -0.32215,-0.40567 -0.32215,-0.99031 0,-1.04997 0.70396,-1.53916 0.70395,-0.50112 1.75392,-0.50112 0.47726,0 1.02611,0.0954 0.56078,0.0835 0.88293,0.16704 l 0.31021,0.0955 q -0.0239,0.59657 -0.0477,1.78971 h -1.04997 l -0.17897,-0.77554 q -0.31022,-0.11931 -0.78748,-0.11931 -0.36987,0 -0.58464,0.16704 -0.21477,0.1551 -0.21477,0.44146 0,0.27442 0.32215,0.46533 0.33408,0.1909 0.78748,0.33408 0.46533,0.14318 0.93065,0.33408 0.46533,0.17897 0.78748,0.57271 0.33408,0.39374 0.33408,0.96645 0,1.01417 -0.75168,1.58688 -0.73975,0.56078 -1.99255,0.56078 -0.50113,0 -1.04997,-0.0716 -0.54885,-0.0597 -0.84714,-0.11931 l -0.29828,-0.0716 v -1.94483 z"
           style="font-style:normal;font-variant:normal;font-weight:bold;font-stretch:normal;font-size:11.93145847px;font-family:Bitter;-inkscape-font-specification:'Bitter, Bold';font-variant-ligatures:normal;font-variant-caps:normal;font-variant-numeric:normal;font-feature-settings:normal;text-align:start;writing-mode:lr-tb;text-anchor:start;stroke-width:0.19320972"
           id="path1121"
           inkscape:connector-curvature="0" />
      </g>
      <g
         aria-label="No art."
         style="font-style:normal;font-variant:normal;font-weight:normal;font-stretch:normal;font-size:3.52777767px;line-height:1.25;font-family:Bitter;-inkscape-font-specification:Bitter;letter-spacing:0px;word-spacing:0px;fill:#000000;fill-opacity:1;stroke:none;stroke-width:0.19320972"
         id="text972">
        <path
           d="m 139.46434,190.08931 -1.16417,-1.94381 v 1.66159 l 0.33514,0.0706 v 0.21167 h -0.9525 v -0.21167 l 0.29986,-0.0706 v -1.905 l -0.29986,-0.0706 v -0.19403 l 0.74084,-0.0176 1.16416,1.97202 v -1.6898 l -0.29986,-0.0706 v -0.19403 l 0.91722,-0.0176 v 0.21166 l -0.29986,0.0706 v 2.18722 z"
           style="stroke-width:0.19320972"
           id="path1124"
           inkscape:connector-curvature="0" />
        <path
           d="m 140.46645,189.18267 q 0,-0.22578 0.0635,-0.40922 0.067,-0.18697 0.18697,-0.3175 0.11995,-0.13053 0.28222,-0.20108 0.16581,-0.0706 0.36337,-0.0706 0.39511,0 0.61383,0.25047 0.21872,0.25047 0.21872,0.69497 0,0.21873 -0.0635,0.40217 -0.0635,0.17992 -0.17992,0.31397 -0.11288,0.13053 -0.27869,0.20461 -0.16228,0.0741 -0.36336,0.0741 -0.40217,0 -0.62442,-0.23989 -0.21872,-0.23989 -0.21872,-0.70203 z m 0.88194,-0.71614 q -0.51152,0 -0.51152,0.68792 0,0.68792 0.49389,0.68792 0.25752,0 0.37394,-0.17639 0.11994,-0.17639 0.11994,-0.52917 0,-0.67028 -0.47625,-0.67028 z"
           style="stroke-width:0.19320972"
           id="path1126"
           inkscape:connector-curvature="0" />
        <path
           d="m 143.4149,188.32542 q 0.381,-0.14111 0.6985,-0.14111 0.31045,0 0.47625,0.127 0.16581,0.12347 0.16581,0.41981 v 1.07597 l 0.28222,0.0706 v 0.19403 l -0.54681,0.0176 -0.0741,-0.24694 q -0.28222,0.28222 -0.55739,0.28222 -0.27517,0 -0.41275,-0.13759 -0.13758,-0.13758 -0.13758,-0.39158 0,-0.5468 0.81139,-0.5468 h 0.28222 v -0.28223 q 0,-0.3175 -0.33514,-0.3175 -0.1905,0 -0.31397,0.0388 l -0.0423,0.0141 -0.0494,0.26458 h -0.22931 z m 0.98778,0.9525 h -0.24695 q -0.26458,0 -0.37747,0.0706 -0.10936,0.067 -0.10936,0.21166 0,0.13759 0.0635,0.21167 0.067,0.0706 0.1905,0.0706 0.06,0 0.11995,-0.0212 0.0635,-0.0212 0.11994,-0.0529 0.06,-0.0318 0.10583,-0.067 0.0459,-0.0388 0.0741,-0.0705 l 0.06,-0.0706 z"
           style="stroke-width:0.19320972"
           id="path1128"
           inkscape:connector-curvature="0" />
        <path
           d="m 145.86478,188.21959 0.0318,0.25753 q 0.26105,-0.29281 0.53269,-0.29281 0.14464,0 0.2787,0.0423 l 0.0388,0.0106 -0.0176,0.51152 h -0.2293 l -0.0529,-0.26458 q -0.30339,0 -0.51153,0.27517 v 1.04775 l 0.35278,0.0882 v 0.19403 h -1.00542 v -0.19403 l 0.29986,-0.0882 v -1.30528 l -0.29986,-0.0706 v -0.19402 z"
           style="stroke-width:0.19320972"
           id="path1130"
           inkscape:connector-curvature="0" />
        <path
           d="m 147.55756,187.72217 v 0.51506 h 0.51153 v 0.26458 h -0.51153 v 1.13242 q 0,0.21519 0.17639,0.21519 0.11289,0 0.27516,-0.0882 l 0.0953,0.18697 q -0.23988,0.17639 -0.49388,0.17639 -0.17992,0 -0.29281,-0.11642 -0.11289,-0.11994 -0.11289,-0.39511 V 188.5018 H 146.852 v -0.22931 l 0.35278,-0.0353 v -0.4445 z"
           style="stroke-width:0.19320972"
           id="path1132"
           inkscape:connector-curvature="0" />
        <path
           d="m 148.62835,190.12459 q -0.10231,0 -0.16581,-0.0635 -0.06,-0.067 -0.06,-0.17992 0,-0.11642 0.0635,-0.18344 0.067,-0.067 0.16934,-0.067 0.1023,0 0.16227,0.067 0.0635,0.0635 0.0635,0.17991 0,0.11289 -0.067,0.17992 -0.0635,0.067 -0.16581,0.067 z"
           style="stroke-width:0.19320972"
           id="path1134"
           inkscape:connector-curvature="0" />
      </g>
    </g>
    <g
       id="g1012">
      <g
         aria-label="Victory "
         style="font-style:normal;font-variant:normal;font-weight:bold;font-stretch:normal;font-size:20.70394325px;line-height:1.25;font-family:Bitter;-inkscape-font-specification:'Bitter, Bold';font-variant-ligatures:normal;font-variant-caps:normal;font-variant-numeric:normal;font-feature-settings:normal;text-align:start;letter-spacing:0px;word-spacing:0px;writing-mode:lr-tb;text-anchor:start;fill:#000000;fill-opacity:1;stroke:none;stroke-width:0.26458329"
         id="text948">
        <path
           d="M 75.651634,97.868713 71.469437,85.674091 70.061569,85.09438 v -1.718427 l 6.418222,-0.10352 v 1.821947 l -1.532092,0.600415 1.904763,5.983439 0.662526,2.546585 0.662527,-2.443065 2.04969,-6.066255 -1.5735,-0.621119 v -1.718427 l 6.190479,-0.10352 v 1.821947 l -1.511388,0.621119 -4.368532,12.153214 z"
           style="font-style:normal;font-variant:normal;font-weight:bold;font-stretch:normal;font-size:20.70394325px;font-family:Bitter;-inkscape-font-specification:'Bitter, Bold';font-variant-ligatures:normal;font-variant-caps:normal;font-variant-numeric:normal;font-feature-settings:normal;text-align:start;writing-mode:lr-tb;text-anchor:start;stroke-width:0.26458329"
           id="path1014" />
        <path
           d="m 85.724425,86.854216 4.699795,-0.165632 v 9.006215 l 1.449276,0.517599 v 1.656315 h -6.149071 v -1.656315 l 1.656316,-0.517599 V 88.92461 l -1.656316,-0.414079 z m 1.262941,-3.581783 q 0,-0.848861 0.517598,-1.345756 0.538303,-0.517599 1.262941,-0.517599 1.739131,0 1.739131,1.863355 0,0.869566 -0.538302,1.387165 -0.517599,0.496894 -1.200829,0.496894 -0.848862,0 -1.325052,-0.47619 -0.455487,-0.496895 -0.455487,-1.407869 z"
           style="font-style:normal;font-variant:normal;font-weight:bold;font-stretch:normal;font-size:20.70394325px;font-family:Bitter;-inkscape-font-specification:'Bitter, Bold';font-variant-ligatures:normal;font-variant-caps:normal;font-variant-numeric:normal;font-feature-settings:normal;text-align:start;writing-mode:lr-tb;text-anchor:start;stroke-width:0.26458329"
           id="path1016" />
        <path
           d="m 101.82012,94.556082 1.0352,1.759836 q -2.00828,1.759835 -4.451347,1.759835 -2.546585,0 -3.975157,-1.490684 -1.407868,-1.490684 -1.407868,-4.140789 0,-2.774328 1.490684,-4.368532 1.511388,-1.594203 4.202901,-1.594203 0.786749,0 1.697727,0.186335 0.91097,0.165632 1.42857,0.351967 l 0.49689,0.186336 -0.10352,3.374742 h -1.86335 l -0.28986,-1.490684 q -0.600412,-0.165631 -1.428569,-0.165631 -1.159421,0 -1.801243,0.78675 -0.621119,0.766046 -0.621119,2.318841 0,1.759836 0.641823,2.691513 0.662526,0.931677 1.94617,0.931677 0.414079,0 0.78675,-0.06211 0.372671,-0.08282 0.724638,-0.227744 0.35197,-0.144927 0.5383,-0.248447 0.20704,-0.10352 0.53831,-0.310559 0.35196,-0.20704 0.41407,-0.248448 z"
           style="font-style:normal;font-variant:normal;font-weight:bold;font-stretch:normal;font-size:20.70394325px;font-family:Bitter;-inkscape-font-specification:'Bitter, Bold';font-variant-ligatures:normal;font-variant-caps:normal;font-variant-numeric:normal;font-feature-settings:normal;text-align:start;writing-mode:lr-tb;text-anchor:start;stroke-width:0.26458329"
           id="path1018" />
        <path
           d="m 108.3548,98.075753 q -1.71842,0 -2.36025,-1.097309 -0.64182,-1.118013 -0.64182,-3.871638 v -3.871637 h -1.92546 v -1.966875 l 1.92546,-0.269151 v -2.857144 l 3.04348,-0.559006 v 3.41615 h 2.89855 v 2.236026 h -2.89855 v 4.679091 q 0,1.035197 0.22775,1.449276 0.22774,0.414079 0.86956,0.414079 0.74534,0 1.63561,-0.476191 l 0.74534,1.490684 q -1.82194,1.283645 -3.51967,1.283645 z"
           style="font-style:normal;font-variant:normal;font-weight:bold;font-stretch:normal;font-size:20.70394325px;font-family:Bitter;-inkscape-font-specification:'Bitter, Bold';font-variant-ligatures:normal;font-variant-caps:normal;font-variant-numeric:normal;font-feature-settings:normal;text-align:start;writing-mode:lr-tb;text-anchor:start;stroke-width:0.26458329"
           id="path1020" />
        <path
           d="m 118.44798,86.481545 q 2.50517,0 3.85093,1.46998 1.36646,1.449276 1.36646,4.120084 0,2.774329 -1.51139,4.389236 -1.49068,1.614908 -4.01656,1.614908 -5.27951,0 -5.27951,-5.693585 0,-2.774328 1.51139,-4.327124 1.51139,-1.573499 4.07868,-1.573499 z m -0.10352,2.380953 q -1.18013,0 -1.73913,0.766046 -0.53831,0.766046 -0.53831,2.650105 0,1.780539 0.5176,2.608697 0.5176,0.807453 1.65632,0.807453 1.13871,0 1.67702,-0.807453 0.5383,-0.807454 0.5383,-2.712217 0,-1.677019 -0.5176,-2.484473 -0.49689,-0.828158 -1.5942,-0.828158 z"
           style="font-style:normal;font-variant:normal;font-weight:bold;font-stretch:normal;font-size:20.70394325px;font-family:Bitter;-inkscape-font-specification:'Bitter, Bold';font-variant-ligatures:normal;font-variant-caps:normal;font-variant-numeric:normal;font-feature-settings:normal;text-align:start;writing-mode:lr-tb;text-anchor:start;stroke-width:0.26458329"
           id="path1022" />
        <path
           d="m 125.11044,86.854216 4.28572,-0.165632 0.18633,1.428572 q 0.16563,-0.186335 0.45549,-0.455487 0.28985,-0.269151 1.0352,-0.724638 0.76604,-0.455486 1.38716,-0.455486 0.4969,0 0.95238,0.103519 0.47619,0.08282 0.70394,0.186336 l 0.20704,0.08282 -0.16564,3.933749 h -1.80124 l -0.31056,-1.759835 q -0.5383,0 -1.09731,0.289855 -0.559,0.289855 -0.84886,0.57971 l -0.28985,0.289855 v 5.507249 l 1.96687,0.517599 v 1.656315 h -6.66667 v -1.656315 l 1.65632,-0.517599 V 88.92461 l -1.65632,-0.414079 z"
           style="font-style:normal;font-variant:normal;font-weight:bold;font-stretch:normal;font-size:20.70394325px;font-family:Bitter;-inkscape-font-specification:'Bitter, Bold';font-variant-ligatures:normal;font-variant-caps:normal;font-variant-numeric:normal;font-feature-settings:normal;text-align:start;writing-mode:lr-tb;text-anchor:start;stroke-width:0.26458329"
           id="path1024" />
        <path
           d="m 139.52524,97.889417 -3.6853,-9.109735 -1.09731,-0.331263 v -1.656315 l 5.52795,-0.10352 v 1.759835 l -1.15942,0.20704 1.84265,5.797104 1.75984,-5.734993 -1.20083,-0.269151 v -1.656315 l 5.56936,-0.10352 v 1.759835 l -1.28364,0.269151 -3.04348,8.488617 q -0.45549,1.221533 -0.86957,2.049691 -0.39337,0.848862 -1.0559,1.739132 -0.66253,0.91097 -1.5942,1.36646 -0.93168,0.47619 -2.11181,0.47619 l -2.00828,-0.16563 0.28986,-2.21532 h 1.34575 q 0.57971,0 1.0559,-0.26915 0.4969,-0.248452 0.82816,-0.745347 0.35197,-0.476191 0.5176,-0.78675 0.16563,-0.310559 0.37267,-0.766046 z"
           style="font-style:normal;font-variant:normal;font-weight:bold;font-stretch:normal;font-size:20.70394325px;font-family:Bitter;-inkscape-font-specification:'Bitter, Bold';font-variant-ligatures:normal;font-variant-caps:normal;font-variant-numeric:normal;font-feature-settings:normal;text-align:start;writing-mode:lr-tb;text-anchor:start;stroke-width:0.26458329"
           id="path1026" />
      </g>
      <g
         aria-label="Point "
         style="font-style:normal;font-variant:normal;font-weight:bold;font-stretch:normal;font-size:20.70394325px;line-height:1.25;font-family:Bitter;-inkscape-font-specification:'Bitter, Bold';font-variant-ligatures:normal;font-variant-caps:normal;font-variant-numeric:normal;font-feature-settings:normal;text-align:start;letter-spacing:0px;word-spacing:0px;writing-mode:lr-tb;text-anchor:start;fill:#000000;fill-opacity:1;stroke:none;stroke-width:0.26458329"
         id="text986">
        <path
           d="m 110.55759,119.03806 v 1.80124 h -6.3147 v -1.80124 l 1.55279,-0.5176 v -9.83437 l -1.55279,-0.62112 v -1.71843 l 4.7619,-0.10352 h 1.96688 q 2.36025,0 3.6853,1.15942 1.34576,1.15942 1.34576,3.18841 0,2.56729 -1.53209,3.87164 -1.51139,1.30435 -4.36854,1.30435 h -1.09731 v 2.75362 z m -1.5528,-10.35197 v 4.65838 h 1.09731 q 1.30435,0 1.98758,-0.60041 0.70394,-0.60041 0.70394,-1.73913 0,-1.0352 -0.55901,-1.67702 -0.5383,-0.64182 -1.5735,-0.64182 z"
           style="font-style:normal;font-variant:normal;font-weight:bold;font-stretch:normal;font-size:20.70394325px;font-family:Bitter;-inkscape-font-specification:'Bitter, Bold';font-variant-ligatures:normal;font-variant-caps:normal;font-variant-numeric:normal;font-feature-settings:normal;text-align:start;writing-mode:lr-tb;text-anchor:start;stroke-width:0.26458329"
           id="path1029" />
        <path
           d="m 122.7493,109.45213 q 2.50518,0 3.85093,1.46998 1.36646,1.44928 1.36646,4.12009 0,2.77433 -1.51138,4.38923 -1.49069,1.61491 -4.01657,1.61491 -5.2795,0 -5.2795,-5.69358 0,-2.77433 1.51138,-4.32713 1.51139,-1.5735 4.07868,-1.5735 z m -0.10352,2.38096 q -1.18012,0 -1.73913,0.76604 -0.5383,0.76605 -0.5383,2.65011 0,1.78054 0.5176,2.60869 0.51759,0.80746 1.65631,0.80746 1.13872,0 1.67702,-0.80746 0.5383,-0.80745 0.5383,-2.71221 0,-1.67702 -0.5176,-2.48448 -0.49689,-0.82815 -1.5942,-0.82815 z"
           style="font-style:normal;font-variant:normal;font-weight:bold;font-stretch:normal;font-size:20.70394325px;font-family:Bitter;-inkscape-font-specification:'Bitter, Bold';font-variant-ligatures:normal;font-variant-caps:normal;font-variant-numeric:normal;font-feature-settings:normal;text-align:start;writing-mode:lr-tb;text-anchor:start;stroke-width:0.26458329"
           id="path1031" />
        <path
           d="m 129.41176,109.8248 4.6998,-0.16563 v 9.00622 l 1.44928,0.5176 v 1.65631 h -6.14908 v -1.65631 l 1.65632,-0.5176 v -6.77019 l -1.65632,-0.41408 z m 1.26294,-3.58178 q 0,-0.84886 0.5176,-1.34575 0.53831,-0.5176 1.26294,-0.5176 1.73914,0 1.73914,1.86335 0,0.86957 -0.53831,1.38717 -0.5176,0.49689 -1.20083,0.49689 -0.84886,0 -1.32505,-0.47619 -0.45549,-0.49689 -0.45549,-1.40787 z"
           style="font-style:normal;font-variant:normal;font-weight:bold;font-stretch:normal;font-size:20.70394325px;font-family:Bitter;-inkscape-font-specification:'Bitter, Bold';font-variant-ligatures:normal;font-variant-caps:normal;font-variant-numeric:normal;font-feature-settings:normal;text-align:start;writing-mode:lr-tb;text-anchor:start;stroke-width:0.26458329"
           id="path1033" />
        <path
           d="m 136.81181,109.8248 4.28571,-0.16563 0.14493,1.42857 q 0.22774,-0.18633 0.60042,-0.43478 0.37267,-0.26915 1.36646,-0.70393 1.01449,-0.45549 1.84265,-0.45549 1.49068,0 2.27743,0.99379 0.80745,0.97309 0.80745,2.69151 v 5.48655 q 0.26916,0.0828 0.76605,0.26915 0.4969,0.18633 0.68323,0.24845 v 1.65631 h -5.59006 v -1.65631 l 1.0973,-0.5176 v -5.01036 q 0,-0.72463 -0.39337,-1.18012 -0.37267,-0.47619 -1.01449,-0.47619 -0.57971,0 -1.13872,0.31056 -0.5383,0.28985 -0.80745,0.57971 l -0.26916,0.28985 v 5.48655 l 1.07661,0.5176 v 1.65631 h -5.73499 v -1.65631 l 1.5942,-0.5176 v -6.77019 l -1.5942,-0.41408 z"
           style="font-style:normal;font-variant:normal;font-weight:bold;font-stretch:normal;font-size:20.70394325px;font-family:Bitter;-inkscape-font-specification:'Bitter, Bold';font-variant-ligatures:normal;font-variant-caps:normal;font-variant-numeric:normal;font-feature-settings:normal;text-align:start;writing-mode:lr-tb;text-anchor:start;stroke-width:0.26458329"
           id="path1035" />
        <path
           d="m 155.35801,121.04634 q -1.71843,0 -2.36025,-1.09731 -0.64182,-1.11801 -0.64182,-3.87163 v -3.87164 h -1.92547 v -1.96688 l 1.92547,-0.26915 v -2.85714 l 3.04348,-0.55901 v 3.41615 h 2.89855 v 2.23603 h -2.89855 v 4.67909 q 0,1.0352 0.22774,1.44927 0.22775,0.41408 0.86957,0.41408 0.74534,0 1.63561,-0.47619 l 0.74534,1.49069 q -1.82194,1.28364 -3.51967,1.28364 z"
           style="font-style:normal;font-variant:normal;font-weight:bold;font-stretch:normal;font-size:20.70394325px;font-family:Bitter;-inkscape-font-specification:'Bitter, Bold';font-variant-ligatures:normal;font-variant-caps:normal;font-variant-numeric:normal;font-feature-settings:normal;text-align:start;writing-mode:lr-tb;text-anchor:start;stroke-width:0.26458329"
           id="path1037" />
      </g>
      <g
         aria-label=" Salad"
         style="font-style:normal;font-variant:normal;font-weight:bold;font-stretch:normal;font-size:20.70394325px;line-height:1.25;font-family:Bitter;-inkscape-font-specification:'Bitter, Bold';font-variant-ligatures:normal;font-variant-caps:normal;font-variant-numeric:normal;font-feature-settings:normal;text-align:start;letter-spacing:0px;word-spacing:0px;writing-mode:lr-tb;text-anchor:start;fill:#000000;fill-opacity:1;stroke:none;stroke-width:0.26458329"
         id="text990">
        <path
           d="m 133.45537,136.69807 0.31056,1.73913 q 0.82816,0.43478 2.02899,0.43478 1.0559,0 1.78054,-0.43478 0.72464,-0.45548 0.72464,-1.24223 0,-0.55901 -0.5176,-0.97309 -0.5176,-0.41408 -1.30435,-0.64182 -0.76605,-0.22775 -1.67702,-0.60042 -0.91097,-0.39337 -1.69772,-0.82815 -0.76605,-0.45549 -1.28365,-1.32506 -0.5176,-0.89027 -0.5176,-2.09109 0,-2.0911 1.44928,-3.22982 1.46998,-1.15942 3.80952,-1.15942 1.0352,0 2.17392,0.20704 1.13872,0.20704 1.75983,0.41408 l 0.62112,0.20704 -0.10352,3.76811 h -1.90476 l -0.5176,-1.75983 q -0.93168,-0.31056 -1.82195,-0.31056 -1.0559,0 -1.63561,0.41408 -0.559,0.41408 -0.559,1.0559 0,0.55901 0.51759,0.97309 0.5176,0.41407 1.28365,0.66252 0.78675,0.22775 1.67702,0.60042 0.91097,0.37267 1.67702,0.80745 0.78675,0.43478 1.30435,1.28364 0.5176,0.84887 0.5176,1.98758 0,2.25673 -1.5735,3.54038 -1.5528,1.26294 -4.01657,1.26294 -1.0352,0 -2.19462,-0.20704 -1.15942,-0.18634 -1.80124,-0.39338 l -0.62112,-0.18633 v -3.97516 z"
           style="font-style:normal;font-variant:normal;font-weight:bold;font-stretch:normal;font-size:20.70394325px;font-family:Bitter;-inkscape-font-specification:'Bitter, Bold';font-variant-ligatures:normal;font-variant-caps:normal;font-variant-numeric:normal;font-feature-settings:normal;text-align:start;writing-mode:lr-tb;text-anchor:start;stroke-width:0.26458329"
           id="path1040" />
        <path
           d="m 154.39774,141.0459 -4.09938,0.14493 -0.37268,-1.34576 q -0.18633,0.16563 -0.49689,0.43478 -0.31056,0.24845 -1.20083,0.68323 -0.86956,0.43479 -1.65631,0.43479 -1.51139,0 -2.36025,-0.84887 -0.84887,-0.84886 -0.84887,-2.40165 0,-3.41615 4.96895,-3.41615 h 1.44928 v -1.13872 q 0,-1.5528 -1.59421,-1.5528 -0.47619,0 -0.93167,0.0828 -0.45549,0.0828 -0.68323,0.16563 l -0.20704,0.0621 -0.31056,1.34576 h -1.86336 l -0.14493,-3.06418 q 2.50518,-0.82816 4.49276,-0.82816 2.36025,0 3.33334,0.93168 0.97308,0.91097 0.97308,3.1677 v 5.11387 l 1.5528,0.37267 z m -8.05384,-3.20911 q 0,1.24223 1.22154,1.24223 0.49689,0 1.03519,-0.28985 0.55901,-0.31056 0.86957,-0.62112 l 0.31056,-0.28985 v -1.38717 h -1.18013 q -1.20083,0 -1.73913,0.33126 -0.5176,0.31056 -0.5176,1.0145 z"
           style="font-style:normal;font-variant:normal;font-weight:bold;font-stretch:normal;font-size:20.70394325px;font-family:Bitter;-inkscape-font-specification:'Bitter, Bold';font-variant-ligatures:normal;font-variant-caps:normal;font-variant-numeric:normal;font-feature-settings:normal;text-align:start;writing-mode:lr-tb;text-anchor:start;stroke-width:0.26458329"
           id="path1042" />
        <path
           d="m 155.36662,125.3109 4.78261,-0.16563 v 13.87164 l 1.96687,0.5176 v 1.65632 h -6.74948 v -1.65632 l 1.65631,-0.5176 V 127.3813 l -1.65631,-0.41408 z"
           style="font-style:normal;font-variant:normal;font-weight:bold;font-stretch:normal;font-size:20.70394325px;font-family:Bitter;-inkscape-font-specification:'Bitter, Bold';font-variant-ligatures:normal;font-variant-caps:normal;font-variant-numeric:normal;font-feature-settings:normal;text-align:start;writing-mode:lr-tb;text-anchor:start;stroke-width:0.26458329"
           id="path1044" />
        <path
           d="m 174.05031,141.0459 -4.09939,0.14493 -0.37267,-1.34576 q -0.18633,0.16563 -0.49689,0.43478 -0.31056,0.24845 -1.20083,0.68323 -0.86957,0.43479 -1.65632,0.43479 -1.51138,0 -2.36024,-0.84887 -0.84887,-0.84886 -0.84887,-2.40165 0,-3.41615 4.96895,-3.41615 h 1.44928 v -1.13872 q 0,-1.5528 -1.59421,-1.5528 -0.47619,0 -0.93167,0.0828 -0.45549,0.0828 -0.68324,0.16563 l -0.20703,0.0621 -0.31056,1.34576 h -1.86336 l -0.14493,-3.06418 q 2.50518,-0.82816 4.49276,-0.82816 2.36025,0 3.33333,0.93168 0.97309,0.91097 0.97309,3.1677 v 5.11387 l 1.5528,0.37267 z m -8.05384,-3.20911 q 0,1.24223 1.22153,1.24223 0.4969,0 1.0352,-0.28985 0.55901,-0.31056 0.86957,-0.62112 l 0.31056,-0.28985 v -1.38717 h -1.18013 q -1.20083,0 -1.73913,0.33126 -0.5176,0.31056 -0.5176,1.0145 z"
           style="font-style:normal;font-variant:normal;font-weight:bold;font-stretch:normal;font-size:20.70394325px;font-family:Bitter;-inkscape-font-specification:'Bitter, Bold';font-variant-ligatures:normal;font-variant-caps:normal;font-variant-numeric:normal;font-feature-settings:normal;text-align:start;writing-mode:lr-tb;text-anchor:start;stroke-width:0.26458329"
           id="path1046" />
        <path
           d="m 187.06888,141.0459 -4.34783,0.14493 -0.18633,-1.09731 q -1.30435,1.30435 -3.1263,1.30435 -2.1325,0 -3.18841,-1.44928 -1.0559,-1.44928 -1.0559,-4.07868 0,-2.93996 1.46998,-4.49275 1.49069,-1.5735 4.38924,-1.5735 0.68323,0 1.34576,0.20704 v -2.6294 l -1.65632,-0.41408 v -1.65632 l 4.6998,-0.16563 v 13.83023 l 1.65631,0.41408 z m -4.69979,-3.25052 v -5.30021 q -0.5176,-0.31056 -1.61491,-0.31056 -2.38096,0 -2.38096,3.51967 0,3.27122 1.98758,3.27122 0.57971,0 1.07661,-0.28985 0.5176,-0.31056 0.72464,-0.60042 z"
           style="font-style:normal;font-variant:normal;font-weight:bold;font-stretch:normal;font-size:20.70394325px;font-family:Bitter;-inkscape-font-specification:'Bitter, Bold';font-variant-ligatures:normal;font-variant-caps:normal;font-variant-numeric:normal;font-feature-settings:normal;text-align:start;writing-mode:lr-tb;text-anchor:start;stroke-width:0.26458329"
           id="path1048" />
      </g>
    </g>
    <g
       id="g1004"
       transform="matrix(0,-1.1977595,1.1977595,0,0.06529078,417.14119)"
       style="stroke-width:0.83489215">
      <g
         aria-label="1-4 players"
         style="font-style:normal;font-variant:normal;font-weight:normal;font-stretch:normal;font-size:5.32605886px;line-height:1.25;font-family:Bitter;-inkscape-font-specification:Bitter;letter-spacing:0px;word-spacing:0px;fill:#000000;fill-opacity:1;stroke:none;stroke-width:0.22089852"
         id="text994">
        <path
           d="m 188.59716,205.10071 v 0.45271 h -2.17836 v -0.45271 h 0.82022 v -2.66303 l -0.90543,0.58586 -0.2237,-0.38347 1.24098,-0.81489 h 0.44738 v 3.27553 z"
           style="stroke-width:0.22089852"
           id="path1137"
           inkscape:connector-curvature="0" />
        <path
           d="m 189.04838,204.32843 v -0.45272 h 1.38478 v 0.45272 z"
           style="stroke-width:0.22089852"
           id="path1139"
           inkscape:connector-curvature="0" />
        <path
           d="m 190.83261,204.27517 1.70434,-2.52988 0.6125,0.0799 v 2.39673 h 0.61249 v 0.45271 h -0.61249 v 0.8788 h -0.54859 v -0.8788 h -1.71499 z m 1.76825,-1.81086 -1.18238,1.7576 h 1.18238 z"
           style="stroke-width:0.22089852"
           id="path1141"
           inkscape:connector-curvature="0" />
        <path
           d="m 196.23773,202.73061 0.0426,0.29826 q 0.37282,-0.35152 0.80956,-0.35152 0.56456,0 0.85217,0.37282 0.29293,0.3675 0.29293,1.04924 0,0.33021 -0.0905,0.60717 -0.0852,0.27695 -0.26631,0.47934 -0.18108,0.19707 -0.45271,0.30891 -0.26631,0.11185 -0.62848,0.11185 -0.22369,0 -0.47934,-0.0746 v 0.84684 l 0.55923,0.10652 v 0.29293 h -1.51792 v -0.29293 l 0.42608,-0.10652 v -3.22227 l -0.45271,-0.10652 v -0.29293 z m 0.0799,0.74565 v 1.59782 q 0.16511,0.10652 0.55923,0.10652 0.79891,0 0.79891,-1.06521 0,-0.4687 -0.17043,-0.74033 -0.17044,-0.27163 -0.52195,-0.27163 -0.2024,0 -0.38348,0.0959 -0.17576,0.0906 -0.28228,0.27696 z"
           style="stroke-width:0.22089852"
           id="path1143"
           inkscape:connector-curvature="0" />
        <path
           d="m 199.60504,201.45236 v 3.67498 l 0.53261,0.13315 v 0.29293 h -1.52858 v -0.29293 l 0.45272,-0.13315 v -3.2489 l -0.45272,-0.10652 v -0.29293 z"
           style="stroke-width:0.22089852"
           id="path1145"
           inkscape:connector-curvature="0" />
        <path
           d="m 200.56057,202.89039 q 0.57522,-0.21304 1.05456,-0.21304 0.4687,0 0.71902,0.19174 0.25033,0.18641 0.25033,0.6338 v 1.62445 l 0.42608,0.10652 v 0.29293 l -0.82554,0.0266 -0.11185,-0.37282 q -0.42608,0.42608 -0.84151,0.42608 -0.41544,0 -0.62315,-0.20771 -0.20772,-0.20772 -0.20772,-0.5912 0,-0.82554 1.22499,-0.82554 h 0.42609 v -0.42608 q 0,-0.47935 -0.50598,-0.47935 -0.2876,0 -0.47402,0.0586 l -0.0639,0.0213 -0.0746,0.39946 h -0.3462 z m 1.4913,1.43804 h -0.37282 q -0.39946,0 -0.56989,0.10652 -0.16511,0.10119 -0.16511,0.31956 0,0.20772 0.0959,0.31957 0.10119,0.10652 0.28761,0.10652 0.0905,0 0.18108,-0.032 0.0959,-0.032 0.18109,-0.0799 0.0905,-0.0479 0.15978,-0.1012 0.0692,-0.0586 0.11185,-0.10652 l 0.0905,-0.10652 z"
           style="stroke-width:0.22089852"
           id="path1147"
           inkscape:connector-curvature="0" />
        <path
           d="m 204.47231,202.73061 v 0.31956 l -0.37282,0.0533 0.63913,1.86412 0.58586,-1.83749 -0.37282,-0.0799 v -0.29293 l 1.26227,-0.0266 v 0.31956 l -0.34619,0.0533 -0.7563,2.10912 q -0.2663,0.69772 -0.39413,0.92674 -0.39945,0.68706 -1.04391,0.69239 l -0.34086,-0.0266 0.0479,-0.37282 h 0.2663 q 0.26098,0 0.45272,-0.21837 0.19706,-0.21837 0.39413,-0.64978 l -0.95337,-2.43401 -0.31956,-0.0799 v -0.29293 z"
           style="stroke-width:0.22089852"
           id="path1149"
           inkscape:connector-curvature="0" />
        <path
           d="m 208.84592,204.21125 -1.83749,0.0107 q 0,0.43673 0.20772,0.69771 0.21304,0.26098 0.56456,0.26098 0.11717,0 0.23435,-0.0213 0.11717,-0.0213 0.21837,-0.0533 0.10652,-0.0319 0.19173,-0.0692 0.0852,-0.0426 0.14381,-0.0799 l 0.10652,-0.0692 0.18641,0.27696 q -0.18108,0.1438 -0.33554,0.22902 -0.14913,0.0799 -0.35685,0.14913 -0.20239,0.0639 -0.44206,0.0639 -0.62847,0 -0.95336,-0.37815 -0.32489,-0.38347 -0.32489,-1.04391 0,-0.33021 0.0959,-0.60717 0.0959,-0.27695 0.2663,-0.47402 0.17576,-0.20239 0.41543,-0.31423 0.23967,-0.11185 0.52728,-0.11185 1.11847,0 1.11847,1.25162 z m -1.81618,-0.3888 h 1.27825 q 0,-0.32489 -0.13848,-0.52728 -0.13847,-0.20239 -0.44739,-0.20239 -0.30358,0 -0.48467,0.20772 -0.18108,0.20239 -0.20771,0.52195 z"
           style="stroke-width:0.22089852"
           id="path1151"
           inkscape:connector-curvature="0" />
        <path
           d="m 210.14706,202.73061 0.0479,0.3888 q 0.39412,-0.44206 0.80423,-0.44206 0.21837,0 0.42076,0.0639 l 0.0586,0.016 -0.0266,0.77228 h -0.3462 l -0.0799,-0.39946 q -0.45804,0 -0.77228,0.41544 v 1.58184 l 0.53261,0.13315 v 0.29293 h -1.51793 v -0.29293 l 0.45272,-0.13315 v -1.97065 l -0.45272,-0.10652 v -0.29293 z"
           style="stroke-width:0.22089852"
           id="path1153"
           inkscape:connector-curvature="0" />
        <path
           d="m 211.776,204.70125 h 0.37283 l 0.0586,0.45804 q 0.0533,0.0213 0.1651,0.0373 0.11718,0.0106 0.22902,0.0106 0.3462,0 0.50065,-0.1012 0.15978,-0.10652 0.15978,-0.31956 0,-0.14381 -0.11184,-0.22902 -0.10652,-0.0852 -0.27163,-0.14381 -0.16511,-0.0586 -0.36217,-0.11717 -0.19174,-0.0586 -0.35685,-0.14913 -0.16511,-0.0959 -0.27695,-0.245 -0.10653,-0.14913 -0.10653,-0.39413 0,-0.39945 0.26631,-0.60717 0.2663,-0.21304 0.70836,-0.22369 0.18642,0.005 0.37815,0.032 0.19707,0.0213 0.39946,0.0852 l 0.13315,0.0426 -0.016,0.71902 h -0.34619 l -0.0852,-0.41543 q -0.0426,-0.016 -0.16511,-0.0373 -0.1225,-0.0266 -0.26097,-0.0266 -0.0959,0 -0.18109,0.016 -0.0852,0.016 -0.15446,0.0533 -0.0639,0.0373 -0.10652,0.10652 -0.0373,0.0692 -0.0373,0.17044 0,0.15445 0.10652,0.245 0.11185,0.0852 0.27696,0.14913 0.1651,0.0639 0.35684,0.1225 0.19707,0.0586 0.36217,0.15445 0.16511,0.0905 0.27163,0.23435 0.11185,0.1438 0.11185,0.37815 0,0.22369 -0.0959,0.39413 -0.0959,0.17043 -0.26098,0.2876 -0.15978,0.11185 -0.37815,0.16511 -0.21304,0.0586 -0.45804,0.0586 -0.0905,0 -0.19173,-0.0106 -0.0959,-0.005 -0.19174,-0.0213 -0.0959,-0.0106 -0.18109,-0.0266 -0.0799,-0.016 -0.13315,-0.032 l -0.1225,-0.0319 z"
           style="stroke-width:0.22089852"
           id="path1155"
           inkscape:connector-curvature="0" />
      </g>
      <g
         aria-label="15 minutes per player"
         style="font-style:normal;font-variant:normal;font-weight:normal;font-stretch:normal;font-size:5.32605886px;line-height:1.25;font-family:Bitter;-inkscape-font-specification:Bitter;letter-spacing:0px;word-spacing:0px;fill:#000000;fill-opacity:1;stroke:none;stroke-width:0.22089852"
         id="text998">
        <path
           d="m 188.19366,210.95161 v 0.45272 h -2.17836 v -0.45272 h 0.82021 v -2.66303 l -0.90543,0.58587 -0.22369,-0.38348 1.24097,-0.81488 h 0.44739 v 3.27552 z"
           style="stroke-width:0.22089852"
           id="path1158"
           inkscape:connector-curvature="0" />
        <path
           d="m 190.73269,207.67609 -0.016,0.45271 h -1.50195 l -0.0479,1.01195 h 0.17043 q 0.35685,0 0.64446,0.0799 0.2876,0.0799 0.48467,0.22902 0.20239,0.14913 0.30891,0.35685 0.10652,0.20239 0.10652,0.45271 0,0.28229 -0.10652,0.50598 -0.10652,0.21837 -0.29293,0.37815 -0.18109,0.15978 -0.42076,0.23967 -0.23435,0.0746 -0.5113,0.0746 -0.15446,0 -0.30892,-0.0213 -0.14912,-0.016 -0.28228,-0.0426 -0.13315,-0.032 -0.23967,-0.0692 -0.10652,-0.0373 -0.15978,-0.0692 l -0.12783,-0.0639 0.15979,-0.42609 q 0.42075,0.23967 0.93206,0.23967 0.15978,0 0.29826,-0.0479 0.1438,-0.0479 0.24499,-0.13848 0.10653,-0.0959 0.16511,-0.22902 0.0639,-0.13315 0.0639,-0.30891 0,-0.35152 -0.2876,-0.53261 -0.28761,-0.18108 -0.80424,-0.18108 h -0.55923 l 0.0692,-1.89075 z"
           style="stroke-width:0.22089852"
           id="path1160"
           inkscape:connector-curvature="0" />
        <path
           d="m 193.46371,208.58152 0.0479,0.37815 q 0.0746,-0.0692 0.18108,-0.14381 0.10652,-0.0799 0.23435,-0.1438 0.12782,-0.0639 0.2663,-0.1012 0.1438,-0.0426 0.28228,-0.0426 0.53793,0 0.74032,0.45804 0.0959,-0.0959 0.2237,-0.17576 0.12782,-0.0852 0.26098,-0.14913 0.13847,-0.0639 0.2663,-0.0959 0.13315,-0.0373 0.23967,-0.0373 0.82554,0 0.82554,0.95869 v 1.49129 l 0.39946,0.13315 v 0.29294 h -1.27826 v -0.29294 l 0.34619,-0.13315 v -1.43803 q 0,-0.29294 -0.10119,-0.42609 -0.1012,-0.13315 -0.33022,-0.13315 -0.11184,0 -0.21836,0.032 -0.1012,0.0266 -0.19174,0.0746 -0.0906,0.0479 -0.15978,0.10652 -0.0692,0.0533 -0.11185,0.10652 l -0.0852,0.10653 v 1.57118 l 0.3462,0.13315 v 0.29294 h -1.225 v -0.29294 l 0.3462,-0.13315 v -1.43803 q 0,-0.29294 -0.1012,-0.42609 -0.10119,-0.13315 -0.33022,-0.13315 -0.11184,0 -0.21836,0.032 -0.1012,0.0266 -0.19174,0.0746 -0.0905,0.0479 -0.15978,0.10652 -0.0692,0.0533 -0.11185,0.10652 l -0.0852,0.10653 v 1.57118 l 0.3462,0.13315 v 0.29294 h -1.33152 v -0.29294 l 0.45272,-0.13315 v -1.97064 l -0.45272,-0.10652 v -0.29293 z"
           style="stroke-width:0.22089852"
           id="path1162"
           inkscape:connector-curvature="0" />
        <path
           d="m 198.49933,207.32989 q 0.3462,0 0.3462,0.39946 0,0.1651 -0.11718,0.25565 -0.11717,0.0905 -0.25032,0.0905 -0.1438,0 -0.23435,-0.0959 -0.0905,-0.10119 -0.0905,-0.27695 0,-0.17576 0.0959,-0.27163 0.10119,-0.1012 0.25032,-0.1012 z m 0.29294,1.25163 v 2.39672 l 0.39945,0.13315 v 0.29294 h -1.38477 v -0.29294 l 0.45271,-0.13315 v -1.97064 l -0.45271,-0.10652 v -0.29293 z"
           style="stroke-width:0.22089852"
           id="path1164"
           inkscape:connector-curvature="0" />
        <path
           d="m 200.47497,208.58152 0.0479,0.37815 q 0.0533,-0.0426 0.14913,-0.11718 0.0959,-0.0746 0.2237,-0.1438 0.13315,-0.0692 0.28761,-0.11717 0.15978,-0.0533 0.33021,-0.0533 0.43141,0 0.63913,0.25565 0.21304,0.25032 0.21304,0.70304 v 1.49129 l 0.39945,0.13315 v 0.29294 h -1.27825 v -0.29294 l 0.34619,-0.13315 v -1.43803 q 0,-0.28761 -0.11184,-0.42076 -0.11185,-0.13848 -0.34087,-0.13848 -0.11185,0 -0.2237,0.032 -0.10652,0.0266 -0.20239,0.0746 -0.0905,0.0479 -0.1651,0.10652 -0.0692,0.0533 -0.11718,0.10652 l -0.0905,0.10653 v 1.57118 l 0.34619,0.13315 v 0.29294 h -1.33151 v -0.29294 l 0.45271,-0.13315 v -1.97064 l -0.45271,-0.10652 v -0.29293 z"
           style="stroke-width:0.22089852"
           id="path1166"
           inkscape:connector-curvature="0" />
        <path
           d="m 205.79603,208.58152 v 2.39672 l 0.45272,0.10652 v 0.29294 l -0.8788,0.0266 -0.0533,-0.37283 q -0.2237,0.19707 -0.50598,0.31424 -0.28228,0.11185 -0.47934,0.11185 -0.42609,0 -0.63913,-0.25033 -0.21304,-0.25032 -0.21304,-0.70304 v -1.49662 l -0.45272,-0.10652 v -0.29293 l 0.98532,-0.0266 v 1.86944 q 0,0.28228 0.11185,0.42076 0.11185,0.13315 0.34087,0.13315 0.22902,0 0.42076,-0.10652 0.19174,-0.10652 0.28228,-0.20771 l 0.0959,-0.10653 v -1.57651 l -0.45272,-0.10652 v -0.29293 z"
           style="stroke-width:0.22089852"
           id="path1168"
           inkscape:connector-curvature="0" />
        <path
           d="m 207.55571,207.83054 v 0.77761 h 0.77228 v 0.39945 h -0.77228 v 1.70967 q 0,0.32489 0.26631,0.32489 0.17043,0 0.41543,-0.13316 l 0.1438,0.28229 q -0.36217,0.2663 -0.74564,0.2663 -0.27163,0 -0.44207,-0.17576 -0.17043,-0.18109 -0.17043,-0.59652 v -1.67771 h -0.53261 v -0.34619 l 0.53261,-0.0533 v -0.67109 z"
           style="stroke-width:0.22089852"
           id="path1170"
           inkscape:connector-curvature="0" />
        <path
           d="m 211.09505,210.06216 -1.83749,0.0106 q 0,0.43674 0.20771,0.69772 0.21305,0.26097 0.56457,0.26097 0.11717,0 0.23434,-0.0213 0.11718,-0.0213 0.21837,-0.0533 0.10652,-0.032 0.19174,-0.0692 0.0852,-0.0426 0.1438,-0.0799 l 0.10652,-0.0692 0.18642,0.27696 q -0.18109,0.1438 -0.33555,0.22902 -0.14913,0.0799 -0.35684,0.14913 -0.20239,0.0639 -0.44206,0.0639 -0.62848,0 -0.95337,-0.37815 -0.32489,-0.38348 -0.32489,-1.04391 0,-0.33022 0.0959,-0.60717 0.0959,-0.27696 0.2663,-0.47402 0.17576,-0.20239 0.41544,-0.31424 0.23967,-0.11184 0.52728,-0.11184 1.11847,0 1.11847,1.25162 z m -1.81619,-0.3888 h 1.27826 q 0,-0.32489 -0.13848,-0.52728 -0.13848,-0.20239 -0.44739,-0.20239 -0.30359,0 -0.48467,0.20771 -0.18109,0.20239 -0.20772,0.52196 z"
           style="stroke-width:0.22089852"
           id="path1172"
           inkscape:connector-curvature="0" />
        <path
           d="m 211.54934,210.55216 h 0.37283 l 0.0586,0.45804 q 0.0533,0.0213 0.16511,0.0373 0.11717,0.0106 0.22902,0.0106 0.3462,0 0.50065,-0.10119 0.15978,-0.10652 0.15978,-0.31957 0,-0.1438 -0.11184,-0.22902 -0.10653,-0.0852 -0.27163,-0.1438 -0.16511,-0.0586 -0.36217,-0.11717 -0.19174,-0.0586 -0.35685,-0.14913 -0.16511,-0.0959 -0.27696,-0.245 -0.10652,-0.14913 -0.10652,-0.39413 0,-0.39945 0.26631,-0.60717 0.2663,-0.21304 0.70836,-0.22369 0.18641,0.005 0.37815,0.032 0.19707,0.0213 0.39946,0.0852 l 0.13315,0.0426 -0.016,0.71902 h -0.34619 l -0.0852,-0.41544 q -0.0426,-0.016 -0.16511,-0.0373 -0.1225,-0.0266 -0.26098,-0.0266 -0.0959,0 -0.18108,0.016 -0.0852,0.016 -0.15446,0.0533 -0.0639,0.0373 -0.10652,0.10652 -0.0373,0.0692 -0.0373,0.17043 0,0.15446 0.10652,0.245 0.11185,0.0852 0.27696,0.14913 0.1651,0.0639 0.35684,0.1225 0.19707,0.0586 0.36217,0.15446 0.16511,0.0905 0.27163,0.23434 0.11185,0.14381 0.11185,0.37815 0,0.2237 -0.0959,0.39413 -0.0959,0.17044 -0.26098,0.28761 -0.15978,0.11185 -0.37815,0.16511 -0.21304,0.0586 -0.45804,0.0586 -0.0905,0 -0.19174,-0.0106 -0.0959,-0.005 -0.19173,-0.0213 -0.0959,-0.0106 -0.18109,-0.0266 -0.0799,-0.016 -0.13315,-0.032 l -0.1225,-0.032 z"
           style="stroke-width:0.22089852"
           id="path1174"
           inkscape:connector-curvature="0" />
        <path
           d="m 216.07741,208.58152 0.0426,0.29826 q 0.37282,-0.35152 0.80956,-0.35152 0.56456,0 0.85217,0.37282 0.29293,0.3675 0.29293,1.04923 0,0.33022 -0.0905,0.60717 -0.0852,0.27696 -0.2663,0.47935 -0.18109,0.19706 -0.45272,0.30891 -0.2663,0.11185 -0.62847,0.11185 -0.2237,0 -0.47935,-0.0746 v 0.84685 l 0.55924,0.10652 v 0.29293 h -1.51793 v -0.29293 l 0.42608,-0.10652 v -3.22227 l -0.45271,-0.10652 v -0.29293 z m 0.0799,0.74564 v 1.59782 q 0.16511,0.10652 0.55924,0.10652 0.79891,0 0.79891,-1.06521 0,-0.46869 -0.17044,-0.74032 -0.17043,-0.27163 -0.52195,-0.27163 -0.20239,0 -0.38348,0.0959 -0.17576,0.0905 -0.28228,0.27695 z"
           style="stroke-width:0.22089852"
           id="path1176"
           inkscape:connector-curvature="0" />
        <path
           d="m 220.92537,210.06216 -1.83749,0.0106 q 0,0.43674 0.20772,0.69772 0.21304,0.26097 0.56456,0.26097 0.11717,0 0.23435,-0.0213 0.11717,-0.0213 0.21836,-0.0533 0.10652,-0.032 0.19174,-0.0692 0.0852,-0.0426 0.14381,-0.0799 l 0.10652,-0.0692 0.18641,0.27696 q -0.18109,0.1438 -0.33554,0.22902 -0.14913,0.0799 -0.35685,0.14913 -0.20239,0.0639 -0.44206,0.0639 -0.62848,0 -0.95337,-0.37815 -0.32489,-0.38348 -0.32489,-1.04391 0,-0.33022 0.0959,-0.60717 0.0959,-0.27696 0.26631,-0.47402 0.17576,-0.20239 0.41543,-0.31424 0.23967,-0.11184 0.52728,-0.11184 1.11847,0 1.11847,1.25162 z m -1.81619,-0.3888 h 1.27826 q 0,-0.32489 -0.13848,-0.52728 -0.13848,-0.20239 -0.44739,-0.20239 -0.30358,0 -0.48467,0.20771 -0.18109,0.20239 -0.20772,0.52196 z"
           style="stroke-width:0.22089852"
           id="path1178"
           inkscape:connector-curvature="0" />
        <path
           d="m 222.22651,208.58152 0.0479,0.3888 q 0.39413,-0.44206 0.80424,-0.44206 0.21837,0 0.42076,0.0639 l 0.0586,0.016 -0.0266,0.77228 h -0.34619 l -0.0799,-0.39946 q -0.45804,0 -0.77228,0.41543 v 1.58184 l 0.53261,0.13315 v 0.29294 h -1.51793 v -0.29294 l 0.45271,-0.13315 v -1.97064 l -0.45271,-0.10652 v -0.29293 z"
           style="stroke-width:0.22089852"
           id="path1180"
           inkscape:connector-curvature="0" />
        <path
           d="m 225.87653,208.58152 0.0426,0.29826 q 0.37283,-0.35152 0.80956,-0.35152 0.56457,0 0.85217,0.37282 0.29294,0.3675 0.29294,1.04923 0,0.33022 -0.0905,0.60717 -0.0852,0.27696 -0.2663,0.47935 -0.18108,0.19706 -0.45271,0.30891 -0.26631,0.11185 -0.62848,0.11185 -0.22369,0 -0.47934,-0.0746 v 0.84685 l 0.55923,0.10652 v 0.29293 h -1.51792 v -0.29293 l 0.42608,-0.10652 v -3.22227 l -0.45271,-0.10652 v -0.29293 z m 0.0799,0.74564 v 1.59782 q 0.1651,0.10652 0.55923,0.10652 0.79891,0 0.79891,-1.06521 0,-0.46869 -0.17043,-0.74032 -0.17044,-0.27163 -0.52196,-0.27163 -0.20239,0 -0.38347,0.0959 -0.17576,0.0905 -0.28228,0.27695 z"
           style="stroke-width:0.22089852"
           id="path1182"
           inkscape:connector-curvature="0" />
        <path
           d="m 229.24384,207.30326 v 3.67498 l 0.53261,0.13315 v 0.29294 h -1.52858 v -0.29294 l 0.45272,-0.13315 v -3.24889 l -0.45272,-0.10652 v -0.29294 z"
           style="stroke-width:0.22089852"
           id="path1184"
           inkscape:connector-curvature="0" />
        <path
           d="m 230.19937,208.7413 q 0.57521,-0.21304 1.05456,-0.21304 0.46869,0 0.71902,0.19173 0.25032,0.18642 0.25032,0.6338 v 1.62445 l 0.42609,0.10652 v 0.29294 l -0.82554,0.0266 -0.11185,-0.37283 q -0.42608,0.42609 -0.84152,0.42609 -0.41543,0 -0.62315,-0.20772 -0.20771,-0.20771 -0.20771,-0.59119 0,-0.82554 1.22499,-0.82554 h 0.42609 v -0.42608 q 0,-0.47935 -0.50598,-0.47935 -0.28761,0 -0.47402,0.0586 l -0.0639,0.0213 -0.0746,0.39946 H 230.226 Z m 1.4913,1.43803 h -0.37283 q -0.39945,0 -0.56989,0.10653 -0.1651,0.10119 -0.1651,0.31956 0,0.20771 0.0959,0.31956 0.10119,0.10652 0.2876,0.10652 0.0906,0 0.18109,-0.0319 0.0959,-0.032 0.18108,-0.0799 0.0906,-0.0479 0.15979,-0.1012 0.0692,-0.0586 0.11184,-0.10652 l 0.0906,-0.10652 z"
           style="stroke-width:0.22089852"
           id="path1186"
           inkscape:connector-curvature="0" />
        <path
           d="m 234.11111,208.58152 v 0.31956 l -0.37282,0.0533 0.63912,1.86412 0.58587,-1.83749 -0.37283,-0.0799 v -0.29293 l 1.26228,-0.0266 v 0.31956 l -0.34619,0.0533 -0.7563,2.10912 q -0.26631,0.69771 -0.39413,0.92673 -0.39946,0.68707 -1.04391,0.69239 l -0.34087,-0.0266 0.0479,-0.37282 h 0.2663 q 0.26098,0 0.45272,-0.21837 0.19706,-0.21837 0.39412,-0.64978 l -0.95336,-2.43401 -0.31956,-0.0799 v -0.29293 z"
           style="stroke-width:0.22089852"
           id="path1188"
           inkscape:connector-curvature="0" />
        <path
           d="m 238.48472,210.06216 -1.83749,0.0106 q 0,0.43674 0.20772,0.69772 0.21304,0.26097 0.56456,0.26097 0.11717,0 0.23434,-0.0213 0.11718,-0.0213 0.21837,-0.0533 0.10652,-0.032 0.19174,-0.0692 0.0852,-0.0426 0.1438,-0.0799 l 0.10653,-0.0692 0.18641,0.27696 q -0.18109,0.1438 -0.33554,0.22902 -0.14913,0.0799 -0.35685,0.14913 -0.20239,0.0639 -0.44206,0.0639 -0.62848,0 -0.95337,-0.37815 -0.32489,-0.38348 -0.32489,-1.04391 0,-0.33022 0.0959,-0.60717 0.0959,-0.27696 0.2663,-0.47402 0.17576,-0.20239 0.41544,-0.31424 0.23967,-0.11184 0.52728,-0.11184 1.11847,0 1.11847,1.25162 z m -1.81619,-0.3888 h 1.27826 q 0,-0.32489 -0.13848,-0.52728 -0.13848,-0.20239 -0.44739,-0.20239 -0.30358,0 -0.48467,0.20771 -0.18109,0.20239 -0.20772,0.52196 z"
           style="stroke-width:0.22089852"
           id="path1190"
           inkscape:connector-curvature="0" />
        <path
           d="m 239.78586,208.58152 0.0479,0.3888 q 0.39412,-0.44206 0.80423,-0.44206 0.21837,0 0.42076,0.0639 l 0.0586,0.016 -0.0266,0.77228 h -0.3462 l -0.0799,-0.39946 q -0.45804,0 -0.77228,0.41543 v 1.58184 l 0.53261,0.13315 v 0.29294 h -1.51793 v -0.29294 l 0.45272,-0.13315 v -1.97064 l -0.45272,-0.10652 v -0.29293 z"
           style="stroke-width:0.22089852"
           id="path1192"
           inkscape:connector-curvature="0" />
      </g>
    </g>
  </g>
  <g
     inkscape:groupmode="layer"
     id="layer2"
     inkscape:label="Layer 2"
     style="display:none">
    <path
       transform="translate(-54.272857,-48.366267)"
       style="opacity:1;vector-effect:non-scaling-stroke;fill:none;fill-opacity:1;fill-rule:nonzero;stroke:#ff0000;stroke-width:0.5;stroke-linecap:round;stroke-linejoin:miter;stroke-miterlimit:4;stroke-dasharray:none;stroke-dashoffset:0;stroke-opacity:1"
       d="m 79.494858,53.616266 h 33.776232 l -6.28083,22.048612 H 85.775691 Z"
       id="rect40"
       inkscape:connector-curvature="0"
       sodipodi:nodetypes="ccccc" />
    <path
       transform="translate(-54.272857,-48.366267)"
       inkscape:connector-curvature="0"
       d="m 59.522857,155.61626 v 10.5 h 3 v 6 h -3 v 6 h 3 v 6 h -3 v 6 h 3 v 6 h -3 v 6 h 3 v 6 h -3 v 6 h 3 v 6 h -3 v 6 h 3 v 6 h -3 v 6 h 3 v 6 h -3 v 6 4.5 h 7.5 v -3 h 6 v 3 h 6 v -3 h 6 v 3 h 6 v -3 h 6 v 3 h 6.000003 v -3 h 6 v 3 h 6 v -3 h 6 v 3 h 6 v -3 h 6 v 3 h 6 v -3 h 6 v 3 h 6 v -3 h 6 v 3 h 6 v -3 h 6 v 3 h 6 v -3 h 6 v 3 h 6 v -3 h 6 v 3 h 7.5 v -10.5 h -3 v -6 h 3 v -6 h -3 v -6 h 3 v -6 h -3 v -6 h 3 v -6 h -3 v -6 h 3 v -6 h -3 v -6 h 3 v -6 h -3 v -6 h 3 v -6 h -3 v -6 h 3 v -6 -4.5 z"
       id="front_outsideCutPath"
       style="font-size:medium;vector-effect:non-scaling-stroke;fill:none;fill-rule:evenodd;stroke:#ff0000;stroke-width:0.5;stroke-linecap:round;stroke-miterlimit:4;stroke-dasharray:none" />
    <path
       transform="translate(-54.272857,-48.366267)"
       inkscape:connector-curvature="0"
       d="m 206.52286,155.77807 v 10.5 h -3 v 6 h 3 v 6 h -3 v 6 h 3 v 6 h -3 v 6 h 3 v 6 h -3 v 6 h 3 v 6 h -3 v 6 h 3 v 6 h -3 v 6 h 3 v 6 h -3 v 6 h 3 v 6 4.5 h 1.5 v -3 h 6 v 3 h 6 v -3 h 6 v 3 h 1.5 v -10.5 h 3 v -6 h -3 v -6 h 3 v -6 h -3 v -6 h 3 v -6 h -3 v -6 h 3 v -6 h -3 v -6 h 3 v -6 h -3 v -6 h 3 v -6 h -3 v -6 h 3 v -6 h -3 v -6 -4.5 z"
       id="left_outsideCutPath"
       style="font-size:medium;vector-effect:non-scaling-stroke;fill:none;fill-rule:evenodd;stroke:#ff0000;stroke-width:0.5;stroke-linecap:round;stroke-miterlimit:4;stroke-dasharray:none" />
    <path
       transform="translate(-54.272857,-48.366267)"
       inkscape:connector-curvature="0"
       d="m 59.522857,53.616266 v 10.5 h 3 v 6 h -3 v 6 h 3 v 6 h -3 v 6 h 3 v 6 h -3 v 5.999994 h 3 v 6 h -3 v 6 h 3 v 6 h -3 v 6 h 3 v 6 h -3 v 6 h 3 v 6 h -3 v 6 4.5 h 7.5 v -3 h 6 v 3 h 6 v -3 h 6 v 3 h 6 v -3 h 6 v 3 h 6.000003 v -3 h 6 v 3 h 6 v -3 h 6 v 3 h 6 v -3 h 6 v 3 h 6 v -3 h 6 v 3 h 6 v -3 h 6 v 3 h 6 v -3 h 6 v 3 h 6 v -3 h 6 v 3 h 6 v -3 h 6 v 3 h 7.5 v -10.5 h -3 v -6 h 3 v -6 h -3 v -6 h 3 v -6 h -3 v -6 h 3 v -6 h -3 v -6 h 3 v -5.999994 h -3 v -6 h 3 v -6 h -3 v -6 h 3 v -6 h -3 v -6 h 3 v -6 -4.5 z"
       id="back_outsideCutPath"
       style="font-size:medium;vector-effect:non-scaling-stroke;fill:none;fill-rule:evenodd;stroke:#ff0000;stroke-width:0.5;stroke-linecap:round;stroke-miterlimit:4;stroke-dasharray:none" />
    <path
       transform="translate(-54.272857,-48.366267)"
       inkscape:connector-curvature="0"
       d="m 206.52286,53.778072 v 10.5 h -3 v 6 h 3 v 6 h -3 v 6 h 3 v 6 h -3 v 6 h 3 v 5.999998 h -3 v 6 h 3 v 6 h -3 v 6 h 3 v 6 h -3 v 6 h 3 v 6 h -3 v 6 h 3 v 6 4.5 h 1.5 v -3 h 6 v 3 h 6 v -3 h 6 v 3 h 1.5 v -10.5 h 3 v -6 h -3 v -6 h 3 v -6 h -3 v -6 h 3 v -6 h -3 v -6 h 3 v -6 h -3 v -5.999998 h 3 v -6 h -3 v -6 h 3 v -6 h -3 v -6 h 3 v -6 h -3 v -6 -4.5 z"
       id="right_outsideCutPath"
       style="font-size:medium;vector-effect:non-scaling-stroke;fill:none;fill-rule:evenodd;stroke:#ff0000;stroke-width:0.5;stroke-linecap:round;stroke-miterlimit:4;stroke-dasharray:none" />
    <path
       transform="translate(-54.272857,-48.366267)"
       inkscape:connector-curvature="0"
       d="m 237.58238,229.02509 h 1.5 v 3 h 6 v -3 h 6 v 3 h 6 v -3 h 1.5 v -4.5 h 3 v -6 h -3 v -6 h 3 v -6 h -3 v -6 h 3 v -6 h -3 v -6 h 3 v -6 h -3 v -6 h 3 v -6 h -3 v -6 h 3 v -6 h -3 v -6 h 3 v -6 h -3 v -6 h 3 v -6 h -3 v -6 h 3 v -6 h -3 v -6 h 3 v -6 h -3 v -6 h 3 v -5.999996 h -3 v -4.5 h -1.5 v -3 h -6 v 3 h -6 v -3 h -6 v 3 h -1.5 v 4.5 h -3 v 5.999996 h 3 v 6 h -3 v 6 h 3 v 6 h -3 v 6 h 3 v 6 h -3 v 6 h 3 v 6 h -3 v 6 h 3 v 6 h -3 v 6 h 3 v 6 h -3 v 6 h 3 v 6 h -3 v 6 h 3 v 6 h -3 v 6 h 3 v 6 h -3 v 6 h 3 v 6 h -3 v 6 h 3 z"
       id="bottom_outsideCutPath"
       style="font-size:medium;vector-effect:non-scaling-stroke;fill:none;fill-rule:evenodd;stroke:#ff0000;stroke-width:0.5;stroke-linecap:round;stroke-miterlimit:4;stroke-dasharray:none" />
    <path
       transform="translate(-54.272857,-48.366267)"
       sodipodi:nodetypes="ccccc"
       inkscape:connector-curvature="0"
       id="path920"
       d="m 146.77464,53.616266 h 33.77623 l -6.28083,22.048612 h -21.21457 z"
       style="opacity:1;vector-effect:non-scaling-stroke;fill:none;fill-opacity:1;fill-rule:nonzero;stroke:#ff0000;stroke-width:0.5;stroke-linecap:round;stroke-linejoin:miter;stroke-miterlimit:4;stroke-dasharray:none;stroke-dashoffset:0;stroke-opacity:1" />
    <path
       transform="translate(-54.272857,-48.366267)"
       style="opacity:1;vector-effect:non-scaling-stroke;fill:none;fill-opacity:1;fill-rule:nonzero;stroke:#ff0000;stroke-width:0.5;stroke-linecap:round;stroke-linejoin:miter;stroke-miterlimit:4;stroke-dasharray:none;stroke-dashoffset:0;stroke-opacity:1"
       d="m 146.77464,155.61626 h 33.77623 l -6.28083,22.04861 h -21.21457 z"
       id="path928"
       inkscape:connector-curvature="0"
       sodipodi:nodetypes="ccccc" />
    <path
       transform="translate(-54.272857,-48.366267)"
       sodipodi:nodetypes="ccccc"
       inkscape:connector-curvature="0"
       id="path930"
       d="m 79.494858,155.61626 h 33.776232 l -6.28083,22.04861 H 85.775691 Z"
       style="opacity:1;vector-effect:non-scaling-stroke;fill:none;fill-opacity:1;fill-rule:nonzero;stroke:#ff0000;stroke-width:0.5;stroke-linecap:round;stroke-linejoin:miter;stroke-miterlimit:4;stroke-dasharray:none;stroke-dashoffset:0;stroke-opacity:1" />
  </g>
</svg>
