<?xml version="1.0" encoding="UTF-8" standalone="no"?>
<!-- Created with Inkscape (http://www.inkscape.org/) -->

<svg
   xmlns:dc="http://purl.org/dc/elements/1.1/"
   xmlns:cc="http://creativecommons.org/ns#"
   xmlns:rdf="http://www.w3.org/1999/02/22-rdf-syntax-ns#"
   xmlns:svg="http://www.w3.org/2000/svg"
   xmlns="http://www.w3.org/2000/svg"
   xmlns:sodipodi="http://sodipodi.sourceforge.net/DTD/sodipodi-0.dtd"
   xmlns:inkscape="http://www.inkscape.org/namespaces/inkscape"
   width="75"
   height="75"
   id="svg2"
   version="1.1"
   inkscape:version="0.91 r13725"
   sodipodi:docname="rules_figures_vp.svg">
  <sodipodi:namedview
     id="base"
     pagecolor="#ffffff"
     bordercolor="#666666"
     borderopacity="1.0"
     inkscape:pageopacity="0.0"
     inkscape:pageshadow="2"
     inkscape:zoom="4"
     inkscape:cx="77.863512"
     inkscape:cy="87.603655"
     inkscape:document-units="px"
     inkscape:current-layer="layer1"
     showgrid="false"
     inkscape:window-width="1920"
     inkscape:window-height="1017"
     inkscape:window-x="-8"
     inkscape:window-y="-8"
     inkscape:window-maximized="1"
     showguides="true"
     inkscape:guide-bbox="true"
     inkscape:snap-page="true"
     inkscape:snap-grids="true"
     inkscape:snap-to-guides="true" />
  <defs
     id="defs4">
    <inkscape:path-effect
       effect="vonkoch"
       id="path-effect5904"
       is_visible="true"
       ref_path="m 0.35355341,1002.4315 99.49999959,0"
       generator="m 0.35355341,1052.3241 33.16666659,0 m 33.166666,0 33.166667,0"
       similar_only="false"
       nbgenerations="1"
       drawall="true"
       maxComplexity="1000" />
  </defs>
  <metadata
     id="metadata7">
    <rdf:RDF>
      <cc:Work
         rdf:about="">
        <dc:format>image/svg+xml</dc:format>
        <dc:type
           rdf:resource="http://purl.org/dc/dcmitype/StillImage" />
        <dc:title />
      </cc:Work>
    </rdf:RDF>
  </metadata>
  <g
     inkscape:label="Layer 1"
     inkscape:groupmode="layer"
     id="layer1"
     transform="translate(0,-977.36218)">
    <path
       sodipodi:nodetypes="ccccccccccccccc"
       inkscape:connector-curvature="0"
       id="path4691"
       d="m 72.742402,980.84984 c -8.507879,2.251 -22.716567,4.0403 -35.257738,4.0545 -12.54117,-0.014 -26.171735,-1.5679 -34.679614,-3.819 l 0.726748,-1.0901 c 0,41.47836 6.411181,55.98196 33.778596,70.46026 m 0,0 0,0.1879 m 0,0 c 0.0595,-0.031 0.114961,-0.063 0.17427,-0.094 m 0,0 c 0.05931,0.031 0.114772,0.063 0.17427,0.094 m 0,0 0,-0.1879 m -1.695743,0.2423 c 27.367421,-14.4784 36.051202,-29.2261 36.051202,-70.70446"
       style="fill:#ffffff;fill-opacity:1;fill-rule:nonzero;stroke:none;stroke-width:2;stroke-linecap:round;stroke-linejoin:round;stroke-miterlimit:4;stroke-dasharray:none;stroke-opacity:1" />
    <path
       style="fill:none;fill-opacity:1;stroke:#000000;stroke-width:2;stroke-linecap:round;stroke-linejoin:round;stroke-miterlimit:4;stroke-dasharray:none;stroke-opacity:1"
       d="m 72.622112,980.74708 c -8.50788,2.25102 -22.716567,4.04025 -35.257738,4.05449 -12.54117,-0.0142 -26.171735,-1.56793 -34.679614,-3.81896 m 0.726747,-1.09012 c 0,41.47841 6.411182,55.98201 33.778597,70.46031 m 0,0 0,0.1879 m 0,0 c 0.0595,-0.031 0.114961,-0.063 0.17427,-0.094 m 0,0 c 0.05931,0.031 0.114772,0.063 0.17427,0.094 m 0,0 0,-0.1879 m -1.695743,0.2423 c 27.36742,-14.4784 36.051203,-29.2261 36.051203,-70.7045"
       id="path3767-9-6"
       inkscape:connector-curvature="0"
       sodipodi:nodetypes="ccccccccccccccc" />
    <text
       xml:space="preserve"
       style="font-style:normal;font-variant:normal;font-weight:normal;font-stretch:normal;font-size:64.33797455px;line-height:125%;font-family:'Covered By Your Grace';-inkscape-font-specification:'Covered By Your Grace';text-align:center;letter-spacing:0px;word-spacing:0px;writing-mode:lr-tb;text-anchor:middle;fill:#000000;fill-opacity:1;stroke:none;stroke-width:1px;stroke-linecap:butt;stroke-linejoin:miter;stroke-opacity:1"
       x="36.420322"
       y="1023.5477"
       id="text5282"
       sodipodi:linespacing="125%"><tspan
         sodipodi:role="line"
         id="tspan5284"
         x="36.420322"
         y="1023.5477">20</tspan></text>
  </g>
</svg>
