<?xml version="1.0" encoding="UTF-8" standalone="no"?>
<!-- Created with Inkscape (http://www.inkscape.org/) -->

<svg
   xmlns:dc="http://purl.org/dc/elements/1.1/"
   xmlns:cc="http://creativecommons.org/ns#"
   xmlns:rdf="http://www.w3.org/1999/02/22-rdf-syntax-ns#"
   xmlns:svg="http://www.w3.org/2000/svg"
   xmlns="http://www.w3.org/2000/svg"
   xmlns:sodipodi="http://sodipodi.sourceforge.net/DTD/sodipodi-0.dtd"
   xmlns:inkscape="http://www.inkscape.org/namespaces/inkscape"
   width="100"
   height="100"
   viewBox="0 0 100 100"
   id="svg5392"
   version="1.1"
   inkscape:version="0.91 r13725"
   sodipodi:docname="carrot.svg">
  <defs
     id="defs5394" />
  <sodipodi:namedview
     id="base"
     pagecolor="#ffffff"
     bordercolor="#666666"
     borderopacity="1.0"
     inkscape:pageopacity="0.0"
     inkscape:pageshadow="2"
     inkscape:zoom="2.8"
     inkscape:cx="-100.32233"
     inkscape:cy="77.334051"
     inkscape:document-units="px"
     inkscape:current-layer="layer1"
     showgrid="false"
     units="px"
     inkscape:window-width="1920"
     inkscape:window-height="1017"
     inkscape:window-x="-8"
     inkscape:window-y="-8"
     inkscape:window-maximized="1" />
  <metadata
     id="metadata5397">
    <rdf:RDF>
      <cc:Work
         rdf:about="">
        <dc:format>image/svg+xml</dc:format>
        <dc:type
           rdf:resource="http://purl.org/dc/dcmitype/StillImage" />
        <dc:title />
      </cc:Work>
    </rdf:RDF>
  </metadata>
  <g
     inkscape:label="Layer 1"
     inkscape:groupmode="layer"
     id="layer1"
     transform="translate(0,-952.36216)">
    <path
       style="fill:#ff7400;stroke:#000000;stroke-opacity:1;fill-opacity:1;stroke-linejoin:round;stroke-linecap:round"
       inkscape:connector-curvature="0"
       d="m 53.327282,959.89756 a 1.7370198,1.7370198 0 0 1 0.476715,0.0965 c 3.102704,1.08563 5.317211,2.07863 6.977995,4.20937 1.250075,1.60443 2.119936,3.63887 3.100194,6.64063 2.183434,-2.37238 5.159335,-4.33985 8.467972,-5.94678 4.596734,-2.23265 9.859132,-3.75583 14.698276,-4.39659 a 1.7370198,1.7370198 0 0 1 1.21244,3.15423 c -4.185253,2.8823 -7.821414,5.64879 -10.307668,8.43169 -1.923075,2.15294 -3.128567,4.24798 -3.55819,6.47137 6.347843,-0.71508 12.110889,0.66971 19.185577,4.4873 a 1.7370198,1.7370198 0 0 1 -0.989136,3.26309 c -6.630011,-0.63016 -13.410564,-0.73496 -18.636872,0.12062 -2.61325,0.42789 -4.826406,1.10455 -6.411147,1.97827 -0.611431,0.33718 -1.123273,0.68902 -1.544018,1.06769 -1.035457,-1.56911 -2.322395,-3.01817 -3.751577,-4.28851 -2.526398,-2.24596 -5.556919,-3.98318 -8.690889,-4.65019 2.185943,-3.52036 2.728666,-5.83446 2.478728,-8.00959 -0.306488,-2.66594 -2.039455,-5.57642 -4.354902,-10.10251 a 1.7370198,1.7370198 0 0 1 1.646309,-2.52698 z m -2.683889,23.82343 c 0.101712,0 0.204969,0.003 0.307839,0.006 2.880558,0.0826 6.275466,1.64399 8.992744,4.05941 3.10502,2.75993 5.206621,6.52676 5.168599,9.65011 -0.07527,6.20989 -3.606825,13.07979 -9.137496,19.71019 -5.530478,6.6304 -12.989048,12.991 -20.530609,18.2812 -7.541175,5.2894 -15.181553,9.5181 -20.99478,11.9538 -2.906613,1.2178 -5.3764624,1.9831 -7.0084884,2.2195 -0.763903,0.1108 -1.311836,0.087 -1.580109,0.036 -0.01255,-0.154 -0.02953,-0.3546 -0.01216,-0.6215 0.03957,-0.6008 0.157104,-1.4483 0.355896,-2.4608 0.397585,-2.0246 1.114009,-4.7389 2.117235,-7.8768 2.0066434,-6.2756 5.1628084,-14.2628 9.2038894,-22.1831 2.617109,-5.13 5.613469,-10.2322 8.89605,-14.8252 2.73928,3.3422 2.322588,3.4711 9.596069,7.087 l 1.375141,-2.7624 c -7.610077,-3.7829 -5.832912,-2.9427 -9.083262,-6.8698 1.203368,-1.55676 2.441477,-3.03786 3.709502,-4.4211 0.632661,-0.69057 1.271884,-1.35874 1.917863,-1.99642 4.654441,6.4428 8.587247,7.98532 14.752316,10.63912 l 1.375141,-3.1904 c -6.361932,-2.73869 -9.18401,-3.53618 -13.552229,-9.80721 4.234468,-3.60142 8.6961,-5.97612 13.238793,-6.56786 0.290468,-0.038 0.588078,-0.0587 0.892635,-0.0606 z"
       id="path4154" />
  </g>
</svg>
