<?xml version="1.0" encoding="UTF-8" standalone="no"?>
<!-- Created with Inkscape (http://www.inkscape.org/) -->

<svg
   xmlns:dc="http://purl.org/dc/elements/1.1/"
   xmlns:cc="http://creativecommons.org/ns#"
   xmlns:rdf="http://www.w3.org/1999/02/22-rdf-syntax-ns#"
   xmlns:svg="http://www.w3.org/2000/svg"
   xmlns="http://www.w3.org/2000/svg"
   xmlns:sodipodi="http://sodipodi.sourceforge.net/DTD/sodipodi-0.dtd"
   xmlns:inkscape="http://www.inkscape.org/namespaces/inkscape"
   width="100"
   height="100"
   viewBox="0 0 100 100"
   id="svg5392"
   version="1.1"
   inkscape:version="0.91 r13725"
   sodipodi:docname="cattle.svg">
  <defs
     id="defs5394" />
  <sodipodi:namedview
     id="base"
     pagecolor="#ffffff"
     bordercolor="#666666"
     borderopacity="1.0"
     inkscape:pageopacity="0.0"
     inkscape:pageshadow="2"
     inkscape:zoom="7.919596"
     inkscape:cx="39.070554"
     inkscape:cy="58.135733"
     inkscape:document-units="px"
     inkscape:current-layer="layer1"
     showgrid="false"
     units="px"
     inkscape:window-width="1920"
     inkscape:window-height="1017"
     inkscape:window-x="-8"
     inkscape:window-y="-8"
     inkscape:window-maximized="1" />
  <metadata
     id="metadata5397">
    <rdf:RDF>
      <cc:Work
         rdf:about="">
        <dc:format>image/svg+xml</dc:format>
        <dc:type
           rdf:resource="http://purl.org/dc/dcmitype/StillImage" />
        <dc:title />
      </cc:Work>
    </rdf:RDF>
  </metadata>
  <g
     inkscape:label="Layer 1"
     inkscape:groupmode="layer"
     id="layer1"
     transform="translate(0,-952.36216)">
    <path
       style="fill:#5a2412;fill-opacity:1;stroke:#000000;stroke-opacity:1;stroke-width:1;stroke-miterlimit:4;stroke-dasharray:none;stroke-linejoin:round;stroke-linecap:round"
       inkscape:connector-curvature="0"
       d="m 92.447189,972.65683 c -5.38609,0.40728 -9.594,1.55471 -13.975786,4.41977 -1.044247,-0.43352 -2.471097,-3.47323 -3.132929,-3.13292 -2.314449,1.19051 -2.915968,3.82902 -0.962591,6.42582 l -11.569111,1.94164 c -14.041813,1.4993 -29.095362,1.84036 -42.000791,0.56784 -1.999786,-0.0248 -3.980187,-0.0278 -5.936112,0.007 -2.46013,0.0717 -4.484392,1.10533 -5.7583183,2.78811 -1.698829,2.24357 -2.2815533,5.21985 -2.5952375,8.40506 -0.3485381,3.5357 1.2036308,10.37925 1.0802721,13.76175 -0.098687,2.712 -1.4671885,2.3242 -2.3324636,3.6985 -2.6473226,4.2039 1.7415154,4.0786 3.3314756,1.0887 2.4440737,-4.5963 0.8327704,-12.3575 1.4088377,-18.20512 0.363223,-7.00209 2.074976,-4.68705 3.067134,-4.81452 -0.822392,2.55823 -2.052238,13.41424 -1.549225,15.76584 0.339775,2.9439 1.159845,3.2804 0.413148,12.1223 0.158996,4.568 0.306244,8.9224 0.242411,12.7443 1.740628,0.4733 3.457373,1.0003 5.852893,0 -0.829051,-3.2392 -2.357136,-9.7794 -0.79498,-10.7858 4.195184,-3.5424 5.842124,-7.3397 8.367263,-11.0491 1.714298,0.5004 3.31307,0.9373 4.852511,1.3064 0.695705,0.1903 1.418433,0.3468 2.150754,0.4778 4.867586,0.9726 12.052561,1.1118 17.776026,-0.033 0.736237,6.681 1.422152,13.4035 0.901108,20.0845 1.890003,0.6781 3.780005,0.4943 5.670008,0 -2.423122,-5.2676 -0.834729,-12.7361 2.720164,-16.8924 l 8.79843,-6.5522 c 4.871898,-3.208 8.406028,-7.43985 10.961713,-12.41024 5.952956,0.6683 11.177891,0.64421 15.114806,-0.1539 l 2.514173,-3.82805 c -4.749711,-3.49654 -8.478482,-7.16363 -12.325713,-11.38231 1.970414,-2.84568 4.900481,-4.45757 7.709937,-6.36493 z m -7.709936,10.68563 c 2.084461,0.004 2.084461,3.12877 0,3.13292 -2.092772,0.004 -2.092772,-3.13708 0,-3.13292 z m -17.616442,28.64604 c -2.096407,2.0706 -4.362781,3.6312 -6.795904,4.6916 l 1.265702,13.5607 c 2.246176,0.5462 4.492352,0.791 6.738528,0 -2.3072,-4.3967 -3.050683,-10.8685 -1.208326,-18.2523 z m -38.11541,-0.2274 c -1.225896,1.1959 -3.132734,2.7395 -3.695982,2.9945 1.011739,2.4719 3.545637,12.9998 4.597909,15.4852 1.511286,0.4323 2.894791,1.0289 5.542538,0 -2.035032,-3.6186 -5.971393,-16.4199 -6.444465,-18.4797 z"
       id="path4137"
       sodipodi:nodetypes="cccccccccccccccccccccccccccccccccssscccccccccc" />
  </g>
</svg>
