<?xml version="1.0" encoding="UTF-8" standalone="no"?>
<!-- Created with Inkscape (http://www.inkscape.org/) -->

<svg
   xmlns:dc="http://purl.org/dc/elements/1.1/"
   xmlns:cc="http://creativecommons.org/ns#"
   xmlns:rdf="http://www.w3.org/1999/02/22-rdf-syntax-ns#"
   xmlns:svg="http://www.w3.org/2000/svg"
   xmlns="http://www.w3.org/2000/svg"
   xmlns:sodipodi="http://sodipodi.sourceforge.net/DTD/sodipodi-0.dtd"
   xmlns:inkscape="http://www.inkscape.org/namespaces/inkscape"
   width="100"
   height="100"
   viewBox="0 0 100 100"
   id="svg5392"
   version="1.1"
   inkscape:version="0.91 r13725"
   sodipodi:docname="food.svg">
  <defs
     id="defs5394" />
  <sodipodi:namedview
     id="base"
     pagecolor="#ffffff"
     bordercolor="#666666"
     borderopacity="1.0"
     inkscape:pageopacity="0.0"
     inkscape:pageshadow="2"
     inkscape:zoom="1.979899"
     inkscape:cx="-91.008174"
     inkscape:cy="66.712461"
     inkscape:document-units="px"
     inkscape:current-layer="layer1"
     showgrid="false"
     units="px"
     inkscape:window-width="1920"
     inkscape:window-height="1017"
     inkscape:window-x="-8"
     inkscape:window-y="-8"
     inkscape:window-maximized="1" />
  <metadata
     id="metadata5397">
    <rdf:RDF>
      <cc:Work
         rdf:about="">
        <dc:format>image/svg+xml</dc:format>
        <dc:type
           rdf:resource="http://purl.org/dc/dcmitype/StillImage" />
        <dc:title />
      </cc:Work>
    </rdf:RDF>
  </metadata>
  <g
     inkscape:label="Layer 1"
     inkscape:groupmode="layer"
     id="layer1"
     transform="translate(0,-952.36216)">
    <circle
       style="opacity:1;fill:#000000;fill-opacity:1;stroke:none;stroke-width:3.28800011;stroke-linecap:round;stroke-linejoin:round;stroke-miterlimit:4;stroke-dasharray:none;stroke-dashoffset:0;stroke-opacity:1"
       id="path4140"
       cx="50"
       cy="1002.3622"
       r="44.95179" />
    <path
       inkscape:connector-curvature="0"
       style="fill:#ffffff"
       d="m 23.903426,974.07913 c -1.108461,1.69066 -1.381748,3.76741 -0.953462,6.16572 0.510588,2.86002 2.055724,6.08305 4.288939,9.11764 4.466672,6.06933 11.67666,11.31591 18.090982,12.11131 l 0.448345,0.057 0.288726,0.3457 23.60314,28.4926 c 2.352602,0.5622 3.871597,0.2122 4.661425,-0.5701 0.795916,-0.7882 1.162931,-2.3105 0.573443,-4.7259 L 23.90367,974.07901 Z m 45.595994,0.28107 -13.190191,13.19019 c -1.458822,1.45858 -1.471466,3.06353 -0.718227,4.81716 l 0.31158,0.72576 -0.569913,0.54707 -4.429595,4.22439 3.597702,3.59763 4.205541,-4.4412 0.547058,-0.57745 0.725522,0.31535 c 1.843587,0.79445 3.591864,0.76187 4.946379,-0.59265 l 13.190194,-13.1902 -1.713389,-1.71338 -8.578241,8.57447 -1.603128,-1.60677 8.574232,-8.57423 -1.827179,-1.82779 -8.574231,8.57448 -1.607133,-1.6069 8.574234,-8.57423 -1.861215,-1.8617 z m -24.804123,29.4273 -22.53954,21.5061 c -0.556177,2.3037 -0.199859,3.7427 0.550949,4.4865 0.75105,0.7438 2.203794,1.0852 4.479071,0.5356 l 21.058107,-22.243 -3.548587,-4.2852 z"
       id="path6" />
  </g>
</svg>
