<?xml version="1.0" encoding="UTF-8" standalone="no"?>
<!-- Created with Inkscape (http://www.inkscape.org/) -->

<svg
   xmlns:dc="http://purl.org/dc/elements/1.1/"
   xmlns:cc="http://creativecommons.org/ns#"
   xmlns:rdf="http://www.w3.org/1999/02/22-rdf-syntax-ns#"
   xmlns:svg="http://www.w3.org/2000/svg"
   xmlns="http://www.w3.org/2000/svg"
   xmlns:sodipodi="http://sodipodi.sourceforge.net/DTD/sodipodi-0.dtd"
   xmlns:inkscape="http://www.inkscape.org/namespaces/inkscape"
   width="100"
   height="100"
   viewBox="0 0 100 100"
   id="svg5392"
   version="1.1"
   inkscape:version="0.91 r13725"
   sodipodi:docname="food.svg">
  <defs
     id="defs5394" />
  <sodipodi:namedview
     id="base"
     pagecolor="#ffffff"
     bordercolor="#666666"
     borderopacity="1.0"
     inkscape:pageopacity="0.0"
     inkscape:pageshadow="2"
     inkscape:zoom="3.959798"
     inkscape:cx="4.7972174"
     inkscape:cy="58.462729"
     inkscape:document-units="px"
     inkscape:current-layer="layer1"
     showgrid="false"
     units="px"
     inkscape:window-width="1920"
     inkscape:window-height="1017"
     inkscape:window-x="-8"
     inkscape:window-y="-8"
     inkscape:window-maximized="1" />
  <metadata
     id="metadata5397">
    <rdf:RDF>
      <cc:Work
         rdf:about="">
        <dc:format>image/svg+xml</dc:format>
        <dc:type
           rdf:resource="http://purl.org/dc/dcmitype/StillImage" />
        <dc:title />
      </cc:Work>
    </rdf:RDF>
  </metadata>
  <g
     inkscape:label="Layer 1"
     inkscape:groupmode="layer"
     id="layer1"
     transform="translate(0,-952.36216)">
    <circle
       style="opacity:1;fill:#aa8800;fill-opacity:1;stroke:#000000;stroke-width:0.81694257;stroke-linecap:round;stroke-linejoin:round;stroke-miterlimit:4;stroke-dasharray:none;stroke-dashoffset:0;stroke-opacity:1"
       id="path4140"
       cx="50"
       cy="1002.3622"
       r="29.457529" />
    <path
       inkscape:connector-curvature="0"
       style="fill:#333333;stroke:#000000;stroke-width:0.40847129;stroke-linejoin:round;stroke-miterlimit:4;stroke-dasharray:none;stroke-opacity:1"
       d="m 32.898493,983.82754 c -0.72639,1.10792 -0.905479,2.46884 -0.624817,4.04049 0.334596,1.8742 1.347144,3.9863 2.810602,5.97491 2.927071,3.97729 7.651876,7.41546 11.85527,7.93676 l 0.293807,0.038 0.189207,0.2265 15.467464,18.6716 c 1.541693,0.3684 2.537111,0.139 3.054697,-0.3736 0.521574,-0.5165 0.762085,-1.5142 0.375784,-3.097 L 32.898653,983.82746 Z m 29.879687,0.18419 -8.643715,8.64372 c -0.955987,0.95581 -0.964272,2.00754 -0.470665,3.15673 l 0.204184,0.47563 -0.373473,0.35847 -2.902774,2.76829 2.357623,2.35763 2.75595,-2.91037 0.358494,-0.37841 0.475445,0.20661 c 1.208128,0.52063 2.353798,0.49931 3.241431,-0.38838 l 8.643717,-8.6437 -1.122808,-1.1228 -5.62144,5.61897 -1.050552,-1.05296 5.618813,-5.61879 -1.197376,-1.19778 -5.618812,5.61898 -1.053177,-1.05303 5.618814,-5.61881 -1.219679,-1.22 z m -16.254486,19.28417 -14.770473,14.0933 c -0.36447,1.5096 -0.13097,2.4526 0.361045,2.9401 0.492173,0.4874 1.444177,0.711 2.935197,0.3509 l 13.799669,-14.5761 -2.325438,-2.8082 z"
       id="path6" />
  </g>
</svg>
