<?xml version="1.0" encoding="UTF-8" standalone="no"?>
<!-- Created with Inkscape (http://www.inkscape.org/) -->

<svg
   xmlns:dc="http://purl.org/dc/elements/1.1/"
   xmlns:cc="http://creativecommons.org/ns#"
   xmlns:rdf="http://www.w3.org/1999/02/22-rdf-syntax-ns#"
   xmlns:svg="http://www.w3.org/2000/svg"
   xmlns="http://www.w3.org/2000/svg"
   xmlns:sodipodi="http://sodipodi.sourceforge.net/DTD/sodipodi-0.dtd"
   xmlns:inkscape="http://www.inkscape.org/namespaces/inkscape"
   width="100"
   height="100"
   viewBox="0 0 100 100"
   id="svg5392"
   version="1.1"
   inkscape:version="0.91 r13725"
   sodipodi:docname="grain.svg">
  <defs
     id="defs5394" />
  <sodipodi:namedview
     id="base"
     pagecolor="#ffffff"
     bordercolor="#666666"
     borderopacity="1.0"
     inkscape:pageopacity="0.0"
     inkscape:pageshadow="2"
     inkscape:zoom="3.959798"
     inkscape:cx="22.391647"
     inkscape:cy="29.011946"
     inkscape:document-units="px"
     inkscape:current-layer="g4144"
     showgrid="false"
     units="px"
     inkscape:window-width="1920"
     inkscape:window-height="1017"
     inkscape:window-x="-8"
     inkscape:window-y="-8"
     inkscape:window-maximized="1" />
  <metadata
     id="metadata5397">
    <rdf:RDF>
      <cc:Work
         rdf:about="">
        <dc:format>image/svg+xml</dc:format>
        <dc:type
           rdf:resource="http://purl.org/dc/dcmitype/StillImage" />
        <dc:title />
      </cc:Work>
    </rdf:RDF>
  </metadata>
  <g
     inkscape:label="Layer 1"
     inkscape:groupmode="layer"
     id="layer1"
     transform="translate(0,-952.36216)">
    <g
       id="g4144"
       transform="matrix(0.21197172,0,0,0.21191543,-29.394365,797.26257)"
       style="fill:#e4dd00;stroke:#000000;stroke-width:9.43647392;stroke-linecap:round;stroke-linejoin:round;stroke-miterlimit:4;stroke-dasharray:none;stroke-opacity:1;fill-opacity:1">
      <path
         sodipodi:nodetypes="ccccccccccccccccccccccccccccccccccccccccccccccccccccc"
         style="opacity:1;fill:#e4dd00;stroke:#000000;stroke-width:9.43647392;stroke-linecap:round;stroke-linejoin:round;stroke-miterlimit:4;stroke-dasharray:none;stroke-opacity:1;fill-opacity:1"
         inkscape:connector-curvature="0"
         id="path8"
         filter="0"
         clip-path="false"
         d="m 359.08741,1191.1 c -2.958,-41.58 -1.013,-83.51 3.913,-125.894 l 18.564,2.155 c -4.923,42.36 -6.768,83.89 -3.67,124.77 z m 36.332,-450.51106 c 14.34,29.82295 20.8,57.25005 20.018,78.46005 l -28.49,33.598 -24.106,-39.1 c 2.935,-20.556 14.04,-45.80605 32.578,-72.96005 z m -70.878,64.34305 c 6.723,4.115 12.998,8.327 18.853,12.602 l -0.035,0.02 33.687,54.646 -3.012,38.916 -42.422,-44.933 c -4.54,-17.19 -7.108,-37.92 -7.072,-61.252 z m 132.892,10.047 c -3.324,22.093 -8.647,41.478 -15.303,57.404 l -49.336,38.545 3.088,-39.923 37.993,-44.8 c 7.29,-3.923 15.14,-7.683 23.558,-11.225 z m -146.58,68.082 c 6.227,2.28 12.15,4.674 17.752,7.16 l 43.482,46.056 -3.173,41.01 -37.19,-20.933 c -10.98,-15.844 -18.874,-40.415 -20.87,-73.293 z m 152.74,11.465 c -6.607,29.925 -17.328,51.98 -29.798,66.18 l -46.223,17.692 3.27,-42.23 44.452,-34.73 c 8.73,-2.622 18.176,-4.946 28.3,-6.913 z m -159.14,76.351 c 6.876,0.675 13.44,1.575 19.703,2.66 l 43.167,24.297 -3.887,50.23601 c -21.094,-5.566 -43.688,-30.975 -58.984,-77.19401 z m 139.238,9.957 c 3.844,-0.022 7.784,0.04 11.812,0.185 -22.9,46.96701 -50.93,69.05001 -73.464,68.89201 l 3.937,-50.89401 46.718,-17.883 c 3.573,-0.178 7.237,-0.28 10.996,-0.3 z" />
      <path
         d="m 292.233,1187.9465 c -14.86773,-25.2056 -26.76367,-52.1651 -36.92823,-80.3425 l 12.34079,-4.4536 c 10.15894,28.1614 21.99257,54.8382 36.72928,79.5601 z M 174.11842,893.45537 c 18.34244,14.25583 30.98311,29.47135 37.12745,43.04546 l -7.39307,30.02812 -27.38232,-17.03061 c -4.58667,-13.83669 -5.50748,-33.17944 -2.35269,-56.04423 z m -24.41293,62.61145 c 5.51251,0.48271 10.77381,1.16654 15.79087,2.02137 l -0.0157,0.0235 38.26726,23.80299 10.28241,25.39922 -40.71795,-14.96607 c -8.23126,-9.38269 -16.33074,-21.60705 -23.60779,-36.28135 z m 86.65948,-35.26271 c 4.82307,14.92432 7.54263,28.77222 8.34229,40.86333 l -18.94603,39.65896 -10.54971,-26.05575 9.86057,-40.04116 c 3.35405,-4.74617 7.11104,-9.56511 11.29318,-14.42475 z m -70.81818,88.64539 c 4.62669,-0.5153 9.098,-0.8638 13.39635,-1.0542 l 41.73547,15.3402 10.83636,26.7655 -29.92123,-1.5201 c -11.85737,-6.522 -24.50568,-19.4939 -36.04632,-39.5317 z m 99.57661,-40.5812 c 5.2102,20.87348 5.37272,38.0882 1.97856,50.9135 l -23.51375,25.58 -11.1571,-27.5626 17.07024,-35.73338 c 4.66606,-4.37908 9.87532,-8.79489 15.62237,-13.19846 z m -76.12447,97.7716 c 4.53241,-1.727 8.93914,-3.215 13.21458,-4.4926 l 34.72996,1.7642 13.27411,32.787 c -14.99793,3.1015 -37.14666,-5.798 -61.21959,-30.0589 z m 90.61946,-37.3047 c 2.40889,-1.2164 4.90438,-2.4101 7.48115,-3.5792 0.30263,36.681 -10.40394,59.3286 -24.6149,66.2793 l -13.44856,-33.2161 23.76509,-25.8549 c 2.18977,-1.2297 4.4605,-2.4401 6.8166,-3.6287 z"
         clip-path="false"
         filter="0"
         id="path4140"
         inkscape:connector-curvature="0"
         style="opacity:1;fill:#e4dd00;fill-opacity:1;stroke:#000000;stroke-width:9.43647385;stroke-linecap:round;stroke-linejoin:round;stroke-miterlimit:4;stroke-dasharray:none;stroke-opacity:1"
         sodipodi:nodetypes="ccccccccccccccccccccccccccccccccccccccccccccccccccccc" />
      <path
         sodipodi:nodetypes="ccccccccccccccccccccccccccccccccccccccccccccccccccccc"
         style="opacity:1;fill:#e4dd00;fill-opacity:1;stroke:#000000;stroke-width:9.43647385;stroke-linecap:round;stroke-linejoin:round;stroke-miterlimit:4;stroke-dasharray:none;stroke-opacity:1"
         inkscape:connector-curvature="0"
         id="path4142"
         filter="0"
         clip-path="false"
         d="m 452.3889,1190.2034 c 7.30998,-28.3361 17.96152,-55.8111 30.6985,-82.9229 l 11.87542,5.5771 c -12.72963,27.0965 -23.22534,54.3275 -30.28593,82.229 z M 577.10593,898.44711 c 2.88967,23.05046 1.06897,42.74776 -4.18467,56.69081 l -26.46078,16.0054 -7.31976,-31.40469 c 6.54075,-13.02728 19.56703,-27.35578 37.96565,-41.29286 z m -61.53553,27.01043 c 3.5566,4.23926 6.79336,8.44311 9.7365,12.59516 l -0.0277,0.006 10.22778,43.8903 -10.68919,25.2307 -18.20934,-39.37453 c 0.81418,-12.45494 3.73092,-26.82607 8.96156,-42.34801 z m 86.212,36.34301 c -7.14266,13.96351 -15.01158,25.67847 -22.99584,34.79363 l -41.43999,14.64622 10.96443,-25.88394 35.28585,-21.3409 c 5.72772,-0.98438 11.79182,-1.73529 18.18532,-2.21435 z m -112.75777,12.60574 c 3.63594,2.90719 7.04406,5.82246 10.21808,8.72722 l 18.66428,40.35859 -11.2636,26.5885 -20.08264,-22.2323 c -3.77267,-12.9962 -3.54386,-31.11245 2.46454,-53.44178 z m 99.10654,41.71601 c -11.07561,18.444 -23.13334,30.7316 -34.60223,37.4004 l -34.71452,1.461 11.60044,-27.3789 37.3378,-13.1969 c 6.39588,0.203 13.20183,0.764 20.3794,1.714 z m -122.96309,15.3069 c 4.42607,1.9837 8.59428,4.0476 12.52087,6.1674 l 23.31031,25.8052 -13.7977,32.5701 c -12.79823,-8.412 -22.16685,-30.3664 -22.03393,-64.5436 z m 90.45604,37.6992 c 2.56347,0.8432 5.17212,1.7637 7.82085,2.7591 -25.72339,26.1514 -49.30835,34.595 -64.27191,29.4612 l 13.97777,-32.9969 35.08663,-1.4777 c 2.41793,0.6788 4.87946,1.4286 7.38594,2.2542 z" />
    </g>
  </g>
</svg>
