<?xml version="1.0" encoding="UTF-8" standalone="no"?>
<!-- Created with Inkscape (http://www.inkscape.org/) -->

<svg
   xmlns:dc="http://purl.org/dc/elements/1.1/"
   xmlns:cc="http://creativecommons.org/ns#"
   xmlns:rdf="http://www.w3.org/1999/02/22-rdf-syntax-ns#"
   xmlns:svg="http://www.w3.org/2000/svg"
   xmlns="http://www.w3.org/2000/svg"
   xmlns:sodipodi="http://sodipodi.sourceforge.net/DTD/sodipodi-0.dtd"
   xmlns:inkscape="http://www.inkscape.org/namespaces/inkscape"
   width="100"
   height="100"
   viewBox="0 0 100 100"
   id="svg5392"
   version="1.1"
   inkscape:version="0.92.4 (5da689c313, 2019-01-14)"
   sodipodi:docname="milk.svg">
  <defs
     id="defs5394" />
  <sodipodi:namedview
     id="base"
     pagecolor="#ffffff"
     bordercolor="#666666"
     borderopacity="1.0"
     inkscape:pageopacity="0.0"
     inkscape:pageshadow="2"
     inkscape:zoom="5.6"
     inkscape:cx="88.888952"
     inkscape:cy="27.668599"
     inkscape:document-units="px"
     inkscape:current-layer="g837"
     showgrid="false"
     units="px"
     inkscape:window-width="1920"
     inkscape:window-height="1017"
     inkscape:window-x="-8"
     inkscape:window-y="-8"
     inkscape:window-maximized="1"
     inkscape:snap-global="true"
     inkscape:snap-bbox="true"
     showguides="true"
     inkscape:guide-bbox="true" />
  <metadata
     id="metadata5397">
    <rdf:RDF>
      <cc:Work
         rdf:about="">
        <dc:format>image/svg+xml</dc:format>
        <dc:type
           rdf:resource="http://purl.org/dc/dcmitype/StillImage" />
        <dc:title></dc:title>
      </cc:Work>
    </rdf:RDF>
  </metadata>
  <g
     inkscape:label="Layer 1"
     inkscape:groupmode="layer"
     id="layer1"
     transform="translate(0,-952.36216)">
    <g
       id="g4144"
       transform="matrix(0.21197172,0,0,0.21191543,-29.394365,797.26257)"
       style="fill:#e4dd00;stroke:#000000;stroke-width:9.43647392;stroke-linecap:round;stroke-linejoin:round;stroke-miterlimit:4;stroke-dasharray:none;stroke-opacity:1;fill-opacity:1">
      <g
         class=""
         id="g837"
         transform="matrix(1.1370136,0,0,1.1373156,82.892491,606.56925)">
        <g
           id="g988"
           transform="translate(-1.7230967,-1.1403949)">
          <path
             style="fill:#000000;stroke-width:2.47606659"
             d="m 204.73223,522.29296 c -14.33959,-1.30818 -26.86815,-9.92208 -33.36689,-22.94105 -2.12058,-4.24816 -3.49506,-9.09684 -3.99358,-14.08776 -0.21613,-2.16375 -0.27329,-28.98672 -0.21104,-99.00374 0.0941,-105.80602 -0.051,-96.37244 1.64213,-106.80492 3.76175,-23.17899 15.3993,-60.71898 27.04316,-87.23485 2.28645,-5.20677 7.00193,-14.52369 8.61173,-17.01513 0.68497,-1.06011 1.20942,-2.10581 1.16542,-2.32371 -0.0479,-0.23722 -0.96323,-0.69232 -2.28068,-1.13389 -4.17312,-1.39872 -7.60165,-4.38436 -9.48462,-8.25935 -1.70554,-3.50987 -1.69674,-3.40793 -1.69674,-19.67948 0,-13.22278 0.0462,-14.86153 0.4622,-16.36696 1.52314,-5.51294 6.0532,-10.09465 11.63207,-11.76468 1.4554,-0.43567 4.67009,-0.46887 52.58566,-0.54303 35.86596,-0.0556 51.68809,0.006 53.23112,0.20808 6.47694,0.84686 11.64689,5.08902 13.74676,11.27983 0.56449,1.66422 0.58053,2.05837 0.66158,16.25822 0.0935,16.38523 0.0296,17.15377 -1.72335,20.73923 -1.87681,3.83867 -6.17832,7.36847 -10.25163,8.41242 -0.73098,0.18736 -1.39215,0.50506 -1.46927,0.70605 -0.0771,0.20099 0.45752,1.37745 1.18811,2.61434 4.01913,6.80455 9.69149,19.31666 14.60601,32.21804 10.14414,26.62994 17.97551,53.50467 21.02708,72.15815 1.57578,9.63245 1.4772,2.37329 1.4772,108.76198 v 98.00389 l -0.60613,2.75512 c -1.20072,5.45791 -3.04054,10.00316 -5.70773,14.101 -6.45245,9.91344 -15.88934,16.20171 -27.92846,18.61019 -2.04974,0.41004 -6.5117,0.45037 -55.10257,0.49791 -29.07974,0.0283 -53.94563,-0.0462 -55.25754,-0.1659 z m 110.36011,-16.46049 c 9.62996,-2.94883 16.59584,-10.66912 18.24404,-20.21984 0.34411,-1.99402 0.38243,-14.04059 0.31278,-98.30556 -0.0735,-88.84104 -0.11276,-96.24915 -0.52552,-98.91934 -3.92783,-25.41234 -14.58536,-61.23068 -26.0657,-87.60284 -5.29921,-12.17314 -11.64839,-23.48347 -15.04481,-26.80061 l -1.34332,-1.31195 -32.40357,-0.0686 -32.40356,-0.0686 -1.33813,1.24943 c -2.96128,2.76496 -8.9507,13.11489 -13.8644,23.95819 -11.87552,26.20634 -23.83534,66.34458 -27.20458,91.30107 -0.45536,3.37296 -0.47823,8.12108 -0.47823,99.31586 0,104.22576 -0.10249,97.15399 1.47094,101.51169 3.17427,8.79151 10.5908,14.9432 19.91412,16.5179 0.36078,0.0609 24.97984,0.0962 54.70899,0.0783 l 54.05299,-0.0324 z m -6.61231,-349.3498 c 0.23581,-0.23584 0.31487,-3.35971 0.31487,-12.4422 0,-6.67006 -0.0717,-12.31413 -0.15927,-12.54242 -0.14446,-0.37646 -4.81489,-0.41504 -50.23907,-0.41504 -49.24389,0 -50.08434,0.008 -50.35143,0.50754 -0.37286,0.69671 -0.37286,24.00274 0,24.69945 0.26708,0.49906 1.10578,0.50754 50.19583,0.50754 38.48007,0 49.99637,-0.0722 50.23907,-0.31487 z"
             id="path949"
             inkscape:connector-curvature="0" />
          <path
             inkscape:connector-curvature="0"
             id="rect973"
             d="m 212.59128,307.13533 h 92.1202 c 12.62187,0 22.78315,10.16128 22.78315,22.78314 v 148.27894 c 0,12.62186 -10.16128,22.78315 -22.78315,22.78315 h -92.1202 c -12.62186,0 -22.78314,-10.16129 -22.78314,-22.78315 V 329.91847 c 0,-12.62186 10.16128,-22.78314 22.78314,-22.78314 z"
             style="opacity:1;vector-effect:none;fill:#ffeeaa;fill-opacity:1;fill-rule:nonzero;stroke:none;stroke-width:8.94885445;stroke-linecap:butt;stroke-linejoin:miter;stroke-miterlimit:4;stroke-dasharray:none;stroke-dashoffset:0;stroke-opacity:1" />
          <path
             sodipodi:nodetypes="ccccccc"
             inkscape:connector-curvature="0"
             id="rect975"
             d="m 198.61692,256.77793 120.96323,0.37046 c 3.59043,8.57857 5.78641,18.9002 7.40917,29.93836 l -2e-5,167.61144 H 189.72594 l 0.27784,-167.61144 c 2.94241,-10.64019 2.54838,-17.84282 8.61314,-30.30882 z"
             style="opacity:1;vector-effect:none;fill:#ffeeaa;fill-opacity:1;fill-rule:nonzero;stroke:none;stroke-width:9.02006912;stroke-linecap:butt;stroke-linejoin:miter;stroke-miterlimit:4;stroke-dasharray:none;stroke-dashoffset:0;stroke-opacity:1" />
        </g>
      </g>
    </g>
  </g>
</svg>
