<?xml version="1.0" encoding="UTF-8" standalone="no"?>
<!-- Created with Inkscape (http://www.inkscape.org/) -->

<svg
   xmlns:dc="http://purl.org/dc/elements/1.1/"
   xmlns:cc="http://creativecommons.org/ns#"
   xmlns:rdf="http://www.w3.org/1999/02/22-rdf-syntax-ns#"
   xmlns:svg="http://www.w3.org/2000/svg"
   xmlns="http://www.w3.org/2000/svg"
   xmlns:sodipodi="http://sodipodi.sourceforge.net/DTD/sodipodi-0.dtd"
   xmlns:inkscape="http://www.inkscape.org/namespaces/inkscape"
   width="825"
   height="1125"
   viewBox="0 0 825.00001 1125"
   id="svg7913"
   version="1.1"
   inkscape:version="0.91 r13725"
   sodipodi:docname="point ladder.svg">
  <sodipodi:namedview
     id="base"
     pagecolor="#ffffff"
     bordercolor="#666666"
     borderopacity="1.0"
     inkscape:pageopacity="0.0"
     inkscape:pageshadow="2"
     inkscape:zoom="1.0660028"
     inkscape:cx="560.42919"
     inkscape:cy="477.15774"
     inkscape:document-units="px"
     inkscape:current-layer="layer1"
     showgrid="false"
     inkscape:window-width="1920"
     inkscape:window-height="1017"
     inkscape:window-x="-8"
     inkscape:window-y="-8"
     inkscape:window-maximized="1"
     units="px"
     showguides="true"
     inkscape:guide-bbox="true" />
  <defs
     id="defs7915" />
  <metadata
     id="metadata7918">
    <rdf:RDF>
      <cc:Work
         rdf:about="">
        <dc:format>image/svg+xml</dc:format>
        <dc:type
           rdf:resource="http://purl.org/dc/dcmitype/StillImage" />
        <dc:title />
      </cc:Work>
    </rdf:RDF>
  </metadata>
  <g
     inkscape:label="Layer 1"
     inkscape:groupmode="layer"
     id="layer1"
     transform="translate(0,72.637839)">
    <text
       xml:space="preserve"
       style="font-style:normal;font-variant:normal;font-weight:normal;font-stretch:normal;font-size:35px;line-height:125%;font-family:'Archivo Narrow';-inkscape-font-specification:'Archivo Narrow, Normal';text-align:center;letter-spacing:0px;word-spacing:0px;writing-mode:lr-tb;text-anchor:middle;fill:#000000;fill-opacity:1;stroke:none;stroke-width:1px;stroke-linecap:butt;stroke-linejoin:miter;stroke-opacity:1"
       x="-543.4621"
       y="599.81384"
       id="text8590"
       sodipodi:linespacing="125%"><tspan
         sodipodi:role="line"
         id="tspan8592"
         x="-543.4621"
         y="599.81384" /></text>
    <text
       xml:space="preserve"
       style="font-style:normal;font-variant:normal;font-weight:normal;font-stretch:normal;font-size:70.3480072px;line-height:125%;font-family:'Rock Salt';-inkscape-font-specification:'Rock Salt';text-align:center;letter-spacing:0px;word-spacing:0px;writing-mode:lr-tb;text-anchor:middle;fill:#000000;fill-opacity:1;stroke:none;stroke-width:1px;stroke-linecap:butt;stroke-linejoin:miter;stroke-opacity:1"
       x="405.1492"
       y="129.5325"
       id="text5288"
       sodipodi:linespacing="125%"><tspan
         sodipodi:role="line"
         id="tspan5290"
         x="405.1492"
         y="129.5325">Point Ladder</tspan></text>
    <path
       sodipodi:nodetypes="cc"
       inkscape:connector-curvature="0"
       id="path4198"
       d="m 141.36144,513.86256 c 180.75651,-3.04229 361.51304,-4.40849 542.26956,0"
       style="display:inline;opacity:1;fill:none;fill-rule:evenodd;stroke:#000000;stroke-width:2;stroke-linecap:butt;stroke-linejoin:miter;stroke-miterlimit:4;stroke-dasharray:none;stroke-opacity:1" />
    <path
       style="display:inline;opacity:1;fill:none;fill-rule:evenodd;stroke:#000000;stroke-width:2;stroke-linecap:butt;stroke-linejoin:miter;stroke-miterlimit:4;stroke-dasharray:none;stroke-opacity:1"
       d="m 142.71497,596.44474 c 0,0 79.45066,-2.6053 143.10665,0 63.65598,2.6053 259.22093,9.79769 396.42495,0"
       id="path4200"
       inkscape:connector-curvature="0"
       sodipodi:nodetypes="czc" />
    <path
       sodipodi:nodetypes="ccc"
       inkscape:connector-curvature="0"
       id="path4210"
       d="m 143.11661,348.69831 389.37095,-7.50467 149.36491,7.50467"
       style="display:inline;opacity:1;fill:none;fill-rule:evenodd;stroke:#000000;stroke-width:2;stroke-linecap:butt;stroke-linejoin:miter;stroke-miterlimit:4;stroke-dasharray:none;stroke-opacity:1" />
    <path
       style="display:inline;opacity:1;fill:none;fill-rule:evenodd;stroke:#000000;stroke-width:2;stroke-linecap:butt;stroke-linejoin:miter;stroke-miterlimit:4;stroke-dasharray:none;stroke-opacity:1"
       d="m 143.07596,431.28047 c 184.30262,5.8343 362.5352,4.10757 538.85644,0"
       id="path4212"
       inkscape:connector-curvature="0"
       sodipodi:nodetypes="cc" />
    <path
       sodipodi:nodetypes="czzc"
       inkscape:connector-curvature="0"
       id="path4214"
       d="m 142.7183,266.11617 c 55.48595,-4.13107 106.2072,-3.7561 170.72183,0 64.51464,3.7561 174.37853,-7.07466 213.12702,0 38.74849,7.07466 155.72843,0 155.72843,0"
       style="display:inline;opacity:1;fill:none;fill-rule:evenodd;stroke:#000000;stroke-width:2;stroke-linecap:butt;stroke-linejoin:miter;stroke-miterlimit:4;stroke-dasharray:none;stroke-opacity:1" />
    <path
       sodipodi:nodetypes="cc"
       inkscape:connector-curvature="0"
       id="path4216"
       d="m 141.96639,183.53407 c 182.05387,-10.46429 360.84791,-0.62583 541.12114,0"
       style="display:inline;opacity:1;fill:none;fill-rule:evenodd;stroke:#000000;stroke-width:2;stroke-linecap:butt;stroke-linejoin:miter;stroke-miterlimit:4;stroke-dasharray:none;stroke-opacity:1" />
    <path
       sodipodi:nodetypes="ccccccccccccccc"
       inkscape:connector-curvature="0"
       id="path5310"
       d="m 434.51927,184.68811 c -8.93047,2.36239 -23.8449,4.24014 -37.00899,4.25508 -13.16408,-0.0149 -27.47167,-1.6455 -36.40213,-4.0079 m 0.76284,-1.14406 c 0,43.53047 6.72962,58.75163 35.45636,73.94624 m 0,0 0,0.1972 m 0,0 c 0.0625,-0.0326 0.12068,-0.0661 0.18293,-0.0986 m 0,0 c 0.0622,0.0326 0.12048,0.0661 0.18293,0.0986 m 0,0 0,-0.1972 m -1.77997,0.25429 C 424.64,242.79705 433.7551,227.31969 433.7551,183.78926"
       style="fill:none;fill-opacity:1;stroke:#000000;stroke-width:3;stroke-linecap:round;stroke-linejoin:round;stroke-miterlimit:4;stroke-dasharray:none;stroke-opacity:1" />
    <text
       sodipodi:linespacing="125%"
       id="text5312"
       y="231.07257"
       x="398.75891"
       style="font-style:normal;font-variant:normal;font-weight:normal;font-stretch:normal;font-size:64.54302216px;line-height:125%;font-family:'Covered By Your Grace';-inkscape-font-specification:'Covered By Your Grace';text-align:center;letter-spacing:0px;word-spacing:0px;writing-mode:lr-tb;text-anchor:middle;fill:#000000;fill-opacity:1;stroke:none;stroke-width:1px;stroke-linecap:butt;stroke-linejoin:miter;stroke-opacity:1"
       xml:space="preserve"><tspan
         y="231.07257"
         x="398.75891"
         id="tspan5314"
         sodipodi:role="line">150</tspan></text>
    <path
       style="fill:none;fill-opacity:1;stroke:#000000;stroke-width:3;stroke-linecap:round;stroke-linejoin:round;stroke-miterlimit:4;stroke-dasharray:none;stroke-opacity:1"
       d="m 434.51927,268.17757 c -8.93047,2.36239 -23.8449,4.24014 -37.00899,4.25508 -13.16408,-0.0149 -27.47167,-1.6455 -36.40213,-4.0079 m 0.76284,-1.14406 c 0,43.53047 6.72962,58.75163 35.45636,73.94624 m 0,0 0,0.1972 m 0,0 c 0.0625,-0.0326 0.12068,-0.0661 0.18293,-0.0986 m 0,0 c 0.0622,0.0326 0.12048,0.0661 0.18293,0.0986 m 0,0 0,-0.1972 m -1.77997,0.25429 C 424.64,326.28651 433.7551,310.80915 433.7551,267.27872"
       id="path5316"
       inkscape:connector-curvature="0"
       sodipodi:nodetypes="ccccccccccccccc" />
    <text
       xml:space="preserve"
       style="font-style:normal;font-variant:normal;font-weight:normal;font-stretch:normal;font-size:64.54302216px;line-height:125%;font-family:'Covered By Your Grace';-inkscape-font-specification:'Covered By Your Grace';text-align:center;letter-spacing:0px;word-spacing:0px;writing-mode:lr-tb;text-anchor:middle;fill:#000000;fill-opacity:1;stroke:none;stroke-width:1px;stroke-linecap:butt;stroke-linejoin:miter;stroke-opacity:1"
       x="398.75891"
       y="314.56204"
       id="text5318"
       sodipodi:linespacing="125%"><tspan
         sodipodi:role="line"
         id="tspan5320"
         x="398.75891"
         y="314.56204">100</tspan></text>
    <path
       sodipodi:nodetypes="ccccccccccccccc"
       inkscape:connector-curvature="0"
       id="path5322"
       d="m 434.51927,349.79087 c -8.93047,2.36239 -23.8449,4.24014 -37.00899,4.25508 -13.16408,-0.0149 -27.47167,-1.6455 -36.40213,-4.0079 m 0.76284,-1.14406 c 0,43.53047 6.72962,58.75163 35.45636,73.94624 m 0,0 0,0.1972 m 0,0 c 0.0625,-0.0326 0.12068,-0.0661 0.18293,-0.0986 m 0,0 c 0.0622,0.0326 0.12048,0.0661 0.18293,0.0986 m 0,0 0,-0.1972 m -1.77997,0.25429 C 424.64,407.89981 433.7551,392.42245 433.7551,348.89202"
       style="fill:none;fill-opacity:1;stroke:#000000;stroke-width:3;stroke-linecap:round;stroke-linejoin:round;stroke-miterlimit:4;stroke-dasharray:none;stroke-opacity:1" />
    <text
       sodipodi:linespacing="125%"
       id="text5324"
       y="396.17535"
       x="398.75891"
       style="font-style:normal;font-variant:normal;font-weight:normal;font-stretch:normal;font-size:64.54302216px;line-height:125%;font-family:'Covered By Your Grace';-inkscape-font-specification:'Covered By Your Grace';text-align:center;letter-spacing:0px;word-spacing:0px;writing-mode:lr-tb;text-anchor:middle;fill:#000000;fill-opacity:1;stroke:none;stroke-width:1px;stroke-linecap:butt;stroke-linejoin:miter;stroke-opacity:1"
       xml:space="preserve"><tspan
         y="396.17535"
         x="398.75891"
         id="tspan5326"
         sodipodi:role="line">60</tspan></text>
    <path
       style="fill:none;fill-opacity:1;stroke:#000000;stroke-width:3;stroke-linecap:round;stroke-linejoin:round;stroke-miterlimit:4;stroke-dasharray:none;stroke-opacity:1"
       d="m 434.51927,437.03267 c -8.93047,2.36239 -23.8449,4.24014 -37.00899,4.25508 -13.16408,-0.0149 -27.47167,-1.6455 -36.40213,-4.0079 m 0.76284,-1.14406 c 0,43.53047 6.72962,58.75163 35.45636,73.94624 m 0,0 0,0.1972 m 0,0 c 0.0625,-0.0326 0.12068,-0.0661 0.18293,-0.0986 m 0,0 c 0.0622,0.0326 0.12048,0.0661 0.18293,0.0986 m 0,0 0,-0.1972 m -1.77997,0.25429 C 424.64,495.14161 433.7551,479.66425 433.7551,436.13382"
       id="path5328"
       inkscape:connector-curvature="0"
       sodipodi:nodetypes="ccccccccccccccc" />
    <text
       xml:space="preserve"
       style="font-style:normal;font-variant:normal;font-weight:normal;font-stretch:normal;font-size:64.54302216px;line-height:125%;font-family:'Covered By Your Grace';-inkscape-font-specification:'Covered By Your Grace';text-align:center;letter-spacing:0px;word-spacing:0px;writing-mode:lr-tb;text-anchor:middle;fill:#000000;fill-opacity:1;stroke:none;stroke-width:1px;stroke-linecap:butt;stroke-linejoin:miter;stroke-opacity:1"
       x="398.75891"
       y="483.41714"
       id="text5330"
       sodipodi:linespacing="125%"><tspan
         sodipodi:role="line"
         id="tspan5332"
         x="398.75891"
         y="483.41714">30</tspan></text>
    <path
       sodipodi:nodetypes="ccccccccccccccc"
       inkscape:connector-curvature="0"
       id="path5334"
       d="m 434.51927,519.58405 c -8.93047,2.36239 -23.8449,4.24014 -37.00899,4.25508 -13.16408,-0.0149 -27.47167,-1.6455 -36.40213,-4.0079 m 0.76284,-1.14406 c 0,43.53047 6.72962,58.75163 35.45636,73.94624 m 0,0 0,0.1972 m 0,0 c 0.0625,-0.0326 0.12068,-0.0661 0.18293,-0.0986 m 0,0 c 0.0622,0.0326 0.12048,0.0661 0.18293,0.0986 m 0,0 0,-0.1972 m -1.77997,0.25429 C 424.64,577.69299 433.7551,562.21563 433.7551,518.6852"
       style="fill:none;fill-opacity:1;stroke:#000000;stroke-width:3;stroke-linecap:round;stroke-linejoin:round;stroke-miterlimit:4;stroke-dasharray:none;stroke-opacity:1" />
    <text
       sodipodi:linespacing="125%"
       id="text5336"
       y="565.96857"
       x="398.75891"
       style="font-style:normal;font-variant:normal;font-weight:normal;font-stretch:normal;font-size:64.54302216px;line-height:125%;font-family:'Covered By Your Grace';-inkscape-font-specification:'Covered By Your Grace';text-align:center;letter-spacing:0px;word-spacing:0px;writing-mode:lr-tb;text-anchor:middle;fill:#000000;fill-opacity:1;stroke:none;stroke-width:1px;stroke-linecap:butt;stroke-linejoin:miter;stroke-opacity:1"
       xml:space="preserve"><tspan
         y="565.96857"
         x="398.75891"
         id="tspan5338"
         sodipodi:role="line">10</tspan></text>
    <text
       xml:space="preserve"
       style="font-style:normal;font-variant:normal;font-weight:normal;font-stretch:normal;font-size:34.77358246px;line-height:125%;font-family:'Archivo Narrow';-inkscape-font-specification:'Archivo Narrow';text-align:center;letter-spacing:0px;word-spacing:0px;writing-mode:lr-tb;text-anchor:middle;opacity:1;fill:#000000;fill-opacity:1;stroke:#000000;stroke-width:0.99999988px;stroke-linecap:butt;stroke-linejoin:miter;stroke-opacity:1"
       x="447.90677"
       y="587.36841"
       id="text8468-7"
       sodipodi:linespacing="125%"
       transform="scale(0.89937043,1.1118889)"><tspan
         sodipodi:role="line"
         id="tspan8470-9"
         x="447.90677"
         y="587.36841"
         style="font-style:normal;font-variant:normal;font-weight:normal;font-stretch:normal;font-family:'Archivo Narrow';-inkscape-font-specification:'Archivo Narrow';stroke-width:0.99999988px">Start Here</tspan></text>
    <path
       style="opacity:1;fill:none;fill-opacity:1;stroke:#000000;stroke-width:2;stroke-linecap:round;stroke-linejoin:round;stroke-miterlimit:4;stroke-dasharray:none;stroke-dashoffset:0;stroke-opacity:1"
       d="m 514.52919,642.43535 c 3.45033,16.86895 -48.1821,28.27016 -107.45872,31.1763 -54.0482,2.6498 -105.62718,-13.04233 -107.45872,-31.1763 -1.73024,-17.13103 48.1816,-34.07172 107.45872,-31.17629 51.76266,2.52838 104.16174,15.05709 107.45872,31.17629 z"
       id="path4832"
       inkscape:connector-curvature="0"
       sodipodi:nodetypes="sssss" />
    <text
       xml:space="preserve"
       style="font-style:italic;font-variant:normal;font-weight:normal;font-stretch:normal;font-size:23.75px;line-height:125%;font-family:serif;-inkscape-font-specification:'serif Italic';text-align:center;letter-spacing:0px;word-spacing:0px;writing-mode:lr-tb;text-anchor:middle;fill:#000000;fill-opacity:1;stroke:none;stroke-width:1px;stroke-linecap:butt;stroke-linejoin:miter;stroke-opacity:1"
       x="429.77701"
       y="861.98505"
       id="text4835"
       sodipodi:linespacing="125%"><tspan
         sodipodi:role="line"
         id="tspan4837"
         x="432.74576"
         y="861.98505">This sequence of numbers is, arguably, the most </tspan><tspan
         sodipodi:role="line"
         x="429.77701"
         y="891.67255"
         id="tspan5358">unoriginal part of this game.</tspan></text>
    <text
       transform="scale(0.89937043,1.1118889)"
       sodipodi:linespacing="125%"
       id="text5368"
       y="680.2381"
       x="459.09357"
       style="font-style:normal;font-variant:normal;font-weight:normal;font-stretch:normal;font-size:25.78734779px;line-height:125%;font-family:'Archivo Narrow';-inkscape-font-specification:'Archivo Narrow';text-align:center;letter-spacing:0px;word-spacing:0px;writing-mode:lr-tb;text-anchor:middle;opacity:1;fill:#000000;fill-opacity:1;stroke:#000000;stroke-width:0.74157858px;stroke-linecap:butt;stroke-linejoin:miter;stroke-opacity:1"
       xml:space="preserve"><tspan
         style="font-style:normal;font-variant:normal;font-weight:normal;font-stretch:normal;font-family:'Archivo Narrow';-inkscape-font-specification:'Archivo Narrow';stroke-width:0.74157858px"
         y="680.2381"
         x="459.09357"
         id="tspan5370"
         sodipodi:role="line">VPs are scored at the end of the game</tspan></text>
  </g>
</svg>
