<?xml version="1.0" encoding="UTF-8" standalone="no"?>
<!-- Created with Inkscape (http://www.inkscape.org/) -->

<svg
   xmlns:dc="http://purl.org/dc/elements/1.1/"
   xmlns:cc="http://creativecommons.org/ns#"
   xmlns:rdf="http://www.w3.org/1999/02/22-rdf-syntax-ns#"
   xmlns:svg="http://www.w3.org/2000/svg"
   xmlns="http://www.w3.org/2000/svg"
   xmlns:sodipodi="http://sodipodi.sourceforge.net/DTD/sodipodi-0.dtd"
   xmlns:inkscape="http://www.inkscape.org/namespaces/inkscape"
   width="100"
   height="100"
   viewBox="0 0 100 100"
   id="svg5392"
   version="1.1"
   inkscape:version="0.91 r13725"
   sodipodi:docname="power.svg">
  <sodipodi:namedview
     id="base"
     pagecolor="#ffffff"
     bordercolor="#666666"
     borderopacity="1.0"
     inkscape:pageopacity="0.0"
     inkscape:pageshadow="2"
     inkscape:zoom="5.6"
     inkscape:cx="66.076399"
     inkscape:cy="53.193254"
     inkscape:document-units="px"
     inkscape:current-layer="layer1"
     showgrid="false"
     units="px"
     inkscape:window-width="1920"
     inkscape:window-height="1017"
     inkscape:window-x="-8"
     inkscape:window-y="-8"
     inkscape:window-maximized="1" />
  <defs
     id="defs5394" />
  <metadata
     id="metadata5397">
    <rdf:RDF>
      <cc:Work
         rdf:about="">
        <dc:format>image/svg+xml</dc:format>
        <dc:type
           rdf:resource="http://purl.org/dc/dcmitype/StillImage" />
        <dc:title />
      </cc:Work>
    </rdf:RDF>
  </metadata>
  <g
     transform="translate(0,-952.36216)"
     id="layer1"
     inkscape:groupmode="layer"
     inkscape:label="Layer 1">
    <g
       id="text4134"
       style="font-style:normal;font-variant:normal;font-weight:normal;font-stretch:normal;font-size:95.28149414px;line-height:125%;font-family:'Archivo Narrow';-inkscape-font-specification:'Archivo Narrow, Normal';text-align:center;letter-spacing:0px;word-spacing:0px;writing-mode:lr-tb;text-anchor:middle;fill:none;fill-opacity:1;stroke:#000000;stroke-width:1px;stroke-linecap:butt;stroke-linejoin:miter;stroke-opacity:1"
       transform="matrix(0.99929289,0,0,1.1485399,0.03503582,-142.17102)">
      <path
         sodipodi:nodetypes="cccccccccccccccccccccccccccccccccccccccccccccccc"
         inkscape:connector-curvature="0"
         id="path4139"
         style="stroke-width:0.93307489;stroke-linecap:round;stroke-linejoin:round;stroke-miterlimit:4;stroke-dasharray:none"
         d="m 41.665242,973.00027 c 1.603611,-5.48698 5.561056,-10.81048 8.680128,-15.65053 m 0.03228,0.0432 c 2.048934,4.47964 3.760763,9.17523 7.693621,13.65487 m -1.179863,0.77277 c 6.467371,-3.23739 11.037902,-7.54297 20.336945,-9.24192 m 0.580199,-0.32506 c -1.684699,5.32207 -4.008757,10.85948 -6.085179,16.18155 m 0.03953,-0.058 c 5.88012,-0.3335 10.881134,-0.0106 20.126988,-1.9244 m 0.489065,-0.33116 c -2.543416,4.7018 -7.918167,7.54518 -12.316823,10.66309 m 0.663681,0.53685 c 5.931329,-0.0967 11.315763,1.15836 16.472544,2.71494 m -0.431787,0.24231 c -5.306303,5.67084 -11.664087,6.70792 -17.721926,9.17063 m 0.212175,-0.0175 c 1.204155,2.78659 4.935741,6.02039 9.277011,8.47209 m -0.512319,-0.6568 c -5.128151,-1.6105 -8.785903,-0.1098 -13.155994,0.5449 m 0.02376,-0.047 c 5.1484,6.1364 6.219665,10.7557 9.251107,16.2898 m 0.448163,0.6763 c -8.46248,-3.8185 -16.304985,-8.4329 -26.223317,-10.3871 m -0.145108,-0.6673 c -5.174698,4.4428 -6.418041,9.84 -8.276028,14.9121 m 0.76035,0.459 c -4.198571,-4.859 -9.450186,-9.8082 -10.59162,-14.9934 m 0.781232,-0.3741 c -10.61418,4.6602 -21.642138,9.4855 -29.924606,11.1597 m 0.680465,0.061 c 3.999962,-6.3208 6.49586,-13.071 13.738348,-18.7768 m 0.0096,-0.3407 c -4.761521,-1.7787 -8.991037,-0.063 -13.390644,0.3214 m -0.77076,0.1134 c 2.973018,-3.6405 6.808654,-7.60718 12.097486,-8.61154 M 22.604142,997.4335 C 17.291246,995.07445 9.959631,994.1168 1.8979314,993.09826 m 0.6204058,0.19234 c 6.0795078,-0.96216 12.2484458,-2.82121 17.9397558,-6.10333 m -0.710907,0.51491 c -5.25127,-2.91815 -8.576436,-6.11364 -10.8759245,-9.87226 m -0.7656976,-0.34969 c 0,0 19.8450601,0.17116 19.8450601,0.17116 m -0.601459,-0.50407 c 0,0 -7.531697,-17.05046 -7.531697,-17.05046 m -0.619756,0.0907 c 7.254462,3.99718 13.618623,9.2642 24.115214,11.72364" />
    </g>
  </g>
</svg>
