<?xml version="1.0" encoding="UTF-8" standalone="no"?>
<!-- Created with Inkscape (http://www.inkscape.org/) -->

<svg
   xmlns:dc="http://purl.org/dc/elements/1.1/"
   xmlns:cc="http://creativecommons.org/ns#"
   xmlns:rdf="http://www.w3.org/1999/02/22-rdf-syntax-ns#"
   xmlns:svg="http://www.w3.org/2000/svg"
   xmlns="http://www.w3.org/2000/svg"
   xmlns:sodipodi="http://sodipodi.sourceforge.net/DTD/sodipodi-0.dtd"
   xmlns:inkscape="http://www.inkscape.org/namespaces/inkscape"
   width="825"
   height="1125"
   viewBox="0 0 825.00001 1125"
   id="svg7913"
   version="1.1"
   inkscape:version="0.91 r13725"
   sodipodi:docname="resource ladder.svg">
  <sodipodi:namedview
     id="base"
     pagecolor="#ffffff"
     bordercolor="#666666"
     borderopacity="1.0"
     inkscape:pageopacity="0.0"
     inkscape:pageshadow="2"
     inkscape:zoom="0.53300138"
     inkscape:cx="223.03849"
     inkscape:cy="487.59688"
     inkscape:document-units="px"
     inkscape:current-layer="layer1"
     showgrid="false"
     inkscape:window-width="1920"
     inkscape:window-height="1017"
     inkscape:window-x="-8"
     inkscape:window-y="-8"
     inkscape:window-maximized="1"
     units="px"
     showguides="false"
     inkscape:guide-bbox="true" />
  <defs
     id="defs7915" />
  <metadata
     id="metadata7918">
    <rdf:RDF>
      <cc:Work
         rdf:about="">
        <dc:format>image/svg+xml</dc:format>
        <dc:type
           rdf:resource="http://purl.org/dc/dcmitype/StillImage" />
        <dc:title></dc:title>
      </cc:Work>
    </rdf:RDF>
  </metadata>
  <g
     inkscape:label="Layer 1"
     inkscape:groupmode="layer"
     id="layer1"
     transform="translate(0,72.637839)">
    <path
       style="color:#000000;font-style:normal;font-variant:normal;font-weight:normal;font-stretch:normal;font-size:medium;line-height:normal;font-family:sans-serif;text-indent:0;text-align:start;text-decoration:none;text-decoration-line:none;text-decoration-style:solid;text-decoration-color:#000000;letter-spacing:normal;word-spacing:normal;text-transform:none;direction:ltr;block-progression:tb;writing-mode:lr-tb;baseline-shift:baseline;text-anchor:start;white-space:normal;clip-rule:nonzero;display:inline;overflow:visible;visibility:visible;opacity:1;isolation:auto;mix-blend-mode:normal;color-interpolation:sRGB;color-interpolation-filters:linearRGB;solid-color:#000000;solid-opacity:1;fill:#000000;fill-opacity:1;fill-rule:nonzero;stroke:none;stroke-width:5;stroke-linecap:round;stroke-linejoin:round;stroke-miterlimit:4;stroke-dasharray:none;stroke-dashoffset:0;stroke-opacity:1;color-rendering:auto;image-rendering:auto;shape-rendering:auto;text-rendering:auto;enable-background:accumulate"
       d="m 384.61232,809.31943 c -8.83304,1.31679 -17.84281,1.37413 -25.73569,3.06381 -9.71862,2.21597 -17.8117,3.3579 -26.6613,4.81484 -9.88107,1.73241 -19.49684,6.38143 -26.52791,9.31651 -5.49062,2.45745 -13.92317,4.11852 -18.6915,7.82419 -6.97584,3.39383 -10.81423,8.06048 -14.23416,11.88997 -7.57155,8.29237 -12.91499,15.59764 -12.64259,24.04235 0.0928,10.00291 3.97351,18.48773 12.20787,25.29477 3.89547,4.79673 9.92403,10.21344 15.86818,12.93718 4.95077,3.77692 10.25123,5.3364 16.42363,7.12814 7.29828,2.57367 18.95472,5.90968 27.59521,8.73817 9.06472,2.71894 15.5282,5.47214 25.59186,6.37786 8.03616,0.82013 17.4851,0.27567 27.5019,1.53594 9.06488,-0.13148 18.0886,1.90505 26.56677,2.15059 9.22881,0.79439 20.81633,-1.16511 28.79417,-1.90764 8.55095,-0.39599 18.51845,-1.32037 27.08615,-1.88259 10.01577,-0.865 18.50158,-2.62709 26.22394,-5.29205 10.25365,-2.13577 18.09801,-6.03045 25.93394,-10.00579 6.10341,-3.3306 11.76117,-4.52969 17.35085,-6.81393 5.52934,-4.14236 11.88156,-9.66401 16.04602,-12.9427 8.59662,-8.11735 10.58735,-15.47253 11.48643,-24.71584 0.70227,-9.70751 -2.45672,-18.82793 -10.97288,-25.77393 -3.4779,-4.43962 -10.88722,-7.57097 -16.87993,-10.28901 -4.81671,-2.29789 -8.75896,-6.71788 -16.00413,-9.06207 -8.16958,-3.93718 -15.76442,-5.95044 -26.04661,-8.56361 -9.30917,-2.0335 -18.79393,-3.5246 -27.51243,-4.48219 -9.16015,-2.0443 -17.88005,-3.95835 -26.5346,-4.18323 -9.24901,0.0764 -23.24631,-0.0488 -28.20443,-0.006 m 26.72945,4.52635 c 9.79724,0.0539 16.76661,3.17855 26.0124,3.99613 8.63245,0.87114 18.00952,4.25774 26.4689,5.58702 10.14671,2.12848 19.41736,4.28759 26.33699,7.00219 6.31023,3.23806 12.22785,6.95084 16.30648,9.52373 6.7414,3.10616 11.81896,5.71856 14.93173,9.25426 8.15179,7.15893 9.98426,15.8344 10.36819,22.64041 -0.0351,6.73019 -1.81051,14.93461 -9.75714,22.41637 -4.38963,4.48726 -10.11785,8.03462 -15.36476,10.8753 -5.68883,3.26316 -9.02328,4.37092 -15.96167,6.5251 -6.83971,2.88784 -16.0593,7.20745 -26.24231,9.67832 -9.0467,1.72745 -15.2638,2.73156 -25.3142,4.5662 -7.73864,1.67217 -18.09667,1.48748 -28.19347,2.38366 -9.16023,-0.0566 -17.30145,1.27056 -25.60672,1.05697 -10.00024,0.31489 -19.8769,-0.59549 -27.69055,-1.23524 -8.33524,-0.75057 -17.99228,-1.01935 -25.67208,-2.13089 -8.44945,-1.10759 -18.49909,-3.19272 -27.24846,-4.63244 -8.81415,-3.05175 -18.59533,-4.5029 -25.81218,-8.27746 -6.95325,-2.18847 -12.89787,-5.04239 -17.17554,-8.42662 -6.74351,-3.67156 -11.06224,-7.39946 -14.60358,-10.47556 -7.38081,-6.14192 -11.72276,-15.7033 -11.38203,-22.49242 0.55438,-8.15978 6.38941,-14.3195 12.81736,-21.49579 4.68535,-3.29421 8.33408,-7.38529 14.75697,-11.4273 4.51304,-2.124 8.76477,-4.96958 15.44043,-6.80895 7.14461,-2.47832 16.67662,-6.58396 25.1521,-9.29762 9.12414,-1.90084 17.22791,-2.50023 26.32072,-4.71925 7.70972,-1.03181 17.61127,-3.07273 26.7427,-2.95371 2.65211,-1.142 22.6338,-2.04677 26.99425,-1.8417"
       id="path8463"
       inkscape:connector-curvature="0"
       sodipodi:nodetypes="cccccccccccccccccccccccccccccccccccccccccccccccccccccccc" />
    <text
       xml:space="preserve"
       style="font-style:normal;font-variant:normal;font-weight:normal;font-stretch:normal;font-size:51.72174835px;line-height:125%;font-family:'Coming Soon';-inkscape-font-specification:'Coming Soon';text-align:center;letter-spacing:0px;word-spacing:0px;writing-mode:lr-tb;text-anchor:middle;fill:#000000;fill-opacity:1;stroke:none;stroke-width:1px;stroke-linecap:butt;stroke-linejoin:miter;stroke-opacity:1"
       x="412.39899"
       y="885.42725"
       id="text8468"
       sodipodi:linespacing="125%"><tspan
         sodipodi:role="line"
         id="tspan8470"
         x="412.39899"
         y="885.42725">Start Here</tspan></text>
    <path
       style="color:#000000;font-style:normal;font-variant:normal;font-weight:normal;font-stretch:normal;font-size:medium;line-height:normal;font-family:sans-serif;text-indent:0;text-align:start;text-decoration:none;text-decoration-line:none;text-decoration-style:solid;text-decoration-color:#000000;letter-spacing:normal;word-spacing:normal;text-transform:none;direction:ltr;block-progression:tb;writing-mode:lr-tb;baseline-shift:baseline;text-anchor:start;white-space:normal;clip-rule:nonzero;display:inline;overflow:visible;visibility:visible;opacity:1;isolation:auto;mix-blend-mode:normal;color-interpolation:sRGB;color-interpolation-filters:linearRGB;solid-color:#000000;solid-opacity:1;fill:#000000;fill-opacity:1;fill-rule:evenodd;stroke:none;stroke-width:5;stroke-linecap:butt;stroke-linejoin:miter;stroke-miterlimit:4;stroke-dasharray:none;stroke-dashoffset:0;stroke-opacity:1;color-rendering:auto;image-rendering:auto;shape-rendering:auto;text-rendering:auto;enable-background:accumulate"
       d="M-59.9941975066 784.284262062C-60.8367750453 783.745687005 -61.2433877744 790.202616904 -60.4216727338 790.772515484C-59.4239618034 790.840138701 -47.1454768659 790.636761343 -25.9857504838 790.318329038C-15.2735512543 790.589687166 -2.12684994537 791.5215299 10.4096970082 790.809903373C21.6820865763 791.500228949 30.3564315533 789.869777743 43.3661310533 790.718801315C54.7064560338 789.832550294 67.4748798243 791.991056642 79.408692903 791.018487616C91.4227632092 791.312256662 101.462651789 790.143576785 112.490271782 789.880414006C122.66514572 789.923044556 136.243579028 790.243296187 147.637375195 791.116904004C159.457744555 790.291671992 169.710909861 790.477129121 181.891794299 789.551880686C192.698921237 788.691581713 207.414804863 790.346681988 218.183968286 790.579465723C230.181320517 791.354783267 240.158528718 790.218525054 251.06490111 789.602445096C261.499102838 789.368837274 276.750981356 790.301578387 287.42579671 790.502630406C298.953472398 791.498934337 309.576955265 790.849754706 322.067261806 790.357464065C333.151521495 791.27873627 342.623776164 788.857893888 354.904206114 789.579806519C366.069443491 788.638423205 378.252587075 789.932267359 389.581021503 790.905272315C401.43960548 791.85011638 411.896312312 789.069406503 424.38901747 789.343715151C435.155681564 788.734084651 447.786202359 790.300236941 459.801226538 791.159032492C472.175266356 790.540067336 481.784746105 791.880514667 493.387205473 790.888884422C504.501094263 790.026297617 516.251610018 789.610267077 528.609493899 789.209507261C541.249597841 789.379004118 552.180460769 788.263421446 563.663945781 789.260469155C575.917096373 788.431310381 588.393064797 791.024146996 598.866060835 790.573809157C610.529640336 791.570727195 622.677820408 790.17107488 633.254855956 789.498676161C644.129208432 789.873147443 656.493144155 791.236314934 668.145694994 790.318462906C680.960094605 789.961300489 692.161157176 791.262175906 702.371884126 790.993260466C714.508921711 790.003819613 724.255103902 790.430598124 736.01722888 791.140623609C748.731955167 790.304389199 761.697713555 791.310670488 771.901636507 790.571137799C784.875183648 791.441448158 796.932905647 790.027239382 806.557544414 790.40959115C820.683770257 790.871170359 830.64018927 789.227854897 841.13691516 789.89264846C862.3375884 789.470761439 874.795455455 790.200269613 875.547918355 790.85890425C875.185987056 791.79110902 876.348873943 784.106161746 875.394293205 784.404114116C875.046962425 783.466371438 864.003231072 786.062174914 841.171294826 785.372652412C830.746563992 784.634843883 819.615913157 784.811323162 805.583019125 784.203130071C794.128409065 783.779252193 782.875200696 785.187316817 770.708386219 784.238069301C759.88647716 785.23654403 746.954244733 786.280623784 735.744070625 785.98808427C725.364502903 786.722568131 715.140176838 785.240552371 702.471514156 784.503918028C690.806738018 783.632652126 678.893412977 784.610668858 666.153144083 785.121228931C654.748097883 784.132462779 643.796966073 785.624349023 632.841506363 786.157431971C622.339797506 785.578263558 611.649367725 784.886470558 598.913190156 784.991343576C587.55661547 785.9913012 576.066754374 784.578048692 564.25863312 785.571521953C552.276861841 784.753536319 541.507437375 785.38440609 529.15767271 786.103059211C517.010961203 786.812332239 505.684351857 785.842184067 495.033701833 785.596009996C484.022488755 786.482908144 471.348307143 786.565117963 458.924319962 786.015690541C448.158163263 785.339165319 437.750629787 783.798811653 425.324713542 784.297645569C412.889804708 784.725504812 401.544782674 785.557269607 389.388445019 784.776864472C378.682162804 785.298664881 367.02582426 784.683665141 354.686173529 785.230952133C342.697415548 786.147407639 331.793208458 784.008280314 321.295643122 784.227017621C308.871065139 784.820590682 298.393019691 783.542592343 286.227994711 784.233100872C273.716598614 784.748711719 262.177763932 785.385638309 251.454397042 786.115744616C240.698272086 785.769143084 228.54728078 787.115073094 216.927902481 786.147744004C204.398004279 785.53190057 195.620963884 786.292673528 183.402101056 785.860182299C170.600602356 785.873767894 157.365694431 785.57801198 147.11001825 785.568206786C135.737676704 784.706859017 124.336263095 784.848215501 114.071970054 784.432725397C101.098243078 784.623537351 90.8374263016 785.503926244 79.5651074374 784.527173685C66.407736785 784.660913253 55.7825986453 784.635844872 45.1354419845 785.609062215C33.1111076854 786.498678282 21.3322259973 783.995960278 9.80953829838 784.222370283C-2.45511976882 784.446893342 -15.0702327459 786.891802871 -24.3804320416 785.993560024C-45.4911574327 786.075997241 -59.3379330889 783.510074611 -58.9588023197 784.435417715C-58.280641188 785.170330961 -58.845405697 787.045746889 -59.1348266788 786.088544979"
       id="path8576"
       inkscape:connector-curvature="0" />
    <path
       style="color:#000000;font-style:normal;font-variant:normal;font-weight:normal;font-stretch:normal;font-size:medium;line-height:normal;font-family:sans-serif;text-indent:0;text-align:start;text-decoration:none;text-decoration-line:none;text-decoration-style:solid;text-decoration-color:#000000;letter-spacing:normal;word-spacing:normal;text-transform:none;direction:ltr;block-progression:tb;writing-mode:lr-tb;baseline-shift:baseline;text-anchor:start;white-space:normal;clip-rule:nonzero;display:inline;overflow:visible;visibility:visible;opacity:1;isolation:auto;mix-blend-mode:normal;color-interpolation:sRGB;color-interpolation-filters:linearRGB;solid-color:#000000;solid-opacity:1;fill:#000000;fill-opacity:1;fill-rule:evenodd;stroke:none;stroke-width:5;stroke-linecap:butt;stroke-linejoin:miter;stroke-miterlimit:4;stroke-dasharray:none;stroke-dashoffset:0;stroke-opacity:1;color-rendering:auto;image-rendering:auto;shape-rendering:auto;text-rendering:auto;enable-background:accumulate"
       d="M-65.5055872012 656.8391284C-66.192847121 656.112716807 -65.8418513631 661.073023302 -65.1864319378 661.828288406C-64.611345428 662.646381008 -53.8599515951 661.138726967 -31.3459928136 662.052451966C-20.6103633037 662.219615568 -11.041681099 663.599375263 2.90437695013 662.892142615C14.1131071556 663.643529767 24.8771126313 664.409713566 37.7782680083 663.50211405C47.6992782658 663.209029878 59.9780037624 662.266287822 72.2201003111 663.263418877C82.2847895076 663.149425386 95.4172335572 663.257695356 106.784140862 662.477422283C118.94881602 662.613240743 130.630210347 663.248574235 141.524048714 663.411952308C153.413493737 664.185372949 166.293525586 663.245432571 177.787494832 662.293893767C189.976962187 661.805412365 198.119832983 661.99913021 210.548494258 662.72579335C222.879337297 662.463861056 233.652629178 662.852506763 245.712133455 661.921684736C256.627336332 662.792671861 268.998150465 661.347927042 281.378288906 662.035867685C292.426984413 661.116354061 304.738639739 661.101707188 315.968496997 662.022524571C328.311671842 661.529509565 336.554137801 662.152686813 349.135251599 662.273359441C361.208370734 663.094610435 372.965309222 662.572827624 385.520411465 662.482452878C396.381549362 663.224902969 409.013836195 662.033646174 420.176147366 662.963183468C432.708230478 662.731358564 442.88625764 661.059525679 453.741527892 661.821666439C465.092894407 662.793119815 476.537537637 664.339493514 488.806883747 663.73422457C501.289001743 664.240546598 511.416043011 664.120035716 523.684264463 663.55716465C536.023356858 664.286136555 547.006349439 664.50734007 557.688926028 663.817645037C570.196877779 664.398735672 582.36674318 664.040028316 592.825930725 663.618129455C605.248952764 664.350397048 615.238719171 664.177344953 627.400594912 663.642065108C638.716141487 664.516012977 649.390381394 664.594031297 660.824590632 663.61011039C672.997016136 662.653720499 683.802789771 664.290824841 695.172703864 663.310230297C708.156845579 663.435944586 719.395731771 663.807846527 731.399456242 663.483092921C743.08407015 664.359421013 755.453014467 663.758458148 765.331781164 663.817523857C778.669963514 664.332565658 789.523765328 662.775713848 800.176832197 663.770245733C812.907024922 662.909423849 824.784787874 662.0004011 835.411902473 662.480094328C856.898840394 663.264429418 869.996346011 663.298203184 869.932255276 662.300259109C870.420521952 661.42756463 868.586142906 657.696228125 869.068683512 656.820354525C868.390376906 657.555133503 854.983872195 657.186724943 833.483967587 657.980875527C824.699781966 657.720527049 811.238278428 657.989403062 798.963271176 658.255051739C788.199197195 657.278482929 778.329229746 657.138189677 764.878084437 656.894395315C754.949342955 656.577185606 742.930921892 659.484507391 730.156494362 658.69058989C718.099483993 658.642430769 707.995158582 657.802948215 696.426545395 656.897161124C686.151801323 656.459617829 675.285499644 657.480504879 662.426066495 657.684214999C650.861650751 658.635321258 639.411898953 657.556250596 626.927985819 656.825285812C615.343221077 657.788740406 602.930225745 659.517370435 591.606936336 658.609097395C579.249363332 658.481423621 571.06159662 656.877083903 558.444960582 657.262831041C546.04847525 657.12159966 534.223600105 657.498898167 522.219286194 658.435669377C510.427919375 657.498775239 499.033722169 657.312515768 487.526046794 658.306204132C476.371018686 657.358155666 465.790472597 655.908786009 454.204444048 656.908783146C442.085274818 657.696046284 432.67960014 657.657877753 420.173616481 657.979731949C409.592708464 658.291582205 396.064274885 657.663841792 383.599984291 658.023065934C372.749766613 658.728165915 362.648175924 659.211793425 350.242008849 658.783174703C339.261135417 657.98902612 326.679523689 659.810147347 315.347359143 658.820160626C304.725836275 658.879284597 293.795995632 657.702997464 281.51196343 657.164075136C269.018704176 656.619497558 256.416124929 656.896153301 246.007290554 656.830495212C235.192644241 657.306455841 222.893379944 657.894723549 210.555584126 657.659599506C199.066686843 658.627037602 187.21367556 659.5283679 176.443626892 658.691334824C164.341732888 657.737498759 153.628089989 657.430471758 143.324221565 657.737389366C131.13684298 656.785694748 120.075133381 659.193878447 108.633153052 658.230490981C97.617317723 658.013798422 83.9245821152 658.027803293 72.3580580389 657.166799339C59.9979487132 658.147844212 50.6176139837 656.467427208 38.8261408521 656.872120821C25.426870854 657.268115723 12.8685055994 658.431630114 2.91927989378 657.631186298C-10.1440065649 656.64676265 -21.8498991959 656.482373442 -30.6588083193 656.821421081C-52.1230367899 657.587247937 -64.6835020023 659.506872355 -65.4063772405 658.81589378C-65.7236004962 659.764244668 -65.8035755659 657.732177753 -65.3869768703 656.823087259"
       id="path8578"
       inkscape:connector-curvature="0" />
    <path
       style="color:#000000;font-style:normal;font-variant:normal;font-weight:normal;font-stretch:normal;font-size:medium;line-height:normal;font-family:sans-serif;text-indent:0;text-align:start;text-decoration:none;text-decoration-line:none;text-decoration-style:solid;text-decoration-color:#000000;letter-spacing:normal;word-spacing:normal;text-transform:none;direction:ltr;block-progression:tb;writing-mode:lr-tb;baseline-shift:baseline;text-anchor:start;white-space:normal;clip-rule:nonzero;display:inline;overflow:visible;visibility:visible;opacity:1;isolation:auto;mix-blend-mode:normal;color-interpolation:sRGB;color-interpolation-filters:linearRGB;solid-color:#000000;solid-opacity:1;fill:#000000;fill-opacity:1;fill-rule:evenodd;stroke:none;stroke-width:5;stroke-linecap:butt;stroke-linejoin:miter;stroke-miterlimit:4;stroke-dasharray:none;stroke-dashoffset:0;stroke-opacity:1;color-rendering:auto;image-rendering:auto;shape-rendering:auto;text-rendering:auto;enable-background:accumulate"
       d="M-65.2829273352 529.439887367C-65.7746479674 528.569134348 -63.6671648178 534.41395031 -64.6197270274 534.718294255C-63.827490632 534.108079954 -51.5641031638 537.000545867 -30.0587000929 536.202217624C-19.7696024962 535.360166202 -7.65108899857 536.018241183 4.89204330729 535.30014595C14.6764289358 534.655502019 24.8710376743 536.553187163 38.3441886217 536.425640613C48.5813090085 535.657246142 61.4781488961 537.268464509 73.0860164736 536.43898319C84.2076916038 537.436964746 95.7921625805 535.301588768 106.842114931 534.967083683C117.493511236 535.819695322 131.190333476 537.187468561 142.410731903 536.436206013C154.609765439 536.767630773 165.38497208 533.461115505 176.984871201 534.440583683C187.472047228 534.998767939 199.999322072 535.447072187 211.604023849 536.437647998C223.932272969 536.166339116 233.65201203 536.720588856 245.194636185 535.732117401C255.618359167 535.91686642 268.962040207 534.96254144 281.615713382 534.925176535C292.159210918 535.364648914 304.098323177 535.550055658 315.83600229 534.557021618C326.580207289 533.872453653 338.4618272 534.089106126 349.275920016 534.721889803C361.466287637 533.996004319 373.268297002 534.809147626 383.827931928 534.779468815C395.750255559 535.699738643 407.821726511 536.348707773 420.141894446 535.734479831C432.648166293 535.413087907 442.461031157 533.447139297 453.899543516 534.445078327C465.263725758 535.419572033 478.606665592 535.807626453 489.130985802 536.122887913C501.367642156 536.909942907 513.300496295 534.913111985 523.752273981 534.771337998C534.988692853 535.679725239 546.169939213 535.587418178 556.632721719 535.25716975C568.047364418 536.217324116 580.685998841 535.323351851 591.579194224 536.204610098C603.903807363 535.391856884 617.46845222 535.44103052 627.808032916 535.651407849C638.631017045 535.857264687 649.347125274 534.224448856 661.577149444 534.449184989C672.694548229 535.095661815 684.266107469 536.895874595 696.310335755 536.403460364C709.282276082 536.603121038 718.216758689 536.070738009 729.690155752 535.161131698C741.741156424 536.154459167 753.8703093 535.626689978 765.334032049 536.436492926C778.811081245 536.347496074 789.720112544 534.723858042 800.860265188 535.530148992C815.081421613 535.718731565 825.356483085 536.613201605 834.133587458 536.380607752C855.436421036 535.786576176 869.260777295 535.382120245 868.871362362 534.461057809C867.8729863 534.404090815 869.911568514 531.986598706 869.07453729 531.439443582C869.627967889 532.272338877 856.213392812 530.025224584 833.56746292 530.867975157C824.685505427 531.364988591 813.190987165 529.473093654 799.037064562 529.876897827C789.42337848 530.231063991 776.497587259 530.269051203 764.529797328 531.127123782C753.906409435 530.159843192 741.068693623 531.378532217 729.714409302 530.795038585C717.723722238 531.156166289 708.205129582 529.989747614 695.219958305 529.870171049C684.632808293 530.679909183 673.232386288 528.446430147 661.465930634 529.439917064C650.660086859 528.546741484 638.476251952 529.549739303 627.630849563 529.842794379C617.20554055 529.389939097 603.650127933 530.229777949 592.61143755 529.518565315C580.937846953 530.470005458 568.051146352 529.561581146 556.618591047 530.526791072C545.811951963 531.326888831 534.635477132 530.463500318 523.667276167 531.190941047C512.996076645 531.828315624 499.302720698 531.997022533 488.508971425 531.433501948C476.0435991 531.558012472 467.03465016 529.352311375 454.539316182 529.773630315C443.522314238 530.647839156 432.276803525 531.641608452 420.093578668 530.860208423C409.545186853 531.045691468 396.098891084 530.455518483 385.389997955 531.02479496C374.573363052 531.694429605 360.808665969 529.739836173 349.004808372 530.693404746C337.447813968 531.692905256 325.097888976 530.765332251 314.408955519 530.145066335C301.926485751 529.639343905 291.526863121 532.082718359 280.847399677 531.435392403C269.25547125 530.437354984 258.922163443 529.124064659 247.053093644 530.010739621C234.544180483 530.590481405 221.746588752 529.214757376 210.572627642 530.196177855C198.456775905 529.268687351 188.735406486 532.00131947 177.726757309 531.050111923C165.487415396 531.949196161 154.459071652 530.959012441 143.204694758 529.959013194C131.514362813 530.940797195 120.660984363 530.216868467 108.661158189 530.780598864C95.7735343197 530.33563524 84.0103101196 530.581953944 73.6889419694 531.258328697C60.9485979592 530.439484178 50.1255212324 528.585117614 38.8240061185 529.490548214C27.3429885022 529.489739355 13.6370723478 531.396307752 4.08811303678 531.421832773C-10.1249681318 531.648457805 -20.1869795284 529.996178723 -29.873923958 530.994209012C-51.1452761955 531.543055648 -64.916070706 530.572627571 -65.4256988183 531.433022356C-66.3824952054 531.723781146 -66.4467846852 532.005057437 -66.0870021821 531.072021237"
       id="path8580"
       inkscape:connector-curvature="0" />
    <path
       style="color:#000000;font-style:normal;font-variant:normal;font-weight:normal;font-stretch:normal;font-size:medium;line-height:normal;font-family:sans-serif;text-indent:0;text-align:start;text-decoration:none;text-decoration-line:none;text-decoration-style:solid;text-decoration-color:#000000;letter-spacing:normal;word-spacing:normal;text-transform:none;direction:ltr;block-progression:tb;writing-mode:lr-tb;baseline-shift:baseline;text-anchor:start;white-space:normal;clip-rule:nonzero;display:inline;overflow:visible;visibility:visible;opacity:1;isolation:auto;mix-blend-mode:normal;color-interpolation:sRGB;color-interpolation-filters:linearRGB;solid-color:#000000;solid-opacity:1;fill:#000000;fill-opacity:1;fill-rule:evenodd;stroke:none;stroke-width:5;stroke-linecap:butt;stroke-linejoin:miter;stroke-miterlimit:4;stroke-dasharray:none;stroke-dashoffset:0;stroke-opacity:1;color-rendering:auto;image-rendering:auto;shape-rendering:auto;text-rendering:auto;enable-background:accumulate"
       d="M-64.5726187943 402.385852457C-64.3348871077 403.35718332 -65.2939916758 407.891497564 -66.2936495019 407.865339761C-67.1598290083 408.365072752 -52.4340599563 406.731113193 -31.2116800385 407.196236853C-21.9855990532 406.344284523 -10.4414863942 409.352923718 3.74962917428 409.046945185C13.961973589 408.105270359 24.9327812264 409.710855589 37.8521345892 408.811897671C48.700974145 409.811498353 60.8620170842 408.380447916 72.1215321605 407.959073921C83.8177285667 407.189058864 95.607052286 410.038942198 107.536403928 409.040928334C117.868770586 408.500787681 129.795622251 406.577244001 141.466303418 407.555005329C152.919021529 408.535375402 165.096821087 408.120559098 176.071704288 407.55779089C188.31332928 407.177171876 201.186661023 408.604486463 212.48128352 407.70997491C224.146304269 408.664145273 234.488611442 409.910063048 245.788967521 408.990813535C257.554335722 408.057421939 269.106506466 406.956681065 281.594013998 407.509749171C293.960629046 407.129444851 305.013391362 407.751544999 316.17785097 408.641836194C327.504284563 409.631014192 336.64636521 408.863605997 349.224814971 408.72273753C360.484587104 407.752656134 371.2074585 407.452308663 383.579497326 408.03478953C394.851317381 407.06897102 408.198963889 409.972220365 419.359025159 409.043578713C431.652845725 409.722192828 442.515005947 409.397998944 454.629704102 408.607153988C465.563172402 409.362671219 478.349986477 408.364030751 488.968062961 408.882248724C501.586443699 408.935008694 512.429333565 406.842061993 522.896152228 407.064888674C534.079307106 407.946811455 547.234736559 406.694310643 557.71194224 407.06320615C568.764143296 406.296427705 581.52797831 407.63373843 592.067317969 407.070788183C604.780154568 407.310550687 615.156038072 406.613039774 626.00395781 407.496088548C638.046448721 408.466632368 650.126296826 407.953992138 662.289789444 407.534779558C675.131732104 407.260360673 685.075458829 407.972683327 696.531231414 408.93212557C707.766545717 408.278433818 720.119817771 409.74333568 731.36280343 408.760608427C743.637927405 407.766544257 754.60660976 407.722656695 766.182420989 408.437983142C778.802971883 409.428200478 789.593913077 407.120709493 800.839675446 407.837655331C814.79724194 407.142094705 826.366548676 408.955811792 835.461515765 408.199932706C857.142608064 407.295295736 868.299469758 406.78702452 868.120407739 407.770862308C867.320781346 407.170364488 868.770280186 405.026690947 868.83608998 404.028858761C867.999807523 404.577157633 857.189989049 401.219332839 835.010743022 402.216764801C824.518695284 401.546749623 815.091012053 402.961163758 800.862647028 403.107141541C791.219258184 402.682752067 776.970073867 402.807796849 764.587944384 403.802865473C752.781599066 403.433409957 742.241849782 403.635324438 729.714511037 402.702734124C719.649254884 402.5839035 707.081039062 402.587542008 695.940545305 402.063760323C684.581188456 403.046420548 673.344845856 403.25104714 662.433995242 403.006158791C652.133283357 402.709038316 637.639409737 401.895842344 626.824578337 402.058597121C614.816010769 402.780806481 604.508097455 403.986931745 593.22089617 403.096167683C581.686760783 404.081890082 570.257472847 402.718088096 557.79731901 402.075393335C547.075350112 401.346417865 534.62358284 404.136709766 523.829890152 403.627561453C513.376052119 403.78255421 501.310518589 402.574379371 489.299880074 403.494860413C477.240736272 402.684541959 465.380644829 403.047975465 454.788463406 402.961339271C443.602695661 403.909836876 432.279564297 403.709168017 419.737427373 403.893081094C407.302432449 404.320707327 395.618415792 403.047619304 384.354909889 402.08407071C372.244484854 401.249631142 360.61755972 401.445939367 349.903398866 402.060947516C337.529340661 401.442036524 326.886533892 401.619639243 316.082624146 402.362527614C304.756216022 403.318528005 290.591082579 403.573701835 280.116911296 403.826551971C269.460849273 403.881544671 257.711575932 402.634743467 245.312510024 402.511603827C234.139865423 403.364874482 223.067909762 403.649277441 210.703192128 403.602114062C199.88590174 403.982775115 189.568502854 401.563708089 177.66054812 402.370559982C165.676662798 403.353799401 152.015779544 404.000320934 141.75249503 403.876623638C130.872159035 403.873945342 120.040087195 403.967152565 108.71791329 402.978211134C95.9349835174 403.590215288 84.9734254961 401.801245429 74.0776722375 402.788007843C61.4525636994 401.899457902 50.2411751713 404.48556178 38.4604345877 404.057437336C26.8193785166 403.514790903 15.5217000661 404.443883824 4.81894724012 403.455831583C-7.56691121997 403.977349015 -21.2866818573 404.328058271 -31.6016695684 403.503179308C-53.734174526 402.503497627 -65.010207735 404.653511111 -64.5874382474 403.747273857C-64.5330919538 404.745796005 -65.8274521929 404.153549656 -64.8494563117 403.944925457"
       id="path8582"
       inkscape:connector-curvature="0" />
    <path
       style="color:#000000;font-style:normal;font-variant:normal;font-weight:normal;font-stretch:normal;font-size:medium;line-height:normal;font-family:sans-serif;text-indent:0;text-align:start;text-decoration:none;text-decoration-line:none;text-decoration-style:solid;text-decoration-color:#000000;letter-spacing:normal;word-spacing:normal;text-transform:none;direction:ltr;block-progression:tb;writing-mode:lr-tb;baseline-shift:baseline;text-anchor:start;white-space:normal;clip-rule:nonzero;display:inline;overflow:visible;visibility:visible;opacity:1;isolation:auto;mix-blend-mode:normal;color-interpolation:sRGB;color-interpolation-filters:linearRGB;solid-color:#000000;solid-opacity:1;fill:#000000;fill-opacity:1;fill-rule:evenodd;stroke:none;stroke-width:5;stroke-linecap:butt;stroke-linejoin:miter;stroke-miterlimit:4;stroke-dasharray:none;stroke-dashoffset:0;stroke-opacity:1;color-rendering:auto;image-rendering:auto;shape-rendering:auto;text-rendering:auto;enable-background:accumulate"
       d="M-64.4078879011 275.251494208C-63.4093279782 275.197846464 -64.7687367667 280.006252042 -64.3397436341 280.909559792C-64.3758633128 281.908907264 -53.4003340334 279.760106434 -30.2927310455 279.766836589C-21.4985657005 280.061714318 -9.63295886703 280.589849546 4.03544880195 279.686702099C15.0026742016 278.778419334 27.3708683432 279.954495732 39.4879189268 280.885789985C49.6526353628 280.183996515 60.8520863331 279.887250025 72.1572404518 280.395435056C84.2152920658 280.380003144 95.8836029038 281.050122745 108.706278227 280.492849288C120.880212272 280.496689086 130.4107258 278.718788813 142.511284318 279.69425335C152.966734651 279.094388776 167.029607367 281.155726239 177.831571649 281.12519026C190.147817179 281.089209457 199.933470047 279.978478137 212.52816027 280.500351632C223.611674757 281.459694784 233.052924821 279.851115651 245.743205881 279.764589335C257.795165481 280.528391114 268.165288903 280.877378687 280.471458019 281.635771626C292.527575187 282.424794729 304.801467054 282.249079223 316.161191765 281.283504699C327.129018892 282.146432687 338.32951001 280.624334946 350.644591185 279.937337399C362.630876294 279.062121812 373.577546313 282.380323833 384.435544302 281.667355688C396.104513872 280.676913749 408.763761917 282.280732129 419.555835723 281.606988833C430.809032557 282.558978954 441.601921889 280.764076794 453.332484163 279.790387726C465.900191079 279.99371978 478.927009785 280.701045697 489.400393622 280.711887472C501.005095154 279.712001061 511.277111487 281.807274915 522.076466804 281.040839537C533.166820429 281.866481002 546.323921416 281.047434198 558.610366628 280.572032147C570.175499536 281.563679343 580.223796532 280.916431609 591.57449824 279.916546055C602.734245775 280.729550492 615.194730076 280.863452498 627.166052573 281.619841956C639.819935872 281.096816485 648.884023697 281.071618872 661.002089449 281.577741989C672.472327201 280.665699022 684.681646855 282.347479798 695.411160974 281.451628114C707.288832401 282.445062446 720.914222231 282.174560499 731.354341387 281.388230459C743.722622538 282.367625772 753.648778128 281.310667475 764.318725419 280.332342087C776.713336431 279.336082103 790.136726945 282.250174314 800.684330066 281.250174845C812.925114744 281.308212255 826.185660892 281.777499353 834.961709409 281.549365643C858.047200174 281.756957809 867.168332373 280.203788838 868.166327565 280.267078621C867.233016378 279.908010063 868.874976617 273.688391228 868.994232858 274.681254738C869.992041521 274.747420226 857.353962131 275.96322835 835.173340624 274.965896107C826.295684104 274.476468301 814.28373053 276.160945832 800.16258109 276.632059925C790.591769412 276.840397804 779.168247435 275.967583338 765.835722376 276.492413938C755.460057476 277.357610996 741.971207846 277.465756314 730.091130126 276.507623554C719.978946071 276.831829169 706.888886821 276.005379457 695.248458057 275.069348447C683.178296893 275.512958822 674.399636721 276.221569751 662.333934826 275.238887752C651.58802867 274.3785034 639.094525755 276.327666629 627.806436872 275.469522626C617.222028924 276.150305687 605.050313647 274.819285423 592.318060406 274.682392939C580.562380972 273.761545324 568.551332038 273.956530063 557.547673765 274.679983459C545.49283445 273.918624518 535.92998531 277.207672269 523.728720039 276.370470269C511.316038653 276.131097524 499.183829687 275.63539903 488.02794372 274.74954567C475.88592015 275.492925486 464.039182818 274.544133204 453.430185072 274.745948037C442.798733375 275.2370531 432.43621848 276.547034346 420.173789572 275.836076369C407.645076076 275.904239095 396.100159748 275.61287707 385.561739964 275.491606559C373.694521528 276.443027596 361.850221317 275.191791424 349.406737356 274.85283578C338.777098158 274.569287221 327.192992463 275.546153635 315.883384683 276.532660934C304.000390224 277.497396511 292.077987424 277.423625783 280.213977622 276.51718506C269.332485537 275.882848124 256.888671658 275.571141718 245.667455748 276.55379341C233.035716969 276.206147452 221.90455731 277.079803617 211.452539495 276.673667588C200.700285736 276.530865527 186.84829379 277.041585682 176.089611073 276.212093443C164.992107959 276.922230829 153.715215716 275.958943094 143.287954085 275.398721646C130.568547281 274.854704957 117.959431265 277.305672548 107.551969246 276.663315228C94.7077142433 276.140066121 85.7830759506 275.809562564 73.8719600229 276.331162633C60.7319224661 276.103366823 49.01737279 273.948674946 37.8669671851 274.910579695C25.2307956733 275.898469955 14.9871462019 275.567267169 3.97621046109 274.680544759C-10.2486459724 274.848718639 -22.3252794776 274.242364835 -31.2978444813 274.871725526C-54.0229362986 275.658047822 -64.6604904118 273.915564684 -65.3078601845 274.677740764C-66.1591435875 274.153034591 -66.3457057328 276.99313244 -65.3979718388 276.674070587"
       id="path8584"
       inkscape:connector-curvature="0" />
    <path
       style="color:#000000;font-style:normal;font-variant:normal;font-weight:normal;font-stretch:normal;font-size:medium;line-height:normal;font-family:sans-serif;text-indent:0;text-align:start;text-decoration:none;text-decoration-line:none;text-decoration-style:solid;text-decoration-color:#000000;letter-spacing:normal;word-spacing:normal;text-transform:none;direction:ltr;block-progression:tb;writing-mode:lr-tb;baseline-shift:baseline;text-anchor:start;white-space:normal;clip-rule:nonzero;display:inline;overflow:visible;visibility:visible;opacity:1;isolation:auto;mix-blend-mode:normal;color-interpolation:sRGB;color-interpolation-filters:linearRGB;solid-color:#000000;solid-opacity:1;fill:#000000;fill-opacity:1;fill-rule:evenodd;stroke:none;stroke-width:5;stroke-linecap:butt;stroke-linejoin:miter;stroke-miterlimit:4;stroke-dasharray:none;stroke-dashoffset:0;stroke-opacity:1;color-rendering:auto;image-rendering:auto;shape-rendering:auto;text-rendering:auto;enable-background:accumulate"
       d="M-64.4954590101 148.873459588C-63.7742697672 149.566197688 -65.5009490504 153.603789308 -64.5684787503 153.965035955C-64.9881194566 154.872726253 -52.8726873679 152.972424884 -29.7651933599 152.956200273C-21.0151268233 152.9832606 -9.74066460111 152.709022148 4.47048147382 152.474326561C15.6142690589 151.670540898 26.0238794419 153.290858915 39.301808173 152.686365805C50.0533034136 151.694285051 61.8015792252 154.888541897 73.1625731757 154.295821207C85.0185096851 154.898788621 96.2054582209 155.095871671 108.3155102 154.102823147C119.938724019 154.99621797 129.749259977 151.490560641 142.211348094 152.30397391C154.443470776 152.088777544 163.637778085 153.635762705 176.329606995 154.091076642C187.909528973 153.126288695 198.987641428 153.386326342 211.236212014 154.248329294C223.594949285 154.366607605 234.553069693 153.160714349 247.012722434 153.804005968C258.315599428 152.80939023 268.960390277 154.211789489 281.562085406 153.891511615C292.022152016 154.082012469 305.421104962 153.822358802 316.059973196 154.016452171C326.94942196 153.204486561 338.503439027 152.952428156 349.103161011 152.802516894C361.508338745 152.372090516 374.44853105 152.970727493 385.444968136 153.797349651C397.631665701 154.552407405 407.655308573 153.205196816 420.185325646 153.25040045C430.900238712 153.786093931 443.36700498 152.294034702 454.793579019 153.291134316C466.994187039 154.08198361 476.876790297 153.281443926 488.665854412 152.332597862C499.650481913 153.104989952 511.988896192 153.935015333 522.44895535 154.12587372C534.965198989 154.633300531 544.272646766 153.229577254 556.639052445 153.510504303C568.197495729 154.501258437 581.643915371 153.717566282 593.038431266 152.717977794C604.244849723 153.562458124 616.06222063 151.523680572 627.460846749 152.520360031C638.529743671 153.200944824 650.39118902 153.386768337 661.149584162 154.254398928C672.397114009 155.028712119 684.146632562 153.046006248 695.380042772 154.044231996C706.932770149 154.942549015 719.725250275 152.984734428 729.809769235 152.755651272C742.624110565 153.517280803 753.142227127 153.721517554 764.883566495 154.224462284C776.364686581 154.238800481 788.932260205 153.506768418 800.14113412 154.257822735C814.361986116 154.067661682 825.58045875 154.484595886 835.452316923 153.492087908C858.095128346 152.647575586 869.811490606 153.198198716 869.568698429 154.168277042C868.711748319 154.683676409 869.470438899 147.075755165 870.004794427 147.921014989C869.264698165 147.248514042 856.684967926 148.440848131 833.72305419 148.960647942C824.895813106 149.346742391 813.575345453 146.533702406 799.705314613 147.309522907C789.689156807 148.155820265 777.993254083 147.820219627 766.231913925 148.514216302C755.293618831 149.512341936 742.820471836 148.290798039 731.422909629 148.93023945C721.323081939 149.21585928 706.297096434 148.929304024 695.042989944 148.25476567C682.870725427 148.196877945 674.521706712 148.641708025 662.25247951 147.720396522C650.589394111 148.633586773 638.300369554 149.297508398 627.470996472 149.063044667C615.405998516 148.399464192 601.991394926 148.01770791 591.248545583 148.066314799C580.739303967 148.582436647 569.741552125 149.572577053 557.131180891 149.172175404C546.704023256 149.37434231 533.95153576 148.823167058 523.186322278 149.280767367C512.710389437 149.539978064 501.006145322 149.055939128 489.370634695 148.056061743C477.457299527 147.158152743 465.388751071 146.691003817 453.200720649 147.491296931C440.701013192 147.41592395 430.114976727 148.441071014 419.08200849 149.291415656C408.409731782 148.77904192 395.975614738 149.254682645 385.378656628 148.897621907C372.838540187 148.702559638 362.062170626 146.726804776 349.754962926 147.32072208C337.379409297 147.937730496 327.346094812 149.383758017 314.893923084 149.179162784C303.829725231 148.347696799 293.533098318 146.827996556 281.517159829 147.646668312C270.858030395 147.74227337 255.642010039 147.755844663 245.164403418 148.125748784C234.039101637 147.303280603 222.207359302 149.121616959 211.832746455 149.253857923C200.060810312 150.253409887 187.003903297 148.892865923 176.622017011 149.246682915C165.091146417 150.209347894 151.678032634 148.423983192 141.355246867 148.063637262C129.645922313 147.078367597 118.135531765 149.998197449 107.009424301 148.999338601C94.7706427942 149.968428902 85.2683319107 148.716332911 73.952323524 147.750210048C62.6833559138 148.191507222 48.9330933635 148.642635627 37.7001175346 147.708132544C26.0961556213 148.188521832 12.8618491902 149.507860182 3.14005796841 148.945426314C-11.071558119 149.178258193 -21.6201320687 146.525202752 -30.7342840267 147.297281913C-53.2018857507 146.364455633 -66.9308196436 147.740307395 -65.9533531975 147.529216546C-66.2532609812 146.575248348 -65.0834388342 147.595414922 -64.3144374168 148.234661995"
       id="path8586"
       inkscape:connector-curvature="0" />
    <text
       xml:space="preserve"
       style="font-style:normal;font-variant:normal;font-weight:normal;font-stretch:normal;font-size:35px;line-height:125%;font-family:'Archivo Narrow';-inkscape-font-specification:'Archivo Narrow, Normal';text-align:center;letter-spacing:0px;word-spacing:0px;writing-mode:lr-tb;text-anchor:middle;fill:#000000;fill-opacity:1;stroke:none;stroke-width:1px;stroke-linecap:butt;stroke-linejoin:miter;stroke-opacity:1"
       x="-543.4621"
       y="599.81384"
       id="text8590"
       sodipodi:linespacing="125%"><tspan
         sodipodi:role="line"
         id="tspan8592"
         x="-543.4621"
         y="599.81384" /></text>
    <text
       xml:space="preserve"
       style="font-style:normal;font-variant:normal;font-weight:normal;font-stretch:normal;font-size:73.56994629px;line-height:125%;font-family:'3Dumb';-inkscape-font-specification:'3Dumb';text-align:center;letter-spacing:0px;word-spacing:0px;writing-mode:lr-tb;text-anchor:middle;fill:#000000;fill-opacity:1;stroke:none;stroke-width:1px;stroke-linecap:butt;stroke-linejoin:miter;stroke-opacity:1"
       x="412.69958"
       y="94.142715"
       id="text8700"
       sodipodi:linespacing="125%"><tspan
         sodipodi:role="line"
         id="tspan8702"
         x="412.69958"
         y="94.142715">Resource Ladder</tspan></text>
    <text
       sodipodi:linespacing="125%"
       id="text11532"
       y="747.45056"
       x="418.37915"
       style="font-style:normal;font-variant:normal;font-weight:normal;font-stretch:normal;font-size:73.8680954px;line-height:125%;font-family:'Coming Soon';-inkscape-font-specification:'Coming Soon';text-align:center;letter-spacing:0px;word-spacing:0px;writing-mode:lr-tb;text-anchor:middle;fill:#000000;fill-opacity:1;stroke:none;stroke-width:1px;stroke-linecap:butt;stroke-linejoin:miter;stroke-opacity:1"
       xml:space="preserve"><tspan
         y="747.45056"
         x="418.37915"
         id="tspan11534"
         sodipodi:role="line">The Nothing</tspan></text>
    <text
       xml:space="preserve"
       style="font-style:normal;font-variant:normal;font-weight:normal;font-stretch:normal;font-size:62.06713867px;line-height:125%;font-family:'Coming Soon';-inkscape-font-specification:'Coming Soon';text-align:center;letter-spacing:0px;word-spacing:0px;writing-mode:lr-tb;text-anchor:middle;fill:#000000;fill-opacity:1;stroke:none;stroke-width:1px;stroke-linecap:butt;stroke-linejoin:miter;stroke-opacity:1"
       x="411.89386"
       y="620.43585"
       id="text11536"
       sodipodi:linespacing="125%"><tspan
         sodipodi:role="line"
         id="tspan11538"
         x="411.89386"
         y="620.43585">Draw 1 Resource</tspan></text>
    <text
       sodipodi:linespacing="125%"
       id="text11540"
       y="456.69205"
       x="415.51102"
       style="font-style:normal;font-variant:normal;font-weight:normal;font-stretch:normal;font-size:46.36521149px;line-height:125%;font-family:'Coming Soon';-inkscape-font-specification:'Coming Soon';text-align:center;letter-spacing:0px;word-spacing:0px;writing-mode:lr-tb;text-anchor:middle;fill:#000000;fill-opacity:1;stroke:none;stroke-width:1px;stroke-linecap:butt;stroke-linejoin:miter;stroke-opacity:1"
       xml:space="preserve"><tspan
         y="456.69205"
         x="423.20837"
         id="tspan11542"
         sodipodi:role="line">Trash 1 Resource to </tspan><tspan
         y="514.64856"
         x="415.51102"
         sodipodi:role="line"
         id="tspan11544">Draw 2 Resources</tspan></text>
    <text
       xml:space="preserve"
       style="font-style:normal;font-variant:normal;font-weight:normal;font-stretch:normal;font-size:46.36521149px;line-height:125%;font-family:'Coming Soon';-inkscape-font-specification:'Coming Soon';text-align:center;letter-spacing:0px;word-spacing:0px;writing-mode:lr-tb;text-anchor:middle;fill:#000000;fill-opacity:1;stroke:none;stroke-width:1px;stroke-linecap:butt;stroke-linejoin:miter;stroke-opacity:1"
       x="412.69406"
       y="330.05966"
       id="text11546"
       sodipodi:linespacing="125%"><tspan
         id="tspan11550"
         sodipodi:role="line"
         x="412.69406"
         y="330.05966">Trash 1 Resource for</tspan><tspan
         sodipodi:role="line"
         x="412.69406"
         y="388.01617"
         id="tspan11554">2 Available Resources</tspan></text>
    <text
       sodipodi:linespacing="125%"
       id="text11556"
       y="228.7359"
       x="412.47397"
       style="font-style:normal;font-variant:normal;font-weight:normal;font-stretch:normal;font-size:53.30833054px;line-height:125%;font-family:'Coming Soon';-inkscape-font-specification:'Coming Soon';text-align:center;letter-spacing:0px;word-spacing:0px;writing-mode:lr-tb;text-anchor:middle;fill:#000000;fill-opacity:1;stroke:none;stroke-width:1px;stroke-linecap:butt;stroke-linejoin:miter;stroke-opacity:1"
       xml:space="preserve"><tspan
         y="228.7359"
         x="412.47397"
         id="tspan11558"
         sodipodi:role="line">Draw 2 Resource Cards</tspan></text>
  </g>
</svg>
