<?xml version="1.0" encoding="UTF-8" standalone="no"?>
<!-- Created with Inkscape (http://www.inkscape.org/) -->

<svg
   xmlns:dc="http://purl.org/dc/elements/1.1/"
   xmlns:cc="http://creativecommons.org/ns#"
   xmlns:rdf="http://www.w3.org/1999/02/22-rdf-syntax-ns#"
   xmlns:svg="http://www.w3.org/2000/svg"
   xmlns="http://www.w3.org/2000/svg"
   xmlns:sodipodi="http://sodipodi.sourceforge.net/DTD/sodipodi-0.dtd"
   xmlns:inkscape="http://www.inkscape.org/namespaces/inkscape"
   width="100"
   height="100"
   viewBox="0 0 100 100"
   id="svg5392"
   version="1.1"
   inkscape:version="0.91 r13725"
   sodipodi:docname="sheep.svg">
  <defs
     id="defs5394" />
  <sodipodi:namedview
     id="base"
     pagecolor="#ffffff"
     bordercolor="#666666"
     borderopacity="1.0"
     inkscape:pageopacity="0.0"
     inkscape:pageshadow="2"
     inkscape:zoom="5.6"
     inkscape:cx="-0.078346714"
     inkscape:cy="50.850091"
     inkscape:document-units="px"
     inkscape:current-layer="layer1"
     showgrid="false"
     units="px"
     inkscape:window-width="1920"
     inkscape:window-height="1017"
     inkscape:window-x="-8"
     inkscape:window-y="-8"
     inkscape:window-maximized="1" />
  <metadata
     id="metadata5397">
    <rdf:RDF>
      <cc:Work
         rdf:about="">
        <dc:format>image/svg+xml</dc:format>
        <dc:type
           rdf:resource="http://purl.org/dc/dcmitype/StillImage" />
        <dc:title />
      </cc:Work>
    </rdf:RDF>
  </metadata>
  <g
     inkscape:label="Layer 1"
     inkscape:groupmode="layer"
     id="layer1"
     transform="translate(0,-952.36216)">
    <rect
       style="opacity:1;fill:#000000;fill-opacity:1;stroke:#000000;stroke-width:2;stroke-linecap:round;stroke-linejoin:round;stroke-miterlimit:4;stroke-dasharray:none;stroke-dashoffset:0;stroke-opacity:1"
       id="rect4202"
       width="5.5347438"
       height="36.618038"
       x="15.172231"
       y="992.4173"
       ry="4.5772548" />
    <rect
       ry="4.5772548"
       y="996.25208"
       x="52.425312"
       height="36.618038"
       width="5.5347438"
       id="rect4200"
       style="opacity:1;fill:#000000;fill-opacity:1;stroke:#000000;stroke-width:2;stroke-linecap:round;stroke-linejoin:round;stroke-miterlimit:4;stroke-dasharray:none;stroke-dashoffset:0;stroke-opacity:1" />
    <path
       style="opacity:1;fill:#000000;fill-opacity:1;stroke:none;stroke-width:1.9263835;stroke-linecap:round;stroke-linejoin:round;stroke-miterlimit:4;stroke-dasharray:none;stroke-dashoffset:0;stroke-opacity:1"
       d="m 89.482845,974.50771 c 4.803469,0.76596 9.622817,3.46256 9.745527,8.97359 0.115576,5.19051 -3.783314,9.53716 -8.966554,9.75314 -8.384388,0.68425 -19.962657,2.87203 -20.780871,-8.51383 -0.618085,-14.85916 15.198429,-10.97885 20.001898,-10.2129 z"
       id="rect4194"
       inkscape:connector-curvature="0"
       sodipodi:nodetypes="zsccz" />
    <rect
       style="opacity:1;fill:#000000;fill-opacity:1;stroke:#000000;stroke-width:2;stroke-linecap:round;stroke-linejoin:round;stroke-miterlimit:4;stroke-dasharray:none;stroke-dashoffset:0;stroke-opacity:1"
       id="rect4177"
       width="5.5347438"
       height="36.618038"
       x="62.004677"
       y="1001.3651"
       ry="4.5772548" />
    <rect
       ry="2.7695384"
       y="1015.8306"
       x="23.046"
       height="22.156307"
       width="5.5347438"
       id="rect4175"
       style="opacity:1;fill:#000000;fill-opacity:1;stroke:#000000;stroke-width:2;stroke-linecap:round;stroke-linejoin:round;stroke-miterlimit:4;stroke-dasharray:none;stroke-dashoffset:0;stroke-opacity:1" />
    <path
       style="opacity:1;fill:#ffffff;fill-opacity:1;stroke:#000000;stroke-width:2.5;stroke-linecap:round;stroke-linejoin:round;stroke-miterlimit:4;stroke-dasharray:none;stroke-dashoffset:0;stroke-opacity:1"
       d="m 76.852448,974.34981 c -6.257064,-1.34766 -12.693595,1.71692 -15.855432,7.54912 -1.315523,-3.32551 -4.125687,-5.74781 -7.525755,-6.48709 -4.312698,-0.92412 -8.771178,1.01565 -11.21008,4.87738 -1.71941,-4.64152 -5.687936,-8.08307 -10.523263,-9.12593 -6.639736,-1.42595 -13.377406,1.95893 -16.201615,8.13954 -6.5747746,0.36541 -12.1578558,5.27045 -13.5985433,11.94706 -1.42707388,6.67064 1.6383434,13.43111 7.4698803,16.47421 -0.5458605,6.4578 3.593074,12.2627 9.685351,13.5836 1.53925,0.3301 3.129577,0.3534 4.686707,0.07 1.614107,1.53 3.597423,2.5828 5.747886,3.0506 2.512196,0.5357 5.135041,0.2505 7.509214,-0.8173 1.648911,1.2191 3.526951,2.071 5.518043,2.5028 4.070456,0.8702 8.333524,-0.071 11.756845,-2.5929 0.496829,0.1797 1.00425,0.3276 1.519678,0.442 6.990221,1.5066 13.925617,-3.1663 15.491103,-10.4377 0.114106,-0.5552 0.194331,-1.1167 0.240336,-1.6812 0.450007,0.1679 0.910778,0.3043 1.379061,0.4092 5.955948,1.2835 11.865486,-2.7004 13.199704,-8.8986 0.436106,-2.0433 0.328021,-4.16245 -0.312454,-6.12884 0.971504,-1.53604 1.669304,-3.23737 2.059619,-5.02159 1.758434,-8.16712 -3.182894,-16.16061 -11.036258,-17.85308 z"
       id="path4142"
       inkscape:connector-curvature="0"
       sodipodi:nodetypes="cccccccccccccccccccccc" />
    <ellipse
       style="opacity:1;fill:#000000;fill-opacity:1;stroke:#000000;stroke-width:2.00000024;stroke-linecap:round;stroke-linejoin:round;stroke-miterlimit:4;stroke-dasharray:none;stroke-dashoffset:0;stroke-opacity:1"
       id="path4204"
       cx="-353.49747"
       cy="908.82031"
       rx="2.5548832"
       ry="5.5964198"
       transform="matrix(0.8982115,-0.43956353,0.43900862,0.89848285,0,0)" />
    <ellipse
       transform="matrix(0.94577151,0.32483264,-0.32437807,0.94592752,0,0)"
       ry="5.5968032"
       rx="2.554708"
       cy="891.15698"
       cx="397.51157"
       id="ellipse4206"
       style="opacity:1;fill:#000000;fill-opacity:1;stroke:#000000;stroke-width:2;stroke-linecap:round;stroke-linejoin:round;stroke-miterlimit:4;stroke-dasharray:none;stroke-dashoffset:0;stroke-opacity:1" />
  </g>
</svg>
