<?xml version="1.0" encoding="UTF-8" standalone="no"?>
<!-- Created with Inkscape (http://www.inkscape.org/) -->

<svg
   xmlns:dc="http://purl.org/dc/elements/1.1/"
   xmlns:cc="http://creativecommons.org/ns#"
   xmlns:rdf="http://www.w3.org/1999/02/22-rdf-syntax-ns#"
   xmlns:svg="http://www.w3.org/2000/svg"
   xmlns="http://www.w3.org/2000/svg"
   xmlns:sodipodi="http://sodipodi.sourceforge.net/DTD/sodipodi-0.dtd"
   xmlns:inkscape="http://www.inkscape.org/namespaces/inkscape"
   width="100"
   height="100"
   viewBox="0 0 100 100"
   id="svg5392"
   version="1.1"
   inkscape:version="0.91 r13725"
   sodipodi:docname="sheep.svg">
  <defs
     id="defs5394" />
  <sodipodi:namedview
     id="base"
     pagecolor="#ffffff"
     bordercolor="#666666"
     borderopacity="1.0"
     inkscape:pageopacity="0.0"
     inkscape:pageshadow="2"
     inkscape:zoom="3.959798"
     inkscape:cx="54.194799"
     inkscape:cy="78.338181"
     inkscape:document-units="px"
     inkscape:current-layer="layer1"
     showgrid="false"
     units="px"
     inkscape:window-width="1920"
     inkscape:window-height="1017"
     inkscape:window-x="-8"
     inkscape:window-y="-8"
     inkscape:window-maximized="1" />
  <metadata
     id="metadata5397">
    <rdf:RDF>
      <cc:Work
         rdf:about="">
        <dc:format>image/svg+xml</dc:format>
        <dc:type
           rdf:resource="http://purl.org/dc/dcmitype/StillImage" />
        <dc:title />
      </cc:Work>
    </rdf:RDF>
  </metadata>
  <g
     inkscape:label="Layer 1"
     inkscape:groupmode="layer"
     id="layer1"
     transform="translate(0,-952.36216)">
    <path
       inkscape:connector-curvature="0"
       style="opacity:1;fill:#000000"
       d="m 76.667219,973.79585 c -1.732481,0.0202 -3.606786,0.63375 -5.486509,2.49865 1.482457,0.84457 4.112571,1.48548 6.388126,1.46891 1.212354,-0.009 2.327344,-0.19537 3.099885,-0.50722 0.772382,-0.31201 1.131722,-0.67406 1.273227,-1.0667 l 0,-6.4e-4 c 0.03936,-0.10884 0.07808,-0.22118 0.141824,-0.34357 -0.166683,-0.10517 -0.33464,-0.22181 -0.503554,-0.36252 l 0,4.8e-4 c -0.96727,-0.80505 -2.684453,-1.62094 -4.559555,-1.68356 -0.117124,-0.004 -0.234886,-0.005 -0.353444,-0.004 z m -40.015342,1.89438 c -0.12318,-0.003 -0.241897,-6.3e-4 -0.355356,0.006 -0.947192,0.0531 -2.219463,0.46419 -3.266409,1.15754 -1.047265,0.6935 -1.851677,1.63336 -2.163689,2.66947 -0.262508,0.87181 -1.260411,1.28151 -2.059792,0.84568 -4.235591,-2.30901 -8.047305,-1.09761 -10.796774,1.39643 -5.725538,5.19489 -7.191581,13.9051 -5.173062,23.20735 l 0,0 c 1.164867,5.3654 3.025308,8.4453 6.578871,10.0221 0.0082,0 0.01628,0.01 0.02438,0.01 0.35424,0.1561 0.670236,0.3015 0.970457,0.4395 l 0.734934,-3.5026 c 0.395675,-1.867 3.19554,-1.2795 2.807314,0.5891 l -3.745423,17.8483 c 0.235364,0.444 0.437582,0.5147 0.8911,0.5466 0.491602,0.034 1.393538,-0.196 2.503747,-0.7321 l 6.074998,-16.9731 c 0.101873,-0.2848 0.291175,-0.5301 0.540843,-0.7008 1.525323,-1.043 2.982283,-2.4955 4.032576,-3.9472 1.050133,-1.4512 1.651689,-2.9343 1.694715,-3.7543 0.03001,-0.7914 0.69583,-1.4087 1.487237,-1.3788 0.807893,0.03 1.431181,0.7218 1.377444,1.5285 -0.0937,1.7864 -0.985437,3.559 -2.235239,5.2864 -1.157218,1.5993 -2.665331,3.1174 -4.340445,4.3333 l -0.510247,1.4254 c 1.093159,1.3854 2.125763,2.1959 3.117733,2.668 1.392742,0.6633 2.814166,0.7296 4.544257,0.5323 2.614339,-0.2974 5.511687,-2.0506 6.933112,-5.9372 0.44654,-1.2204 2.156,-1.2653 2.665968,-0.07 0.816842,1.9146 1.699177,2.8508 2.625015,3.3969 0.925839,0.5461 2.001947,0.7321 3.316127,0.7821 l 7.97e-4,0 c 1.089972,0.042 1.98872,0.019 2.645253,-0.2634 0.06661,-0.029 0.132262,-0.06 0.197597,-0.094 l -0.617491,-3.7156 c -0.331513,-1.8992 2.529034,-2.3745 2.829464,-0.4701 l 2.803011,16.867 c 0.876439,0.5952 1.371707,0.6302 1.760846,0.5134 0.379578,-0.1137 0.879945,-0.5282 1.412183,-1.2153 l -2.191098,-18.229 c -0.11313,-0.8406 0.524025,-1.5952 1.371707,-1.6246 0.752294,-0.026 1.396882,0.5335 1.476242,1.2821 l 0.683623,5.6892 c 0.820665,-0.1896 1.455367,-0.4063 1.976768,-0.7964 0.680436,-0.5095 1.347326,-1.3943 1.928166,-3.4274 0.276299,-0.9678 1.437502,-1.3574 2.241613,-0.7521 0.939542,0.7075 1.777578,0.6959 2.816716,0.2937 1.038978,-0.4022 2.138511,-1.3107 2.86739,-2.2444 2.050867,-2.6298 2.332443,-6.754 2.09453,-11.02669 -0.329222,0.0547 -0.662907,0.0881 -0.99436,0.10677 -1.413457,0.0797 -2.861972,-0.14294 -4.097911,-0.71119 l -6.37e-4,0 c -2.123373,-0.97683 -3.452055,-2.79505 -4.492946,-4.60529 -0.623865,-1.08519 -1.161042,-2.17994 -1.6834,-3.18514 -0.05848,0.1141 -0.09466,0.16955 -0.154253,0.28731 -0.347389,0.6849 -0.712785,1.41378 -1.079455,2.03382 -0.183255,0.3101 -0.36173,0.59152 -0.584186,0.8621 -0.222456,0.2709 -0.401887,0.65701 -1.24295,0.79772 -1.990314,0.33304 -3.804862,-0.5928 -4.741695,-2.01215 -0.936993,-1.41919 -1.178094,-3.22529 -0.765689,-4.97021 0.4379,-1.85247 1.559583,-6.09142 3.60806,-8.92694 0.342608,-0.47487 0.709757,-0.8562 1.082004,-1.18527 -0.04669,-0.0223 -0.0937,-0.0446 -0.141186,-0.0653 -0.9797,-0.43248 -2.197472,-0.53813 -3.508306,-0.54275 -0.924883,-0.003 -2.15126,0.2897 -3.144026,0.80473 -0.992767,0.51534 -1.706666,1.23099 -1.947767,1.88004 -0.503306,1.35306 -2.46495,1.19847 -2.750106,-0.21672 -0.122383,-0.60873 -0.688403,-1.20582 -1.697105,-1.68436 -1.00918,-0.47838 -2.351566,-0.74449 -3.370307,-0.75597 -0.897952,-0.01 -2.153809,0.35647 -3.21685,0.93222 -1.062882,0.57574 -1.926095,1.39784 -2.167673,1.83574 -0.611822,1.10771 -2.253902,0.93792 -2.626131,-0.27154 -0.280779,-0.91213 -1.017944,-1.65121 -2.032223,-2.17245 -0.887594,-0.45575 -1.960674,-0.69749 -2.822931,-0.71661 z m 47.988229,1.47194 -0.0013,0.002 0.0011,-0.002 0,-4.8e-4 z m 0.50115,1.20702 c 0.06522,0.36099 0.129238,0.73633 0.19226,1.13382 0.458313,2.8875 0.808529,6.49617 0.875541,8.67764 0.0052,0.1386 -0.0057,0.27734 -0.03252,0.41344 0.07319,0.66932 0.289787,1.40206 0.55903,1.83086 0.274229,0.43677 0.392896,0.51815 0.688666,0.50797 0.200636,-0.0692 0.314715,-0.18548 0.472073,-0.88152 0.184283,-0.81451 0.171917,-2.18227 -0.07479,-3.69702 -0.438767,-2.69642 -1.578566,-5.89605 -2.679873,-7.98559 z m -17.254363,0.51399 c -0.201741,0.18565 -0.379578,0.38484 -0.566818,0.64379 l -3.18e-4,4.7e-4 c -1.492178,2.06571 -2.750426,6.25062 -3.141795,7.90757 -0.245403,1.03707 -0.04781,2.10059 0.368104,2.73019 0.356312,0.5402 0.761705,0.81843 1.497914,0.7864 0.06533,-0.0937 0.118399,-0.16254 0.207796,-0.31392 0.285241,-0.48236 0.640597,-1.18208 0.990057,-1.87128 0.34962,-0.6892 0.686332,-1.35975 1.03149,-1.90665 0.08541,-0.13545 0.160946,-0.26182 0.258151,-0.39089 -0.199669,-1.27004 -0.443478,-3.1708 -0.573191,-5.00686 -0.06502,-0.92155 -0.10358,-1.79385 -0.07171,-2.57898 z m 15.042882,0.3783 c -0.374797,0.25688 -0.769036,0.48539 -1.187177,0.65415 -1.254104,0.50626 -2.679194,0.70529 -4.152728,0.71597 -2.354434,0.0171 -4.815156,-0.43217 -6.826185,-1.33984 -0.0083,0.56825 0.0035,1.22478 0.05577,1.968 0.141346,1.99703 0.475667,4.33489 0.644422,5.33913 1.016669,1.61265 1.783952,3.40791 2.661188,4.93308 0.921535,1.60308 1.913824,2.83488 3.204898,3.42926 l 6.38e-4,0 c 0.666731,0.30628 1.780605,0.50706 2.737677,0.45304 0.957709,-0.0542 1.682763,-0.41033 1.82379,-0.57893 l 0.01466,-0.0172 c 0.170508,-0.19711 0.820985,-1.80419 1.155307,-3.54463 0.33464,-1.74013 0.533831,-3.70336 0.571119,-5.033 0.0028,-0.0897 0.014,-0.17886 0.03346,-0.26643 -0.03235,-0.73191 -0.106766,-1.69599 -0.207955,-2.7176 -0.526561,1.52982 -2.78826,1.15291 -2.790263,-0.46499 -5.2e-4,-0.80848 0.666979,-1.4576 1.475126,-1.43451 0.487932,0.0146 0.934934,0.27638 1.18638,0.69479 -0.09306,-0.80427 -0.19919,-1.60629 -0.313924,-2.32784 -0.02709,-0.17146 -0.05705,-0.30053 -0.08573,-0.46307 z m -9.288661,2.63571 c 0.776531,0.0218 1.394509,0.65797 1.393857,1.43481 -7.14e-4,1.91152 -2.867632,1.91152 -2.868346,0 -5.93e-4,-0.8084 0.666729,-1.45755 1.474808,-1.43465 z m 7.577852,7.6835 c 0.58578,-0.003 1.024159,0.31202 1.027824,0.99643 0.0069,1.2377 -0.92058,2.38631 -2.027443,3.01942 l -0.151385,-3.67627 c 0.395195,-0.22054 0.799631,-0.33719 1.151004,-0.33942 z m -3.851871,0.31951 c 0.297671,-0.006 0.623069,0.0663 0.93285,0.2113 l 0.599166,3.58782 c -0.956115,-0.58546 -2.45881,-0.58084 -2.634417,-2.56876 -0.07298,-0.82625 0.447781,-1.21746 1.102401,-1.23021 z m -4.914751,26.1789 c -0.434236,0.6326 -0.920421,1.1437 -1.458076,1.546 -0.183256,0.1371 -0.368583,0.2588 -0.555503,0.3697 l 2.642384,9.8836 c 0.784015,0.1274 1.487556,0.1848 1.938046,0.077 0.499092,-0.1195 0.815407,-0.2969 1.124391,-0.8944 l -3.691242,-10.9818 z m -38.44811,5.3676 0.239985,7.4526 c 0.453517,0.4059 0.844091,0.6808 1.092043,0.778 0.319343,0.1252 0.434236,0.1068 0.617173,0.048 0.300539,-0.097 0.843931,-0.6199 1.442778,-1.2987 l -0.601875,-6.3018 c -0.929981,-0.086 -1.864425,-0.291 -2.790263,-0.6779 z"
       clip-path="false"
       filter="0"
       id="path8"
       sodipodi:nodetypes="cccccccccccccccccccccccccccccccccccccccccscccccccccccccccccccccccccccccccccccccccccccccccccccccccccccccccccccccccccccccccccccccccccccccccccccccccccccccccccccccccccccccccc" />
  </g>
</svg>
