<?xml version="1.0" encoding="UTF-8" standalone="no"?>
<!-- Created with Inkscape (http://www.inkscape.org/) -->

<svg
   xmlns:dc="http://purl.org/dc/elements/1.1/"
   xmlns:cc="http://creativecommons.org/ns#"
   xmlns:rdf="http://www.w3.org/1999/02/22-rdf-syntax-ns#"
   xmlns:svg="http://www.w3.org/2000/svg"
   xmlns="http://www.w3.org/2000/svg"
   xmlns:sodipodi="http://sodipodi.sourceforge.net/DTD/sodipodi-0.dtd"
   xmlns:inkscape="http://www.inkscape.org/namespaces/inkscape"
   width="825"
   height="1125"
   viewBox="0 0 825.00001 1125"
   id="svg2"
   version="1.1"
   inkscape:version="0.91 r13725"
   sodipodi:docname="steno pad.svg">
  <defs
     id="defs4">
    <filter
       inkscape:collect="always"
       style="color-interpolation-filters:sRGB"
       id="filter6541"
       x="-0.043207373"
       width="1.0864147"
       y="-0.053988484"
       height="1.107977">
      <feGaussianBlur
         inkscape:collect="always"
         stdDeviation="11.72"
         id="feGaussianBlur6543" />
    </filter>
    <filter
       inkscape:collect="always"
       style="color-interpolation-filters:sRGB"
       id="filter6577"
       x="-0.021500893"
       width="1.0430018"
       y="-0.11054782"
       height="1.2210956">
      <feGaussianBlur
         inkscape:collect="always"
         stdDeviation="5.9087079"
         id="feGaussianBlur6579" />
    </filter>
  </defs>
  <sodipodi:namedview
     id="base"
     pagecolor="#ffffff"
     bordercolor="#666666"
     borderopacity="1.0"
     inkscape:pageopacity="0.0"
     inkscape:pageshadow="2"
     inkscape:zoom="0.7071068"
     inkscape:cx="381.88728"
     inkscape:cy="574.41431"
     inkscape:document-units="px"
     inkscape:current-layer="layer2"
     showgrid="false"
     units="px"
     inkscape:window-width="1920"
     inkscape:window-height="1017"
     inkscape:window-x="-8"
     inkscape:window-y="-8"
     inkscape:window-maximized="1"
     showguides="true"
     inkscape:guide-bbox="true">
    <sodipodi:guide
       position="426.42901,1087.5"
       orientation="0,1"
       id="guide4158"
       inkscape:label=""
       inkscape:color="rgb(0,0,255)" />
    <sodipodi:guide
       position="417.85715,1050"
       orientation="0,1"
       id="guide4160"
       inkscape:label=""
       inkscape:color="rgb(0,0,255)" />
    <sodipodi:guide
       position="75.000001,977.82766"
       orientation="1,0"
       id="guide4218"
       inkscape:label=""
       inkscape:color="rgb(0,0,255)" />
    <sodipodi:guide
       position="37.5,943.48248"
       orientation="1,0"
       id="guide4220"
       inkscape:label=""
       inkscape:color="rgb(0,0,255)" />
    <sodipodi:guide
       position="787.50001,893.985"
       orientation="1,0"
       id="guide4222"
       inkscape:label=""
       inkscape:color="rgb(0,0,255)" />
    <sodipodi:guide
       position="750.00001,908.12714"
       orientation="1,0"
       id="guide4224"
       inkscape:label=""
       inkscape:color="rgb(0,0,255)" />
    <sodipodi:guide
       position="185.86807,75"
       orientation="0,1"
       id="guide4226"
       inkscape:label=""
       inkscape:color="rgb(0,0,255)" />
    <sodipodi:guide
       position="274.7615,37.5"
       orientation="0,1"
       id="guide4228"
       inkscape:label=""
       inkscape:color="rgb(0,0,255)" />
  </sodipodi:namedview>
  <metadata
     id="metadata7">
    <rdf:RDF>
      <cc:Work
         rdf:about="">
        <dc:format>image/svg+xml</dc:format>
        <dc:type
           rdf:resource="http://purl.org/dc/dcmitype/StillImage" />
        <dc:title />
      </cc:Work>
    </rdf:RDF>
  </metadata>
  <g
     inkscape:groupmode="layer"
     id="layer4"
     inkscape:label="table"
     style="display:inline" />
  <g
     inkscape:groupmode="layer"
     id="layer5"
     inkscape:label="shadow"
     style="display:none">
    <rect
       style="display:inline;opacity:1;fill:#000000;fill-opacity:1;stroke:none;stroke-width:3;stroke-linecap:round;stroke-linejoin:round;stroke-miterlimit:4;stroke-dasharray:none;stroke-dashoffset:0;stroke-opacity:1;filter:url(#filter6541)"
       id="rect6510"
       width="651"
       height="521"
       x="94.499962"
       y="520.5" />
    <path
       style="display:inline;opacity:1;fill:#000000;fill-opacity:1;stroke:none;stroke-width:3;stroke-linecap:round;stroke-linejoin:round;stroke-miterlimit:4;stroke-dasharray:none;stroke-dashoffset:0;stroke-opacity:1;filter:url(#filter6577)"
       d="m 703.66891,68.801202 c -0.2248,0.01 -0.4464,0 -0.6696,0 -0.1893,0 -0.3984,0.0846 -0.5677,0 -0.2394,-0.1197 -0.3154,-0.48306 -0.5693,-0.56769 -0.9744,-0.3248 -1.2952,-0.35098 -1.3157,-0.25091 -0.02,0.10006 0.261,0.32651 0.4924,0.50809 0.4629,0.36316 0.7265,0.54594 -2.0151,-0.82488 -0.2394,-0.11969 -0.3283,-0.44799 -0.5677,-0.56768 -0.3916,-0.19579 -0.5182,-0.0231 -0.6257,0.0408 -0.1075,0.0639 -0.1958,0.0192 -0.5097,-0.60846 -0.085,-0.16928 0.1338,-0.43387 0,-0.56769 -0.1338,-0.13383 -0.3984,0.0846 -0.5677,0 -0.2394,-0.11969 -0.3283,-0.448 -0.5677,-0.56769 -0.2526,-0.12632 -4.011,0.0865 -4.2707,0 -0.2539,-0.0846 -0.3283,-0.448 -0.5677,-0.56769 -0.1693,-0.0846 -0.3882,0.0598 -0.5677,0 -0.4015,-0.13382 -0.7339,-0.43387 -1.1354,-0.56769 -0.359,-0.1197 -0.7568,0 -1.1354,0 -1.005,0 -2.4609,0.15268 -3.3292,0 0.082,0.79986 0.1274,1.60313 0.1348,2.40719 2e-4,14.26664 -11.5648,25.832338 -25.8314,25.832988 -14.2673,2e-4 -25.8332,-11.565738 -25.833,-25.832988 0.01,-1.37747 0.13,-2.75194 0.3591,-4.11026 -1.262,0.0132 -2.6852,0.0226 -2.8431,0 -1.0338,-0.14767 -1.3319,-0.29516 -1.5776,-0.47359 -0.2457,-0.17844 -0.4386,-0.38771 -1.2609,-0.66179 -0.359,-0.11969 -0.7568,0 -1.1353,0 -1.1355,0 -2.2792,0.1254 -3.4077,0 -1.1896,-0.13217 -2.2325,-0.90064 -3.4062,-1.13537 -0.3711,-0.0742 -0.7569,0 -1.1354,0 l -2.6659,0 c 0.5387,2.08445 0.8148,4.22807 0.8217,6.38101 2e-4,14.26725 -11.5657,25.833198 -25.833,25.832988 -14.2672,2e-4 -25.8332,-11.565738 -25.8329,-25.832988 0.011,-2.15347 0.2913,-4.2971 0.8342,-6.38101 -0.043,-0.004 -0.084,0 -0.1254,0 l -1.7031,0 c -0.3785,0 -0.762,-0.0622 -1.1354,0 -0.7696,0.12827 -1.5137,0.37844 -2.2707,0.56769 -0.3785,0.18924 -0.7204,0.48469 -1.1354,0.56768 -0.5567,0.11135 -1.1353,0 -1.7031,0 -0.3785,0.18925 -0.7339,0.43387 -1.1353,0.56769 -0.1796,0.0598 -0.3785,0 -0.5677,0 l -1.1354,0 -3.4077,0 c -1.0748,0 -2.1436,-0.0152 -3.2133,-0.0283 0.2925,1.55177 0.4421,3.12709 0.447,4.70618 2e-4,14.26725 -11.5658,25.833198 -25.833,25.832978 -11.5321,-0.004 -21.6647,-7.651148 -24.8309,-18.740008 -0.074,-0.003 -0.2439,0 -0.2666,0 -0.4015,0 -0.8235,0.12696 -1.2044,0 -0.1795,-0.0598 -0.2219,-0.34162 -0.4015,-0.40146 -0.3808,-0.12695 -0.8029,0 -1.2043,0 -0.523,0 -1.5607,-0.0893 -2.0073,0 -0.415,0.083 -0.787,0.33189 -1.2044,0.40146 -0.396,0.066 -0.8029,0 -1.2044,0 l -1.2044,0 -4.416,0 c -1.1402,0 -1.5811,0.008 -2.8103,-0.40146 -0.2838,-0.0946 -0.5095,-0.34277 -0.8029,-0.40146 -0.3545,-0.0709 -0.8613,-0.0236 -1.3377,0 -2.8808,11.47603 -13.1901,19.527818 -25.0222,19.542928 -14.26661,-6.6e-4 -25.83159,-11.566338 -25.83139,-25.832978 0.008,-1.93707 0.23348,-3.86712 0.67275,-5.75374 -0.0988,0.0215 -0.20615,0.0636 -0.26973,0 -0.18925,-0.18925 0.11969,-0.56354 0,-0.80292 -0.16058,-0.32117 -0.64233,-0.48175 -0.80292,-0.80292 -0.0598,-0.11969 0.0598,-0.28177 0,-0.40146 -0.0846,-0.16927 -0.31682,-0.23219 -0.40146,-0.40146 -0.16058,-0.32116 0.16059,-0.88321 0,-1.20438 -0.22191,-0.44382 -0.28465,-0.47488 -0.36069,-0.42968 -0.076,0.0452 -0.16535,0.16666 -0.44223,0.0283 -0.16927,-0.0846 -0.31682,-0.23219 -0.40146,-0.40146 -0.0598,-0.11969 0.11969,-0.34161 0,-0.40146 -0.23938,-0.11969 -0.56353,0.11969 -0.80292,0 -0.11969,-0.0598 0,-0.26764 0,-0.40146 l -1.20438,0 c -0.36719,-0.0918 -0.44384,-0.68322 -0.80291,-0.80292 -0.20551,-0.0685 -2.12176,0 -2.40876,0 -0.20993,0 -1.50028,-0.0527 -1.60584,0 -0.83539,0.4177 -0.72825,0.41055 -0.51594,0.40303 0.10615,-0.004 0.2393,-0.008 0.29326,0.0408 0.0539,0.049 0.0289,0.15146 -0.17878,0.35912 -0.0946,0.0946 -0.30684,-0.0946 -0.40146,0 -0.0946,0.0946 0.0946,0.30683 0,0.40146 -0.21159,0.21159 -0.59134,0.18987 -0.80292,0.40146 -0.0946,0.0946 0,0.26764 0,0.40146 l -0.80292,0.40146 c -0.23376,0.078 -2.13253,0 -2.40876,0 l -4.0146,0 c -0.1058,0 -0.23646,-0.002 -0.35127,-0.006 1.16369,2.988 1.76089,6.16653 1.76109,9.37314 2.1e-4,14.26664 -11.56479,25.832338 -25.83143,25.832988 -14.26725,2e-4 -25.83319,-11.565738 -25.83298,-25.832988 0.007,-0.17834 0.0159,-0.3566 0.0266,-0.53476 l -0.75744,0 c -0.1587,0 -1.83584,0.0857 -2.0073,0 -0.16927,-0.0846 -0.22192,-0.34161 -0.40146,-0.40146 -0.22113,-0.0737 -2.27086,0.023 -2.40876,0 -0.83538,-0.13923 -1.00935,-0.23055 -1.13851,-0.34186 -0.12917,-0.11133 -0.21354,-0.24265 -0.86878,-0.46106 -0.12695,-0.0423 -0.26764,0 -0.40146,0 -0.33618,0 -1.70201,0.0764 -2.0073,0 -0.2903,-0.0726 -0.51905,-0.30683 -0.80292,-0.40146 -0.52344,-0.17448 -1.07056,-0.26764 -1.60584,-0.40145 -0.26764,-0.13383 -0.51905,-0.30684 -0.80292,-0.40146 -0.25268,-0.0842 -1.64544,0 -2.0073,0 l -0.80292,0 c -0.15525,0 -0.3093,0.007 -0.46576,0 0.12293,0.97654 0.18995,1.95931 0.20073,2.94351 2.1e-4,14.26725 -11.56574,25.833198 -25.83299,25.832988 -8.71899,-0.004 -16.84778,-4.40547 -21.61609,-11.705058 -0.42177,-0.0692 -0.84703,-0.11749 -1.26397,-0.21014 -0.75696,-0.16821 -1.01528,-0.34217 -1.30631,-0.43752 -0.29104,-0.0954 -0.6148,-0.11212 -1.50391,0.036 -0.48514,0.0808 -0.63373,0.1794 -0.73706,0.30893 -0.10332,0.12952 -0.1614,0.29004 -0.46732,0.49399 -0.24897,0.16598 -0.52508,0.29032 -0.80292,0.40146 -1.0184,0.40735 -1.2454,0.44315 -1.60584,0.40929 -0.36044,-0.0339 -0.85431,-0.13738 -2.40876,-0.008 -0.67999,0.0567 -1.34119,0.25344 -2.00729,0.40146 -0.2144,0.0476 -0.74788,0.20495 -1.31259,0.32148 -0.56471,0.11654 -1.16065,0.19231 -1.49763,0.08 -0.17954,-0.0598 -0.31683,-0.23219 -0.40146,-0.40146 -0.0575,-0.11489 0,-1.79283 0,-2.0073 0,-0.26763 0.11969,-0.56352 0,-0.80291 -0.16927,-0.33854 -0.48798,-0.59297 -0.80292,-0.80292 -0.11134,-0.0743 -0.26764,0 -0.40146,0 -0.26187,0 -1.28952,-0.0791 -1.60584,0 -0.41054,0.10263 -0.79384,0.29883 -1.20438,0.40146 -0.25965,0.0649 -0.53527,0 -0.80292,0 l -2.0073,0 c -0.19025,0 -1.17635,0.0311 -1.45529,0 -4.51601,8.330288 -13.23034,13.519518 -22.706,13.521028 -14.26725,2e-4 -25.83318,-11.565738 -25.83298,-25.832978 0.007,-0.17835 0.016,-0.35661 0.0267,-0.53477 l -1.41922,0 c -0.40146,0 -0.82352,0.12696 -1.20438,0 -0.40332,-0.13444 -0.43791,-0.36912 -0.4046,-0.60375 0.0333,-0.23463 0.13456,-0.4692 0.003,-0.60062 -0.0946,-0.0946 -0.34164,0.11969 -0.40146,0 -0.1197,-0.23939 0,-0.53528 0,-0.80292 -0.13382,0 -0.30683,0.0946 -0.40146,0 -0.0946,-0.0946 0.0946,-0.30684 0,-0.40146 -0.18989,-0.18989 -0.51547,0.0736 -0.83115,0.40303 -0.31566,0.32941 -0.62143,0.72472 -0.77468,0.80135 -0.21287,0.10643 -1.73419,-0.091 -2.0073,0 -0.37207,0.12402 -0.52675,0.21041 -0.57083,0.27129 -0.0441,0.0609 0.0222,0.0969 0.0957,0.11605 0.14684,0.0384 0.31838,0.0141 -0.32775,0.0141 -0.78526,0 -2.19673,-0.12269 -2.81022,0 -0.18558,0.0371 -0.21786,0.35556 -0.40146,0.40146 -0.38948,0.0974 -0.81491,-0.0974 -1.20438,0 -0.1836,0.0459 -0.2322,0.31683 -0.40146,0.40146 -0.32117,0.16058 -0.88321,-0.16058 -1.20438,0 -0.16611,0.0831 -1.09094,1.03422 -1.20438,1.20438 -0.16599,0.24898 -0.30683,0.51905 -0.40146,0.80292 -0.0423,0.12696 0.0598,0.28177 0,0.40146 -0.11075,0.22151 -0.32646,0.36713 -0.52535,0.52535 -1.23836,13.27711 -12.37898,23.429848 -25.71371,23.433608 -9.98406,-0.0115 -19.06762,-5.7754 -23.33014,-14.803828 -0.1395,-0.0797 -0.37352,-0.15578 -0.49555,-0.23994 -0.3664,-0.25269 -0.70528,-0.53362 -1.32199,-0.88603 -0.51961,-0.29692 -1.09267,-0.49501 -1.60584,-0.80292 -0.16229,-0.0974 -0.23219,-0.31682 -0.40146,-0.40146 -0.11969,-0.0598 -0.26765,0 -0.40146,0 -0.55665,0 -0.39647,-0.0144 -0.32776,0.0283 0.0687,0.0427 0.046,0.14258 -0.87662,0.37323 -0.25965,0.0649 -0.53528,0 -0.80292,0 -0.13382,0.13383 -0.23219,0.31683 -0.40146,0.40146 -0.32117,0.16059 -0.88321,-0.16058 -1.20438,0 -0.45933,0.22967 -0.58329,0.33376 -0.55514,0.37637 0.0282,0.0426 0.20838,0.0239 0.35441,0.006 0.29206,-0.0352 0.45032,-0.0644 -1.00365,0.42028 -0.2539,0.0846 -0.53528,0 -0.80292,0 -0.53528,0 -1.08654,0.12983 -1.60584,0 -0.1836,-0.0459 -0.23218,-0.31682 -0.40146,-0.40146 -0.24867,-0.12433 -1.48705,0.11879 -1.60583,0 -0.0946,-0.0946 0.0598,-0.28177 0,-0.40146 -0.0846,-0.16927 -0.29649,-0.24399 -0.40146,-0.40146 -0.16599,-0.24898 -0.30684,-0.51905 -0.40146,-0.80292 -0.0831,-0.24919 -8.1e-4,-0.35889 0.011,-0.45164 0.0118,-0.0927 -0.0469,-0.16852 -0.41244,-0.35128 -0.14518,-0.0726 -1.72807,0 -2.0073,0 l -3.2007,0 c -3.30052,10.88811 -13.33595,18.334968 -24.7133,18.338688 -9.88204,-0.008 -18.893376,-5.65376 -23.212516,-14.541938 -0.50007,-0.17328 -1.02727,-0.29331 -1.4647,-0.58493 -0.62987,-0.41991 -0.98985,-1.16585 -1.60584,-1.60584 -0.34436,-0.24597 -0.82588,-0.21221 -1.20438,-0.40146 -0.11109,-0.0556 -0.18387,-0.16423 -0.26346,-0.26346 34.052666,50.388128 55.072656,15.106828 31.889086,66.976328 L 737.91371,118.38924 758.1962,67.387396 C 755.7121,79.366856 750,90.48606 731.89841,92.24987 c -13.4339,-0.008 -27.1198,-10.060658 -28.2295,-23.448668 z"
       id="path4446-8"
       inkscape:connector-curvature="0"
       sodipodi:nodetypes="csccccscccscsccccscccccccssscscccccssccsccscsccccsccsscscssscccccsccccccccccccscccccccccsscccccscccscscscsssccccssscsscccsccsccsccssccccsscccccccccccscccccccccccssccscccsscccscsccccccscccssccccccc" />
  </g>
  <g
     inkscape:label="yellow"
     inkscape:groupmode="layer"
     id="layer1"
     transform="translate(0,72.637839)"
     style="display:inline">
    <path
       style="opacity:1;fill:#f0f5af;fill-opacity:1;stroke:#f0f5af;stroke-width:3.288;stroke-linecap:round;stroke-linejoin:round;stroke-miterlimit:4;stroke-dasharray:none;stroke-dashoffset:0;stroke-opacity:1"
       d="m 79.643766,58.005932 667.712464,-4 c 2.72884,296.417918 -14.05826,594.530428 -22,906.712398 C 419.37141,935.69816 285.83063,950.25348 75.158485,949.06148 66.514719,645.15737 75,347.91014 79.643766,58.005932 Z"
       id="rect4136"
       inkscape:connector-curvature="0"
       sodipodi:nodetypes="ccccc" />
  </g>
  <g
     inkscape:groupmode="layer"
     id="layer2"
     inkscape:label="blue lines"
     style="display:inline">
    <path
       sodipodi:nodetypes="cc"
       inkscape:connector-curvature="0"
       id="path4192"
       d="m -15.152293,1158.0519 852.568733,0"
       style="opacity:0.80199998;fill:none;fill-rule:evenodd;stroke:#3f4782;stroke-width:3;stroke-linecap:butt;stroke-linejoin:miter;stroke-miterlimit:4;stroke-dasharray:none;stroke-opacity:1" />
    <path
       style="opacity:0.80199998;fill:none;fill-rule:evenodd;stroke:#3f4782;stroke-width:3;stroke-linecap:butt;stroke-linejoin:miter;stroke-miterlimit:4;stroke-dasharray:none;stroke-opacity:1"
       d="M 75.003819,249.64844 749.16644,248.94133"
       id="path4196"
       inkscape:connector-curvature="0"
       sodipodi:nodetypes="cc" />
    <path
       sodipodi:nodetypes="cc"
       inkscape:connector-curvature="0"
       id="path4198"
       d="m 69.847705,662.55909 667.689905,0"
       style="opacity:0.80199998;fill:none;fill-rule:evenodd;stroke:#3f4782;stroke-width:3;stroke-linecap:butt;stroke-linejoin:miter;stroke-miterlimit:4;stroke-dasharray:none;stroke-opacity:1" />
    <path
       style="opacity:0.80199998;fill:none;fill-rule:evenodd;stroke:#3f4782;stroke-width:3;stroke-linecap:butt;stroke-linejoin:miter;stroke-miterlimit:4;stroke-dasharray:none;stroke-opacity:1"
       d="m 69.722705,745.14127 664.986475,0"
       id="path4200"
       inkscape:connector-curvature="0"
       sodipodi:nodetypes="cc" />
    <path
       sodipodi:nodetypes="cc"
       inkscape:connector-curvature="0"
       id="path4202"
       d="m 69.847705,827.7234 662.209825,0"
       style="opacity:0.80199998;fill:none;fill-rule:evenodd;stroke:#3f4782;stroke-width:3;stroke-linecap:butt;stroke-linejoin:miter;stroke-miterlimit:4;stroke-dasharray:none;stroke-opacity:1" />
    <path
       style="opacity:0.80199998;fill:none;fill-rule:evenodd;stroke:#3f4782;stroke-width:3;stroke-linecap:butt;stroke-linejoin:miter;stroke-miterlimit:4;stroke-dasharray:none;stroke-opacity:1"
       d="m 70.847705,910.30552 658.204625,0"
       id="path4204"
       inkscape:connector-curvature="0"
       sodipodi:nodetypes="cc" />
    <path
       sodipodi:nodetypes="cc"
       inkscape:connector-curvature="0"
       id="path4206"
       d="m 72.597705,992.88763 653.626195,0"
       style="opacity:0.80199998;fill:none;fill-rule:evenodd;stroke:#3f4782;stroke-width:3;stroke-linecap:butt;stroke-linejoin:miter;stroke-miterlimit:4;stroke-dasharray:none;stroke-opacity:1" />
    <path
       sodipodi:nodetypes="cc"
       inkscape:connector-curvature="0"
       id="path4210"
       d="m 71.597705,497.39484 671.066425,0"
       style="opacity:0.80199998;fill:none;fill-rule:evenodd;stroke:#3f4782;stroke-width:3;stroke-linecap:butt;stroke-linejoin:miter;stroke-miterlimit:4;stroke-dasharray:none;stroke-opacity:1" />
    <path
       style="opacity:0.80199998;fill:none;fill-rule:evenodd;stroke:#3f4782;stroke-width:3;stroke-linecap:butt;stroke-linejoin:miter;stroke-miterlimit:4;stroke-dasharray:none;stroke-opacity:1"
       d="m 70.472705,579.977 671.216555,0"
       id="path4212"
       inkscape:connector-curvature="0"
       sodipodi:nodetypes="cc" />
    <path
       sodipodi:nodetypes="cc"
       inkscape:connector-curvature="0"
       id="path4214"
       d="m 72.847705,414.81269 672.114525,0"
       style="opacity:0.80199998;fill:none;fill-rule:evenodd;stroke:#3f4782;stroke-width:3;stroke-linecap:butt;stroke-linejoin:miter;stroke-miterlimit:4;stroke-dasharray:none;stroke-opacity:1" />
    <path
       sodipodi:nodetypes="cc"
       inkscape:connector-curvature="0"
       id="path4216"
       d="m 74.253819,332.2306 674.037621,0"
       style="opacity:0.80199998;fill:none;fill-rule:evenodd;stroke:#3f4782;stroke-width:3;stroke-linecap:butt;stroke-linejoin:miter;stroke-miterlimit:4;stroke-dasharray:none;stroke-opacity:1" />
    <g
       transform="matrix(7.1900457,0,0,6.2400896,4797.2813,-251.98279)"
       style="font-style:normal;font-variant:normal;font-weight:normal;font-stretch:normal;font-size:53.19074631px;line-height:125%;font-family:'Archivo Narrow';-inkscape-font-specification:'Archivo Narrow, Normal';text-align:center;letter-spacing:0px;word-spacing:0px;writing-mode:lr-tb;text-anchor:middle;fill:#000000;fill-opacity:1;stroke:none;stroke-width:1px;stroke-linecap:butt;stroke-linejoin:miter;stroke-opacity:1"
       id="text4746" />
  </g>
  <g
     inkscape:groupmode="layer"
     id="layer3"
     inkscape:label="fringe"
     style="display:inline">
    <text
       xml:space="preserve"
       style="font-style:normal;font-variant:normal;font-weight:normal;font-stretch:normal;font-size:45px;line-height:125%;font-family:'Archivo Narrow';-inkscape-font-specification:'Archivo Narrow, Normal';text-align:center;letter-spacing:0px;word-spacing:0px;writing-mode:lr-tb;text-anchor:middle;fill:#000000;fill-opacity:1;stroke:none;stroke-width:1px;stroke-linecap:butt;stroke-linejoin:miter;stroke-opacity:1"
       x="-975.80737"
       y="168.99162"
       id="text4341"
       sodipodi:linespacing="125%"><tspan
         sodipodi:role="line"
         id="tspan4343"
         x="-975.80737"
         y="168.99162" /></text>
    <path
       style="display:inline;opacity:1;fill:#f0f5af;fill-opacity:1;stroke:none;stroke-width:3.28753686;stroke-linecap:round;stroke-linejoin:round;stroke-miterlimit:4;stroke-dasharray:none;stroke-dashoffset:0;stroke-opacity:1"
       d="m -255.59918,289.198 c -0.0845,-0.0947 -0.35629,-0.62843 -0.36914,-0.56445 -0.0347,0.17283 0.14633,0.7961 0.30273,1.17773 0.0782,0.19082 0.15043,0.32135 0.18555,0.30469 0.0351,-0.0167 0.0334,-0.18087 -0.0352,-0.57813 -0.008,-0.0459 -0.0742,-0.28754 -0.084,-0.33984 z"
       id="path4335"
       inkscape:connector-curvature="0" />
    <path
       style="opacity:0.98999999;fill:#f0f5af;fill-opacity:1;stroke:#f0f5af;stroke-width:3;stroke-linecap:round;stroke-linejoin:round;stroke-miterlimit:4;stroke-dasharray:none;stroke-dashoffset:0;stroke-opacity:1"
       d="m 695.88253,68.813743 c -0.22479,0.0096 -0.44639,0 -0.66963,0 -0.18925,0 -0.39841,0.08464 -0.56769,0 -0.23938,-0.119699 -0.31535,-0.48306 -0.56925,-0.567688 -0.97439,-0.324797 -1.29527,-0.35098 -1.31572,-0.250912 -0.0205,0.10006 0.26096,0.326515 0.49241,0.508095 0.46292,0.363161 0.72649,0.545937 -2.01514,-0.824879 -0.23938,-0.119691 -0.3283,-0.447997 -0.56769,-0.567688 -0.39156,-0.195784 -0.51818,-0.02312 -0.62571,0.04079 -0.10752,0.06391 -0.19583,0.01919 -0.50966,-0.60846 -0.0846,-0.169272 0.13382,-0.433866 0,-0.567688 -0.13382,-0.133823 -0.39843,0.08464 -0.56769,0 -0.23939,-0.119691 -0.32831,-0.447997 -0.56769,-0.567688 -0.25264,-0.126324 -4.01108,0.08655 -4.27076,0 -0.25391,-0.08464 -0.3283,-0.447997 -0.56769,-0.567688 -0.16926,-0.08464 -0.38815,0.05982 -0.56769,0 -0.40146,-0.133823 -0.73391,-0.433874 -1.13537,-0.567689 -0.35908,-0.119699 -0.75688,0 -1.13539,0 -1.00504,0 -2.46092,0.152676 -3.32929,0 0.0824,0.799859 0.1274,1.603128 0.13487,2.407185 2.1e-4,14.266644 -11.56479,25.832339 -25.83143,25.832993 -14.26725,2.02e-4 -25.83319,-11.565744 -25.83298,-25.832993 0.01,-1.377469 0.13001,-2.751937 0.35911,-4.110257 -1.26203,0.01325 -2.68519,0.02256 -2.84314,0 -1.03375,-0.147673 -1.33193,-0.295161 -1.57762,-0.473594 -0.24569,-0.178441 -0.4386,-0.387706 -1.26083,-0.661782 -0.35908,-0.119691 -0.75688,0 -1.13538,0 -1.13549,0 -2.27915,0.125392 -3.4077,0 -1.1896,-0.132177 -2.23246,-0.900643 -3.40614,-1.135376 -0.37115,-0.07419 -0.75688,0 -1.13537,0 l -2.66595,0 c 0.53875,2.08445 0.8148,4.228074 0.82174,6.381009 2.1e-4,14.267257 -11.56574,25.833206 -25.833,25.832993 -14.26725,2.02e-4 -25.83319,-11.565744 -25.83298,-25.832993 0.011,-2.153463 0.2913,-4.297095 0.83428,-6.381009 -0.0425,-0.004 -0.0836,0 -0.12546,0 l -1.70307,0 c -0.3785,0 -0.76202,-0.06223 -1.13537,0 -0.76968,0.128274 -1.51376,0.37844 -2.27076,0.567688 -0.3785,0.189248 -0.72042,0.484698 -1.13538,0.567688 -0.55672,0.111341 -1.13531,0 -1.70307,0 -0.37849,0.189248 -0.73391,0.433865 -1.13537,0.567688 -0.17954,0.05982 -0.37844,0 -0.56769,0 l -1.13538,0 -3.40771,0 c -1.07474,0 -2.14358,-0.01518 -3.21324,-0.02826 0.29251,1.551768 0.44211,3.127088 0.44694,4.706176 2e-4,14.267254 -11.56575,25.833198 -25.833,25.832985 -11.53204,-0.004 -21.66466,-7.651151 -24.8309,-18.740011 -0.0743,-0.0032 -0.24389,0 -0.2666,0 -0.40146,0 -0.82352,0.126958 -1.20438,0 -0.17954,-0.05982 -0.22192,-0.341618 -0.40146,-0.401459 -0.38085,-0.12695 -0.80292,0 -1.20438,0 -0.52299,0 -1.56065,-0.08933 -2.00729,0 -0.41496,0.08299 -0.78697,0.331886 -1.20438,0.401459 -0.396,0.066 -0.80292,0 -1.20438,0 l -1.20438,0 -4.41606,0 c -1.14012,0 -1.58102,0.0083 -2.81022,-0.401459 -0.28388,-0.09463 -0.5095,-0.342775 -0.80292,-0.40146 -0.35451,-0.0709 -0.8613,-0.02361 -1.33768,0 -2.88085,11.47603 -13.19013,19.527814 -25.02222,19.54293 -14.26664,-6.6e-4 -25.83162,-11.566348 -25.83142,-25.832985 0.008,-1.93707 0.23348,-3.867114 0.67275,-5.753737 -0.0988,0.02152 -0.20615,0.06359 -0.26973,0 -0.18925,-0.189248 0.11969,-0.563537 0,-0.802919 -0.16058,-0.321168 -0.64233,-0.481752 -0.80292,-0.80292 -0.0598,-0.119691 0.0598,-0.281768 0,-0.401459 -0.0846,-0.169272 -0.31682,-0.232189 -0.40146,-0.40146 -0.16058,-0.321168 0.16059,-0.883211 0,-1.204379 -0.22191,-0.443822 -0.28465,-0.474887 -0.36069,-0.429682 -0.076,0.0452 -0.16535,0.166661 -0.44223,0.02826 -0.16927,-0.08464 -0.31682,-0.232188 -0.40146,-0.401459 -0.0598,-0.119692 0.11969,-0.341611 0,-0.40146 -0.23938,-0.119691 -0.56353,0.119691 -0.80292,0 -0.11969,-0.05982 0,-0.267645 0,-0.40146 l -1.20438,0 c -0.36719,-0.09181 -0.44384,-0.683228 -0.80291,-0.802919 -0.20551,-0.06849 -2.12176,0 -2.40876,0 -0.20993,0 -1.50028,-0.05275 -1.60584,0 -0.83539,0.417695 -0.72825,0.410549 -0.51594,0.403025 0.10615,-0.004 0.2393,-0.0082 0.29326,0.04079 0.0539,0.04898 0.0289,0.151462 -0.17878,0.359122 -0.0946,0.09462 -0.30684,-0.09463 -0.40146,0 -0.0946,0.09462 0.0946,0.306827 0,0.401459 -0.21159,0.211585 -0.59134,0.189866 -0.80292,0.40146 -0.0946,0.09462 0,0.267637 0,0.401459 l -0.80292,0.40146 c -0.23376,0.07796 -2.13253,0 -2.40876,0 l -4.0146,0 c -0.1058,0 -0.23646,-0.0016 -0.35127,-0.0064 1.16369,2.987997 1.76089,6.166535 1.76109,9.373136 2.1e-4,14.266645 -11.56479,25.83234 -25.83143,25.832994 -14.26725,2.02e-4 -25.83319,-11.565744 -25.83298,-25.832994 0.007,-0.178338 0.0159,-0.356598 0.0266,-0.534752 l -0.75744,0 c -0.1587,0 -1.83584,0.08573 -2.0073,0 -0.16927,-0.08464 -0.22192,-0.341618 -0.40146,-0.40146 -0.22113,-0.07371 -2.27086,0.02296 -2.40876,0 -0.83538,-0.139234 -1.00935,-0.23055 -1.13851,-0.341867 -0.12917,-0.111324 -0.21354,-0.242642 -0.86878,-0.461052 -0.12695,-0.04231 -0.26764,0 -0.40146,0 -0.33618,0 -1.70201,0.07636 -2.0073,0 -0.2903,-0.07258 -0.51905,-0.306836 -0.80292,-0.40146 -0.52344,-0.174482 -1.07056,-0.267645 -1.60584,-0.401459 -0.26764,-0.133823 -0.51905,-0.306836 -0.80292,-0.40146 -0.25268,-0.08423 -1.64544,0 -2.0073,0 l -0.80292,0 c -0.15525,0 -0.3093,0.0072 -0.46576,0 0.12293,0.976545 0.18995,1.959317 0.20073,2.94351 2.1e-4,14.267254 -11.56574,25.833201 -25.83299,25.832994 -8.71899,-0.0038 -16.84778,-4.405473 -21.61609,-11.705056 -0.42177,-0.06921 -0.84703,-0.117491 -1.26397,-0.21014 -0.75696,-0.168212 -1.01528,-0.342172 -1.30631,-0.437527 -0.29104,-0.09536 -0.6148,-0.11212 -1.50391,0.03605 -0.48514,0.08085 -0.63373,0.179405 -0.73706,0.308931 -0.10332,0.129527 -0.1614,0.290039 -0.46732,0.493989 -0.24897,0.165979 -0.52508,0.290327 -0.80292,0.401459 -1.0184,0.407353 -1.2454,0.443156 -1.60584,0.409297 -0.36044,-0.03388 -0.85431,-0.13738 -2.40876,-0.008 -0.67999,0.05669 -1.34119,0.253442 -2.00729,0.40146 -0.2144,0.04761 -0.74788,0.204945 -1.31259,0.321481 -0.56471,0.116536 -1.16065,0.192307 -1.49763,0.07997 -0.17954,-0.05982 -0.31683,-0.232189 -0.40146,-0.40146 -0.0575,-0.114898 0,-1.792831 0,-2.007299 0,-0.267637 0.11969,-0.563529 0,-0.802919 -0.16927,-0.338535 -0.48798,-0.592964 -0.80292,-0.802919 -0.11134,-0.07427 -0.26764,0 -0.40146,0 -0.26187,0 -1.28952,-0.07909 -1.60584,0 -0.41054,0.102637 -0.79384,0.29883 -1.20438,0.401459 -0.25965,0.06488 -0.53527,0 -0.80292,0 l -2.0073,0 c -0.19025,0 -1.17635,0.03115 -1.45529,0 -4.51601,8.330297 -13.23034,13.519528 -22.706,13.521035 -14.26725,2.02e-4 -25.83318,-11.565739 -25.83298,-25.832985 0.007,-0.178341 0.016,-0.356604 0.0267,-0.534761 l -1.41922,0 c -0.40146,0 -0.82352,0.126958 -1.20438,0 -0.40332,-0.134441 -0.43791,-0.369126 -0.4046,-0.603755 0.0333,-0.234629 0.13456,-0.469202 0.003,-0.600624 -0.0946,-0.09462 -0.34164,0.119691 -0.40146,0 -0.1197,-0.239382 0,-0.535274 0,-0.802919 -0.13382,0 -0.30683,0.09462 -0.40146,0 -0.0946,-0.09462 0.0946,-0.306836 0,-0.40146 -0.18989,-0.189882 -0.51547,0.07363 -0.83115,0.403033 -0.31566,0.329406 -0.62143,0.724724 -0.77468,0.801346 -0.21287,0.106435 -1.73419,-0.09103 -2.0073,0 -0.37207,0.124027 -0.52675,0.210413 -0.57083,0.271299 -0.0441,0.06086 0.0222,0.09687 0.0957,0.116046 0.14684,0.03838 0.31838,0.01413 -0.32775,0.01413 -0.78526,0 -2.19673,-0.122694 -2.81022,0 -0.18558,0.03709 -0.21786,0.355557 -0.40146,0.40146 -0.38948,0.09737 -0.81491,-0.09736 -1.20438,0 -0.1836,0.04593 -0.2322,0.316832 -0.40146,0.401459 -0.32117,0.160584 -0.88321,-0.160584 -1.20438,0 -0.16611,0.08305 -1.09094,1.034217 -1.20438,1.20438 -0.16599,0.248977 -0.30683,0.519047 -0.40146,0.802919 -0.0423,0.126958 0.0598,0.281768 0,0.40146 -0.11075,0.221509 -0.32646,0.367127 -0.52535,0.52535 -1.23836,13.277108 -12.37898,23.429855 -25.71371,23.433607 -9.98406,-0.01155 -19.06762,-5.7754 -23.33014,-14.803827 -0.1395,-0.07973 -0.37352,-0.155774 -0.49555,-0.239936 -0.3664,-0.252695 -0.70528,-0.53362 -1.32199,-0.88603 -0.51961,-0.296919 -1.09267,-0.495016 -1.60584,-0.802919 -0.16229,-0.09737 -0.23219,-0.316824 -0.40146,-0.40146 -0.11969,-0.05982 -0.26765,0 -0.40146,0 -0.55665,0 -0.39647,-0.01445 -0.32776,0.02826 0.0687,0.04272 0.046,0.142574 -0.87662,0.373229 -0.25965,0.06488 -0.53528,0 -0.80292,0 -0.13382,0.133823 -0.23219,0.316824 -0.40146,0.40146 -0.32117,0.160584 -0.88321,-0.160584 -1.20438,0 -0.45933,0.229667 -0.58329,0.333757 -0.55514,0.376368 0.0282,0.04264 0.20838,0.02393 0.35441,0.0064 0.29206,-0.03525 0.45032,-0.06439 -1.00365,0.420281 -0.2539,0.08464 -0.53528,0 -0.80292,0 -0.53528,0 -1.08654,0.129824 -1.60584,0 -0.1836,-0.04593 -0.23218,-0.316824 -0.40146,-0.40146 -0.24867,-0.124332 -1.48705,0.118784 -1.60583,0 -0.0946,-0.09462 0.0598,-0.281769 0,-0.40146 -0.0846,-0.169271 -0.29649,-0.243991 -0.40146,-0.40146 -0.16599,-0.248977 -0.30684,-0.519047 -0.40146,-0.802919 -0.0831,-0.249194 -8.1e-4,-0.358897 0.011,-0.451642 0.0118,-0.09275 -0.0469,-0.168525 -0.41244,-0.351277 -0.14518,-0.07258 -1.72807,0 -2.0073,0 l -3.2007,0 C 129.77418,85.061821 119.73875,92.508685 108.3614,92.512408 98.47936,92.503976 89.468027,86.85865 85.14888,77.97047 84.648814,77.797183 84.12161,77.677155 83.684179,77.385535 83.054317,76.965624 82.694336,76.219688 82.07834,75.779696 81.733988,75.53373 81.25246,75.567484 80.873961,75.378236 80.762877,75.322676 80.690098,75.214007 80.610503,75.114774 l -1.06066,55.693116 4.949747,61.28322 664.37776,1.06066 0,-121.226714 C 746.3932,83.904518 733.84633,92.498596 721.61202,92.512408 708.1781,92.504693 696.99226,82.20175 695.88253,68.813743 Z"
       id="path4446"
       inkscape:connector-curvature="0"
       sodipodi:nodetypes="csccccscccscsccccscccccccssscscccccssccsccscsccccsccsscscssscccccsccccccccccccscccccccccsscccccscccscscscsssccccssscsscccsccsccsccssccccsscccccccccccscccccccccccssccscccsscccscsccccccscccsscccccccc" />
  </g>
</svg>
