<?xml version="1.0" encoding="UTF-8" standalone="no"?>
<!-- Created with Inkscape (http://www.inkscape.org/) -->

<svg
   xmlns:dc="http://purl.org/dc/elements/1.1/"
   xmlns:cc="http://creativecommons.org/ns#"
   xmlns:rdf="http://www.w3.org/1999/02/22-rdf-syntax-ns#"
   xmlns:svg="http://www.w3.org/2000/svg"
   xmlns="http://www.w3.org/2000/svg"
   xmlns:sodipodi="http://sodipodi.sourceforge.net/DTD/sodipodi-0.dtd"
   xmlns:inkscape="http://www.inkscape.org/namespaces/inkscape"
   width="100"
   height="100"
   viewBox="0 0 100 100"
   id="svg5392"
   version="1.1"
   inkscape:version="0.91 r13725"
   sodipodi:docname="stone.svg">
  <defs
     id="defs5394" />
  <sodipodi:namedview
     id="base"
     pagecolor="#ffffff"
     bordercolor="#666666"
     borderopacity="1.0"
     inkscape:pageopacity="0.0"
     inkscape:pageshadow="2"
     inkscape:zoom="1.979899"
     inkscape:cx="-130.84819"
     inkscape:cy="-110.89597"
     inkscape:document-units="px"
     inkscape:current-layer="layer1"
     showgrid="false"
     units="px"
     inkscape:window-width="1920"
     inkscape:window-height="1017"
     inkscape:window-x="-8"
     inkscape:window-y="-8"
     inkscape:window-maximized="1" />
  <metadata
     id="metadata5397">
    <rdf:RDF>
      <cc:Work
         rdf:about="">
        <dc:format>image/svg+xml</dc:format>
        <dc:type
           rdf:resource="http://purl.org/dc/dcmitype/StillImage" />
        <dc:title />
      </cc:Work>
    </rdf:RDF>
  </metadata>
  <g
     inkscape:label="Layer 1"
     inkscape:groupmode="layer"
     id="layer1"
     transform="translate(0,-952.36216)">
    <path
       inkscape:connector-curvature="0"
       style="opacity:1;fill:#000000"
       d="m 60.45218,968.18495 -16.524062,16.76709 -4.67469,15.06996 3.044711,6.3746 3.544119,1.6121 5.759953,-9.56151 1.961009,-0.62665 10.718977,4.66076 3.516866,-2.2562 0.775932,-7.58577 1.98236,9.31017 -1.843837,2.4583 0.654769,0.2847 0.909247,1.1283 1.185944,5.9615 9.716861,-11.5913 2.426742,0.04 3.887821,4.9603 -1.640915,-9.06889 -5.216627,-17.88567 -20.184659,-10.05172 z m -33.696125,2.08165 -5.126014,9.04457 -0.79902,4.79446 4.509782,-1.46542 2.031659,1.28055 0.01458,0.11006 4.911635,10.39176 2.390809,-0.7886 1.899039,0.8103 0.680807,1.42515 3.387891,-10.92155 -0.186432,-5.78669 -6.969505,-0.0906 -5.16108,-4.12789 5.912363,1.89001 7.375698,-1.34131 4.519155,2.75656 6.298072,-6.3906 c -0.48205,-0.20483 -0.974689,-0.40897 -1.489373,-0.61103 l -13.814028,1.75774 -0.612414,-0.0434 -9.774145,-2.69407 z m 43.280367,6.32238 8.168641,11.4602 0.365747,10.8509 -4.388792,-10.36278 -11.339028,-10.48533 7.193432,-1.46299 z m -45.514427,9.60282 -11.150167,3.62379 -2.900634,13.63561 8.817162,0.9689 0.103458,-1.2394 6.537622,-6.37182 -1.407441,-10.61656 z m 9.840281,10.84049 -6.325498,2.08581 -5.492977,5.3534 3.920976,5.3581 9.95103,0.3021 2.86418,-2.8052 -4.917711,-10.29404 z m 19.210144,4.19901 -7.691105,12.7667 -0.0057,9.9187 16.883734,2.1205 7.679822,-3.3898 -3.066583,-15.4155 -13.80014,-6.0004 z m 28.764353,2.4445 -8.13132,9.6993 0.04982,0.308 11.308651,2.4106 4.475065,-2.591 -7.702041,-9.8273 z m -24.021271,2.7583 6.809805,3.9651 2.327798,8.7935 -4.655595,4.138 -7.814004,-0.4432 6.693849,-4.9024 0.431016,-6.8098 -3.792869,-4.741 z m -41.377856,9.3456 -1.522356,4.9489 2.283012,8.4186 15.802811,-2.0674 0.229134,-4.5858 -10.863401,-5.5539 -5.929027,-1.1603 z"
       clip-path="false"
       filter="0"
       id="path8" />
  </g>
</svg>
