<?xml version="1.0" encoding="UTF-8" standalone="no"?>
<!-- Created with Inkscape (http://www.inkscape.org/) -->

<svg
   xmlns:dc="http://purl.org/dc/elements/1.1/"
   xmlns:cc="http://creativecommons.org/ns#"
   xmlns:rdf="http://www.w3.org/1999/02/22-rdf-syntax-ns#"
   xmlns:svg="http://www.w3.org/2000/svg"
   xmlns="http://www.w3.org/2000/svg"
   xmlns:sodipodi="http://sodipodi.sourceforge.net/DTD/sodipodi-0.dtd"
   xmlns:inkscape="http://www.inkscape.org/namespaces/inkscape"
   width="100"
   height="100"
   viewBox="0 0 100 100"
   id="svg5392"
   version="1.1"
   inkscape:version="0.91 r13725"
   sodipodi:docname="stone.svg">
  <defs
     id="defs5394" />
  <sodipodi:namedview
     id="base"
     pagecolor="#ffffff"
     bordercolor="#666666"
     borderopacity="1.0"
     inkscape:pageopacity="0.0"
     inkscape:pageshadow="2"
     inkscape:zoom="5.6"
     inkscape:cx="43.33348"
     inkscape:cy="58.246383"
     inkscape:document-units="px"
     inkscape:current-layer="layer1"
     showgrid="false"
     units="px"
     inkscape:window-width="1920"
     inkscape:window-height="1017"
     inkscape:window-x="-8"
     inkscape:window-y="-8"
     inkscape:window-maximized="1" />
  <metadata
     id="metadata5397">
    <rdf:RDF>
      <cc:Work
         rdf:about="">
        <dc:format>image/svg+xml</dc:format>
        <dc:type
           rdf:resource="http://purl.org/dc/dcmitype/StillImage" />
        <dc:title />
      </cc:Work>
    </rdf:RDF>
  </metadata>
  <g
     inkscape:label="Layer 1"
     inkscape:groupmode="layer"
     id="layer1"
     transform="translate(0,-952.36216)">
    <path
       sodipodi:nodetypes="ccccc"
       inkscape:connector-curvature="0"
       id="path9308"
       d="m 30.982142,1016.1122 12.857144,-0.5357 c 7.843331,8.1536 5.548685,2.7021 6.875,14.4643 -4.830019,1.5135 -6.214761,0.3798 -10.44643,1.3392 z"
       style="opacity:1;fill:#808080;fill-opacity:1;stroke:none;stroke-width:1;stroke-linecap:round;stroke-linejoin:round;stroke-miterlimit:4;stroke-dasharray:none;stroke-dashoffset:0;stroke-opacity:1" />
    <path
       style="opacity:1;fill:#808080;fill-opacity:1;stroke:none;stroke-width:1;stroke-linecap:round;stroke-linejoin:round;stroke-miterlimit:4;stroke-dasharray:none;stroke-dashoffset:0;stroke-opacity:1"
       d="m 43.035713,977.18359 12.857144,-0.53571 c 7.843331,8.15367 12.512971,18.77354 10.178571,30.71432 -9.115733,-9.20082 -18.536189,-20.24517 -23.035715,-1.5179 z"
       id="rect9305"
       inkscape:connector-curvature="0"
       sodipodi:nodetypes="ccccc" />
    <path
       inkscape:connector-curvature="0"
       style="opacity:1;fill:#333333;stroke:#000000;stroke-width:1.24577284;stroke-linejoin:round;stroke-opacity:1"
       d="m 42.164808,967.9507 -20.585229,20.88798 -5.823602,18.77382 3.793019,7.9413 4.415167,2.0083 7.175593,-11.9115 2.442972,-0.7807 13.353411,5.8063 4.381216,-2.8107 0.966635,-9.4502 2.46957,11.5984 -2.297002,3.0625 0.815694,0.3547 1.132715,1.4056 1.477417,7.4266 12.105002,-14.4401 3.023169,0.05 4.843342,6.1794 -2.044207,-11.2977 -6.498733,-22.28156 -25.1455,-12.52216 z m 11.939788,10.46951 10.176272,14.2768 0.455637,13.51779 -5.467438,-12.9097 -14.125853,-13.06234 z m -20.510407,30.69879 -9.58137,15.9044 -0.0071,6.6348 21.033298,1.4185 9.567314,-2.2675 -3.820266,-14.2148 -17.19184,-7.4752 z m 35.833851,3.0453 -10.129778,12.0831 0.06206,0.3837 14.088011,3.0031 5.574915,-3.2278 -9.594994,-12.2426 z m -29.925048,3.4362 8.48347,4.9396 2.899908,7.9581 -7.195273,-0.8077 0.536948,-6.1836 -4.725053,-5.9062 z"
       clip-path="false"
       filter="0"
       id="path8"
       sodipodi:nodetypes="cccccccccccccccccccccccccccccccccccccccccccccccccc" />
    <path
       id="path9296"
       filter="0"
       clip-path="false"
       d="m -48.476391,968.18495 -16.524062,16.76709 -4.67469,15.06996 3.044711,6.3746 3.544119,1.6121 5.759953,-9.56151 1.961009,-0.62665 10.718977,4.66076 3.516866,-2.2562 0.775932,-7.58577 1.98236,9.31017 -1.843837,2.4583 0.654769,0.2847 0.909247,1.1283 1.185944,5.9615 9.716861,-11.5913 2.426742,0.04 3.887821,4.9603 -1.640915,-9.06889 -5.216627,-17.88567 -20.184659,-10.05172 z m -33.696125,2.08165 -5.126014,9.04457 -0.79902,4.79446 4.509782,-1.46542 2.031659,1.28055 0.01458,0.11006 4.911635,10.39176 2.390809,-0.7886 1.899039,0.8103 0.680807,1.42515 3.387891,-10.92155 -0.186432,-5.78669 -6.969505,-0.0906 -5.16108,-4.12789 5.912363,1.89001 7.375698,-1.34131 4.519155,2.75656 6.298072,-6.3906 c -0.48205,-0.20483 -0.974689,-0.40897 -1.489373,-0.61103 l -13.814028,1.75774 -0.612414,-0.0434 -9.774145,-2.69407 z m 43.280367,6.32238 8.168641,11.4602 0.365747,10.8509 -4.388792,-10.36278 -11.339028,-10.48533 7.193432,-1.46299 z m -45.514427,9.60282 -11.150167,3.62379 -2.900634,13.63561 8.817162,0.9689 0.103458,-1.2394 6.537622,-6.37182 -1.407441,-10.61656 z m 9.840281,10.84049 -6.325498,2.08581 -5.492977,5.3534 3.920976,5.3581 9.95103,0.3021 2.86418,-2.8052 -4.917711,-10.29404 z m 19.210144,4.19901 -7.691105,12.7667 -0.0057,9.9187 16.883734,2.1205 7.679822,-3.3898 -3.066583,-15.4155 -13.80014,-6.0004 z m 28.764353,2.4445 -8.13132,9.6993 0.04982,0.308 11.308651,2.4106 4.475065,-2.591 -7.702041,-9.8273 z m -24.021271,2.7583 6.809805,3.9651 2.327798,8.7935 -4.655595,4.138 -7.814004,-0.4432 6.693849,-4.9024 0.431016,-6.8098 -3.792869,-4.741 z m -41.377856,9.3456 -1.522356,4.9489 2.283012,8.4186 15.802811,-2.0674 0.229134,-4.5858 -10.863401,-5.5539 -5.929027,-1.1603 z"
       style="opacity:1;fill:#999999;stroke:#000000;stroke-linejoin:round;stroke-opacity:1"
       inkscape:connector-curvature="0" />
  </g>
</svg>
