<?xml version="1.0" encoding="UTF-8" standalone="no"?>
<!-- Created with Inkscape (http://www.inkscape.org/) -->

<svg
   xmlns:dc="http://purl.org/dc/elements/1.1/"
   xmlns:cc="http://creativecommons.org/ns#"
   xmlns:rdf="http://www.w3.org/1999/02/22-rdf-syntax-ns#"
   xmlns:svg="http://www.w3.org/2000/svg"
   xmlns="http://www.w3.org/2000/svg"
   xmlns:sodipodi="http://sodipodi.sourceforge.net/DTD/sodipodi-0.dtd"
   xmlns:inkscape="http://www.inkscape.org/namespaces/inkscape"
   width="100"
   height="100"
   viewBox="0 0 100 100"
   id="svg5392"
   version="1.1"
   inkscape:version="0.91 r13725"
   sodipodi:docname="stone.svg">
  <defs
     id="defs5394" />
  <sodipodi:namedview
     id="base"
     pagecolor="#ffffff"
     bordercolor="#666666"
     borderopacity="1.0"
     inkscape:pageopacity="0.0"
     inkscape:pageshadow="2"
     inkscape:zoom="5.6"
     inkscape:cx="16.994194"
     inkscape:cy="58.246383"
     inkscape:document-units="px"
     inkscape:current-layer="layer1"
     showgrid="false"
     units="px"
     inkscape:window-width="1920"
     inkscape:window-height="1017"
     inkscape:window-x="-8"
     inkscape:window-y="-8"
     inkscape:window-maximized="1" />
  <metadata
     id="metadata5397">
    <rdf:RDF>
      <cc:Work
         rdf:about="">
        <dc:format>image/svg+xml</dc:format>
        <dc:type
           rdf:resource="http://purl.org/dc/dcmitype/StillImage" />
        <dc:title />
      </cc:Work>
    </rdf:RDF>
  </metadata>
  <g
     inkscape:label="Layer 1"
     inkscape:groupmode="layer"
     id="layer1"
     transform="translate(0,-952.36216)">
    <g
       id="g4683"
       transform="matrix(0.94590333,0,0,0.94592374,4.0511636,54.601126)">
      <path
         style="opacity:1;fill:#808080;fill-opacity:1;stroke:none;stroke-width:1;stroke-linecap:round;stroke-linejoin:round;stroke-miterlimit:4;stroke-dasharray:none;stroke-dashoffset:0;stroke-opacity:1"
         d="m 24.607021,1024.7262 18.782995,-0.7825 c 11.458319,11.9096 8.106071,3.9468 10.043684,21.1272 -7.056172,2.2107 -9.079141,0.5548 -15.261184,1.9561 z"
         id="path9308"
         inkscape:connector-curvature="0"
         sodipodi:nodetypes="ccccc" />
      <path
         sodipodi:nodetypes="ccccc"
         inkscape:connector-curvature="0"
         id="rect9305"
         d="m 42.216076,967.86524 18.782996,-0.78248 c 11.458318,11.90962 18.280193,27.42148 14.869869,44.86274 -13.31717,-13.43914 -27.07951,-29.57103 -33.652865,-2.2171 z"
         style="opacity:1;fill:#808080;fill-opacity:1;stroke:none;stroke-width:1;stroke-linecap:round;stroke-linejoin:round;stroke-miterlimit:4;stroke-dasharray:none;stroke-dashoffset:0;stroke-opacity:1" />
      <path
         sodipodi:nodetypes="cccccccccccccccccccccccccccccccccccccccccccccccccc"
         id="path8"
         filter="0"
         clip-path="false"
         d="m 40.943773,954.37932 -30.072952,30.50994 -8.5076968,27.42194 5.541219,11.5994 6.4501158,2.9335 10.482822,-17.3985 3.568936,-1.1404 19.507992,8.4809 6.400517,-4.1054 1.412156,-13.8034 3.607794,16.9412 -3.35569,4.4732 1.191647,0.5181 1.654783,2.0531 2.158358,10.8477 17.684192,-21.092 4.416546,0.074 7.075636,9.0259 -2.986381,-16.502 -9.493995,-32.54545 -36.735051,-18.29043 z m 17.442831,15.29225 14.866512,20.85334 0.66564,19.74469 -7.987378,-18.85649 -20.636453,-19.07945 z m -29.963644,44.84013 -13.99742,23.2307 -0.01037,9.6911 30.727535,2.0718 13.976884,-3.312 -5.581024,-20.7628 -25.115552,-10.9186 z m 52.349657,4.448 -14.798588,17.6492 0.09066,0.5604 20.581169,4.3865 8.144391,-4.7147 -14.017323,-17.8821 z m -43.71749,5.0191 12.393498,7.215 4.236475,11.624 -10.511572,-1.1797 0.784427,-9.0321 -6.902828,-8.6269 z"
         style="opacity:1;fill:#333333;stroke:#000000;stroke-width:1.31700504;stroke-linejoin:round;stroke-opacity:1"
         inkscape:connector-curvature="0" />
    </g>
    <path
       id="path9296"
       filter="0"
       clip-path="false"
       d="m -48.476391,968.18495 -16.524062,16.76709 -4.67469,15.06996 3.044711,6.3746 3.544119,1.6121 5.759953,-9.56151 1.961009,-0.62665 10.718977,4.66076 3.516866,-2.2562 0.775932,-7.58577 1.98236,9.31017 -1.843837,2.4583 0.654769,0.2847 0.909247,1.1283 1.185944,5.9615 9.716861,-11.5913 2.426742,0.04 3.887821,4.9603 -1.640915,-9.06889 -5.216627,-17.88567 -20.184659,-10.05172 z m -33.696125,2.08165 -5.126014,9.04457 -0.79902,4.79446 4.509782,-1.46542 2.031659,1.28055 0.01458,0.11006 4.911635,10.39176 2.390809,-0.7886 1.899039,0.8103 0.680807,1.42515 3.387891,-10.92155 -0.186432,-5.78669 -6.969505,-0.0906 -5.16108,-4.12789 5.912363,1.89001 7.375698,-1.34131 4.519155,2.75656 6.298072,-6.3906 c -0.48205,-0.20483 -0.974689,-0.40897 -1.489373,-0.61103 l -13.814028,1.75774 -0.612414,-0.0434 -9.774145,-2.69407 z m 43.280367,6.32238 8.168641,11.4602 0.365747,10.8509 -4.388792,-10.36278 -11.339028,-10.48533 7.193432,-1.46299 z m -45.514427,9.60282 -11.150167,3.62379 -2.900634,13.63561 8.817162,0.9689 0.103458,-1.2394 6.537622,-6.37182 -1.407441,-10.61656 z m 9.840281,10.84049 -6.325498,2.08581 -5.492977,5.3534 3.920976,5.3581 9.95103,0.3021 2.86418,-2.8052 -4.917711,-10.29404 z m 19.210144,4.19901 -7.691105,12.7667 -0.0057,9.9187 16.883734,2.1205 7.679822,-3.3898 -3.066583,-15.4155 -13.80014,-6.0004 z m 28.764353,2.4445 -8.13132,9.6993 0.04982,0.308 11.308651,2.4106 4.475065,-2.591 -7.702041,-9.8273 z m -24.021271,2.7583 6.809805,3.9651 2.327798,8.7935 -4.655595,4.138 -7.814004,-0.4432 6.693849,-4.9024 0.431016,-6.8098 -3.792869,-4.741 z m -41.377856,9.3456 -1.522356,4.9489 2.283012,8.4186 15.802811,-2.0674 0.229134,-4.5858 -10.863401,-5.5539 -5.929027,-1.1603 z"
       style="opacity:1;fill:#999999;stroke:#000000;stroke-linejoin:round;stroke-opacity:1"
       inkscape:connector-curvature="0" />
  </g>
</svg>
