<?xml version="1.0" encoding="UTF-8" standalone="no"?>
<!-- Created with Inkscape (http://www.inkscape.org/) -->

<svg
   xmlns:dc="http://purl.org/dc/elements/1.1/"
   xmlns:cc="http://creativecommons.org/ns#"
   xmlns:rdf="http://www.w3.org/1999/02/22-rdf-syntax-ns#"
   xmlns:svg="http://www.w3.org/2000/svg"
   xmlns="http://www.w3.org/2000/svg"
   xmlns:sodipodi="http://sodipodi.sourceforge.net/DTD/sodipodi-0.dtd"
   xmlns:inkscape="http://www.inkscape.org/namespaces/inkscape"
   width="825"
   height="1125"
   viewBox="0 0 825.00001 1125"
   id="svg7913"
   version="1.1"
   inkscape:version="0.92.4 (5da689c313, 2019-01-14)"
   sodipodi:docname="special ladder.svg">
  <sodipodi:namedview
     id="base"
     pagecolor="#ffffff"
     bordercolor="#666666"
     borderopacity="1.0"
     inkscape:pageopacity="0.0"
     inkscape:pageshadow="2"
     inkscape:zoom="0.53300138"
     inkscape:cx="621.34422"
     inkscape:cy="591.29941"
     inkscape:document-units="px"
     inkscape:current-layer="layer1"
     showgrid="false"
     inkscape:window-width="1920"
     inkscape:window-height="1017"
     inkscape:window-x="-8"
     inkscape:window-y="-8"
     inkscape:window-maximized="1"
     units="px"
     showguides="true"
     inkscape:guide-bbox="true" />
  <defs
     id="defs7915" />
  <metadata
     id="metadata7918">
    <rdf:RDF>
      <cc:Work
         rdf:about="">
        <dc:format>image/svg+xml</dc:format>
        <dc:type
           rdf:resource="http://purl.org/dc/dcmitype/StillImage" />
        <dc:title></dc:title>
      </cc:Work>
    </rdf:RDF>
  </metadata>
  <g
     inkscape:label="Layer 1"
     inkscape:groupmode="layer"
     id="layer1"
     transform="translate(0,72.637839)">
    <text
       xml:space="preserve"
       style="font-style:normal;font-variant:normal;font-weight:normal;font-stretch:normal;font-size:39.50367355px;line-height:1.25;font-family:'Archivo Narrow';-inkscape-font-specification:'Archivo Narrow';font-variant-ligatures:normal;font-variant-position:normal;font-variant-caps:normal;font-variant-numeric:normal;font-variant-alternates:normal;font-feature-settings:normal;text-indent:0;text-align:center;text-decoration:none;text-decoration-line:none;text-decoration-style:solid;text-decoration-color:#000000;letter-spacing:0px;word-spacing:0px;text-transform:none;writing-mode:lr-tb;direction:ltr;text-orientation:mixed;dominant-baseline:auto;baseline-shift:baseline;text-anchor:middle;white-space:normal;shape-padding:0;opacity:1;vector-effect:none;fill:#000000;fill-opacity:1;stroke:#000000;stroke-width:0.99999988px;stroke-linecap:butt;stroke-linejoin:miter;stroke-miterlimit:4;stroke-dasharray:none;stroke-dashoffset:0;stroke-opacity:1"
       x="458.46741"
       y="645.95129"
       id="text8468"
       transform="scale(0.89937043,1.1118889)"><tspan
         sodipodi:role="line"
         id="tspan8470"
         x="458.46741"
         y="645.95129"
         style="font-style:normal;font-variant:normal;font-weight:normal;font-stretch:normal;font-size:39.50367355px;line-height:1.25;font-family:'Archivo Narrow';-inkscape-font-specification:'Archivo Narrow';font-variant-ligatures:normal;font-variant-position:normal;font-variant-caps:normal;font-variant-numeric:normal;font-variant-alternates:normal;font-feature-settings:normal;text-indent:0;text-align:center;text-decoration:none;text-decoration-line:none;text-decoration-style:solid;text-decoration-color:#000000;letter-spacing:0px;word-spacing:0px;text-transform:none;writing-mode:lr-tb;direction:ltr;text-orientation:mixed;dominant-baseline:auto;baseline-shift:baseline;text-anchor:middle;white-space:normal;shape-padding:0;vector-effect:none;fill:#000000;fill-opacity:1;stroke:#000000;stroke-width:0.99999988px;stroke-linecap:butt;stroke-linejoin:miter;stroke-miterlimit:4;stroke-dasharray:none;stroke-dashoffset:0;stroke-opacity:1">Start Here</tspan></text>
    <text
       xml:space="preserve"
       style="font-style:normal;font-variant:normal;font-weight:normal;font-stretch:normal;font-size:13.63230515px;line-height:0%;font-family:'Archivo Narrow';-inkscape-font-specification:'Archivo Narrow';text-align:center;letter-spacing:0px;word-spacing:0px;writing-mode:lr-tb;text-anchor:middle;opacity:1;fill:#000000;fill-opacity:1;stroke:#000000;stroke-width:0.99999988px;stroke-linecap:butt;stroke-linejoin:miter;stroke-opacity:1"
       x="458.34708"
       y="439.97684"
       id="text4810"
       transform="scale(0.89932264,1.111948)"><tspan
         sodipodi:role="line"
         id="tspan4812"
         x="458.34708"
         y="439.97684"
         style="font-style:normal;font-variant:normal;font-weight:normal;font-stretch:normal;font-size:39.50367355px;line-height:1.25;font-family:'Archivo Narrow';-inkscape-font-specification:'Archivo Narrow';stroke-width:0.99999988px">Play 1</tspan></text>
    <text
       xml:space="preserve"
       style="font-style:normal;font-variant:normal;font-weight:normal;font-stretch:normal;font-size:13.63230515px;line-height:0%;font-family:'Archivo Narrow';-inkscape-font-specification:'Archivo Narrow';text-align:center;letter-spacing:0px;word-spacing:0px;writing-mode:lr-tb;text-anchor:middle;opacity:1;fill:#000000;fill-opacity:1;stroke:#000000;stroke-width:0.99999988px;stroke-linecap:butt;stroke-linejoin:miter;stroke-opacity:1"
       x="458.34708"
       y="543.43781"
       id="text4818"
       transform="scale(0.89932264,1.111948)"><tspan
         sodipodi:role="line"
         id="tspan4820"
         x="458.34708"
         y="543.43781"
         style="font-style:normal;font-variant:normal;font-weight:normal;font-stretch:normal;font-size:39.50367355px;line-height:1.25;font-family:'Archivo Narrow';-inkscape-font-specification:'Archivo Narrow';stroke-width:0.99999988px">1 Soldier</tspan></text>
    <text
       transform="scale(0.89932264,1.111948)"
       id="text4822"
       y="345.56497"
       x="458.34708"
       style="font-style:normal;font-variant:normal;font-weight:normal;font-stretch:normal;font-size:13.63230515px;line-height:0%;font-family:'Archivo Narrow';-inkscape-font-specification:'Archivo Narrow';text-align:center;letter-spacing:0px;word-spacing:0px;writing-mode:lr-tb;text-anchor:middle;opacity:1;fill:#000000;fill-opacity:1;stroke:#000000;stroke-width:0.99999988px;stroke-linecap:butt;stroke-linejoin:miter;stroke-opacity:1"
       xml:space="preserve"><tspan
         style="font-style:normal;font-variant:normal;font-weight:normal;font-stretch:normal;font-size:39.50367355px;line-height:1.25;font-family:'Archivo Narrow';-inkscape-font-specification:'Archivo Narrow';stroke-width:0.99999988px"
         y="345.56497"
         x="458.34708"
         id="tspan4824"
         sodipodi:role="line">Take 1 Engine, Play 1 Engine</tspan></text>
    <g
       aria-label="Is this card special? Or is it about Special Cards?
Ambiguity is funny, right?"
       style="font-style:italic;font-variant:normal;font-weight:normal;font-stretch:normal;line-height:0%;font-family:serif;-inkscape-font-specification:'serif Italic';text-align:center;letter-spacing:0px;word-spacing:0px;writing-mode:lr-tb;text-anchor:middle;fill:#000000;fill-opacity:1;stroke:none;stroke-width:1px;stroke-linecap:butt;stroke-linejoin:miter;stroke-opacity:1"
       id="text4835">
      <path
         d="m 182.65381,938.74023 -0.12756,0.42908 h -6.47095 l 0.16235,-0.42908 q 0.97412,-0.0232 1.28723,-0.16235 0.51026,-0.19714 0.75379,-0.54504 0.38269,-0.54505 0.78857,-1.94825 l 2.73682,-9.48608 q 0.3479,-1.18286 0.3479,-1.78589 0,-0.30151 -0.15076,-0.51025 -0.15076,-0.20874 -0.46387,-0.31311 -0.30151,-0.11597 -1.19445,-0.11597 l 0.13916,-0.42908 h 6.07666 l -0.12757,0.42908 q -0.74218,-0.0116 -1.10168,0.16235 -0.52185,0.23194 -0.80017,0.66102 -0.26673,0.42907 -0.6958,1.90185 l -2.72522,9.48608 q -0.3711,1.31043 -0.3711,1.66993 0,0.28991 0.13916,0.49865 0.15076,0.19715 0.46387,0.31311 0.32471,0.10437 1.33362,0.17395 z"
         style="font-size:23.75px;line-height:1.25"
         id="path846" />
      <path
         d="m 193.34595,928.67432 -0.7074,3.56018 h -0.42908 q -0.058,-1.55396 -0.66101,-2.26136 -0.60303,-0.70739 -1.49597,-0.70739 -0.71899,0 -1.14807,0.39428 -0.41748,0.39429 -0.41748,0.95093 0,0.38269 0.16235,0.73059 0.17395,0.3479 0.74219,0.97412 1.50757,1.64673 1.94824,2.48169 0.44068,0.83496 0.44068,1.57715 0,1.20606 -1.00892,2.14539 -0.99731,0.92773 -2.52807,0.92773 -0.83496,0 -1.92505,-0.39429 -0.38269,-0.13916 -0.59143,-0.13916 -0.52185,0 -0.78858,0.53345 h -0.42907 l 0.70739,-3.75732 h 0.42908 q 0.0696,1.76269 0.73059,2.49328 0.66101,0.73059 1.80908,0.73059 0.88135,0 1.39161,-0.48706 0.52185,-0.49865 0.52185,-1.21765 0,-0.46386 -0.18555,-0.85815 -0.32471,-0.6958 -1.36841,-1.92505 -1.0321,-1.22925 -1.33362,-1.84387 -0.28991,-0.61463 -0.28991,-1.22925 0,-1.12488 0.81176,-1.90186 0.82337,-0.77697 2.1106,-0.77697 0.37109,0 0.67261,0.058 0.16235,0.0348 0.75378,0.26672 0.60303,0.22034 0.80017,0.22034 0.49866,0 0.83496,-0.54504 z"
         style="font-size:23.75px;line-height:1.25"
         id="path849" />
      <path
         d="m 206.0675,925.79834 -0.90454,3.1543 h 1.82068 l -0.19714,0.73059 h -1.80908 l -1.99463,6.84204 q -0.32471,1.10168 -0.32471,1.42639 0,0.19714 0.0928,0.30151 0.0928,0.10437 0.22034,0.10437 0.28992,0 0.76538,-0.40588 0.27832,-0.23193 1.24085,-1.42639 l 0.38269,0.28992 q -1.0669,1.55395 -2.01782,2.19177 -0.64942,0.44067 -1.31043,0.44067 -0.51025,0 -0.83496,-0.31311 -0.32471,-0.32471 -0.32471,-0.82336 0,-0.62622 0.3711,-1.91345 l 1.93664,-6.71448 h -1.7511 l 0.11597,-0.45227 q 1.27563,-0.3479 2.12219,-1.03211 0.84656,-0.6958 1.89026,-2.40051 z"
         style="font-size:23.75px;line-height:1.25"
         id="path851" />
      <path
         d="m 213.45459,922.67883 -3.25867,11.26038 q 2.1106,-3.17749 3.29346,-4.22119 1.18286,-1.0437 2.26135,-1.0437 0.55664,0 0.92774,0.38269 0.37109,0.38269 0.37109,1.0205 0,0.76539 -0.32471,1.85547 l -1.41479,4.85901 q -0.26673,0.88135 -0.26673,0.97412 0,0.16236 0.0928,0.26673 0.10437,0.10437 0.23193,0.10437 0.15076,0 0.3479,-0.15076 0.66101,-0.51025 1.31043,-1.41479 l 0.35949,0.22033 q -0.39428,0.61463 -1.10168,1.35681 -0.6958,0.73059 -1.20606,1.02051 -0.49865,0.27832 -0.89294,0.27832 -0.42908,0 -0.7074,-0.27832 -0.26672,-0.26672 -0.26672,-0.6958 0,-0.51025 0.40588,-1.90185 l 1.33362,-4.63868 q 0.25513,-0.86975 0.25513,-1.3684 0,-0.23194 -0.15076,-0.3711 -0.13916,-0.13916 -0.37109,-0.13916 -0.33631,0 -0.76538,0.25513 -0.78858,0.48706 -1.82068,1.80908 -0.27832,0.3595 -1.85547,2.89917 -0.48706,0.81177 -0.80017,1.77429 l -0.74219,2.37732 h -1.7395 l 3.81531,-13.2666 0.40588,-1.43799 q 0,-0.30151 -0.25513,-0.53345 -0.24353,-0.23193 -0.60302,-0.23193 -0.20874,0 -0.63782,0.0696 l -0.24353,0.0348 v -0.45227 z"
         style="font-size:23.75px;line-height:1.25"
         id="path853" />
      <path
         d="m 223.67126,924.07043 q 0.48707,0 0.82337,0.33631 0.3363,0.3363 0.3363,0.82336 0,0.47547 -0.3479,0.82337 -0.3363,0.3363 -0.81177,0.3363 -0.47546,0 -0.82336,-0.3363 -0.3363,-0.3479 -0.3363,-0.82337 0,-0.48706 0.3363,-0.82336 0.3363,-0.33631 0.82336,-0.33631 z m 0.15076,4.60389 -2.29614,8.12927 q -0.23193,0.82336 -0.23193,0.98572 0,0.18554 0.10437,0.30151 0.11596,0.11597 0.26672,0.11597 0.17395,0 0.41748,-0.18555 0.66101,-0.52185 1.33362,-1.48437 l 0.40588,0.26672 q -0.78857,1.20605 -1.85547,2.02942 -0.78857,0.61462 -1.50757,0.61462 -0.47546,0 -0.77697,-0.27832 -0.30152,-0.28992 -0.30152,-0.71899 0,-0.42908 0.28992,-1.42639 l 1.50757,-5.19532 q 0.37109,-1.27563 0.37109,-1.60034 0,-0.25513 -0.18554,-0.41748 -0.17395,-0.16235 -0.48707,-0.16235 -0.25512,0 -1.05529,0.12756 v -0.45227 z"
         style="font-size:23.75px;line-height:1.25"
         id="path855" />
      <path
         d="m 233.56323,928.67432 -0.7074,3.56018 h -0.42907 q -0.058,-1.55396 -0.66101,-2.26136 -0.60303,-0.70739 -1.49597,-0.70739 -0.719,0 -1.14808,0.39428 -0.41748,0.39429 -0.41748,0.95093 0,0.38269 0.16236,0.73059 0.17395,0.3479 0.74218,0.97412 1.50757,1.64673 1.94825,2.48169 0.44067,0.83496 0.44067,1.57715 0,1.20606 -1.00891,2.14539 -0.99731,0.92773 -2.52808,0.92773 -0.83496,0 -1.92505,-0.39429 -0.38269,-0.13916 -0.59143,-0.13916 -0.52185,0 -0.78857,0.53345 h -0.42908 l 0.7074,-3.75732 h 0.42908 q 0.0696,1.76269 0.73059,2.49328 0.66101,0.73059 1.80908,0.73059 0.88135,0 1.3916,-0.48706 0.52185,-0.49865 0.52185,-1.21765 0,-0.46386 -0.18554,-0.85815 -0.32471,-0.6958 -1.36841,-1.92505 -1.03211,-1.22925 -1.33362,-1.84387 -0.28992,-0.61463 -0.28992,-1.22925 0,-1.12488 0.81177,-1.90186 0.82336,-0.77697 2.1106,-0.77697 0.37109,0 0.6726,0.058 0.16236,0.0348 0.75379,0.26672 0.60302,0.22034 0.80017,0.22034 0.49865,0 0.83496,-0.54504 z"
         style="font-size:23.75px;line-height:1.25"
         id="path857" />
      <path
         d="m 249.28833,936.64124 q -1.20605,1.44958 -2.4353,2.13378 -1.22925,0.67261 -2.59766,0.67261 -1.64673,0 -2.57446,-0.92773 -0.91614,-0.92774 -0.91614,-2.49329 0,-1.77429 0.98572,-3.4906 0.99731,-1.71631 2.66723,-2.7832 1.68152,-1.07849 3.29346,-1.07849 1.26404,0 1.89026,0.53344 0.62622,0.52185 0.62622,1.28724 0,0.71899 -0.44067,1.22924 -0.32471,0.39429 -0.80017,0.39429 -0.3595,0 -0.60303,-0.23193 -0.23193,-0.23194 -0.23193,-0.57984 0,-0.22033 0.0812,-0.40588 0.0928,-0.18555 0.3595,-0.44067 0.27832,-0.26673 0.3363,-0.3827 0.058,-0.11596 0.058,-0.24353 0,-0.24353 -0.22034,-0.40588 -0.3363,-0.23193 -0.95093,-0.23193 -1.13647,0 -2.24975,0.80017 -1.11329,0.80017 -1.90186,2.27295 -0.95093,1.78589 -0.95093,3.57177 0,1.18287 0.67261,1.87867 0.67261,0.6842 1.83228,0.6842 0.89294,0 1.76269,-0.44067 0.88135,-0.45227 1.97144,-1.62354 z"
         style="font-size:23.75px;line-height:1.25"
         id="path859" />
      <path
         d="m 261.78955,928.67432 -2.26135,7.86255 -0.25513,1.05529 q -0.0348,0.15076 -0.0348,0.25513 0,0.18555 0.11597,0.32471 0.0928,0.10437 0.23193,0.10437 0.15076,0 0.39429,-0.18555 0.45227,-0.3363 1.20605,-1.3916 l 0.39429,0.27832 q -0.80017,1.20605 -1.64673,1.84387 -0.84656,0.62622 -1.56555,0.62622 -0.49866,0 -0.75378,-0.25513 -0.24353,-0.24353 -0.24353,-0.71899 0,-0.56824 0.25512,-1.49597 l 0.24353,-0.86975 q -1.51916,1.98303 -2.7948,2.7716 -0.91613,0.56824 -1.79748,0.56824 -0.84656,0 -1.46118,-0.6958 -0.61463,-0.7074 -0.61463,-1.93664 0,-1.84388 1.10169,-3.88489 1.11328,-2.05261 2.81799,-3.28186 1.33362,-0.97412 2.51648,-0.97412 0.7074,0 1.17126,0.37109 0.47547,0.37109 0.719,1.22925 l 0.41748,-1.32202 z m -4.12842,0.60302 q -0.74218,0 -1.57715,0.6958 -1.18286,0.98572 -2.11059,2.92237 -0.91614,1.93664 -0.91614,3.5022 0,0.78857 0.39429,1.25244 0.39429,0.45227 0.90454,0.45227 1.26404,0 2.74841,-1.86707 1.98303,-2.48169 1.98303,-5.09094 0,-0.98572 -0.38269,-1.42639 -0.38269,-0.44068 -1.0437,-0.44068 z"
         style="font-size:23.75px;line-height:1.25"
         id="path861" />
      <path
         d="m 263.76099,929.32373 4.00085,-0.64941 -1.66992,5.63598 q 2.02942,-3.4674 3.68774,-4.84741 0.93933,-0.78857 1.53076,-0.78857 0.3827,0 0.60303,0.23193 0.22034,0.22034 0.22034,0.64941 0,0.76538 -0.39429,1.46119 -0.27832,0.52185 -0.80017,0.52185 -0.26672,0 -0.46387,-0.17395 -0.18554,-0.17395 -0.23193,-0.53345 -0.0232,-0.22034 -0.10437,-0.28992 -0.0928,-0.0928 -0.22034,-0.0928 -0.19714,0 -0.37109,0.0928 -0.30151,0.16236 -0.91614,0.90454 -0.96252,1.13648 -2.0874,2.94556 -0.48706,0.76538 -0.83496,1.7279 -0.48706,1.32203 -0.55664,1.58875 l -0.3711,1.46118 h -1.77429 l 2.14539,-7.20154 q 0.37109,-1.25244 0.37109,-1.78589 0,-0.20874 -0.17395,-0.3479 -0.23193,-0.18554 -0.61462,-0.18554 -0.24353,0 -0.89295,0.10437 z"
         style="font-size:23.75px;line-height:1.25"
         id="path863" />
      <path
         d="m 283.71887,922.67883 -3.98926,13.68409 q -0.3247,1.11328 -0.3247,1.46118 0,0.11596 0.0928,0.22033 0.10437,0.10437 0.20874,0.10437 0.15076,0 0.3595,-0.15075 0.39429,-0.27832 1.32202,-1.3916 l 0.39429,0.24353 q -0.83496,1.15966 -1.69312,1.87866 -0.84656,0.71899 -1.58874,0.71899 -0.39429,0 -0.64942,-0.27832 -0.25512,-0.27832 -0.25512,-0.78857 0,-0.66101 0.3479,-1.77429 l 0.45227,-1.43799 q -1.68152,2.59765 -3.06153,3.59497 -0.95093,0.6842 -1.82068,0.6842 -0.88134,0 -1.54235,-0.77698 -0.64942,-0.78857 -0.64942,-2.13378 0,-1.72791 1.10169,-3.68775 1.10168,-1.95984 2.91076,-3.18909 1.42639,-0.98571 2.62085,-0.98571 0.62622,0 1.07849,0.25512 0.45227,0.25513 0.89295,0.84656 l 1.13647,-4.03564 q 0.12757,-0.42908 0.20874,-0.68421 0.13916,-0.46386 0.13916,-0.76538 0,-0.24353 -0.17395,-0.40588 -0.24353,-0.19715 -0.62622,-0.19715 -0.26672,0 -0.88135,0.0812 v -0.42908 z m -4.30237,8.23365 q 0,-0.74219 -0.42907,-1.19446 -0.42908,-0.45227 -1.09009,-0.45227 -1.46118,0 -3.04993,2.41211 -1.57715,2.41211 -1.57715,4.61547 0,0.86976 0.38269,1.33362 0.38269,0.45227 0.91614,0.45227 1.20606,0 3.02674,-2.60925 1.82067,-2.60925 1.82067,-4.55749 z"
         style="font-size:23.75px;line-height:1.25"
         id="path865" />
      <path
         d="m 297.29858,928.67432 -0.70739,3.56018 h -0.42908 q -0.058,-1.55396 -0.66101,-2.26136 -0.60303,-0.70739 -1.49597,-0.70739 -0.719,0 -1.14807,0.39428 -0.41748,0.39429 -0.41748,0.95093 0,0.38269 0.16235,0.73059 0.17395,0.3479 0.74219,0.97412 1.50756,1.64673 1.94824,2.48169 0.44067,0.83496 0.44067,1.57715 0,1.20606 -1.00891,2.14539 -0.99731,0.92773 -2.52808,0.92773 -0.83496,0 -1.92504,-0.39429 -0.38269,-0.13916 -0.59143,-0.13916 -0.52186,0 -0.78858,0.53345 h -0.42908 l 0.7074,-3.75732 h 0.42908 q 0.0696,1.76269 0.73059,2.49328 0.66101,0.73059 1.80908,0.73059 0.88135,0 1.3916,-0.48706 0.52185,-0.49865 0.52185,-1.21765 0,-0.46386 -0.18554,-0.85815 -0.32471,-0.6958 -1.36841,-1.92505 -1.03211,-1.22925 -1.33362,-1.84387 -0.28992,-0.61463 -0.28992,-1.22925 0,-1.12488 0.81177,-1.90186 0.82337,-0.77697 2.1106,-0.77697 0.37109,0 0.6726,0.058 0.16236,0.0348 0.75379,0.26672 0.60303,0.22034 0.80017,0.22034 0.49866,0 0.83496,-0.54504 z"
         style="font-size:23.75px;line-height:1.25"
         id="path867" />
      <path
         d="m 303.1665,928.67432 -0.80017,2.66723 q 1.26404,-1.48437 2.24976,-2.0758 0.99731,-0.59143 2.02942,-0.59143 1.0321,0 1.76269,0.82336 0.73059,0.81177 0.73059,2.12219 0,2.55127 -2.0758,5.19532 -2.07581,2.63244 -4.83582,2.63244 -0.57983,0 -1.0321,-0.12756 -0.44068,-0.12757 -0.99732,-0.45227 l -0.84655,2.99194 q -0.25513,0.88135 -0.25513,1.14807 0,0.25513 0.12756,0.42908 0.13916,0.18555 0.44068,0.27832 0.30151,0.10437 1.19445,0.10437 l -0.10437,0.42908 h -5.46203 l 0.11597,-0.42908 q 1.07849,-0.0464 1.46118,-0.37109 0.37109,-0.32471 0.78857,-1.79749 l 2.93396,-10.15869 q 0.26672,-0.96252 0.26672,-1.19446 0,-0.31311 -0.18554,-0.48706 -0.17395,-0.17395 -0.54505,-0.17395 -0.3363,0 -0.93933,0.0812 v -0.45227 z m -2.70202,9.27734 q 0.71899,0.85815 1.93664,0.85815 0.60303,0 1.22925,-0.3363 0.62622,-0.3363 1.21765,-0.99731 0.60303,-0.66101 1.07849,-1.51917 0.47547,-0.86975 0.84656,-2.04101 0.38269,-1.17127 0.38269,-2.31934 0,-0.92773 -0.42908,-1.4148 -0.41748,-0.49865 -0.98571,-0.49865 -1.25244,0 -2.48169,1.43799 -1.21765,1.43798 -1.78589,3.36303 z"
         style="font-size:23.75px;line-height:1.25"
         id="path869" />
      <path
         d="m 312.6178,934.79736 q -0.0812,0.57984 -0.0812,0.96253 0,1.0321 0.73059,1.76269 0.73059,0.719 1.77429,0.719 0.83496,0 1.60035,-0.33631 0.77697,-0.3479 2.29614,-1.51916 l 0.24353,0.3363 q -2.74841,2.72522 -5.2417,2.72522 -1.69312,0 -2.55127,-1.06689 -0.85815,-1.0669 -0.85815,-2.35413 0,-1.7279 1.06689,-3.53699 1.06689,-1.80908 2.67883,-2.80639 1.61194,-1.00891 3.31665,-1.00891 1.22925,0 1.82068,0.49865 0.59143,0.49866 0.59143,1.18286 0,0.96253 -0.76538,1.84388 -1.00891,1.14807 -2.96875,1.85547 -1.29883,0.47546 -3.65295,0.74218 z m 0.0812,-0.56823 q 1.71631,-0.19715 2.7948,-0.67261 1.4264,-0.63782 2.13379,-1.51917 0.719,-0.89294 0.719,-1.69311 0,-0.48706 -0.31311,-0.78858 -0.30152,-0.30151 -0.86975,-0.30151 -1.18287,0 -2.51648,1.26404 -1.32202,1.25244 -1.94825,3.71094 z"
         style="font-size:23.75px;line-height:1.25"
         id="path871" />
      <path
         d="m 329.49097,936.64124 q -1.20606,1.44958 -2.43531,2.13378 -1.22924,0.67261 -2.59765,0.67261 -1.64673,0 -2.57447,-0.92773 -0.91613,-0.92774 -0.91613,-2.49329 0,-1.77429 0.98571,-3.4906 0.99732,-1.71631 2.66724,-2.7832 1.68152,-1.07849 3.29346,-1.07849 1.26404,0 1.89026,0.53344 0.62622,0.52185 0.62622,1.28724 0,0.71899 -0.44068,1.22924 -0.3247,0.39429 -0.80017,0.39429 -0.35949,0 -0.60302,-0.23193 -0.23194,-0.23194 -0.23194,-0.57984 0,-0.22033 0.0812,-0.40588 0.0928,-0.18555 0.3595,-0.44067 0.27832,-0.26673 0.3363,-0.3827 0.058,-0.11596 0.058,-0.24353 0,-0.24353 -0.22033,-0.40588 -0.33631,-0.23193 -0.95093,-0.23193 -1.13648,0 -2.24976,0.80017 -1.11328,0.80017 -1.90185,2.27295 -0.95093,1.78589 -0.95093,3.57177 0,1.18287 0.67261,1.87867 0.6726,0.6842 1.83227,0.6842 0.89295,0 1.7627,-0.44067 0.88135,-0.45227 1.97143,-1.62354 z"
         style="font-size:23.75px;line-height:1.25"
         id="path873" />
      <path
         d="m 336.15906,924.07043 q 0.48706,0 0.82336,0.33631 0.33631,0.3363 0.33631,0.82336 0,0.47547 -0.3479,0.82337 -0.33631,0.3363 -0.81177,0.3363 -0.47547,0 -0.82337,-0.3363 -0.3363,-0.3479 -0.3363,-0.82337 0,-0.48706 0.3363,-0.82336 0.33631,-0.33631 0.82337,-0.33631 z m 0.15075,4.60389 -2.29614,8.12927 q -0.23193,0.82336 -0.23193,0.98572 0,0.18554 0.10437,0.30151 0.11597,0.11597 0.26672,0.11597 0.17395,0 0.41748,-0.18555 0.66101,-0.52185 1.33362,-1.48437 l 0.40588,0.26672 q -0.78857,1.20605 -1.85546,2.02942 -0.78858,0.61462 -1.50757,0.61462 -0.47547,0 -0.77698,-0.27832 -0.30151,-0.28992 -0.30151,-0.71899 0,-0.42908 0.28991,-1.42639 l 1.50757,-5.19532 q 0.3711,-1.27563 0.3711,-1.60034 0,-0.25513 -0.18555,-0.41748 -0.17395,-0.16235 -0.48706,-0.16235 -0.25513,0 -1.0553,0.12756 v -0.45227 z"
         style="font-size:23.75px;line-height:1.25"
         id="path875" />
      <path
         d="m 348.5791,928.67432 -2.26135,7.86255 -0.25513,1.05529 q -0.0348,0.15076 -0.0348,0.25513 0,0.18555 0.11597,0.32471 0.0928,0.10437 0.23193,0.10437 0.15076,0 0.39429,-0.18555 0.45227,-0.3363 1.20605,-1.3916 l 0.39429,0.27832 q -0.80017,1.20605 -1.64673,1.84387 -0.84655,0.62622 -1.56555,0.62622 -0.49866,0 -0.75378,-0.25513 -0.24353,-0.24353 -0.24353,-0.71899 0,-0.56824 0.25512,-1.49597 l 0.24353,-0.86975 q -1.51916,1.98303 -2.7948,2.7716 -0.91613,0.56824 -1.79748,0.56824 -0.84656,0 -1.46118,-0.6958 -0.61463,-0.7074 -0.61463,-1.93664 0,-1.84388 1.10169,-3.88489 1.11328,-2.05261 2.81799,-3.28186 1.33362,-0.97412 2.51648,-0.97412 0.7074,0 1.17126,0.37109 0.47547,0.37109 0.719,1.22925 l 0.41748,-1.32202 z m -4.12842,0.60302 q -0.74218,0 -1.57714,0.6958 -1.18287,0.98572 -2.1106,2.92237 -0.91614,1.93664 -0.91614,3.5022 0,0.78857 0.39429,1.25244 0.39429,0.45227 0.90454,0.45227 1.26404,0 2.74841,-1.86707 1.98304,-2.48169 1.98304,-5.09094 0,-0.98572 -0.3827,-1.42639 -0.38269,-0.44068 -1.0437,-0.44068 z"
         style="font-size:23.75px;line-height:1.25"
         id="path877" />
      <path
         d="m 356.37207,922.67883 -3.96606,13.80005 q -0.28992,1.03211 -0.28992,1.26404 0,0.17395 0.10437,0.28992 0.11597,0.11596 0.27832,0.11596 0.22034,0 0.47546,-0.19714 0.60303,-0.47546 1.26404,-1.47278 l 0.3479,0.3595 q -1.10168,1.55395 -2.02942,2.16858 -0.6842,0.44067 -1.29883,0.44067 -0.44067,0 -0.74218,-0.30151 -0.28992,-0.30152 -0.28992,-0.6958 0,-0.41748 0.37109,-1.71631 l 3.1427,-10.87769 q 0.38269,-1.33361 0.38269,-1.53076 0,-0.27832 -0.22033,-0.45227 -0.22034,-0.18555 -0.68421,-0.18555 -0.26672,0 -0.81176,0.0812 v -0.42908 z"
         style="font-size:23.75px;line-height:1.25"
         id="path879" />
      <path
         d="m 360.07141,935.30762 h -0.44067 q 0.16235,-1.47278 0.70739,-2.53968 0.54505,-1.06689 2.13379,-2.74841 1.58875,-1.69311 2.099,-2.72522 0.3595,-0.73059 0.3595,-1.50757 0,-0.91613 -0.64941,-1.54236 -0.64942,-0.63781 -1.66993,-0.63781 -0.98571,0 -1.60034,0.41748 -0.3479,0.23193 -0.3479,0.56824 0,0.23193 0.18555,0.63781 0.19714,0.40589 0.19714,0.67261 0,0.39429 -0.27832,0.66101 -0.27832,0.26672 -0.6842,0.26672 -0.40589,0 -0.6958,-0.28991 -0.27832,-0.28992 -0.27832,-0.76538 0,-1.02051 0.98571,-1.85547 0.99732,-0.83496 2.71363,-0.83496 1.78589,0 2.87597,1.00891 1.10169,0.99731 1.10169,2.28454 0,1.03211 -0.51026,1.79749 -0.6726,0.99731 -2.55126,2.29614 -1.87867,1.28723 -2.58606,2.27295 -0.7074,0.98572 -1.0669,2.56287 z m -0.6958,1.86706 q 0.48706,0 0.83496,0.3479 0.3479,0.33631 0.3479,0.83496 0,0.48706 -0.3479,0.82337 -0.3479,0.3479 -0.83496,0.3479 -0.48706,0 -0.83496,-0.3479 -0.3479,-0.33631 -0.3479,-0.82337 0,-0.49865 0.3363,-0.83496 0.3479,-0.3479 0.84656,-0.3479 z"
         style="font-size:23.75px;line-height:1.25"
         id="path881" />
      <path
         d="m 385.41016,923.08472 q 1.56555,0 2.7716,0.6842 1.20606,0.67261 1.89026,2.00623 0.68421,1.32202 0.68421,2.74841 0,2.52808 -1.47278,5.31128 -1.46118,2.77161 -3.82691,4.23279 -2.36572,1.46118 -4.8938,1.46118 -1.82067,0 -3.04992,-0.80017 -1.21765,-0.81177 -1.80908,-2.13379 -0.57984,-1.32202 -0.57984,-2.56287 0,-2.20337 1.0553,-4.34875 1.06689,-2.15698 2.53967,-3.59497 1.47278,-1.44959 3.1427,-2.22657 1.66992,-0.77697 3.54859,-0.77697 z m -0.39429,0.74218 q -1.15967,0 -2.27295,0.57984 -1.10168,0.56824 -2.19177,1.87866 -1.09009,1.29883 -1.95984,3.40942 -1.0669,2.59766 -1.0669,4.9054 0,1.64673 0.84656,2.92236 0.84656,1.26404 2.59766,1.26404 1.0553,0 2.06421,-0.52185 1.0205,-0.52185 2.12219,-1.78589 1.38,-1.58874 2.31934,-4.04724 0.93933,-2.47009 0.93933,-4.60388 0,-1.57715 -0.84656,-2.7832 -0.84656,-1.21766 -2.55127,-1.21766 z"
         style="font-size:23.75px;line-height:1.25"
         id="path883" />
      <path
         d="m 392.11304,929.32373 4.00085,-0.64941 -1.66992,5.63598 q 2.02942,-3.4674 3.68774,-4.84741 0.93933,-0.78857 1.53077,-0.78857 0.38269,0 0.60302,0.23193 0.22034,0.22034 0.22034,0.64941 0,0.76538 -0.39429,1.46119 -0.27832,0.52185 -0.80017,0.52185 -0.26672,0 -0.46387,-0.17395 -0.18554,-0.17395 -0.23193,-0.53345 -0.0232,-0.22034 -0.10437,-0.28992 -0.0928,-0.0928 -0.22034,-0.0928 -0.19714,0 -0.37109,0.0928 -0.30151,0.16236 -0.91614,0.90454 -0.96252,1.13648 -2.0874,2.94556 -0.48706,0.76538 -0.83496,1.7279 -0.48706,1.32203 -0.55664,1.58875 l -0.3711,1.46118 h -1.77429 l 2.14539,-7.20154 q 0.37109,-1.25244 0.37109,-1.78589 0,-0.20874 -0.17395,-0.3479 -0.23193,-0.18554 -0.61462,-0.18554 -0.24353,0 -0.89295,0.10437 z"
         style="font-size:23.75px;line-height:1.25"
         id="path885" />
      <path
         d="m 411.35193,924.07043 q 0.48706,0 0.82336,0.33631 0.33631,0.3363 0.33631,0.82336 0,0.47547 -0.3479,0.82337 -0.33631,0.3363 -0.81177,0.3363 -0.47547,0 -0.82337,-0.3363 -0.3363,-0.3479 -0.3363,-0.82337 0,-0.48706 0.3363,-0.82336 0.33631,-0.33631 0.82337,-0.33631 z m 0.15076,4.60389 -2.29615,8.12927 q -0.23193,0.82336 -0.23193,0.98572 0,0.18554 0.10437,0.30151 0.11597,0.11597 0.26672,0.11597 0.17395,0 0.41748,-0.18555 0.66101,-0.52185 1.33362,-1.48437 l 0.40589,0.26672 q -0.78858,1.20605 -1.85547,2.02942 -0.78858,0.61462 -1.50757,0.61462 -0.47547,0 -0.77698,-0.27832 -0.30151,-0.28992 -0.30151,-0.71899 0,-0.42908 0.28991,-1.42639 l 1.50757,-5.19532 q 0.3711,-1.27563 0.3711,-1.60034 0,-0.25513 -0.18555,-0.41748 -0.17395,-0.16235 -0.48706,-0.16235 -0.25513,0 -1.0553,0.12756 v -0.45227 z"
         style="font-size:23.75px;line-height:1.25"
         id="path887" />
      <path
         d="m 421.2439,928.67432 -0.7074,3.56018 h -0.42908 q -0.058,-1.55396 -0.66101,-2.26136 -0.60303,-0.70739 -1.49597,-0.70739 -0.71899,0 -1.14807,0.39428 -0.41748,0.39429 -0.41748,0.95093 0,0.38269 0.16235,0.73059 0.17395,0.3479 0.74219,0.97412 1.50757,1.64673 1.94824,2.48169 0.44067,0.83496 0.44067,1.57715 0,1.20606 -1.00891,2.14539 -0.99731,0.92773 -2.52807,0.92773 -0.83496,0 -1.92505,-0.39429 -0.38269,-0.13916 -0.59143,-0.13916 -0.52185,0 -0.78858,0.53345 h -0.42907 l 0.70739,-3.75732 h 0.42908 q 0.0696,1.76269 0.73059,2.49328 0.66101,0.73059 1.80908,0.73059 0.88135,0 1.39161,-0.48706 0.52185,-0.49865 0.52185,-1.21765 0,-0.46386 -0.18555,-0.85815 -0.32471,-0.6958 -1.36841,-1.92505 -1.0321,-1.22925 -1.33362,-1.84387 -0.28991,-0.61463 -0.28991,-1.22925 0,-1.12488 0.81176,-1.90186 0.82337,-0.77697 2.1106,-0.77697 0.37109,0 0.67261,0.058 0.16235,0.0348 0.75378,0.26672 0.60303,0.22034 0.80017,0.22034 0.49866,0 0.83496,-0.54504 z"
         style="font-size:23.75px;line-height:1.25"
         id="path889" />
      <path
         d="m 433.1073,924.07043 q 0.48706,0 0.82336,0.33631 0.33631,0.3363 0.33631,0.82336 0,0.47547 -0.3479,0.82337 -0.33631,0.3363 -0.81177,0.3363 -0.47546,0 -0.82336,-0.3363 -0.33631,-0.3479 -0.33631,-0.82337 0,-0.48706 0.33631,-0.82336 0.3363,-0.33631 0.82336,-0.33631 z m 0.15076,4.60389 -2.29615,8.12927 q -0.23193,0.82336 -0.23193,0.98572 0,0.18554 0.10437,0.30151 0.11597,0.11597 0.26672,0.11597 0.17395,0 0.41748,-0.18555 0.66102,-0.52185 1.33362,-1.48437 l 0.40589,0.26672 q -0.78858,1.20605 -1.85547,2.02942 -0.78858,0.61462 -1.50757,0.61462 -0.47546,0 -0.77698,-0.27832 -0.30151,-0.28992 -0.30151,-0.71899 0,-0.42908 0.28992,-1.42639 l 1.50756,-5.19532 q 0.3711,-1.27563 0.3711,-1.60034 0,-0.25513 -0.18555,-0.41748 -0.17395,-0.16235 -0.48706,-0.16235 -0.25513,0 -1.0553,0.12756 v -0.45227 z"
         style="font-size:23.75px;line-height:1.25"
         id="path891" />
      <path
         d="m 440.55237,925.79834 -0.90454,3.1543 h 1.82068 l -0.19715,0.73059 h -1.80908 l -1.99463,6.84204 q -0.32471,1.10168 -0.32471,1.42639 0,0.19714 0.0928,0.30151 0.0928,0.10437 0.22033,0.10437 0.28992,0 0.76539,-0.40588 0.27832,-0.23193 1.24084,-1.42639 l 0.38269,0.28992 q -1.06689,1.55395 -2.01782,2.19177 -0.64942,0.44067 -1.31043,0.44067 -0.51025,0 -0.83496,-0.31311 -0.3247,-0.32471 -0.3247,-0.82336 0,-0.62622 0.37109,-1.91345 l 1.93664,-6.71448 h -1.75109 l 0.11596,-0.45227 q 1.27564,-0.3479 2.1222,-1.03211 0.84655,-0.6958 1.89025,-2.40051 z"
         style="font-size:23.75px;line-height:1.25"
         id="path893" />
      <path
         d="m 458.05176,928.67432 -2.26135,7.86255 -0.25513,1.05529 q -0.0348,0.15076 -0.0348,0.25513 0,0.18555 0.11597,0.32471 0.0928,0.10437 0.23193,0.10437 0.15076,0 0.39429,-0.18555 0.45227,-0.3363 1.20605,-1.3916 l 0.39429,0.27832 q -0.80017,1.20605 -1.64673,1.84387 -0.84656,0.62622 -1.56555,0.62622 -0.49866,0 -0.75379,-0.25513 -0.24353,-0.24353 -0.24353,-0.71899 0,-0.56824 0.25513,-1.49597 l 0.24353,-0.86975 q -1.51916,1.98303 -2.7948,2.7716 -0.91614,0.56824 -1.79749,0.56824 -0.84655,0 -1.46118,-0.6958 -0.61462,-0.7074 -0.61462,-1.93664 0,-1.84388 1.10168,-3.88489 1.11329,-2.05261 2.818,-3.28186 1.33362,-0.97412 2.51648,-0.97412 0.70739,0 1.17126,0.37109 0.47546,0.37109 0.719,1.22925 l 0.41748,-1.32202 z m -4.12842,0.60302 q -0.74219,0 -1.57715,0.6958 -1.18286,0.98572 -2.11059,2.92237 -0.91614,1.93664 -0.91614,3.5022 0,0.78857 0.39429,1.25244 0.39428,0.45227 0.90454,0.45227 1.26403,0 2.74841,-1.86707 1.98303,-2.48169 1.98303,-5.09094 0,-0.98572 -0.38269,-1.42639 -0.38269,-0.44068 -1.0437,-0.44068 z"
         style="font-size:23.75px;line-height:1.25"
         id="path895" />
      <path
         d="m 465.63599,922.67883 -2.28455,8.01331 q 1.11328,-1.15967 1.93665,-1.58875 0.83496,-0.42907 1.7395,-0.42907 1.27563,0 2.0874,0.84655 0.81177,0.84656 0.81177,2.29615 0,1.86706 -1.0669,3.72253 -1.06689,1.84387 -2.67883,2.87598 -1.61194,1.0321 -3.17749,1.0321 -1.7511,0 -3.59497,-1.31042 l 3.52539,-12.14173 q 0.40588,-1.40319 0.40588,-1.64673 0,-0.30151 -0.18554,-0.45227 -0.26673,-0.20874 -0.78858,-0.20874 -0.24353,0 -0.74218,0.0812 v -0.44067 z m -4.48792,15.58594 q 1.15967,0.63782 2.04102,0.63782 1.0205,0 2.11059,-0.74219 1.10169,-0.75378 1.90186,-2.52808 0.81177,-1.77429 0.81177,-3.58337 0,-1.06689 -0.53345,-1.66992 -0.52185,-0.60303 -1.24085,-0.60303 -1.07849,0 -2.11059,0.86975 -1.03211,0.85816 -1.47278,2.40051 z"
         style="font-size:23.75px;line-height:1.25"
         id="path897" />
      <path
         d="m 481.6394,932.30408 q 0,1.7395 -0.92773,3.44421 -0.91614,1.70471 -2.56287,2.70203 -1.64672,0.99731 -3.20068,0.99731 -1.58875,0 -2.59766,-1.00891 -0.99731,-1.02051 -0.99731,-2.63245 0,-1.70471 0.97412,-3.42102 0.98572,-1.7163 2.62085,-2.71362 1.64673,-0.99731 3.17749,-0.99731 1.53076,0 2.51648,1.00891 0.99731,1.00891 0.99731,2.62085 z m -1.92504,-0.80017 q 0,-1.07849 -0.53345,-1.64673 -0.52185,-0.57984 -1.35681,-0.57984 -1.70472,0 -3.1427,2.4469 -1.4264,2.43531 -1.4264,4.84742 0,1.10168 0.55665,1.70471 0.55664,0.59143 1.40319,0.59143 1.63514,0 3.06153,-2.42371 1.43799,-2.4353 1.43799,-4.94018 z"
         style="font-size:23.75px;line-height:1.25"
         id="path899" />
      <path
         d="m 493.71155,928.95264 -2.01782,6.91162 q -0.45227,1.54236 -0.45227,1.94824 0,0.20874 0.0696,0.31311 0.0812,0.0928 0.20874,0.0928 0.19714,0 0.42907,-0.17395 0.24353,-0.18554 1.20606,-1.43798 l 0.3479,0.26672 q -0.91614,1.44958 -1.87866,2.13379 -0.63782,0.44067 -1.22925,0.44067 -0.45227,0 -0.7074,-0.25513 -0.25513,-0.25512 -0.25513,-0.66101 0,-0.39428 0.15076,-1.0437 0.18555,-0.85815 1.0553,-3.73413 -1.97144,3.23548 -3.30506,4.46472 -1.32202,1.22925 -2.45849,1.22925 -0.53345,0 -0.90454,-0.37109 -0.3711,-0.3711 -0.3711,-0.93933 0,-0.86975 0.51026,-2.66724 l 1.00891,-3.58337 q 0.37109,-1.28723 0.37109,-1.60035 0,-0.13916 -0.10437,-0.23193 -0.0928,-0.10437 -0.20874,-0.10437 -0.24353,0 -0.48706,0.17395 -0.24353,0.17395 -1.10168,1.28723 l -0.3595,-0.25512 q 0.86975,-1.34522 1.84387,-1.98304 0.74219,-0.49865 1.36841,-0.49865 0.42908,0 0.6958,0.27832 0.27832,0.26672 0.27832,0.6958 0,0.62622 -0.46387,2.23816 l -1.09008,3.74572 q -0.45227,1.53077 -0.45227,1.93665 0,0.22034 0.13916,0.3595 0.15075,0.12756 0.39428,0.12756 0.38269,0 0.99732,-0.38269 0.61462,-0.38269 1.63513,-1.69312 1.0321,-1.32202 1.69311,-2.47009 0.67261,-1.15967 1.4264,-3.67615 l 0.25512,-0.88134 z"
         style="font-size:23.75px;line-height:1.25"
         id="path901" />
      <path
         d="m 500.57678,925.79834 -0.90454,3.1543 h 1.82068 l -0.19714,0.73059 h -1.80909 l -1.99462,6.84204 q -0.32471,1.10168 -0.32471,1.42639 0,0.19714 0.0928,0.30151 0.0928,0.10437 0.22034,0.10437 0.28992,0 0.76538,-0.40588 0.27832,-0.23193 1.24084,-1.42639 l 0.38269,0.28992 q -1.06689,1.55395 -2.01782,2.19177 -0.64941,0.44067 -1.31042,0.44067 -0.51026,0 -0.83496,-0.31311 -0.32471,-0.32471 -0.32471,-0.82336 0,-0.62622 0.37109,-1.91345 l 1.93665,-6.71448 h -1.7511 l 0.11597,-0.45227 q 1.27563,-0.3479 2.12219,-1.03211 0.84656,-0.6958 1.89026,-2.40051 z"
         style="font-size:23.75px;line-height:1.25"
         id="path903" />
      <path
         d="m 507.09412,939.52881 1.29882,-5.83313 h 0.39429 q -0.0812,0.84656 -0.0812,1.4032 0,1.58874 1.00892,2.58606 1.0205,0.99731 2.65564,0.99731 1.51916,0 2.30773,-0.92773 0.78858,-0.93933 0.78858,-2.15699 0,-0.78857 -0.3595,-1.43798 -0.54504,-0.96253 -2.91076,-3.38623 -1.14808,-1.15967 -1.47278,-1.72791 -0.53345,-0.93933 -0.53345,-1.97144 0,-1.64672 1.22925,-2.81799 1.22925,-1.17126 3.15429,-1.17126 0.64942,0 1.22925,0.12756 0.3595,0.0696 1.31043,0.46387 0.6726,0.26672 0.74218,0.28991 0.16236,0.0348 0.3595,0.0348 0.33631,0 0.57984,-0.17395 0.24353,-0.17395 0.56823,-0.74218 h 0.44068 l -1.20606,5.2185 h -0.39428 q 0.0464,-0.6958 0.0464,-1.12488 0,-1.40319 -0.92773,-2.29614 -0.92774,-0.89294 -2.4469,-0.89294 -1.20606,0 -1.95984,0.7074 -0.75378,0.70739 -0.75378,1.63513 0,0.81176 0.47546,1.55395 0.48706,0.73059 2.21496,2.40051 1.73951,1.65833 2.24976,2.59766 0.51025,0.92774 0.51025,1.98303 0,1.19446 -0.63781,2.31934 -0.62622,1.11328 -1.80908,1.7279 -1.18287,0.61463 -2.58606,0.61463 -0.69581,0 -1.29883,-0.12756 -0.60303,-0.12757 -1.92505,-0.62623 -0.45227,-0.17395 -0.75379,-0.17395 -0.6842,0 -1.06689,0.92774 z"
         style="font-size:23.75px;line-height:1.25"
         id="path905" />
      <path
         d="m 524.06006,928.67432 -0.80017,2.66723 q 1.26404,-1.48437 2.24975,-2.0758 0.99732,-0.59143 2.02942,-0.59143 1.03211,0 1.7627,0.82336 0.73059,0.81177 0.73059,2.12219 0,2.55127 -2.07581,5.19532 -2.0758,2.63244 -4.83581,2.63244 -0.57984,0 -1.03211,-0.12756 -0.44067,-0.12757 -0.99731,-0.45227 l -0.84656,2.99194 q -0.25513,0.88135 -0.25513,1.14807 0,0.25513 0.12757,0.42908 0.13916,0.18555 0.44067,0.27832 0.30151,0.10437 1.19446,0.10437 l -0.10437,0.42908 h -5.46204 l 0.11597,-0.42908 q 1.07849,-0.0464 1.46118,-0.37109 0.3711,-0.32471 0.78858,-1.79749 l 2.93396,-10.15869 q 0.26672,-0.96252 0.26672,-1.19446 0,-0.31311 -0.18555,-0.48706 -0.17395,-0.17395 -0.54504,-0.17395 -0.33631,0 -0.93933,0.0812 v -0.45227 z m -2.70203,9.27734 q 0.719,0.85815 1.93665,0.85815 0.60303,0 1.22925,-0.3363 0.62622,-0.3363 1.21765,-0.99731 0.60302,-0.66101 1.07849,-1.51917 0.47546,-0.86975 0.84656,-2.04101 0.38269,-1.17127 0.38269,-2.31934 0,-0.92773 -0.42908,-1.4148 -0.41748,-0.49865 -0.98572,-0.49865 -1.25244,0 -2.48169,1.43799 -1.21765,1.43798 -1.78589,3.36303 z"
         style="font-size:23.75px;line-height:1.25"
         id="path907" />
      <path
         d="m 533.51135,934.79736 q -0.0812,0.57984 -0.0812,0.96253 0,1.0321 0.73059,1.76269 0.73059,0.719 1.77429,0.719 0.83496,0 1.60034,-0.33631 0.77698,-0.3479 2.29614,-1.51916 l 0.24353,0.3363 q -2.74841,2.72522 -5.2417,2.72522 -1.69311,0 -2.55127,-1.06689 -0.85815,-1.0669 -0.85815,-2.35413 0,-1.7279 1.06689,-3.53699 1.0669,-1.80908 2.67884,-2.80639 1.61194,-1.00891 3.31665,-1.00891 1.22925,0 1.82068,0.49865 0.59143,0.49866 0.59143,1.18286 0,0.96253 -0.76538,1.84388 -1.00891,1.14807 -2.96875,1.85547 -1.29883,0.47546 -3.65296,0.74218 z m 0.0812,-0.56823 q 1.71631,-0.19715 2.7948,-0.67261 1.42639,-0.63782 2.13379,-1.51917 0.71899,-0.89294 0.71899,-1.69311 0,-0.48706 -0.31311,-0.78858 -0.30151,-0.30151 -0.86975,-0.30151 -1.18286,0 -2.51648,1.26404 -1.32202,1.25244 -1.94824,3.71094 z"
         style="font-size:23.75px;line-height:1.25"
         id="path909" />
      <path
         d="m 550.38452,936.64124 q -1.20605,1.44958 -2.4353,2.13378 -1.22925,0.67261 -2.59766,0.67261 -1.64673,0 -2.57446,-0.92773 -0.91614,-0.92774 -0.91614,-2.49329 0,-1.77429 0.98572,-3.4906 0.99731,-1.71631 2.66724,-2.7832 1.68151,-1.07849 3.29345,-1.07849 1.26404,0 1.89026,0.53344 0.62622,0.52185 0.62622,1.28724 0,0.71899 -0.44067,1.22924 -0.32471,0.39429 -0.80017,0.39429 -0.3595,0 -0.60303,-0.23193 -0.23193,-0.23194 -0.23193,-0.57984 0,-0.22033 0.0812,-0.40588 0.0928,-0.18555 0.3595,-0.44067 0.27832,-0.26673 0.3363,-0.3827 0.058,-0.11596 0.058,-0.24353 0,-0.24353 -0.22034,-0.40588 -0.3363,-0.23193 -0.95093,-0.23193 -1.13647,0 -2.24975,0.80017 -1.11328,0.80017 -1.90186,2.27295 -0.95093,1.78589 -0.95093,3.57177 0,1.18287 0.67261,1.87867 0.67261,0.6842 1.83228,0.6842 0.89294,0 1.76269,-0.44067 0.88135,-0.45227 1.97144,-1.62354 z"
         style="font-size:23.75px;line-height:1.25"
         id="path911" />
      <path
         d="m 557.05261,924.07043 q 0.48706,0 0.82337,0.33631 0.3363,0.3363 0.3363,0.82336 0,0.47547 -0.3479,0.82337 -0.3363,0.3363 -0.81177,0.3363 -0.47546,0 -0.82336,-0.3363 -0.33631,-0.3479 -0.33631,-0.82337 0,-0.48706 0.33631,-0.82336 0.3363,-0.33631 0.82336,-0.33631 z m 0.15076,4.60389 -2.29614,8.12927 q -0.23194,0.82336 -0.23194,0.98572 0,0.18554 0.10437,0.30151 0.11597,0.11597 0.26673,0.11597 0.17395,0 0.41748,-0.18555 0.66101,-0.52185 1.33362,-1.48437 l 0.40588,0.26672 q -0.78858,1.20605 -1.85547,2.02942 -0.78857,0.61462 -1.50757,0.61462 -0.47546,0 -0.77698,-0.27832 -0.30151,-0.28992 -0.30151,-0.71899 0,-0.42908 0.28992,-1.42639 l 1.50757,-5.19532 q 0.37109,-1.27563 0.37109,-1.60034 0,-0.25513 -0.18555,-0.41748 -0.17395,-0.16235 -0.48706,-0.16235 -0.25512,0 -1.0553,0.12756 v -0.45227 z"
         style="font-size:23.75px;line-height:1.25"
         id="path913" />
      <path
         d="m 569.47266,928.67432 -2.26136,7.86255 -0.25512,1.05529 q -0.0348,0.15076 -0.0348,0.25513 0,0.18555 0.11596,0.32471 0.0928,0.10437 0.23194,0.10437 0.15075,0 0.39428,-0.18555 0.45227,-0.3363 1.20606,-1.3916 l 0.39429,0.27832 q -0.80017,1.20605 -1.64673,1.84387 -0.84656,0.62622 -1.56555,0.62622 -0.49866,0 -0.75379,-0.25513 -0.24353,-0.24353 -0.24353,-0.71899 0,-0.56824 0.25513,-1.49597 l 0.24353,-0.86975 q -1.51917,1.98303 -2.7948,2.7716 -0.91614,0.56824 -1.79749,0.56824 -0.84655,0 -1.46118,-0.6958 -0.61462,-0.7074 -0.61462,-1.93664 0,-1.84388 1.10168,-3.88489 1.11328,-2.05261 2.818,-3.28186 1.33361,-0.97412 2.51647,-0.97412 0.7074,0 1.17127,0.37109 0.47546,0.37109 0.71899,1.22925 l 0.41748,-1.32202 z m -4.12842,0.60302 q -0.74219,0 -1.57715,0.6958 -1.18286,0.98572 -2.1106,2.92237 -0.91613,1.93664 -0.91613,3.5022 0,0.78857 0.39428,1.25244 0.39429,0.45227 0.90454,0.45227 1.26404,0 2.74842,-1.86707 1.98303,-2.48169 1.98303,-5.09094 0,-0.98572 -0.38269,-1.42639 -0.38269,-0.44068 -1.0437,-0.44068 z"
         style="font-size:23.75px;line-height:1.25"
         id="path915" />
      <path
         d="m 577.26562,922.67883 -3.96606,13.80005 q -0.28992,1.03211 -0.28992,1.26404 0,0.17395 0.10437,0.28992 0.11597,0.11596 0.27832,0.11596 0.22034,0 0.47547,-0.19714 0.60303,-0.47546 1.26404,-1.47278 l 0.3479,0.3595 q -1.10169,1.55395 -2.02942,2.16858 -0.68421,0.44067 -1.29883,0.44067 -0.44067,0 -0.74219,-0.30151 -0.28992,-0.30152 -0.28992,-0.6958 0,-0.41748 0.3711,-1.71631 l 3.1427,-10.87769 q 0.38269,-1.33361 0.38269,-1.53076 0,-0.27832 -0.22034,-0.45227 -0.22033,-0.18555 -0.6842,-0.18555 -0.26673,0 -0.81177,0.0812 v -0.42908 z"
         style="font-size:23.75px;line-height:1.25"
         id="path917" />
      <path
         d="m 599.43848,923.08472 -1.17127,5.09094 h -0.41748 l -0.0464,-1.27564 q -0.058,-0.6958 -0.26672,-1.24084 -0.20874,-0.54504 -0.62622,-0.93933 -0.41748,-0.40589 -1.0553,-0.62622 -0.63781,-0.23194 -1.41479,-0.23194 -2.07581,0 -3.62976,1.13648 -1.98304,1.44958 -3.10791,4.09363 -0.92774,2.18017 -0.92774,4.41833 0,2.28455 1.33362,3.65296 1.33362,1.35681 3.46741,1.35681 1.61194,0 2.86438,-0.719 1.26404,-0.71899 2.34253,-2.21496 h 0.54504 q -1.27563,2.02942 -2.82959,2.99194 -1.55395,0.95093 -3.72253,0.95093 -1.92505,0 -3.40943,-0.80017 -1.48437,-0.81177 -2.26135,-2.27295 -0.77698,-1.46118 -0.77698,-3.1427 0,-2.57446 1.38001,-5.00977 1.38,-2.4353 3.78052,-3.8269 2.4121,-1.3916 4.859,-1.3916 1.14808,0 2.57447,0.54504 0.62622,0.23193 0.90454,0.23193 0.27832,0 0.48706,-0.11596 0.20874,-0.11597 0.6958,-0.66101 z"
         style="font-size:23.75px;line-height:1.25"
         id="path919" />
      <path
         d="m 609.73633,928.67432 -2.26135,7.86255 -0.25513,1.05529 q -0.0348,0.15076 -0.0348,0.25513 0,0.18555 0.11597,0.32471 0.0928,0.10437 0.23193,0.10437 0.15076,0 0.39429,-0.18555 0.45227,-0.3363 1.20605,-1.3916 l 0.39429,0.27832 q -0.80017,1.20605 -1.64673,1.84387 -0.84656,0.62622 -1.56555,0.62622 -0.49866,0 -0.75379,-0.25513 -0.24353,-0.24353 -0.24353,-0.71899 0,-0.56824 0.25513,-1.49597 l 0.24353,-0.86975 q -1.51916,1.98303 -2.7948,2.7716 -0.91614,0.56824 -1.79748,0.56824 -0.84656,0 -1.46119,-0.6958 -0.61462,-0.7074 -0.61462,-1.93664 0,-1.84388 1.10168,-3.88489 1.11329,-2.05261 2.818,-3.28186 1.33362,-0.97412 2.51648,-0.97412 0.70739,0 1.17126,0.37109 0.47547,0.37109 0.719,1.22925 l 0.41748,-1.32202 z m -4.12842,0.60302 q -0.74219,0 -1.57715,0.6958 -1.18286,0.98572 -2.11059,2.92237 -0.91614,1.93664 -0.91614,3.5022 0,0.78857 0.39429,1.25244 0.39428,0.45227 0.90454,0.45227 1.26403,0 2.74841,-1.86707 1.98303,-2.48169 1.98303,-5.09094 0,-0.98572 -0.38269,-1.42639 -0.38269,-0.44068 -1.0437,-0.44068 z"
         style="font-size:23.75px;line-height:1.25"
         id="path921" />
      <path
         d="m 611.70776,929.32373 4.00086,-0.64941 -1.66992,5.63598 q 2.02942,-3.4674 3.68774,-4.84741 0.93933,-0.78857 1.53076,-0.78857 0.38269,0 0.60303,0.23193 0.22034,0.22034 0.22034,0.64941 0,0.76538 -0.39429,1.46119 -0.27832,0.52185 -0.80017,0.52185 -0.26673,0 -0.46387,-0.17395 -0.18555,-0.17395 -0.23193,-0.53345 -0.0232,-0.22034 -0.10437,-0.28992 -0.0928,-0.0928 -0.22034,-0.0928 -0.19714,0 -0.37109,0.0928 -0.30152,0.16236 -0.91614,0.90454 -0.96253,1.13648 -2.0874,2.94556 -0.48706,0.76538 -0.83496,1.7279 -0.48706,1.32203 -0.55664,1.58875 l -0.3711,1.46118 h -1.77429 l 2.14539,-7.20154 q 0.37109,-1.25244 0.37109,-1.78589 0,-0.20874 -0.17395,-0.3479 -0.23193,-0.18554 -0.61463,-0.18554 -0.24353,0 -0.89294,0.10437 z"
         style="font-size:23.75px;line-height:1.25"
         id="path923" />
      <path
         d="m 631.66565,922.67883 -3.98926,13.68409 q -0.32471,1.11328 -0.32471,1.46118 0,0.11596 0.0928,0.22033 0.10437,0.10437 0.20874,0.10437 0.15076,0 0.3595,-0.15075 0.39428,-0.27832 1.32202,-1.3916 l 0.39428,0.24353 q -0.83496,1.15966 -1.69311,1.87866 -0.84656,0.71899 -1.58875,0.71899 -0.39428,0 -0.64941,-0.27832 -0.25513,-0.27832 -0.25513,-0.78857 0,-0.66101 0.3479,-1.77429 l 0.45227,-1.43799 q -1.68152,2.59765 -3.06152,3.59497 -0.95093,0.6842 -1.82068,0.6842 -0.88135,0 -1.54236,-0.77698 -0.64941,-0.78857 -0.64941,-2.13378 0,-1.72791 1.10168,-3.68775 1.10169,-1.95984 2.91077,-3.18909 1.42639,-0.98571 2.62085,-0.98571 0.62622,0 1.07849,0.25512 0.45227,0.25513 0.89295,0.84656 l 1.13647,-4.03564 q 0.12756,-0.42908 0.20874,-0.68421 0.13916,-0.46386 0.13916,-0.76538 0,-0.24353 -0.17395,-0.40588 -0.24353,-0.19715 -0.62622,-0.19715 -0.26672,0 -0.88135,0.0812 v -0.42908 z m -4.30237,8.23365 q 0,-0.74219 -0.42908,-1.19446 -0.42907,-0.45227 -1.09008,-0.45227 -1.46119,0 -3.04993,2.41211 -1.57715,2.41211 -1.57715,4.61547 0,0.86976 0.38269,1.33362 0.38269,0.45227 0.91614,0.45227 1.20605,0 3.02673,-2.60925 1.82068,-2.60925 1.82068,-4.55749 z"
         style="font-size:23.75px;line-height:1.25"
         id="path925" />
      <path
         d="m 639.30786,928.67432 -0.7074,3.56018 h -0.42907 q -0.058,-1.55396 -0.66101,-2.26136 -0.60303,-0.70739 -1.49598,-0.70739 -0.71899,0 -1.14807,0.39428 -0.41748,0.39429 -0.41748,0.95093 0,0.38269 0.16236,0.73059 0.17395,0.3479 0.74218,0.97412 1.50757,1.64673 1.94825,2.48169 0.44067,0.83496 0.44067,1.57715 0,1.20606 -1.00891,2.14539 -0.99732,0.92773 -2.52808,0.92773 -0.83496,0 -1.92505,-0.39429 -0.38269,-0.13916 -0.59143,-0.13916 -0.52185,0 -0.78857,0.53345 h -0.42908 l 0.7074,-3.75732 h 0.42908 q 0.0696,1.76269 0.73059,2.49328 0.66101,0.73059 1.80908,0.73059 0.88135,0 1.3916,-0.48706 0.52185,-0.49865 0.52185,-1.21765 0,-0.46386 -0.18555,-0.85815 -0.3247,-0.6958 -1.3684,-1.92505 -1.03211,-1.22925 -1.33362,-1.84387 -0.28992,-0.61463 -0.28992,-1.22925 0,-1.12488 0.81177,-1.90186 0.82336,-0.77697 2.11059,-0.77697 0.3711,0 0.67261,0.058 0.16235,0.0348 0.75379,0.26672 0.60302,0.22034 0.80017,0.22034 0.49865,0 0.83496,-0.54504 z"
         style="font-size:23.75px;line-height:1.25"
         id="path927" />
      <path
         d="m 644.09729,935.30762 h -0.44067 q 0.16235,-1.47278 0.70739,-2.53968 0.54505,-1.06689 2.13379,-2.74841 1.58875,-1.69311 2.099,-2.72522 0.3595,-0.73059 0.3595,-1.50757 0,-0.91613 -0.64942,-1.54236 -0.64941,-0.63781 -1.66992,-0.63781 -0.98571,0 -1.60034,0.41748 -0.3479,0.23193 -0.3479,0.56824 0,0.23193 0.18555,0.63781 0.19714,0.40589 0.19714,0.67261 0,0.39429 -0.27832,0.66101 -0.27832,0.26672 -0.6842,0.26672 -0.40589,0 -0.6958,-0.28991 -0.27832,-0.28992 -0.27832,-0.76538 0,-1.02051 0.98571,-1.85547 0.99732,-0.83496 2.71363,-0.83496 1.78589,0 2.87597,1.00891 1.10169,0.99731 1.10169,2.28454 0,1.03211 -0.51026,1.79749 -0.6726,0.99731 -2.55127,2.29614 -1.87866,1.28723 -2.58606,2.27295 -0.70739,0.98572 -1.06689,2.56287 z m -0.6958,1.86706 q 0.48706,0 0.83496,0.3479 0.3479,0.33631 0.3479,0.83496 0,0.48706 -0.3479,0.82337 -0.3479,0.3479 -0.83496,0.3479 -0.48706,0 -0.83496,-0.3479 -0.3479,-0.33631 -0.3479,-0.82337 0,-0.49865 0.3363,-0.83496 0.3479,-0.3479 0.84656,-0.3479 z"
         style="font-size:23.75px;line-height:1.25"
         id="path929" />
      <path
         d="m 303.21289,952.77222 -1.19446,13.08105 q -0.0928,0.91614 -0.0928,1.20606 0,0.46386 0.17395,0.70739 0.22034,0.33631 0.59143,0.49866 0.38269,0.16235 1.27563,0.16235 l -0.12756,0.42908 h -6.19263 l 0.12757,-0.42908 h 0.26672 q 0.75379,0 1.22925,-0.3247 0.3363,-0.22034 0.52185,-0.73059 0.12756,-0.3595 0.24353,-1.69312 l 0.18555,-1.99463 h -4.49951 l -1.60035,2.16858 q -0.54504,0.73059 -0.6842,1.0553 -0.13916,0.31311 -0.13916,0.59143 0,0.37109 0.30151,0.63782 0.30152,0.26672 0.99732,0.28991 l -0.12757,0.42908 h -4.65026 l 0.12756,-0.42908 q 0.85815,-0.0348 1.50757,-0.56823 0.66101,-0.54505 1.95984,-2.30774 l 9.39331,-12.77954 z m -2.29614,3.86169 -4.5575,6.20422 h 3.95447 z"
         style="font-size:23.75px;line-height:1.25"
         id="path931" />
      <path
         d="m 310.64636,958.36182 -1.50757,5.2301 q 1.00892,-1.84387 1.71631,-2.77161 1.10169,-1.43799 2.14539,-2.0874 0.61462,-0.37109 1.28723,-0.37109 0.57983,0 0.96252,0.37109 0.38269,0.37109 0.38269,0.95093 0,0.56824 -0.26672,1.48437 l -0.82336,2.94556 q 1.89026,-3.53699 3.58337,-4.96338 0.93933,-0.78857 1.85547,-0.78857 0.53345,0 0.86975,0.37109 0.3479,0.3595 0.3479,1.12488 0,0.67261 -0.20874,1.42639 l -1.27563,4.51111 q -0.41748,1.47278 -0.41748,1.63513 0,0.16235 0.10437,0.27832 0.0696,0.0812 0.18554,0.0812 0.11597,0 0.40589,-0.22034 0.66101,-0.51025 1.24084,-1.34521 l 0.38269,0.24353 q -0.28992,0.46386 -1.0321,1.27563 -0.73059,0.81177 -1.25244,1.10168 -0.52186,0.28992 -0.96253,0.28992 -0.40588,0 -0.6842,-0.27832 -0.26673,-0.27832 -0.26673,-0.6842 0,-0.55664 0.47547,-2.23816 l 1.05529,-3.72254 q 0.3595,-1.28723 0.3827,-1.42639 0.0348,-0.22033 0.0348,-0.42907 0,-0.28992 -0.12757,-0.45228 -0.13916,-0.16235 -0.31311,-0.16235 -0.48706,0 -1.0321,0.49866 -1.60034,1.47278 -2.99195,4.12842 -0.91613,1.7511 -1.7163,4.48791 h -1.7511 l 1.98303,-7.01599 q 0.32471,-1.13647 0.32471,-1.51916 0,-0.31312 -0.12757,-0.46387 -0.12756,-0.15076 -0.31311,-0.15076 -0.38269,0 -0.81177,0.27832 -0.6958,0.45227 -1.79748,1.93665 -1.09009,1.48437 -1.69312,2.84118 -0.28991,0.63782 -1.38,4.09363 h -1.71631 l 2.14539,-7.51465 0.27832,-0.97412 q 0.0812,-0.22033 0.0812,-0.32471 0,-0.25512 -0.23193,-0.45227 -0.23193,-0.20874 -0.59143,-0.20874 -0.15076,0 -0.83496,0.13916 l -0.10437,-0.42907 z"
         style="font-size:23.75px;line-height:1.25"
         id="path933" />
      <path
         d="m 329.51416,952.36633 -2.28455,8.01331 q 1.11329,-1.15967 1.93665,-1.58875 0.83496,-0.42907 1.7395,-0.42907 1.27564,0 2.0874,0.84655 0.81177,0.84656 0.81177,2.29615 0,1.86706 -1.06689,3.72253 -1.0669,1.84387 -2.67884,2.87598 -1.61193,1.0321 -3.17749,1.0321 -1.75109,0 -3.59497,-1.31042 l 3.52539,-12.14173 q 0.40589,-1.40319 0.40589,-1.64673 0,-0.30151 -0.18555,-0.45227 -0.26672,-0.20874 -0.78857,-0.20874 -0.24353,0 -0.74219,0.0812 v -0.44067 z m -4.48791,15.58594 q 1.15966,0.63782 2.04101,0.63782 1.02051,0 2.1106,-0.74219 1.10168,-0.75378 1.90185,-2.52808 0.81177,-1.77429 0.81177,-3.58337 0,-1.06689 -0.53345,-1.66992 -0.52185,-0.60303 -1.24084,-0.60303 -1.07849,0 -2.1106,0.86975 -1.0321,0.85816 -1.47278,2.40051 z"
         style="font-size:23.75px;line-height:1.25"
         id="path935" />
      <path
         d="m 339.8468,953.75793 q 0.48706,0 0.82337,0.33631 0.3363,0.3363 0.3363,0.82336 0,0.47547 -0.3479,0.82337 -0.3363,0.3363 -0.81177,0.3363 -0.47546,0 -0.82336,-0.3363 -0.33631,-0.3479 -0.33631,-0.82337 0,-0.48706 0.33631,-0.82336 0.3363,-0.33631 0.82336,-0.33631 z m 0.15076,4.60389 -2.29614,8.12927 q -0.23194,0.82336 -0.23194,0.98572 0,0.18554 0.10437,0.30151 0.11597,0.11597 0.26673,0.11597 0.17395,0 0.41748,-0.18555 0.66101,-0.52185 1.33361,-1.48437 l 0.40589,0.26672 q -0.78858,1.20605 -1.85547,2.02942 -0.78857,0.61462 -1.50757,0.61462 -0.47546,0 -0.77698,-0.27832 -0.30151,-0.28992 -0.30151,-0.71899 0,-0.42908 0.28992,-1.42639 l 1.50757,-5.19532 q 0.37109,-1.27563 0.37109,-1.60034 0,-0.25513 -0.18555,-0.41748 -0.17395,-0.16235 -0.48706,-0.16235 -0.25513,0 -1.0553,0.12756 v -0.45227 z"
         style="font-size:23.75px;line-height:1.25"
         id="path937" />
      <path
         d="m 353.49609,959.08081 -0.3363,1.20606 h -1.93665 q 0.22034,0.62622 0.22034,1.17126 0,1.53076 -1.29883,2.72522 -1.31042,1.19446 -3.59497,1.32202 -1.22925,0.37109 -1.84387,0.88135 -0.23193,0.18555 -0.23193,0.38269 0,0.23193 0.20874,0.42908 0.20874,0.18554 1.0553,0.38269 l 2.24975,0.52185 q 1.86707,0.44067 2.47009,1.0437 0.59143,0.61462 0.59143,1.41479 0,0.95093 -0.70739,1.73951 -0.6958,0.78857 -2.05262,1.22924 -1.34521,0.45227 -2.98034,0.45227 -1.43799,0 -2.62085,-0.3479 -1.18286,-0.3363 -1.69312,-0.91613 -0.51025,-0.57984 -0.51025,-1.19446 0,-0.49866 0.3363,-1.0437 0.32471,-0.53345 0.82337,-0.88135 0.31311,-0.22034 1.77429,-1.0437 -0.53345,-0.41748 -0.53345,-0.91614 0,-0.46387 0.46387,-0.98572 0.47546,-0.52185 1.99463,-1.14807 -1.27564,-0.24353 -2.02942,-1.06689 -0.74219,-0.82337 -0.74219,-1.83228 0,-1.64673 1.43799,-2.94556 1.44958,-1.29882 3.8501,-1.29882 0.86975,0 1.42639,0.17395 0.55664,0.17395 1.07849,0.54504 z m -4.02404,1.82068 q 0,-0.92774 -0.52185,-1.46118 -0.51026,-0.53345 -1.34522,-0.53345 -1.31042,0 -2.16858,1.32202 -0.84656,1.31043 -0.84656,2.73682 0,0.89294 0.54505,1.46118 0.54504,0.56824 1.32202,0.56824 0.61462,0 1.18286,-0.33631 0.57983,-0.3363 0.97412,-0.92773 0.39429,-0.59143 0.62622,-1.50757 0.23194,-0.91614 0.23194,-1.32202 z m -5.55481,7.95532 q -0.93933,0.42908 -1.4264,1.10169 -0.47546,0.6726 -0.47546,1.32202 0,0.76538 0.6958,1.26404 0.99732,0.71899 2.92236,0.71899 1.65833,0 2.82959,-0.56824 1.18287,-0.55664 1.18287,-1.44958 0,-0.45227 -0.44068,-0.85816 -0.42907,-0.40588 -1.68152,-0.66101 -0.6842,-0.13916 -3.60656,-0.86975 z"
         style="font-size:23.75px;line-height:1.25"
         id="path939" />
      <path
         d="m 364.17664,958.64014 -2.01783,6.91162 q -0.45227,1.54236 -0.45227,1.94824 0,0.20874 0.0696,0.31311 0.0812,0.0928 0.20874,0.0928 0.19715,0 0.42908,-0.17395 0.24353,-0.18554 1.20606,-1.43798 l 0.3479,0.26672 q -0.91614,1.44958 -1.87867,2.13379 -0.63781,0.44067 -1.22924,0.44067 -0.45228,0 -0.7074,-0.25513 -0.25513,-0.25512 -0.25513,-0.66101 0,-0.39428 0.15076,-1.0437 0.18554,-0.85815 1.0553,-3.73413 -1.97144,3.23548 -3.30506,4.46472 -1.32202,1.22925 -2.45849,1.22925 -0.53345,0 -0.90455,-0.37109 -0.37109,-0.3711 -0.37109,-0.93933 0,-0.86975 0.51025,-2.66724 l 1.00892,-3.58337 q 0.37109,-1.28723 0.37109,-1.60035 0,-0.13916 -0.10437,-0.23193 -0.0928,-0.10437 -0.20874,-0.10437 -0.24353,0 -0.48706,0.17395 -0.24353,0.17395 -1.10169,1.28723 l -0.35949,-0.25512 q 0.86975,-1.34522 1.84387,-1.98304 0.74219,-0.49865 1.36841,-0.49865 0.42907,0 0.6958,0.27832 0.27832,0.26672 0.27832,0.6958 0,0.62622 -0.46387,2.23816 l -1.09009,3.74572 q -0.45227,1.53077 -0.45227,1.93665 0,0.22034 0.13916,0.3595 0.15076,0.12756 0.39429,0.12756 0.38269,0 0.99731,-0.38269 0.61463,-0.38269 1.63514,-1.69312 1.0321,-1.32202 1.69311,-2.47009 0.67261,-1.15967 1.42639,-3.67615 l 0.25513,-0.88134 z"
         style="font-size:23.75px;line-height:1.25"
         id="path941" />
      <path
         d="m 370.18372,953.75793 q 0.48706,0 0.82336,0.33631 0.3363,0.3363 0.3363,0.82336 0,0.47547 -0.3479,0.82337 -0.3363,0.3363 -0.81176,0.3363 -0.47547,0 -0.82337,-0.3363 -0.3363,-0.3479 -0.3363,-0.82337 0,-0.48706 0.3363,-0.82336 0.33631,-0.33631 0.82337,-0.33631 z m 0.15075,4.60389 -2.29614,8.12927 q -0.23193,0.82336 -0.23193,0.98572 0,0.18554 0.10437,0.30151 0.11596,0.11597 0.26672,0.11597 0.17395,0 0.41748,-0.18555 0.66101,-0.52185 1.33362,-1.48437 l 0.40588,0.26672 q -0.78857,1.20605 -1.85547,2.02942 -0.78857,0.61462 -1.50756,0.61462 -0.47547,0 -0.77698,-0.27832 -0.30152,-0.28992 -0.30152,-0.71899 0,-0.42908 0.28992,-1.42639 l 1.50757,-5.19532 q 0.37109,-1.27563 0.37109,-1.60034 0,-0.25513 -0.18554,-0.41748 -0.17395,-0.16235 -0.48706,-0.16235 -0.25513,0 -1.0553,0.12756 v -0.45227 z"
         style="font-size:23.75px;line-height:1.25"
         id="path943" />
      <path
         d="m 377.62878,955.48584 -0.90454,3.1543 h 1.82068 l -0.19714,0.73059 h -1.80908 l -1.99463,6.84204 q -0.32471,1.10168 -0.32471,1.42639 0,0.19714 0.0928,0.30151 0.0928,0.10437 0.22034,0.10437 0.28992,0 0.76538,-0.40588 0.27832,-0.23193 1.24085,-1.42639 l 0.38269,0.28992 q -1.0669,1.55395 -2.01783,2.19177 -0.64941,0.44067 -1.31042,0.44067 -0.51025,0 -0.83496,-0.31311 -0.32471,-0.32471 -0.32471,-0.82336 0,-0.62622 0.3711,-1.91345 l 1.93664,-6.71448 h -1.7511 l 0.11597,-0.45227 q 1.27563,-0.3479 2.12219,-1.03211 0.84656,-0.6958 1.89026,-2.40051 z"
         style="font-size:23.75px;line-height:1.25"
         id="path945" />
      <path
         d="m 381.83838,958.36182 q 0.39429,0.6726 0.54504,1.26403 0.15076,0.57984 0.30152,2.29615 l 0.51025,5.70556 q 0.6958,-0.83496 2.01782,-2.64404 0.63782,-0.88135 1.57715,-2.40051 0.56824,-0.92774 0.6958,-1.29883 0.0696,-0.18555 0.0696,-0.38269 0,-0.12756 -0.0812,-0.20874 -0.0812,-0.0812 -0.42908,-0.18555 -0.33631,-0.11596 -0.56824,-0.40588 -0.22034,-0.30152 -0.22034,-0.68421 0,-0.47546 0.27832,-0.76538 0.27832,-0.28991 0.6958,-0.28991 0.51026,0 0.86976,0.42907 0.35949,0.41748 0.35949,1.15967 0,0.91614 -0.62622,2.099 -0.62622,1.17127 -2.41211,3.60657 -1.78589,2.4353 -4.32556,5.31128 -1.7511,1.98303 -2.59765,2.49328 -0.84656,0.52185 -1.44959,0.52185 -0.3595,0 -0.62622,-0.27832 -0.27832,-0.26672 -0.27832,-0.62622 0,-0.45227 0.38269,-0.82336 0.37109,-0.3711 0.81177,-0.3711 0.23193,0 0.38269,0.10438 0.0928,0.058 0.20874,0.3247 0.10437,0.27832 0.19714,0.3711 0.058,0.058 0.13916,0.058 0.0696,0 0.24353,-0.11597 0.63782,-0.39428 1.48438,-1.25244 1.11328,-1.13647 1.64673,-1.85547 l -0.64942,-7.35229 q -0.16235,-1.82068 -0.48706,-2.21497 -0.32471,-0.39429 -1.09009,-0.39429 -0.24353,0 -0.86975,0.0696 l -0.10437,-0.42907 z"
         style="font-size:23.75px;line-height:1.25"
         id="path947" />
      <path
         d="m 399.82483,953.75793 q 0.48706,0 0.82336,0.33631 0.33631,0.3363 0.33631,0.82336 0,0.47547 -0.3479,0.82337 -0.33631,0.3363 -0.81177,0.3363 -0.47546,0 -0.82337,-0.3363 -0.3363,-0.3479 -0.3363,-0.82337 0,-0.48706 0.3363,-0.82336 0.33631,-0.33631 0.82337,-0.33631 z m 0.15076,4.60389 -2.29615,8.12927 q -0.23193,0.82336 -0.23193,0.98572 0,0.18554 0.10437,0.30151 0.11597,0.11597 0.26672,0.11597 0.17395,0 0.41748,-0.18555 0.66101,-0.52185 1.33362,-1.48437 l 0.40589,0.26672 q -0.78858,1.20605 -1.85547,2.02942 -0.78858,0.61462 -1.50757,0.61462 -0.47547,0 -0.77698,-0.27832 -0.30151,-0.28992 -0.30151,-0.71899 0,-0.42908 0.28991,-1.42639 l 1.50757,-5.19532 q 0.3711,-1.27563 0.3711,-1.60034 0,-0.25513 -0.18555,-0.41748 -0.17395,-0.16235 -0.48706,-0.16235 -0.25513,0 -1.0553,0.12756 v -0.45227 z"
         style="font-size:23.75px;line-height:1.25"
         id="path949" />
      <path
         d="m 409.7168,958.36182 -0.7074,3.56018 h -0.42908 q -0.058,-1.55396 -0.66101,-2.26136 -0.60303,-0.70739 -1.49597,-0.70739 -0.71899,0 -1.14807,0.39428 -0.41748,0.39429 -0.41748,0.95093 0,0.38269 0.16235,0.73059 0.17395,0.3479 0.74219,0.97412 1.50757,1.64673 1.94824,2.48169 0.44068,0.83496 0.44068,1.57715 0,1.20606 -1.00892,2.14539 -0.99731,0.92773 -2.52807,0.92773 -0.83496,0 -1.92505,-0.39429 -0.38269,-0.13916 -0.59143,-0.13916 -0.52185,0 -0.78858,0.53345 h -0.42907 l 0.70739,-3.75732 h 0.42908 q 0.0696,1.76269 0.73059,2.49328 0.66101,0.73059 1.80908,0.73059 0.88135,0 1.39161,-0.48706 0.52185,-0.49865 0.52185,-1.21765 0,-0.46386 -0.18555,-0.85815 -0.32471,-0.6958 -1.36841,-1.92505 -1.0321,-1.22925 -1.33362,-1.84387 -0.28991,-0.61463 -0.28991,-1.22925 0,-1.12488 0.81176,-1.90186 0.82337,-0.77697 2.1106,-0.77697 0.37109,0 0.67261,0.058 0.16235,0.0348 0.75378,0.26672 0.60303,0.22034 0.80017,0.22034 0.49866,0 0.83496,-0.54504 z"
         style="font-size:23.75px;line-height:1.25"
         id="path951" />
      <path
         d="m 423.30811,958.64014 -0.20874,0.76538 h -1.69312 l -1.27563,5.06775 q -0.84656,3.35144 -1.70472,5.18371 -1.21765,2.58606 -2.62085,3.57178 -1.06689,0.75378 -2.13379,0.75378 -0.6958,0 -1.18286,-0.41748 -0.35949,-0.28991 -0.35949,-0.75378 0,-0.37109 0.30151,-0.64941 0.28992,-0.26673 0.71899,-0.26673 0.31311,0 0.53345,0.19715 0.20874,0.19714 0.20874,0.45227 0,0.25512 -0.24353,0.47546 -0.18555,0.16235 -0.18555,0.24353 0,0.10437 0.0812,0.16235 0.10437,0.0812 0.32471,0.0812 0.49866,0 1.0553,-0.31311 0.54504,-0.31311 0.97412,-0.93933 0.42907,-0.61463 0.81176,-1.78589 0.16236,-0.48706 0.86976,-3.21228 l 2.01782,-7.85095 h -2.01782 l 0.16235,-0.76538 q 0.96252,0 1.34521,-0.12757 0.38269,-0.13916 0.6958,-0.51025 0.32471,-0.38269 0.83497,-1.4148 0.6842,-1.3916 1.31042,-2.15698 0.85815,-1.0321 1.79749,-1.54236 0.95092,-0.52185 1.78588,-0.52185 0.88135,0 1.4148,0.45227 0.53345,0.44068 0.53345,0.96253 0,0.40588 -0.26673,0.6842 -0.26672,0.27832 -0.6842,0.27832 -0.3595,0 -0.59143,-0.20874 -0.22034,-0.20874 -0.22034,-0.49866 0,-0.18554 0.15076,-0.45227 0.15076,-0.27832 0.15076,-0.37109 0,-0.16235 -0.10437,-0.24353 -0.15076,-0.11597 -0.44068,-0.11597 -0.73059,0 -1.31042,0.46387 -0.77698,0.61462 -1.39161,1.92505 -0.31311,0.6842 -1.14807,3.39783 z"
         style="font-size:23.75px;line-height:1.25"
         id="path953" />
      <path
         d="m 434.03503,958.64014 -2.01782,6.91162 q -0.45227,1.54236 -0.45227,1.94824 0,0.20874 0.0696,0.31311 0.0812,0.0928 0.20874,0.0928 0.19715,0 0.42908,-0.17395 0.24353,-0.18554 1.20605,-1.43798 l 0.3479,0.26672 q -0.91613,1.44958 -1.87866,2.13379 -0.63782,0.44067 -1.22925,0.44067 -0.45227,0 -0.70739,-0.25513 -0.25513,-0.25512 -0.25513,-0.66101 0,-0.39428 0.15076,-1.0437 0.18554,-0.85815 1.05529,-3.73413 -1.97143,3.23548 -3.30505,4.46472 -1.32202,1.22925 -2.4585,1.22925 -0.53344,0 -0.90454,-0.37109 -0.37109,-0.3711 -0.37109,-0.93933 0,-0.86975 0.51025,-2.66724 l 1.00891,-3.58337 q 0.3711,-1.28723 0.3711,-1.60035 0,-0.13916 -0.10437,-0.23193 -0.0928,-0.10437 -0.20874,-0.10437 -0.24353,0 -0.48706,0.17395 -0.24353,0.17395 -1.10169,1.28723 l -0.35949,-0.25512 q 0.86975,-1.34522 1.84387,-1.98304 0.74219,-0.49865 1.36841,-0.49865 0.42907,0 0.6958,0.27832 0.27832,0.26672 0.27832,0.6958 0,0.62622 -0.46387,2.23816 l -1.09009,3.74572 q -0.45227,1.53077 -0.45227,1.93665 0,0.22034 0.13916,0.3595 0.15076,0.12756 0.39429,0.12756 0.38269,0 0.99731,-0.38269 0.61463,-0.38269 1.63514,-1.69312 1.0321,-1.32202 1.69311,-2.47009 0.67261,-1.15967 1.42639,-3.67615 l 0.25513,-0.88134 z"
         style="font-size:23.75px;line-height:1.25"
         id="path955" />
      <path
         d="m 439.97253,958.36182 -1.54235,5.27649 q 2.16857,-3.23548 3.31665,-4.25599 1.15966,-1.0205 2.22656,-1.0205 0.57983,0 0.95093,0.38269 0.38269,0.38269 0.38269,0.99731 0,0.6958 -0.33631,1.85547 l -1.41479,4.8822 q -0.24353,0.84656 -0.24353,1.03211 0,0.16235 0.0928,0.27832 0.0928,0.10437 0.19714,0.10437 0.13917,0 0.33631,-0.15076 0.61462,-0.48706 1.34521,-1.48437 l 0.3595,0.22033 q -1.07849,1.54236 -2.04102,2.20337 -0.6726,0.45227 -1.20605,0.45227 -0.42908,0 -0.6842,-0.26672 -0.25513,-0.25513 -0.25513,-0.6958 0,-0.55664 0.39429,-1.91345 l 1.34521,-4.66187 q 0.25513,-0.86975 0.25513,-1.35681 0,-0.23194 -0.15076,-0.3711 -0.15076,-0.15075 -0.37109,-0.15075 -0.32471,0 -0.77698,0.27832 -0.85815,0.52185 -1.78589,1.7279 -0.92773,1.19446 -1.95984,3.06153 -0.54504,0.98571 -0.90454,2.15698 l -0.57983,1.91345 h -1.7395 l 2.11059,-7.25952 q 0.37109,-1.31042 0.37109,-1.57715 0,-0.25513 -0.20874,-0.44067 -0.19714,-0.19715 -0.49865,-0.19715 -0.13916,0 -0.48706,0.0464 l -0.44068,0.0696 -0.0696,-0.41748 z"
         style="font-size:23.75px;line-height:1.25"
         id="path957" />
      <path
         d="m 451.84753,958.36182 -1.54235,5.27649 q 2.16857,-3.23548 3.31665,-4.25599 1.15966,-1.0205 2.22656,-1.0205 0.57983,0 0.95093,0.38269 0.38269,0.38269 0.38269,0.99731 0,0.6958 -0.33631,1.85547 l -1.41479,4.8822 q -0.24353,0.84656 -0.24353,1.03211 0,0.16235 0.0928,0.27832 0.0928,0.10437 0.19714,0.10437 0.13917,0 0.33631,-0.15076 0.61462,-0.48706 1.34521,-1.48437 l 0.3595,0.22033 q -1.07849,1.54236 -2.04102,2.20337 -0.6726,0.45227 -1.20605,0.45227 -0.42908,0 -0.6842,-0.26672 -0.25513,-0.25513 -0.25513,-0.6958 0,-0.55664 0.39429,-1.91345 l 1.34521,-4.66187 q 0.25513,-0.86975 0.25513,-1.35681 0,-0.23194 -0.15076,-0.3711 -0.15076,-0.15075 -0.37109,-0.15075 -0.32471,0 -0.77698,0.27832 -0.85815,0.52185 -1.78589,1.7279 -0.92773,1.19446 -1.95984,3.06153 -0.54504,0.98571 -0.90454,2.15698 l -0.57983,1.91345 h -1.7395 l 2.11059,-7.25952 q 0.37109,-1.31042 0.37109,-1.57715 0,-0.25513 -0.20874,-0.44067 -0.19714,-0.19715 -0.49865,-0.19715 -0.13916,0 -0.48706,0.0464 l -0.44068,0.0696 -0.0696,-0.41748 z"
         style="font-size:23.75px;line-height:1.25"
         id="path959" />
      <path
         d="m 462.27295,958.36182 q 0.39429,0.6726 0.54504,1.26403 0.15076,0.57984 0.30152,2.29615 l 0.51025,5.70556 q 0.6958,-0.83496 2.01782,-2.64404 0.63782,-0.88135 1.57715,-2.40051 0.56824,-0.92774 0.6958,-1.29883 0.0696,-0.18555 0.0696,-0.38269 0,-0.12756 -0.0812,-0.20874 -0.0812,-0.0812 -0.42908,-0.18555 -0.33631,-0.11596 -0.56824,-0.40588 -0.22034,-0.30152 -0.22034,-0.68421 0,-0.47546 0.27832,-0.76538 0.27832,-0.28991 0.69581,-0.28991 0.51025,0 0.86975,0.42907 0.35949,0.41748 0.35949,1.15967 0,0.91614 -0.62622,2.099 -0.62622,1.17127 -2.41211,3.60657 -1.78589,2.4353 -4.32556,5.31128 -1.7511,1.98303 -2.59765,2.49328 -0.84656,0.52185 -1.44959,0.52185 -0.3595,0 -0.62622,-0.27832 -0.27832,-0.26672 -0.27832,-0.62622 0,-0.45227 0.38269,-0.82336 0.37109,-0.3711 0.81177,-0.3711 0.23193,0 0.38269,0.10438 0.0928,0.058 0.20874,0.3247 0.10437,0.27832 0.19714,0.3711 0.058,0.058 0.13916,0.058 0.0696,0 0.24353,-0.11597 0.63782,-0.39428 1.48438,-1.25244 1.11328,-1.13647 1.64673,-1.85547 l -0.64942,-7.35229 q -0.16235,-1.82068 -0.48706,-2.21497 -0.32471,-0.39429 -1.09009,-0.39429 -0.24353,0 -0.86975,0.0696 l -0.10437,-0.42907 z"
         style="font-size:23.75px;line-height:1.25"
         id="path961" />
      <path
         d="m 467.46826,971.46606 q 0.86975,-0.39428 1.4148,-0.99731 0.41748,-0.46387 0.41748,-0.89294 0,-0.20874 -0.0696,-0.38269 -0.0464,-0.0928 -0.32471,-0.3711 -0.27832,-0.27832 -0.31311,-0.38269 -0.0812,-0.19714 -0.0812,-0.45227 0,-0.49866 0.33631,-0.85815 0.3479,-0.3595 0.81176,-0.3595 0.47547,0 0.83497,0.38269 0.37109,0.38269 0.37109,0.96252 0,1.03211 -0.81177,2.08741 -0.81177,1.05529 -2.35412,1.63513 z"
         style="font-size:23.75px;line-height:1.25"
         id="path963" />
      <path
         d="m 480.82764,959.01123 4.00085,-0.64941 -1.66992,5.63598 q 2.02942,-3.4674 3.68774,-4.84741 0.93933,-0.78857 1.53077,-0.78857 0.38269,0 0.60302,0.23193 0.22034,0.22034 0.22034,0.64941 0,0.76538 -0.39429,1.46119 -0.27832,0.52185 -0.80017,0.52185 -0.26672,0 -0.46387,-0.17395 -0.18554,-0.17395 -0.23193,-0.53345 -0.0232,-0.22034 -0.10437,-0.28992 -0.0928,-0.0928 -0.22034,-0.0928 -0.19714,0 -0.37109,0.0928 -0.30151,0.16236 -0.91614,0.90454 -0.96252,1.13648 -2.0874,2.94556 -0.48706,0.76538 -0.83496,1.7279 -0.48706,1.32203 -0.55664,1.58875 l -0.3711,1.46118 h -1.77429 l 2.14539,-7.20154 q 0.37109,-1.25244 0.37109,-1.78589 0,-0.20874 -0.17395,-0.3479 -0.23193,-0.18554 -0.61462,-0.18554 -0.24353,0 -0.89295,0.10437 z"
         style="font-size:23.75px;line-height:1.25"
         id="path965" />
      <path
         d="m 494.12903,953.75793 q 0.48706,0 0.82336,0.33631 0.33631,0.3363 0.33631,0.82336 0,0.47547 -0.3479,0.82337 -0.33631,0.3363 -0.81177,0.3363 -0.47547,0 -0.82337,-0.3363 -0.3363,-0.3479 -0.3363,-0.82337 0,-0.48706 0.3363,-0.82336 0.33631,-0.33631 0.82337,-0.33631 z m 0.15076,4.60389 -2.29615,8.12927 q -0.23193,0.82336 -0.23193,0.98572 0,0.18554 0.10437,0.30151 0.11597,0.11597 0.26672,0.11597 0.17395,0 0.41748,-0.18555 0.66101,-0.52185 1.33362,-1.48437 l 0.40589,0.26672 q -0.78858,1.20605 -1.85547,2.02942 -0.78858,0.61462 -1.50757,0.61462 -0.47547,0 -0.77698,-0.27832 -0.30151,-0.28992 -0.30151,-0.71899 0,-0.42908 0.28991,-1.42639 l 1.50757,-5.19532 q 0.3711,-1.27563 0.3711,-1.60034 0,-0.25513 -0.18555,-0.41748 -0.17395,-0.16235 -0.48706,-0.16235 -0.25513,0 -1.0553,0.12756 v -0.45227 z"
         style="font-size:23.75px;line-height:1.25"
         id="path967" />
      <path
         d="m 507.77832,959.08081 -0.3363,1.20606 h -1.93665 q 0.22034,0.62622 0.22034,1.17126 0,1.53076 -1.29883,2.72522 -1.31042,1.19446 -3.59497,1.32202 -1.22925,0.37109 -1.84387,0.88135 -0.23194,0.18555 -0.23194,0.38269 0,0.23193 0.20874,0.42908 0.20874,0.18554 1.0553,0.38269 l 2.24976,0.52185 q 1.86706,0.44067 2.47009,1.0437 0.59143,0.61462 0.59143,1.41479 0,0.95093 -0.7074,1.73951 -0.6958,0.78857 -2.05261,1.22924 -1.34521,0.45227 -2.98035,0.45227 -1.43798,0 -2.62085,-0.3479 -1.18286,-0.3363 -1.69311,-0.91613 -0.51025,-0.57984 -0.51025,-1.19446 0,-0.49866 0.3363,-1.0437 0.32471,-0.53345 0.82336,-0.88135 0.31311,-0.22034 1.7743,-1.0437 -0.53345,-0.41748 -0.53345,-0.91614 0,-0.46387 0.46387,-0.98572 0.47546,-0.52185 1.99462,-1.14807 -1.27563,-0.24353 -2.02941,-1.06689 -0.74219,-0.82337 -0.74219,-1.83228 0,-1.64673 1.43799,-2.94556 1.44958,-1.29882 3.85009,-1.29882 0.86975,0 1.4264,0.17395 0.55664,0.17395 1.07849,0.54504 z m -4.02405,1.82068 q 0,-0.92774 -0.52185,-1.46118 -0.51025,-0.53345 -1.34521,-0.53345 -1.31043,0 -2.16858,1.32202 -0.84656,1.31043 -0.84656,2.73682 0,0.89294 0.54504,1.46118 0.54505,0.56824 1.32203,0.56824 0.61462,0 1.18286,-0.33631 0.57983,-0.3363 0.97412,-0.92773 0.39429,-0.59143 0.62622,-1.50757 0.23193,-0.91614 0.23193,-1.32202 z m -5.55481,7.95532 q -0.93933,0.42908 -1.42639,1.10169 -0.47546,0.6726 -0.47546,1.32202 0,0.76538 0.6958,1.26404 0.99731,0.71899 2.92236,0.71899 1.65833,0 2.82959,-0.56824 1.18286,-0.55664 1.18286,-1.44958 0,-0.45227 -0.44067,-0.85816 -0.42908,-0.40588 -1.68152,-0.66101 -0.6842,-0.13916 -3.60657,-0.86975 z"
         style="font-size:23.75px;line-height:1.25"
         id="path969" />
      <path
         d="m 514.24927,952.36633 -3.25867,11.26038 q 2.1106,-3.17749 3.29346,-4.22119 1.18286,-1.0437 2.26135,-1.0437 0.55664,0 0.92773,0.38269 0.3711,0.38269 0.3711,1.0205 0,0.76539 -0.32471,1.85547 l -1.41479,4.85901 q -0.26673,0.88135 -0.26673,0.97412 0,0.16236 0.0928,0.26673 0.10437,0.10437 0.23193,0.10437 0.15076,0 0.3479,-0.15076 0.66101,-0.51025 1.31042,-1.41479 l 0.3595,0.22033 q -0.39429,0.61463 -1.10168,1.35681 -0.6958,0.73059 -1.20606,1.02051 -0.49865,0.27832 -0.89294,0.27832 -0.42908,0 -0.7074,-0.27832 -0.26672,-0.26672 -0.26672,-0.6958 0,-0.51025 0.40588,-1.90185 l 1.33362,-4.63868 q 0.25513,-0.86975 0.25513,-1.3684 0,-0.23194 -0.15076,-0.3711 -0.13916,-0.13916 -0.37109,-0.13916 -0.33631,0 -0.76539,0.25513 -0.78857,0.48706 -1.82067,1.80908 -0.27832,0.3595 -1.85547,2.89917 -0.48706,0.81177 -0.80017,1.77429 l -0.74219,2.37732 h -1.7395 l 3.8153,-13.2666 0.40589,-1.43799 q 0,-0.30151 -0.25513,-0.53345 -0.24353,-0.23193 -0.60303,-0.23193 -0.20874,0 -0.63781,0.0696 l -0.24353,0.0348 v -0.45227 z"
         style="font-size:23.75px;line-height:1.25"
         id="path971" />
      <path
         d="m 525.3241,955.48584 -0.90454,3.1543 h 1.82067 l -0.19714,0.73059 h -1.80908 l -1.99463,6.84204 q -0.32471,1.10168 -0.32471,1.42639 0,0.19714 0.0928,0.30151 0.0928,0.10437 0.22033,0.10437 0.28992,0 0.76538,-0.40588 0.27832,-0.23193 1.24085,-1.42639 l 0.38269,0.28992 q -1.0669,1.55395 -2.01782,2.19177 -0.64942,0.44067 -1.31043,0.44067 -0.51025,0 -0.83496,-0.31311 -0.32471,-0.32471 -0.32471,-0.82336 0,-0.62622 0.3711,-1.91345 l 1.93664,-6.71448 h -1.7511 l 0.11597,-0.45227 q 1.27564,-0.3479 2.12219,-1.03211 0.84656,-0.6958 1.89026,-2.40051 z"
         style="font-size:23.75px;line-height:1.25"
         id="path973" />
      <path
         d="m 529.91638,964.99512 h -0.44067 q 0.16235,-1.47278 0.7074,-2.53968 0.54504,-1.06689 2.13378,-2.74841 1.58875,-1.69311 2.099,-2.72522 0.3595,-0.73059 0.3595,-1.50757 0,-0.91613 -0.64941,-1.54236 -0.64942,-0.63781 -1.66993,-0.63781 -0.98571,0 -1.60034,0.41748 -0.3479,0.23193 -0.3479,0.56824 0,0.23193 0.18555,0.63781 0.19714,0.40589 0.19714,0.67261 0,0.39429 -0.27832,0.66101 -0.27832,0.26672 -0.6842,0.26672 -0.40589,0 -0.6958,-0.28991 -0.27832,-0.28992 -0.27832,-0.76538 0,-1.02051 0.98572,-1.85547 0.99731,-0.83496 2.71362,-0.83496 1.78589,0 2.87597,1.00891 1.10169,0.99731 1.10169,2.28454 0,1.03211 -0.51025,1.79749 -0.67261,0.99731 -2.55127,2.29614 -1.87867,1.28723 -2.58606,2.27295 -0.7074,0.98572 -1.0669,2.56287 z m -0.6958,1.86706 q 0.48706,0 0.83496,0.3479 0.3479,0.33631 0.3479,0.83496 0,0.48706 -0.3479,0.82337 -0.3479,0.3479 -0.83496,0.3479 -0.48706,0 -0.83496,-0.3479 -0.3479,-0.33631 -0.3479,-0.82337 0,-0.49865 0.3363,-0.83496 0.3479,-0.3479 0.84656,-0.3479 z"
         style="font-size:23.75px;line-height:1.25"
         id="path975" />
    </g>
    <text
       xml:space="preserve"
       style="font-style:normal;font-variant:normal;font-weight:normal;font-stretch:normal;font-size:13.63230515px;line-height:0%;font-family:'Archivo Narrow';-inkscape-font-specification:'Archivo Narrow';text-align:center;letter-spacing:0px;word-spacing:0px;writing-mode:lr-tb;text-anchor:middle;opacity:1;fill:#000000;fill-opacity:1;stroke:#000000;stroke-width:0.99999988px;stroke-linecap:butt;stroke-linejoin:miter;stroke-opacity:1"
       x="458.34708"
       y="141.33792"
       id="text4875"
       transform="scale(0.89932264,1.111948)"><tspan
         sodipodi:role="line"
         id="tspan4877"
         x="458.34708"
         y="141.33792"
         style="font-style:normal;font-variant:normal;font-weight:normal;font-stretch:normal;font-size:39.50367355px;line-height:1.25;font-family:'Archivo Narrow';-inkscape-font-specification:'Archivo Narrow';stroke-width:0.99999988px">Play 2</tspan></text>
    <g
       id="g846"
       transform="translate(1.90154)">
      <path
         inkscape:connector-curvature="0"
         id="path840"
         d="M 104.80542,-138.97038 V 1106.7549"
         style="fill:none;stroke:#000000;stroke-width:1px;stroke-linecap:butt;stroke-linejoin:miter;stroke-opacity:1" />
      <path
         inkscape:connector-curvature="0"
         id="path842"
         d="M 716.3915,-148.25694 V 1092.1617"
         style="fill:none;stroke:#000000;stroke-width:1px;stroke-linecap:butt;stroke-linejoin:miter;stroke-opacity:1" />
    </g>
    <path
       style="fill:none;stroke:#000000;stroke-width:1px;stroke-linecap:butt;stroke-linejoin:miter;stroke-opacity:1"
       d="M 106.82874,759.32181 H 717.71816"
       id="path848"
       inkscape:connector-curvature="0"
       sodipodi:nodetypes="cc" />
    <path
       sodipodi:nodetypes="cc"
       inkscape:connector-curvature="0"
       id="path852"
       d="M 106.82874,646.9987 H 717.71816"
       style="fill:none;stroke:#000000;stroke-width:1px;stroke-linecap:butt;stroke-linejoin:miter;stroke-opacity:1" />
    <path
       style="fill:none;stroke:#000000;stroke-width:1px;stroke-linecap:butt;stroke-linejoin:miter;stroke-opacity:1"
       d="M 106.82874,534.67559 H 717.71816"
       id="path854"
       inkscape:connector-curvature="0"
       sodipodi:nodetypes="cc" />
    <path
       sodipodi:nodetypes="cc"
       inkscape:connector-curvature="0"
       id="path856"
       d="M 106.82874,422.35248 H 717.71816"
       style="fill:none;stroke:#000000;stroke-width:1px;stroke-linecap:butt;stroke-linejoin:miter;stroke-opacity:1" />
    <path
       style="fill:none;stroke:#000000;stroke-width:1px;stroke-linecap:butt;stroke-linejoin:miter;stroke-opacity:1"
       d="M 106.82874,310.02932 H 717.71816"
       id="path858"
       inkscape:connector-curvature="0"
       sodipodi:nodetypes="cc" />
    <g
       id="g904"
       transform="translate(0,41.275691)">
      <path
         style="fill:none;stroke:#000000;stroke-width:1px;stroke-linecap:butt;stroke-linejoin:miter;stroke-opacity:1"
         d="M 106.82874,156.4306 H 717.71816"
         id="path860"
         inkscape:connector-curvature="0"
         sodipodi:nodetypes="cc" />
      <path
         sodipodi:nodetypes="cc"
         inkscape:connector-curvature="0"
         id="path862"
         d="M 106.82874,44.10745 H 717.71816"
         style="fill:none;stroke:#000000;stroke-width:1px;stroke-linecap:butt;stroke-linejoin:miter;stroke-opacity:1" />
    </g>
    <text
       transform="scale(0.89988848,1.1112488)"
       id="text866"
       y="756.91626"
       x="129.28879"
       style="font-style:normal;font-variant:normal;font-weight:normal;font-stretch:normal;font-size:10.07556248px;line-height:0%;font-family:'Archivo Narrow';-inkscape-font-specification:'Archivo Narrow';text-align:start;letter-spacing:0px;word-spacing:0px;writing-mode:lr-tb;text-anchor:start;opacity:1;fill:#000000;fill-opacity:1;stroke:#000000;stroke-width:0.99999988px;stroke-linecap:butt;stroke-linejoin:miter;stroke-opacity:1"
       xml:space="preserve"><tspan
         style="font-style:normal;font-variant:normal;font-weight:normal;font-stretch:normal;font-size:29.19694901px;line-height:1.25;font-family:'Archivo Narrow';-inkscape-font-specification:'Archivo Narrow';text-align:start;text-anchor:start;stroke-width:0.99999988px"
         y="756.91626"
         x="129.28879"
         sodipodi:role="line"
         id="tspan878">Draw: Deal a face-down special to hand</tspan><tspan
         style="font-style:normal;font-variant:normal;font-weight:normal;font-stretch:normal;font-size:29.19694901px;line-height:1.25;font-family:'Archivo Narrow';-inkscape-font-specification:'Archivo Narrow';text-align:start;text-anchor:start;stroke-width:0.99999988px"
         y="793.41248"
         x="129.28879"
         sodipodi:role="line"
         id="tspan995">Play 1: Play a Special from your hand as if it were an action</tspan></text>
    <text
       xml:space="preserve"
       style="font-style:normal;font-variant:normal;font-weight:normal;font-stretch:normal;font-size:13.63230515px;line-height:0%;font-family:'Archivo Narrow';-inkscape-font-specification:'Archivo Narrow';text-align:center;letter-spacing:0px;word-spacing:0px;writing-mode:lr-tb;text-anchor:middle;opacity:1;fill:#000000;fill-opacity:1;stroke:#000000;stroke-width:0.99999988px;stroke-linecap:butt;stroke-linejoin:miter;stroke-opacity:1"
       x="458.34708"
       y="242.64088"
       id="text991"
       transform="scale(0.89932264,1.111948)"><tspan
         sodipodi:role="line"
         id="tspan989"
         x="458.34708"
         y="242.64088"
         style="font-style:normal;font-variant:normal;font-weight:normal;font-stretch:normal;font-size:39.50367355px;line-height:1.25;font-family:'Archivo Narrow';-inkscape-font-specification:'Archivo Narrow';stroke-width:0.99999988px">Draw 2, Play 1</tspan></text>
    <text
       xml:space="preserve"
       style="font-style:normal;font-variant:normal;font-weight:normal;font-stretch:normal;font-size:10.07556248px;line-height:0%;font-family:'Archivo Narrow';-inkscape-font-specification:'Archivo Narrow';text-align:start;letter-spacing:0px;word-spacing:0px;writing-mode:lr-tb;text-anchor:start;opacity:1;fill:#000000;fill-opacity:1;stroke:#000000;stroke-width:0.99999988px;stroke-linecap:butt;stroke-linejoin:miter;stroke-opacity:1"
       x="275.45847"
       y="707.95441"
       id="text1003"
       transform="scale(0.89988848,1.1112488)"><tspan
         id="tspan1001"
         sodipodi:role="line"
         x="275.45847"
         y="707.95441"
         style="font-style:normal;font-variant:normal;font-weight:normal;font-stretch:normal;font-size:29.19694901px;line-height:1.25;font-family:'Archivo Narrow';-inkscape-font-specification:'Archivo Narrow';text-align:start;text-anchor:start;stroke-width:0.99999988px">Do these once upon taking the rung</tspan></text>
  </g>
</svg>
