<?xml version="1.0" encoding="UTF-8" standalone="no"?>
<!-- Created with Inkscape (http://www.inkscape.org/) -->

<svg
   xmlns:dc="http://purl.org/dc/elements/1.1/"
   xmlns:cc="http://creativecommons.org/ns#"
   xmlns:rdf="http://www.w3.org/1999/02/22-rdf-syntax-ns#"
   xmlns:svg="http://www.w3.org/2000/svg"
   xmlns="http://www.w3.org/2000/svg"
   xmlns:sodipodi="http://sodipodi.sourceforge.net/DTD/sodipodi-0.dtd"
   xmlns:inkscape="http://www.inkscape.org/namespaces/inkscape"
   width="100"
   height="100"
   id="svg2"
   version="1.1"
   inkscape:version="0.91 r13725"
   sodipodi:docname="vp-drawn.svg">
  <sodipodi:namedview
     id="base"
     pagecolor="#ffffff"
     bordercolor="#666666"
     borderopacity="1.0"
     inkscape:pageopacity="0.0"
     inkscape:pageshadow="2"
     inkscape:zoom="16"
     inkscape:cx="30.186543"
     inkscape:cy="4.9195993"
     inkscape:document-units="px"
     inkscape:current-layer="layer1"
     showgrid="false"
     inkscape:window-width="1920"
     inkscape:window-height="1017"
     inkscape:window-x="-8"
     inkscape:window-y="-8"
     inkscape:window-maximized="1"
     showguides="true"
     inkscape:guide-bbox="true"
     inkscape:snap-page="true"
     inkscape:snap-grids="true"
     inkscape:snap-to-guides="true" />
  <defs
     id="defs4">
    <inkscape:path-effect
       effect="vonkoch"
       id="path-effect5904"
       is_visible="true"
       ref_path="m 0.35355341,1002.4315 99.49999959,0"
       generator="m 0.35355341,1052.3241 33.16666659,0 m 33.166666,0 33.166667,0"
       similar_only="false"
       nbgenerations="1"
       drawall="true"
       maxComplexity="1000" />
  </defs>
  <metadata
     id="metadata7">
    <rdf:RDF>
      <cc:Work
         rdf:about="">
        <dc:format>image/svg+xml</dc:format>
        <dc:type
           rdf:resource="http://purl.org/dc/dcmitype/StillImage" />
        <dc:title />
      </cc:Work>
    </rdf:RDF>
  </metadata>
  <g
     inkscape:label="Layer 1"
     inkscape:groupmode="layer"
     id="layer1"
     transform="translate(0,-952.36218)">
    <path
       style="fill:#000000;fill-opacity:1;stroke:none;stroke-width:2.06814361;stroke-linecap:round;stroke-linejoin:round;stroke-miterlimit:4;stroke-dasharray:none;stroke-opacity:1"
       d="m 1.5356479,954.10319 c -0.202426,3.72818 0.3457066,6.27646 0.1620052,9.72572 0.5609976,3.36154 0.4707298,6.70694 0.7689446,9.43128 0.5018789,3.68866 0.4241897,6.29886 0.7021978,9.76896 -0.00145,3.67273 0.4408237,6.5318 0.5613039,9.82269 0.7975805,3.02974 1.6230188,6.19629 2.3042643,9.57036 0.9161496,2.9002 2.3262521,6.3843 3.3725167,8.8931 1.0674306,2.7407 2.3453476,6.7333 3.9400986,9.0735 1.501498,2.4378 3.332672,5.0845 5.442381,7.97 1.629835,2.6618 4.288042,4.7772 7.113389,6.7235 2.213455,2.4576 3.463083,4.1497 6.667221,5.983 2.811564,1.4812 5.013905,3.1442 8.100931,5.2444 2.59322,1.1996 5.262345,3.5767 8.44783,4.81 0.168176,0.073 7.481362,-3.3849 9.802307,-5.0642 3.38127,-1.7473 5.309803,-3.6364 7.343686,-5.3765 2.315054,-2.1383 4.981235,-3.1642 7.752204,-5.3798 2.246535,-2.5616 4.321058,-4.8455 6.592276,-7.6191 2.196122,-2.1167 4.522181,-5.5724 5.95254,-8.0327 1.976505,-2.4882 3.107047,-5.652 4.627324,-8.4522 0.718093,-3.088 1.072589,-6.2489 2.015915,-9.1531 0.674438,-2.60616 2.69488,-5.74837 2.925064,-9.40808 0.872815,-3.2953 0.498458,-6.2397 1.267901,-9.80862 0.03078,-2.75738 -0.398672,-5.97915 -0.21918,-9.76343 0.361612,-2.74261 0.74365,-5.70564 1.18336,-9.34945 0.399456,-2.82881 -0.171289,-7.29545 0.03941,-10.31615 -2.789924,0.83819 -5.554279,1.91072 -8.690575,2.12323 -2.89557,0.22914 -4.222772,1.53314 -7.359752,1.64303 -2.591917,-0.0251 -5.084725,-0.27683 -8.254268,0.22329 -2.569416,-0.11223 -5.79817,1.50855 -8.133179,1.47667 -3.102417,-0.0122 -5.00702,-0.50046 -8.189688,-0.32108 -2.289046,0.28132 -5.04558,0.45363 -8.005243,0.13758 -3.147142,0.11988 -6.05232,0.20239 -8.406705,0.38665 -2.677294,-0.49776 -5.782575,-0.38081 -8.183307,-0.86383 -3.003685,-0.48096 -5.067892,-0.0987 -7.335992,-0.14429 -2.689033,0.13721 -5.810508,-0.85633 -8.524952,-0.83767 -2.924938,-0.0351 -5.460513,-0.51062 -7.7957861,-1.31959 -2.2992053,-0.79243 -4.9462501,-1.39347 -7.6590587,-2.47067 0.3918559,0.23073 -0.72787,-0.2515 -0.7859009,0.13673 m 94.9486677,3.68144 c -0.233259,2.77429 -1.122236,6.15398 -0.793522,8.87065 -0.07709,2.7326 -0.539925,5.6574 -0.285731,8.47513 -0.195049,2.7327 -0.02497,6.81097 -0.232113,9.31353 -0.03865,2.86097 -2.146139,5.6905 -2.4706,8.84763 -0.637099,2.67303 -0.237207,5.8313 -1.54114,8.456 -1.283204,2.7194 -1.470137,6.1793 -2.970394,8.5587 -0.813158,3.0055 -3.751356,5.4162 -4.804645,7.9131 -2.034945,2.7116 -3.753018,4.8311 -5.373141,7.4602 -1.495271,2.5214 -2.999158,4.2856 -5.711345,6.3488 -2.600779,2.1282 -5.107937,4.1029 -7.391834,6.3014 -1.858633,1.6455 -4.624293,3.9819 -7.058957,5.2513 -2.208994,1.8556 -5.599095,1.9974 -8.037502,3.7642 -0.466986,-0.1988 -6.70125,-3.8724 -8.776599,-4.8422 -2.773062,-1.3983 -5.364683,-3.3702 -7.943301,-4.9053 -2.594437,-2.4362 -4.332776,-4.6894 -6.509361,-6.5465 -2.300392,-1.9445 -3.980792,-4.794 -6.178065,-7.6972 -1.511873,-2.3291 -3.62591,-5.1374 -5.075279,-8.4788 -1.263436,-2.4344 -2.678575,-5.0292 -3.591561,-8.5834 -0.542728,-2.78 -2.4388881,-5.96422 -2.6782881,-9.21451 -1.0152553,-3.28724 -1.4187719,-7.02108 -2.2791433,-10.17221 -0.1485229,-2.74077 -0.056975,-6.58751 -0.7097695,-9.74399 0.044818,-3.41742 -0.4662269,-5.60237 -0.10703,-9.08733 0.3046144,-2.89584 -0.5405796,-6.57481 -0.083899,-10.07526 2.0448301,0.81921 4.8899969,1.21844 7.8300609,2.07565 2.871402,0.88004 6.26087,0.31643 9.057994,1.0252 2.71367,0.749 5.736708,1.25266 8.776027,1.1456 2.799635,0.64296 6.059726,0.6567 9.236208,0.46134 2.960364,0.5438 6.232818,0.61865 9.494098,0.87375 3.107916,-0.37421 5.403555,0.23941 8.581695,-0.35786 2.633269,-0.015 6.418839,-0.50726 9.271919,-1.17005 2.700468,-0.18629 5.80575,-0.84404 9.28526,-1.17162 3.374953,-0.0976 7.679299,-1.0297 10.074783,-1.67058 3.979485,-0.75267 6.436804,-1.85053 8.969391,-2.1296"
       id="path3767"
       inkscape:connector-curvature="0"
       sodipodi:nodetypes="cccccccccccccccccccccccccccccccccccccccccccccccccccccccccccccccccccccccc" />
  </g>
</svg>
