<?xml version="1.0" encoding="UTF-8" standalone="no"?>
<!-- Created with Inkscape (http://www.inkscape.org/) -->

<svg
   xmlns:dc="http://purl.org/dc/elements/1.1/"
   xmlns:cc="http://creativecommons.org/ns#"
   xmlns:rdf="http://www.w3.org/1999/02/22-rdf-syntax-ns#"
   xmlns:svg="http://www.w3.org/2000/svg"
   xmlns="http://www.w3.org/2000/svg"
   xmlns:sodipodi="http://sodipodi.sourceforge.net/DTD/sodipodi-0.dtd"
   xmlns:inkscape="http://www.inkscape.org/namespaces/inkscape"
   width="100"
   height="100"
   viewBox="0 0 100 100"
   id="svg5392"
   version="1.1"
   inkscape:version="0.91 r13725"
   sodipodi:docname="wild boar.svg">
  <defs
     id="defs5394" />
  <sodipodi:namedview
     id="base"
     pagecolor="#ffffff"
     bordercolor="#666666"
     borderopacity="1.0"
     inkscape:pageopacity="0.0"
     inkscape:pageshadow="2"
     inkscape:zoom="3.959798"
     inkscape:cx="28.56485"
     inkscape:cy="7.3473538"
     inkscape:document-units="px"
     inkscape:current-layer="layer1"
     showgrid="false"
     units="px"
     inkscape:window-width="1920"
     inkscape:window-height="1017"
     inkscape:window-x="-8"
     inkscape:window-y="-8"
     inkscape:window-maximized="1" />
  <metadata
     id="metadata5397">
    <rdf:RDF>
      <cc:Work
         rdf:about="">
        <dc:format>image/svg+xml</dc:format>
        <dc:type
           rdf:resource="http://purl.org/dc/dcmitype/StillImage" />
        <dc:title></dc:title>
      </cc:Work>
    </rdf:RDF>
  </metadata>
  <g
     inkscape:label="Layer 1"
     inkscape:groupmode="layer"
     id="layer1"
     transform="translate(0,-952.36216)">
    <path
       inkscape:connector-curvature="0"
       style="opacity:1;fill:#000000;stroke:none;stroke-width:1.5;stroke-linejoin:round;stroke-miterlimit:4;stroke-dasharray:none;stroke-opacity:1;fill-opacity:1"
       d="m 42.197307,1016.7722 c -0.04694,3.0346 0.100794,6.3612 0.529681,10.1096 -1.907836,0.6718 -3.712487,0.9824 -5.147721,0 -1.708982,-2.8842 -2.814314,-6.5734 -3.817632,-10.3985 z m 29.536621,0.063 -0.06669,0.8219 c 0.29686,3.2093 1.783489,6.2394 3.560638,9.2258 1.492377,1.0582 3.136678,0.5972 4.7946,0 -0.645873,-3.4799 -2.011362,-6.8158 -1.11037,-10.6051 -2.378588,0.3144 -4.773791,0.5005 -7.174245,0.5574 z m 6.43269,-30.7927 c 0.857578,-0.0105 1.713217,-0.0808 2.560129,-0.21019 10.044334,-1.43003 7.158551,-9.30084 7.158551,-9.30084 0,0 -7.917761,1.68902 -10.364106,4.39519 0.0039,0 -5.516537,5.11584 0.64935,5.11584 z m 16.057205,-4.75363 c 0,0 -1.335976,0 -3.123162,0.15388 -0.420048,1.64173 -1.324338,3.13345 -2.605249,4.29761 0.549008,0.84853 1.036669,1.73201 1.459567,2.64424 4.953506,-1.76971 4.274729,-7.09573 4.274729,-7.09573 z m 2.314904,18.80063 c -0.740664,3.3361 -0.202332,5.3932 0,7.7863 0,0 -10.426882,5.9867 -26.385996,5.9867 -0.429631,0 -0.871032,-0.028 -1.30851,-0.037 -1.395741,4.1641 -1.525252,8.5583 -1.075058,13.058 -1.242463,0.5969 -2.484926,0.5816 -3.727389,0 -2.411345,-4.1825 -4.847657,-8.365 -4.796564,-12.5475 -11.058386,0.9113 -21.499581,-0.029 -31.896647,-1.1017 l -1.844077,13.6492 c -1.354307,0.3138 -2.752829,0.5171 -4.439518,0 0,0 -9.44599,-19.0634 -4.547415,-34.16693 -1.088791,-0.72073 -2.232511,-1.53334 -3.282065,-2.38336 -1.006395,0.49731 -2.012791,0.77119 -2.942677,0.72246 -3.0917711,-0.16021 -5.5655809,-2.38971 -5.8421926,-2.64493 L 6.63997,986.26005 c 0.5100631,0.46918 2.1991593,1.71342 3.821556,1.79599 0.111618,0.005 0.22343,-0.002 0.333502,-0.0206 -0.335866,-0.37939 -0.637122,-0.78561 -0.9004586,-1.21422 -1.1084081,-1.84478 -1.3732481,-3.81342 -0.753325,-5.40297 0.5436652,-1.33727 1.6948306,-2.36457 3.1270836,-2.79063 2.214855,-0.71502 5.26739,-0.62869 6.8172,0.91958 0.576765,0.57614 1.420331,1.84666 0.588535,3.88473 -0.704281,1.74344 -2.128536,3.62951 -3.798014,5.08957 0.563033,0.43164 1.1653,0.86516 1.783262,1.28923 1.855848,-3.91283 4.873072,-7.42787 9.518577,-10.089 7.340618,-4.23397 15.754467,-6.46104 24.326122,-6.43891 8.244984,0.0219 16.360685,1.96184 23.647347,5.65257 -0.552596,0.54151 -1.062117,1.12177 -1.524307,1.73593 -1.490956,2.00243 -1.897044,3.84533 -1.206496,5.47805 0.559108,1.31369 2.006904,2.89384 5.736257,2.89384 1.012602,-0.0101 2.023045,-0.0917 3.023109,-0.24396 1.633322,-0.21134 3.221985,-0.66599 4.708282,-1.34746 3.08981,4.82685 3.378192,11.01056 5.492995,11.44782 2.509122,0.51036 5.15753,1.18979 5.15753,1.18979 z M 16.754928,982.35002 c 0.08435,-0.21018 0.205987,-0.58364 0.06278,-0.72627 -0.258956,-0.25899 -0.943617,-0.42413 -1.749912,-0.42413 -0.610014,-0.003 -1.216664,0.0866 -1.796993,0.26648 -0.61404,0.19706 -1.004433,0.52735 -1.194727,1.00967 -0.28642,0.74128 -0.09025,1.80537 0.539491,2.85068 0.267845,0.42241 0.582929,0.8157 0.939694,1.17292 1.306548,-1.09222 2.587593,-2.63486 3.199667,-4.14935 z m 64.96252,15.30435 c -4.6e-5,-1.51321 -1.912412,-2.27071 -3.030777,-1.20082 -1.118366,1.06988 -0.32646,2.89927 1.255363,2.89927 0.980555,0 1.775443,-0.76043 1.775414,-1.69845 z"
       clip-path="false"
       filter="0"
       id="path4147"
       sodipodi:nodetypes="ccccccccccccccccccccccccccsccccccccccccccccccccccccccccccccccccccccssss" />
  </g>
</svg>
